<?xml version="1.0" encoding="UTF-8"?>
<svg id="Lag_1" data-name="Lag 1" xmlns="http://www.w3.org/2000/svg" viewBox="0 0 380.99 338.05">
  <defs>
    <style>
      .cls-1 {
        fill: none;
      }

      .cls-1, .cls-2 {
        stroke: #fffaec;
        stroke-miterlimit: 10;
        stroke-width: 4px;
      }

      .cls-2 {
        fill: rgba(221, 77, 52, .26);
      }
    </style>
  </defs>
  <path class="cls-2" d="M53.36,63.38c-2.35-7.16-.46-14.9,4.8-19.68,6.26-5.69,14.31-4.5,15.36-4.32-.05-1.51,3.01-11.32,14.36-19.68,11.03-8.13,37.02,0,37.02,0,0,0,9.67-3.35,17.28-3.36,8.99-.02,15.92,2.58,19.68,4.32,1.05-2.43,5.74-12.56,16.8-16.8,11.94-4.58,26.44-.45,36.01,10.56,21.46-9.18,44.7-7.2,60.02,5.76,8.98,7.6,13.02,17.09,14.88,23.05,12.73-5.89,27.7-3.09,36.97,6.72,10.25,10.85,11.42,28.07,2.4,40.81.6.79,11.64,15.97,5.28,31.69-5.78,14.28-23.46,22.89-41.44,18.13-1.34,9.18-7.67,16.81-16.27,19.6-9.59,3.11-20.35-.33-26.66-8.62-.61.88-4.39,6.08-11.17,6.86-6.11.7-12.24-2.45-15.68-8.04-18.47-1.02-34.33,5.93-39.99,18.03-.74,1.58-4.65,9.34.05,17.94,3.59,6.56,10.07,11.91,14.26,12.64,28.02,4.84,73.13,2.85,87.39,4.14,32.13,2.91,43,3.54,56.69,8.4,10.67,3.79,21.55,9.6,29.4,20.39,3.49,4.8,9.14,12.54,8.04,22.93-1.45,13.74-13.53,21.07-14.7,21.76-5.75,3.36-17.46,9.3-27.43,11.91-11.61,3.04-19.91,5.32-31.91,5.68-88.82,2.7-60.68,1-76.05.66-1.13-.03-6.14-.13-20.54,2.62-9.52,1.82-15.21,3.69-19.67,7.87-2.7,2.53-9.16,6.82-10.49,13.11-2.37,11.2.8,14.9-1.69,17.15-1.97,1.79-9.62-1.99-13.72-7.84-.59-.85-4.26-6.25-3.33-13.53.36-2.83,1.6-7.45,7.45-13.33,9.93-9.99,22.92-13.3,31.95-15.09,13.01-2.58,22.83-2.86,41.95-3.33,22.16-.54,33.15-2.75,57.36-2.84,3.57-.01,14.32-1.49,26.46-5.33,5.54-1.76,17-3.42,22.07-9.4.69-.82,7.66-5.73,6.56-17.48-1.46-15.6-13.22-19.56-18.57-22.34-7.37-3.82-15.84-4.66-26.46-6.05-14.25-1.87-18.53-.88-35.28-.86-3.53,0-21.7-.77-46.52-2.08-35.91-1.89-38.08-3.65-41.85-4.32-19.57-3.49-28.54-9.24-38.83-20.04-12.16-12.77-13.35-30.2-13.13-39.4-5.78.31-14.69.08-24.89-3.14-8.23-2.59-14.53-6.25-18.82-9.21-8.44,10.42-22.49,14.34-34.7,9.8-11.1-4.12-18.86-14.57-19.8-26.66-15.39,5.76-29.83-2.74-31.95-11.96-2.08-9.06,6.82-22.7,22.74-24.7-.18-1.29-1.32-10.51,5.29-17.64,5.64-6.08,14.68-8.22,23.03-5.44Z"/>
  <path class="cls-1" d="M124.9,19.69c-2.12,2.83-5.49,8.11-6.97,15.53-1.04,5.24-.78,9.72-.34,12.78-3.81.67-24.71,4.7-36.95,23.83-11.45,17.9-4.39,48.92,8.11,68.15"/>
  <path class="cls-1" d="M161.87,20.65c-.5,1.27-5.32,14.08,1.64,24.24,7.06,10.3,23.45,13.86,37.64,5.87"/>
  <path class="cls-1" d="M289.58,43.21c1.62,3.35,7.62,16.71,3.08,33.1-3.99,14.39-13.68,22.4-16.92,24.86,1.27,1.3,6.9,7.3,6.56,15.88-.53,13.56-16.07,19.97-17.96,20.72-11.65,4.62-22.64.28-27.4-2.16-.97-.5-2.15.14-2.19,1.24-.09,2.28-.72,5.62-3.21,8.52-1.94,2.25-7.21,4.5-8.53,4.98"/>
  <path class="cls-1" d="M132.45,152.32c2.71-.57,11.83-2.86,18.22-11.39,3.48-4.65,4.79-9.35,5.34-12.2"/>
  <path class="cls-1" d="M154.3,82.79c-.84-.08-14.33-1.22-21.84,8.58-7.21,9.4-6.92,24.95,3.73,32.98,8.43,6.35,20.52,5.87,28.83-1.07,1.21-1.01,3.04-.64,3.66.8,2.37,5.47,7.54,9.2,13.26,9.42,6.81.26,12.27-4.53,14.49-9.72,2.26-5.28.85-10.19.38-11.63"/>
  <path class="cls-1" d="M275.74,101.18c-1.01-.67-6.26-4.03-13.18-2.65-7.73,1.54-11.36,7.75-11.88,8.67"/>
</svg>