<?xml version="1.0" encoding="UTF-8"?>
<svg id="Lag_1" data-name="Lag 1" xmlns="http://www.w3.org/2000/svg" viewBox="0 0 388.69 228.86">
  <defs>
    <style>
      .cls-1 {
        fill: #e34b28;
        opacity: .23;
        stroke: #fffaec;
        stroke-miterlimit: 10;
        stroke-width: 4px;
      }
    </style>
  </defs>
  <path class="cls-1" d="M164.89,104.23c1.55-10.32,10.31-17.86,20.08-17.85,12.45,0,18.64,12.26,20.08,18.97.5,2.31,1.47,6.82-1.12,9.83-2.81,3.28-8.95,3.77-15.22.88-.93,1.61-10.88,18.13-30.44,19.85-15.21,1.34-32.04-6.57-38.16-21.17-3.51-8.38-2.4-16.34-1.54-20.29-13.68-4.27-20.99-16.51-18.97-25.14,2.33-9.97,17.96-18.71,34.19-11.91,5.34,3.45,13.12,7.17,21.39,5.51,9.32-1.86,10.75-8.83,20.51-14.56,12.89-7.55,30.58-7.21,44.11-.66,13.17,6.38,19.74,17.34,22.28,22.28,1.9.35,30.22,6,40.58,32.2,1.34,3.4,10.37,24.19-.22,37.94-9.72,12.62-33.04,15.59-54.48,3.09-5.12-1.37-13.31-2.95-23.16-1.98-12.38,1.21-18.55,5.59-35.07,11.03-9.05,2.98-19.5,6.42-28.01,7.06-8.61.65-28.14-.6-53.81-27.57-32.65,6.32-61.09-18.06-61.98-44.55-.04-1.11-.03-2.21.03-3.32,1.23-23.43,23.44-46.03,52.68-45.87C102.11,10.99,121.36,5.5,134.46,5.35c23.19-.27,30.51,16.17,56.24,15.22,25.52-.94,31.67-17.6,53.37-18.53,14.16-.6,34.49,5.51,60.21,36.83,7.14-.17,54.45-.88,74.11,20.95,2.3,2.56,6.67,7.53,7.94,15,2.46,14.41-8.58,26.56-11.91,30.22-7.63,8.39-16.56,12.28-22.28,14.12.67,1.19,14.86,27.25,1.98,49.4-12.17,20.94-43.6,29.94-71.46,15.66-1.57,2.37-30.7,44.65-81.6,42.57-41.91-1.71-66.26-32.16-69.7-36.61-45.23,30-100.46,16.91-120.64-16.98C-3.35,149.55-.02,116.38,18.01,89.38l7.97-5.52"/>
</svg>