<?xml version="1.0" encoding="UTF-8"?>
<svg id="Lag_1" data-name="Lag 1" xmlns="http://www.w3.org/2000/svg" viewBox="0 0 613.86 239.5">
  <defs>
    <style>
      .cls-1 {
        fill: #dd4d34;
        stroke: #fffaec;
        stroke-miterlimit: 10;
        stroke-width: 4px;
      }

      .cls-2 {
        opacity: .23;
      }
    </style>
  </defs>
  <g class="cls-2">
    <path class="cls-1" d="M262.59,85.46c-1.14-11.78,3.68-24.83,12.39-28.41,13.69-5.62,27.8,1.63,34.06,9.59,11.26,14.3,6.53,32.1,5.66,35.37-4.28,16.09-16.39,24.57-19.81,26.88-24.83,16.82-55.4,4.26-58.72,2.83-2.91-1.25-28.18-12.31-37.56-38.93-.69-1.97-2.11-6.04-2.76-11.29-3.16-25.31,14.3-53.49,37.49-67.91,30.13-18.73,62.51-9.75,72.16-7.07,10.79,2.99,37.45,9.46,51.64,33.25,4.02,6.73,6.01,13.1,7.07,17.69,1.87-1.76,20.47-18.72,44.57-13.44,14.02,3.07,33.66,14.49,34.66,33.25.79,14.79-10.46,25.5-12.73,27.59,26.76-3.87,37.6,1.66,42.45,7.78,4.22,5.33,3.39,10.47,9.9,17.69.83.92,9.26,10.01,21.93,12.03,14.05,2.24,25.89-7.92,39.62-19.1,14.12-11.5,13.27-15.35,21.22-18.39,20.08-7.68,47.16,8.57,45.98,14.15-.63,2.96-17.23-4.72-30.42,3.54-11.46,7.17-5.11,22.65-15.56,33.25-7.79,7.89-19.71,8.95-29.01,8.49,2.52,12.51-3.17,25.33-14.15,31.84-10.95,6.49-24.9,5.35-34.66-2.83-.96,2.84-8.72,24.47-30.42,31.84-20.46,6.94-44.77-1.71-58.72-21.93-11.94,20.99-33.99,33.86-57.3,33.25-29.34-.76-46.55-22.5-48.81-25.47-5.25,12.4-17.61,20.07-30.42,19.1-11.03-.83-20.84-7.95-25.47-18.39-3.06,4.32-16.76,22.65-39.62,25.47-26.74,3.29-55.37-15.96-66.5-48.11-4.08-1.62-10.3-3.45-17.69-2.83-11.11.94-15.94,6.68-32.54,14.86-13.57,6.69-20.36,10.03-25.47,9.2-13.12-2.14-27.56-18.29-32.54-29.01-.65-1.4-1.9-4.34-4.95-6.37-6.53-4.33-15.23-.4-15.56-1.42-.37-1.11,9.06-8.56,21.93-9.2,17.77-.88,23.12,12.14,35.37,9.2,2.09-.5,4.47-1.49,23.35-23.35,12.43-14.4,13.59-16.5,17.69-18.39,6.43-2.97,17.28-4.1,36.08,6.37,1.07-4.22,6.6-24.16,26.18-35.37,10.85-6.22,31.06-8.27,36.62-8.29"/>
    <path class="cls-1" d="M488.02,193.27c-.61-.46-8.25-6.42-7.6-16.09.42-6.33,4.32-13.35,11.5-15.66,5.21-1.67,12.55-.98,16.94,4.47,5.04,6.28,2.42,14.18,2.24,14.7"/>
    <path class="cls-1" d="M375.47,173.66c1.19,2.97,5.94,13.85,17.89,19.61,13.89,6.69,27.18,1.5,31.31-.12,13.77-5.37,20.58-16.14,22.69-19.81"/>
    <path class="cls-1" d="M292.77,210.96c-2.99-2.94-16.99-17.31-16.85-39.21.1-16.72,8.39-28.19,12.14-33.23,3.69-4.96,20.86-26.49,48.25-25.88,4.52.1,30.48,1.28,40.9,21.41.4.77,9.62,19.31-.64,34.83-7.14,10.81-19.15,13.22-23.33,14.06-6.38,1.28-17.39,3.49-25.24-3.83-6.46-6.03-8.83-16.71-4.79-24.92.57-1.16,4.1-8.02,11.82-9.91,4.34-1.06,11.38-.89,15.02,3.83.45.58,2.95,3.97,1.92,7.99-.99,3.85-4.7,6.23-7.99,6.71-1.75.26-3.23-.04-4.15-.32"/>
    <path class="cls-1" d="M136.42,138.09c-.47,3.09-2.24,16.98,6.88,28.57,10.61,13.5,30.49,16.92,44.16,10.01,2.11-1.06,13.12-6.63,15.02-18.21.16-.96,2.04-13.71-7.28-20.03-5.08-3.45-11.77-3.82-17.3-1.37-5.59,2.48-9.52,7.66-10.47,13.2-.38,2.21-.22,4.12,0,5.46"/>
    <path class="cls-1" d="M130.77,189.03c5.37,4.7,16.49,13.17,33.02,17.24,9.44,2.32,20.52,5.42,33.23.91,10.67-3.78,17.31-10.99,20.49-15.02"/>
  </g>
</svg>