<?xml version="1.0" encoding="UTF-8"?>
<svg id="Lag_1" data-name="Lag 1" xmlns="http://www.w3.org/2000/svg" viewBox="0 0 357.59 200.14">
  <defs>
    <style>
      .cls-1 {
        opacity: .23;
      }

      .cls-1, .cls-2, .cls-3 {
        stroke: #fffaec;
        stroke-miterlimit: 10;
        stroke-width: 4px;
      }

      .cls-1, .cls-3 {
        fill: none;
      }

      .cls-2 {
        fill: rgba(221, 77, 52, .29);
      }
    </style>
  </defs>
  <path class="cls-1" d="M278.89,56.4c-3.53,2.31-9.53,6.95-14.1,14.87-6.06,10.51-5.9,20.39-5.83,22.54.12,3.45.39,9.58,4.05,16.22,4.77,8.66,12.18,12.53,14.95,13.94,2.73,1.38,12.97,6.37,25.34,3.04,3.9-1.05,13.55-3.65,18.24-12.92,3.89-7.68,1.96-15.17,1.52-16.72-.75-2.66-2.96-10.53-10.64-13.68-7.45-3.06-14.31.65-14.95,1.01-4.56,2.57-6.57,6.53-7.35,8.11-1.98,4.04-2.1,7.75-2.03,9.63"/>
  <path class="cls-1" d="M181.59,157.58c-3.99-3.2-11.36-10.05-15.62-21.2-1.66-4.34-8.53-22.35,1.77-38.26,8.69-13.42,23.26-16.16,25.09-16.47,13.36-2.26,27.46,3.01,35.47,13.43,1.83,2.38,9.72,12.64,6.33,24.33-.47,1.64-3.07,9.86-11.4,13.68-1.52.7-10.31,4.5-17.74-.51-1.08-.73-7.5-5.27-6.84-12.67.61-6.88,6.81-10.35,7.35-10.64"/>
  <path class="cls-2" d="M154.86,59.15c3.2-22.43,23.09-38.42,44.35-37.03,23.04,1.51,41.47,23.04,38.86,47.55,7.52-5.65,17.19-6.99,24.69-3.2,10.29,5.2,15.37,19.48,9.6,32.46,5.5-.66,12.44-.45,17.83,3.66,4.78,3.64,5.38,8.07,11.43,27.43,5.55,17.77,7.24,21.07,8.23,22.86,5.02,9.09,11.57,14.43,17.83,19.66,16.17,13.5,28.63,16.48,27.89,20.57-.58,3.21-8.93,5.19-16.46,5.03-24.78-.54-47.64-24.51-72.24-50.29-4.33-4.54-9.26-9.93-17.83-13.72-3.52-1.56-18-7.63-34.75-2.29-12.09,3.86-19.39,11.75-22.4,15.09-8.75,9.69-6.95,14.67-16.46,24.69-5.44,5.73-11.29,11.9-19.66,12.34-13.02.69-22.26-13.02-23.32-14.63-9.46,17.22-26.71,28-43.89,26.97-23.83-1.43-45.45-25.44-43.89-55.78-20.83,1.29-38.61-12.21-42.06-29.72-2.57-13.03,3.07-26.95,14.17-36.12-6.76-7.31-7.79-18.12-2.74-26.06,5.66-8.92,17.78-12.32,27.89-7.31-1.13-21.27,15.97-39.21,36.58-39.32,19.91-.11,36.86,16.46,37.03,37.03,4.71.06,14.49.83,24.69,6.86,7.38,4.36,12.04,9.74,14.63,13.26Z"/>
  <path class="cls-3" d="M154.86,59.15c.37,1.99,3.44,17.15,17.48,24.22.91.46,19.53,9.5,30.78-1.64,8.26-8.18,8.95-23.67,1.23-30.78-4.17-3.85-11.38-5.78-17.24-3.28-1.24.53-6.02,2.79-7.39,7.8-.23.83-1.59,5.82,1.64,8.62,2.71,2.35,6.56,1.35,6.98,1.23"/>
  <path class="cls-3" d="M159.66,71.44c-.44,4.98-2.11,15.44-9.89,25.06-2.78,3.44-7.68,9.5-16.42,12.31-12.39,3.99-23.31-1.51-25.86-2.87-14.9,12.16-33.69,12.08-43.1,2.87-8.29-8.11-7.09-21.15-6.98-22.17.25-2.37,1.44-13.51,11.08-19.7,2.11-1.36,8.57-5.01,16.83-3.28,9.92,2.08,14.53,10.28,15.19,11.49"/>
  <path class="cls-3" d="M141.06,105c5.67,12.41,11.97,16.16,16.5,17.36,9.66,2.58,15.06-5.35,36.53-10.67,10.89-2.7,19.74-3.2,24.63-3.28,7.49-.13,19.27-.34,31.61,4.51,10.29,4.05,16.31,9.87,27.91,21.34,16.98,16.79,17.73,22.92,30.78,34.89,6.15,5.64,16.05,13.51,30.78,20.52"/>
</svg>