<?xml version="1.0" encoding="UTF-8"?><svg xmlns="http://www.w3.org/2000/svg" width="1938.29" height="1081.82" xmlns:xlink="http://www.w3.org/1999/xlink" viewBox="0 0 1938.29 1081.82"><defs><style>.cls-1{fill:#efefef;stroke:#c6cfd0;stroke-width:5px;}.cls-1,.cls-2,.cls-3,.cls-4,.cls-5,.cls-6,.cls-7,.cls-8,.cls-9,.cls-10,.cls-11,.cls-12,.cls-13,.cls-14,.cls-15,.cls-16,.cls-17,.cls-18,.cls-19,.cls-20,.cls-21,.cls-22,.cls-23,.cls-24,.cls-25,.cls-26,.cls-27,.cls-28,.cls-29,.cls-30,.cls-31,.cls-32,.cls-33,.cls-34,.cls-35,.cls-36,.cls-37,.cls-38,.cls-39,.cls-40,.cls-41,.cls-42,.cls-43,.cls-44,.cls-45,.cls-46,.cls-47{stroke-miterlimit:10;}.cls-2{stroke:#f3f68c;}.cls-2,.cls-3,.cls-4,.cls-5,.cls-6,.cls-7,.cls-8,.cls-9,.cls-23,.cls-24,.cls-25,.cls-26,.cls-27,.cls-28,.cls-29,.cls-30,.cls-31,.cls-45,.cls-46,.cls-47{fill:none;}.cls-2,.cls-3,.cls-4,.cls-5,.cls-6,.cls-7,.cls-8,.cls-9,.cls-32,.cls-33,.cls-34,.cls-35,.cls-36,.cls-37,.cls-38,.cls-39,.cls-40,.cls-41,.cls-42,.cls-43,.cls-44{stroke-width:3px;}.cls-3{stroke:#6b6b6b;}.cls-4{stroke:#939496;}.cls-5,.cls-39{stroke:#ad71bc;}.cls-6,.cls-44{stroke:#5f8ea5;}.cls-7{stroke:#958bb5;}.cls-8{stroke:#749596;}.cls-9{stroke:#a59f9b;}.cls-48{fill:url(#Ikke-navngivet_forløb_86);}.cls-48,.cls-49,.cls-50,.cls-51,.cls-52,.cls-53,.cls-54,.cls-55,.cls-56,.cls-57,.cls-58,.cls-59,.cls-60,.cls-61,.cls-62,.cls-63,.cls-64,.cls-65,.cls-66,.cls-67,.cls-68,.cls-69,.cls-70,.cls-71,.cls-72{stroke-width:0px;}.cls-10{fill:#b79494;}.cls-10,.cls-23,.cls-24,.cls-25{stroke-width:2px;}.cls-10,.cls-24,.cls-43{stroke:#f1bb47;}.cls-11{fill:#b7dde2;}.cls-11,.cls-12,.cls-13,.cls-14,.cls-16,.cls-26{stroke-width:4px;}.cls-11,.cls-32{stroke:#577776;}.cls-12,.cls-37{fill:#ddd1b8;stroke:#aaa397;}.cls-13{fill:#d1cbd8;}.cls-13,.cls-26{stroke:#6d6d67;}.cls-14{fill:#defaff;stroke:#fff;}.cls-15{fill:#a4a7df;stroke:#8087c9;}.cls-15,.cls-45{stroke-width:9px;}.cls-16{stroke:#faffb9;}.cls-16,.cls-50{fill:#f9ce49;}.cls-17{fill:#e2eabf;stroke:#291c1b;}.cls-17,.cls-47{stroke-width:.5px;}.cls-18{fill:#dbb8dd;}.cls-18,.cls-19,.cls-21,.cls-23,.cls-29,.cls-46{stroke:#000;}.cls-18,.cls-19,.cls-46{stroke-width:.25px;}.cls-19{fill:#d1f0f2;}.cls-20,.cls-22{stroke:#a6cec0;}.cls-20,.cls-61{fill:#bcdacf;}.cls-21{fill:#c4dfd4;}.cls-22{fill:#bbddd2;}.cls-25{stroke:#ffe7bc;}.cls-27{stroke:#3f3f3f;}.cls-28{stroke:#141412;}.cls-30{stroke:#2b1b1b;}.cls-31{stroke:#768080;}.cls-32{fill:#a0bab9;}.cls-33{fill:#c2afc7;stroke:#a585b0;}.cls-34{fill:#afc4d3;}.cls-34,.cls-41{stroke:#8ea5ba;}.cls-35{fill:#d7e18d;stroke:#c5cc79;}.cls-36{fill:#b2d19e;stroke:#839b78;}.cls-38{fill:#c7c9b1;stroke:#a4a58c;}.cls-39{fill:#d080d3;}.cls-40{fill:#8869f2;stroke:#8869f2;}.cls-41,.cls-42{fill:#b8b1d3;}.cls-42{stroke:#c4b2f6;}.cls-43{fill:#f5ca5c;}.cls-44{fill:#97bdce;}.cls-45{stroke:#a4a4a4;}.cls-51{fill:#f7e5bf;}.cls-52{fill:#515151;}.cls-53{fill:#353534;}.cls-54{fill:#474949;}.cls-55{fill:#9ab5dd;}.cls-56{fill:#86bcbc;}.cls-57{fill:#262626;}.cls-58{fill:#cfd3d3;}.cls-59{fill:#d34c4c;}.cls-60{fill:#afafae;}.cls-62{fill:#afa184;}.cls-63{fill:#999;}.cls-64{fill:#7cb27c;}.cls-65{fill:#9bc4d1;}.cls-66{fill:#92a06e;}.cls-67{fill:#919190;}.cls-68{fill:#ee9a42;}.cls-69{fill:#eda6b4;}.cls-70{fill:#fff;}.cls-71{fill:#fff5f5;}.cls-72{fill:#e4aab5;}.cls-47{stroke:#e8c370;}</style><linearGradient id="Ikke-navngivet_forløb_86" x1="361.24" y1="518.95" x2="517.63" y2="518.95" gradientUnits="userSpaceOnUse"><stop offset="0" stop-color="#cefffb"/><stop offset=".37" stop-color="#d1d8ff"/><stop offset=".73" stop-color="#f4eaff"/><stop offset="1" stop-color="#ddffe8"/></linearGradient></defs><g id="baggrund"><g id="vægge"><rect class="cls-21" x="-.16" y="8.1" width="1928" height="1077"/><path class="cls-42" d="m1924.34,1079.32H1.46c.67-126-1.67-246-1-372,105.21-5,202.63-22.61,321.65-34,49.69-4.76,101.05-8.5,157.32-15,23.84-2.75,50.1-7,74.15-9,7.17-.6,15.32-3.25,22.04-2,70.14,13,140.37,24.38,202.41,36,116.99,21.91,220.33,39.82,346.7,64,167.97,32.14,327.43,58.72,469.95,83,123.25,21,234.47,46,329.66,63v186Z"/><path class="cls-26" d="m579.18,646.45c449.82,81.37,898.82,165.37,1348.82,247.31"/><path class="cls-26" d="m580.03,377.36c-.03,90.46,1.97,179.46,1.15,269.52,0-2.37,0,0,0,0-.18-89.06-.18-177.06,0-266.27"/><line class="cls-26" x1="581.18" y1="646.88" x2=".34" y2="707.29"/><polygon class="cls-13" points=".34 2.32 .84 289.73 577.44 383.82 1927.5 2.32 .34 2.32"/><path class="cls-21" d="m1591.34,798.6s-.5-.5,0,0"/><path class="cls-34" d="m1110.28,810.39v-113.9l103.69-28.43c52.95,7.35,105.91,14.69,158.86,22.04v109c-25.67,16.67-51.33,33.33-77,50-61.85-12.9-123.7-25.8-185.55-38.71Z"/><polyline class="cls-34" points="1110.28 696.49 1293.83 720.74 1372.84 690.1"/><g id="terrarie"><path class="cls-54" d="m1331.51,681.86c0,4.54.01,9.1.01,13.65-17.23,6.41-34.47,12.83-51.7,19.24-44.93-6.78-89.86-13.56-134.8-20.34v-10.88l1.2-.04,136.47,10.46,48.82-12.08Z"/><path class="cls-58" d="m1300.71,672.45h-2.38l-45.38-6.77c-6.93.38-13.84.76-20.75,1.13-9.43-.83-17.24-1.07-22.84-1.13-10.73-.1-16.09-.16-19.24,1.13-7.3,2.97-12.1,8.98-18.04,7.89-.81-.14-2.65-.6-4.81,0-2.28.65-3.84,2.16-4.81,3.39-3.32-.9-6.69.02-8.42,2.25-1.39,1.79-1.27,2.69-1.2,3.38l128.65,9.03,45.69-11.28c-.58-1.27-2.21-4.46-6.01-6.77-4.71-2.86-9.51-2.42-10.82-2.25h-9.64Zm30.7-86.61c.04,31.99.07,64.01.11,96.02l-48.82,12.08-136.47-10.46-1.2.04v-102.6l136.47,6.61,49.91-1.7Z"/><path class="cls-54" d="m1331.39,577.31c0,2.84.01,5.69.01,8.52l-49.91,1.7-136.47-6.61v-10.82h138.61l47.76,7.21Z"/><path class="cls-51" d="m1300.71,672.45h9.64c1.31-.17,6.11-.61,10.82,2.25,3.8,2.31,5.43,5.49,6.01,6.77l-45.69,11.28-128.65-9.03c-.07-.69-.19-1.59,1.2-3.38,1.73-2.22,5.1-3.15,8.42-2.25.97-1.23,2.52-2.74,4.81-3.39,2.16-.6,4-.14,4.81,0,5.94,1.09,10.74-4.92,18.04-7.89,3.15-1.29,8.51-1.23,19.24-1.13,5.6.06,13.42.3,22.84,1.13,6.91-.37,13.83-.75,20.75-1.13l45.38,6.77h2.38Z"/><polyline class="cls-3" points="1145.03 580.92 1281.5 587.53 1331.41 585.84"/><path class="cls-3" d="m1145.03,580.92v-10.82h138.61l47.76,7.21c0,2.84.01,5.69.01,8.52.04,31.99.07,64.01.11,96.02,0,4.54.01,9.1.01,13.65-17.23,6.41-34.47,12.83-51.7,19.24-44.93-6.78-89.86-13.56-134.8-20.34v-113.48Z"/></g><line class="cls-3" x1="1203.9" y1="665.63" x2="1203.9" y2="583.77"/><path class="cls-27" d="m1305.54,678.91c1.92-3.57,2.35-6.49,2.4-8.42.14-4.88-1.94-7.35-1.2-12.02.43-2.72,1.59-4.79,2.4-6.01"/><path class="cls-27" d="m1305.54,678.91c-.86-4-2.36-6.68-3.61-8.42-1.37-1.91-2.1-2.21-2.4-3.61-.69-3.21,2.43-4.92,2.4-8.42,0-1.37-.5-3.45-3.12-6.01"/><path class="cls-27" d="m1305.54,678.91c2.07-.08,4.65-.54,6.01-2.4,1.1-1.51.73-3.05,1.2-6.01.29-1.8.91-4.3,2.4-7.21"/><line class="cls-3" x1="1281.49" y1="587.53" x2="1281.49" y2="693.94"/><path class="cls-27" d="m1305.54,678.91c-1.57-.57-4.55-1.89-7.21-4.81-2.05-2.25-3.08-4.55-3.61-6.01"/><path class="cls-27" d="m1305.54,678.91c-.91.22-4.74,1.02-8.42-1.2-1.92-1.16-3.03-2.68-3.61-3.61"/><path class="cls-66" d="m1308.55,653.06c-.24-.74-.57-2.16,0-3.61,1.13-2.85,4.84-3.42,6.01-3.61,2.26-.35,4.19.14,5.41.6-.37.78-2.79,5.63-7.82,6.61-1.37.27-2.61.19-3.61,0Z"/><path class="cls-66" d="m1313.02,663.5c0-.77.1-2.23,1.09-3.44,1.93-2.37,5.65-1.81,6.82-1.63,2.26.34,3.95,1.39,4.98,2.2-.59.63-4.36,4.53-9.44,3.95-1.39-.16-2.55-.61-3.44-1.09Z"/><path class="cls-66" d="m1294.12,657.87c.39.02,2.39,0,4.81-4.81,4.74-.63,7.15-1.44,7.21-2.4.11-1.57-5.9-3.57-18.04-6.01.88,7.9,3.38,13.11,6.01,13.23Z"/><path class="cls-66" d="m1290.95,671.5c.26.01,1.6,0,3.21-3.21,3.16-.42,4.77-.96,4.81-1.6.07-1.05-3.93-2.38-12.03-4.01.59,5.27,2.26,8.75,4.01,8.82Z"/><path class="cls-66" d="m1289.59,674.98c0-.34.05-.99.48-1.53.86-1.06,2.51-.8,3.03-.73,1.01.15,1.76.62,2.21.98-.26.28-1.94,2.01-4.2,1.76-.62-.07-1.13-.27-1.53-.48Z"/><path class="cls-63" d="m1261.66,669.9c3.11-.18,6.62,5.72,6.01,10.82-.02.19-.06.41-.1.63-.63.12-1.31.25-2.08.38-3.31.59-5.92,1.06-7.65.28-.55-1.15-.93-2.42-1-3.69-.23-3.87,2.21-8.27,4.81-8.42Z"/><path class="cls-60" d="m1272.26,673.43c.23.5,1.37,3.25.01,5.54-.82,1.36-2.22,1.86-4.7,2.37.04-.22.07-.43.1-.63.61-5.1-2.9-11-6.01-10.82-2.6.14-5.04,4.54-4.81,8.42.07,1.27.44,2.54,1,3.69-.41-.19-.78-.44-1.09-.79-1.14-1.27-1-3.1-.91-4.1.24-3.05,2.34-7.3,6.77-8.3,3.92-.88,8.16,1.27,9.65,4.62Z"/><path class="cls-67" d="m1241.51,680.48c-.05.37-.19.76-.48,1.1-.56.65-1.43.65-3.11.65-1.8,0-3.14-.01-3.69-.9-.27-.45-.25-.96-.18-1.38.34-.17.73-.31,1.15-.43,1.51-.41,2.75-.18,3.61,0,1.03.21,1.93.57,2.7.96Z"/><path class="cls-60" d="m1241.45,679.21c.04.14.15.67.06,1.27-.76-.4-1.66-.75-2.7-.96-.85-.18-2.09-.41-3.61,0-.43.12-.82.26-1.15.43.03-.17.07-.32.11-.44.34-1.28,1.57-2.93,3.54-3.01,1.74-.07,3.38,1.18,3.76,2.72Z"/><path class="cls-62" d="m1211.16,626.61c8.74,13,13.77,23.59,16.83,31.26,1.93,4.83,4.41,11.84,10.82,14.43,3.72,1.5,7.45.99,9.95.35-6.13-7.65-9.34-14.55-11.15-19.59-3.54-9.87-1.66-12.43-6.01-20.44-1.25-2.3-3.43-5.81-3.61-10.82-.06-1.83-.16-4.47,1.2-7.21,2.95-5.96,10.13-7.18,9.62-9.62-.13-.6-.68-1.12-1.2-1.2-1.16-.18-2.06,1.9-3.61,3.61-1.12,1.23-2.93,2.67-6.01,3.61-1.04-1.51-1.24-2.72-1.2-3.61.05-1.06.46-2.02,0-2.4-.35-.3-1-.09-1.2,0-.65.28-1.84,1.61,0,14.43.82,5.7,1.25,8.62,2.4,12.02,1.25,3.69,1.82,3.82,3.61,8.42,1.71,4.39,1.54,5.17,3.61,12.02,2.9,9.61,4.88,13.53,3.61,14.43-1.02.72-3.38-1.04-3.61-1.2-2.57-1.91-3.32-4.93-3.61-6.01-1.55-5.79-4.65-10.5-9.62-18.04-2.38-3.61-3.96-5.32-6.01-9.62-1.18-2.48-1.95-4.61-2.4-6.01-.8.4-1.6.8-2.4,1.2Z"/><path class="cls-62" d="m1244.08,666.89c6.47-2.22,9.81-5.56,11.56-7.82,1.74-2.25,2.17-3.8,6.01-16.83,3.32-11.27,3.46-11.69,3.61-13.23.82-8.46-1.96-9.97,0-15.63,1.47-4.26,3.51-4.77,6.01-10.82,1.42-3.43,2.07-6.44,2.4-8.42.04-2.1,1.29-3.57,2.4-3.61,1.34-.04,2.57,2.01,2.4,3.61-.15,1.43-1.33,1.79-2.4,3.61-1.11,1.89-1.08,3.62-1.2,4.81-.56,5.47-5.15,7.31-7.21,13.23-1.71,4.9.98,4.98,0,13.23-.79,6.64-2.54,6.72-3.61,14.43-.84,6.07.13,6.89-1.2,10.82-1.3,3.83-3.33,6.33-6.01,9.62-1.87,2.29-4.7,5.4-8.7,8.56"/><path class="cls-62" d="m1262.86,643.44c-.57,2-.95,2.42-1.2,2.4-.76-.05-.19-4.11-2.4-8.42-.74-1.45-1.7-2.57-3.61-4.81-2.16-2.54-3.24-3.81-4.81-4.81-3.09-1.97-4.73-1.07-7.21-2.4-1.88-1.01-4.14-3.25-5.41-8.77.6-.68,1.2-1.37,1.8-2.05,1.04,5.58,3.08,7.62,4.81,8.42,2.16,1,3.56-.08,6.01,1.2,2.05,1.07,1.86,2.24,4.81,6.01,3.22,4.13,4.67,4.29,6.01,7.21,1.07,2.32,1.23,4.54,1.2,6.01Z"/><path class="cls-62" d="m1238.81,659.07c.18-.59.52-1.49,1.2-2.4.91-1.21,1.64-1.41,2.4-2.4.79-1.03.96-2.06,1.2-3.61.41-2.61-.07-3.46,0-6.01.08-3.19.93-6.04,1.2-6.01.18.02.31,1.29,0,7.21.13,1.48.29,5.68-2.4,9.62-1.18,1.73-2.55,2.88-3.61,3.61Z"/><path class="cls-66" d="m1181.07,615.64c-2.03-1.44-3-3.94-2.47-6.31.48-2.16,2.15-3.9,4.32-4.52.36.42,1.91,2.34,1.73,5.11-.24,3.65-3.28,5.55-3.57,5.73Z"/><path class="cls-66" d="m1181.53,625.02c-.87-2.33-.27-4.95,1.5-6.61,1.61-1.52,3.97-2.02,6.11-1.32.06.55.27,3.01-1.44,5.2-2.25,2.89-5.83,2.75-6.17,2.73Z"/><path class="cls-66" d="m1173.34,616.62c2.47-.33,4.88.84,6.11,2.93,1.12,1.91,1.09,4.32-.07,6.25-.55-.06-2.99-.41-4.75-2.56-2.31-2.83-1.38-6.3-1.29-6.62Z"/><path class="cls-66" d="m1181.33,638.39c-.87-2.33-.27-4.95,1.5-6.61,1.61-1.52,3.97-2.02,6.11-1.32.06.55.27,3.01-1.44,5.2-2.25,2.89-5.83,2.75-6.17,2.73Z"/><path class="cls-66" d="m1180.17,638.39c.87-2.33.27-4.95-1.5-6.61-1.61-1.52-3.97-2.02-6.11-1.32-.06.55-.27,3.01,1.44,5.2,2.25,2.89,5.83,2.75,6.17,2.73Z"/><path class="cls-66" d="m1181.01,650.88c.87-2.33.27-4.95-1.5-6.61-1.61-1.52-3.97-2.02-6.11-1.32-.06.55-.27,3.01,1.44,5.2,2.25,2.89,5.83,2.75,6.17,2.73Z"/><path class="cls-66" d="m1182.4,662.91c.87-2.33.27-4.95-1.5-6.61-1.61-1.52-3.97-2.02-6.11-1.32-.06.55-.27,3.01,1.44,5.2,2.25,2.89,5.83,2.75,6.17,2.73Z"/><path class="cls-66" d="m1181.41,661.7c-.87-2.33-.27-4.95,1.5-6.61,1.61-1.52,3.97-2.02,6.11-1.32.06.55.27,3.01-1.44,5.2-2.25,2.89-5.83,2.75-6.17,2.73Z"/><path class="cls-66" d="m1181.21,650.88c-.87-2.33-.27-4.95,1.5-6.61,1.61-1.52,3.97-2.02,6.11-1.32.06.55.27,3.01-1.44,5.2-2.25,2.89-5.83,2.75-6.17,2.73Z"/><path class="cls-66" d="m1153.61,627.17c1.65-1.86,4.24-2.57,6.54-1.79,2.1.71,3.65,2.55,4.04,4.77-.46.31-2.53,1.65-5.26,1.18-3.6-.62-5.17-3.85-5.32-4.16Z"/><path class="cls-66" d="m1166.23,619.56c2.16,1.23,3.38,3.62,3.09,6.03-.26,2.2-1.74,4.1-3.84,4.93-.4-.38-2.14-2.14-2.23-4.91-.13-3.66,2.71-5.85,2.98-6.06Z"/><path class="cls-66" d="m1170.73,628.94c2.16,1.23,3.38,3.62,3.09,6.03-.26,2.2-1.74,4.1-3.84,4.93-.4-.38-2.14-2.14-2.23-4.91-.13-3.66,2.71-5.85,2.98-6.06Z"/><path class="cls-66" d="m1158.36,637c1.65-1.86,4.24-2.57,6.54-1.79,2.1.71,3.65,2.55,4.04,4.77-.46.31-2.53,1.65-5.26,1.18-3.6-.62-5.17-3.85-5.32-4.16Z"/><path class="cls-66" d="m1161.97,647.83c1.65-1.86,4.24-2.57,6.54-1.79,2.1.71,3.65,2.55,4.04,4.77-.46.31-2.53,1.65-5.26,1.18-3.6-.62-5.17-3.85-5.32-4.16Z"/><path class="cls-66" d="m1176.32,639.84c1.96,1.53,2.83,4.07,2.2,6.41-.57,2.14-2.31,3.81-4.5,4.33-.34-.43-1.81-2.42-1.51-5.18.39-3.64,3.52-5.41,3.81-5.57Z"/><path class="cls-66" d="m1167.98,661.05c1.65-1.86,4.24-2.57,6.54-1.79,2.1.71,3.65,2.55,4.04,4.77-.46.31-2.53,1.65-5.26,1.18-3.6-.62-5.17-3.85-5.32-4.16Z"/><path class="cls-66" d="m1189.7,615.53c2.47-.33,4.88.84,6.11,2.93,1.12,1.91,1.09,4.32-.07,6.25-.55-.06-2.99-.41-4.75-2.56-2.31-2.83-1.38-6.3-1.29-6.62Z"/><path class="cls-66" d="m1154.83,615.53c2.47-.33,4.88.84,6.11,2.93,1.12,1.91,1.09,4.32-.07,6.25-.55-.06-2.99-.41-4.75-2.56-2.31-2.83-1.38-6.3-1.29-6.62Z"/><path class="cls-66" d="m1205.1,619.59c-2.13-1.29-4.81-1.19-6.78.24-1.79,1.3-2.73,3.52-2.44,5.76.53.16,2.91.82,5.38-.44,3.26-1.67,3.79-5.22,3.84-5.55Z"/><path class="cls-66" d="m1187.3,623.95c2.47-.33,4.88.84,6.11,2.93,1.12,1.91,1.09,4.32-.07,6.25-.55-.06-2.99-.41-4.75-2.56-2.31-2.83-1.38-6.3-1.29-6.62Z"/><path class="cls-66" d="m1203.57,628.01c-2.13-1.29-4.81-1.19-6.78.24-1.79,1.3-2.73,3.52-2.44,5.76.53.16,2.91.82,5.38-.44,3.26-1.67,3.79-5.22,3.84-5.55Z"/><path class="cls-66" d="m1187.3,638.37c2.47-.33,4.88.84,6.11,2.93,1.12,1.91,1.09,4.32-.07,6.25-.55-.06-2.99-.41-4.75-2.56-2.31-2.83-1.38-6.3-1.29-6.62Z"/><path class="cls-66" d="m1202.37,640.04c-2.13-1.29-4.81-1.19-6.78.24-1.79,1.3-2.73,3.52-2.44,5.76.53.16,2.91.82,5.38-.44,3.26-1.67,3.79-5.22,3.84-5.55Z"/><path class="cls-66" d="m1205.98,652.06c-2.13-1.29-4.81-1.19-6.78.24-1.79,1.3-2.73,3.52-2.44,5.76.53.16,2.91.82,5.38-.44,3.26-1.67,3.79-5.22,3.84-5.55Z"/><path class="cls-66" d="m1186.96,653.31c2.11-1.31,4.8-1.25,6.78.16,1.81,1.28,2.77,3.49,2.5,5.73-.53.17-2.9.86-5.38-.38-3.27-1.63-3.85-5.17-3.9-5.51Z"/><path class="cls-27" d="m1187.71,677.71c2.85-2.06,6.71-5.54,8.42-10.82,2.45-7.61-1.46-13.12-2.4-22.84-.51-5.24-.29-12.98,3.61-22.84"/><path class="cls-27" d="m1160.66,623c6.65,11.74,10.4,21.4,12.62,28.26.82,2.54,2.64,7.3,6.01,13.23,2.93,5.14,7.51,8.32,8.13,11.69.28,1.54.16,0,.13-.08-2.96-8.24-6.05-19.55-7.06-33.25-.66-9.01-.28-17.06.51-23.82.21-1.77.44-3.45.69-5.03"/><path class="cls-66" d="m1219.9,671.24l9.29.83c2.61-2.11,5.53-4.81,8.42-8.19,1.81-2.12,3.34-4.2,4.62-6.13-1.67.83-3.7,2.02-5.83,3.73-2.08,1.68-3.66,3.38-4.81,4.81.17-.96.5-2.23,1.2-3.61,1.14-2.22,2.68-3.61,3.64-4.34-.76.07-4.01.45-6.04,3.14-.64.85-1,1.71-1.2,2.4-.1-1.03-.13-2.25,0-3.61.21-2.29.8-4.16,1.35-5.52-1.08,1.03-2.68,2.84-3.76,5.52-.58,1.45-.86,2.77-.99,3.84-.47-2.88-.94-5.76-1.41-8.64-.43.87-.93,2.09-1.2,3.61-.37,2.01-.2,3.71,0,4.81-.61-1.47-1.39-3.1-2.4-4.81-.8-1.36-1.62-2.56-2.4-3.61-.16,1.21-.27,2.87,0,4.81.25,1.84.75,3.34,1.2,4.42-.83-1.31-1.99-2.87-3.61-4.42-1.05-1.01-2.09-1.83-3.02-2.47.46,1.51,1.05,3.15,1.82,4.87,1.58,3.54,3.45,6.38,5.14,8.56Z"/><path class="cls-66" d="m1241.47,676.81l9.29.83c2.61-2.11,5.53-4.81,8.42-8.19,1.81-2.12,3.34-4.2,4.62-6.13-1.67.83-3.7,2.02-5.83,3.73-2.08,1.68-3.66,3.38-4.81,4.81.17-.96.5-2.23,1.2-3.61,1.14-2.22,2.68-3.61,3.64-4.34-.76.07-4.01.45-6.04,3.14-.64.85-1,1.71-1.2,2.4-.1-1.03-.13-2.25,0-3.61.21-2.29.8-4.16,1.35-5.52-1.08,1.03-2.68,2.84-3.76,5.52-.58,1.45-.86,2.77-.99,3.84-.47-2.88-.94-5.76-1.41-8.64-.43.87-.93,2.09-1.2,3.61-.37,2.01-.2,3.71,0,4.81-.61-1.47-1.39-3.1-2.4-4.81-.8-1.36-1.62-2.56-2.4-3.61-.16,1.21-.27,2.87,0,4.81.25,1.84.75,3.34,1.2,4.42-.83-1.31-1.99-2.87-3.61-4.42-1.05-1.01-2.09-1.83-3.02-2.47.46,1.51,1.05,3.15,1.82,4.87,1.58,3.54,3.45,6.38,5.14,8.56Z"/><path class="cls-17" d="m1196.73,681.91c6.93.37,6.81-.36,13.23,0,8.56.48,15.85,2.17,16.83,2.4,7.5,1.77,9.79,3.31,14.43,2.4,3.22-.63,3.27-1.6,7.21-2.4,5.03-1.03,5.59.41,12.02,0,6.03-.39,8.62-1.85,12.02,0,1.03.56,2.62,1.69,2.4,2.4-.36,1.22-5.73.77-14.43,0-5.12-.45-7.38-.82-10.82,0-2.94.7-4.19,1.65-6.01,2.4-5.48,2.26-9.19-.17-20.44-2.4-10.58-2.11-15.87-3.16-21.64-2.4-3.07.4-6.94,1.27-12.02,0-3.89-.97-7.41-2.93-7.21-3.61.23-.79,5.34.72,14.43,1.2Z"/><line class="cls-41" x1="1293.83" y1="720.74" x2="1295.84" y2="849.1"/><path class="cls-41" d="m1109.84,750.1c61,11.33,122,22.67,183,34"/><line class="cls-41" x1="1173.9" y1="747.81" x2="1212.74" y2="754.62"/><line class="cls-41" x1="1170.51" y1="777.29" x2="1209.35" y2="784.1"/></g><g id="lampe"><rect class="cls-9" x="1718.58" y="2.82" width="20" height="391.9"/><line class="cls-9" x1="1728.58" y1="2.82" x2="1728.58" y2="394.72"/><path class="cls-35" d="m1726.79,516.6c-14.7,0-24.64-9.23-27.34-12.06-6.78-7.11-13.87-20.32-9.15-42.82,3.26-15.55,12.5-25.66,18.62-32.36,4.71-5.15,10.03-9.77,15.83-13.73l5.05-3.45,4.5,4.13c4.5,4.13,8.74,8.63,12.61,13.37,8.89,10.88,15.9,19.47,18.36,32.15.51,2.65,4.55,26.38-11.66,42.8-7.05,7.14-15.13,11.12-24.02,11.85-.93.08-1.88.11-2.81.11Z"/><path class="cls-2" d="m1740.96,434.56c8.62,10.56,14.68,17.97,16.77,28.74.35,1.82,3.97,22.2-9.58,35.93-2.25,2.28-8.83,8.74-19.16,9.58"/><path class="cls-31" d="m1728.94,428.38c-7.21,2.23-10.62,7.69-9.53,10.97.87,2.62,4.77,4.27,8.03,4.08,3.08-.18,6.21-2.04,6.02-3.01-.23-1.15-5.25-2.07-9.03,0-4.03,2.21-4.89,6.88-5.02,7.67,1.29,1.9,4.41,5.9,9.53,7.38,3.49,1.01,5.59.18,6.02,0,.72-.3,3.02-1.27,3.01-3.01,0-1.26-1.21-2.54-3.01-3.01-.79-.05-1.82-.08-3.01,0-5.56.38-14.47,2.99-15.05,7.52-.46,3.58,4.47,6.7,10.53,10.53.75.47,2.34,1.43,4.51,1.5,1.75.06,4.32-.45,4.51-1.5.27-1.41-3.64-4.01-7.52-4.51-6.19-.81-13.67,3.55-13.54,7.52.12,3.93,7.65,6.76,12.04,7.52,2.17.38,5.87.65,6.02,0,.21-.92-6.26-5.52-12.04-3.01-3.76,1.63-6.2,5.83-6.02,10.53"/><path class="cls-38" d="m1717.42,418.32h21.07c1.21-4.21,4.93-18.84-1.92-28.74-1.26-1.82-3.79-5.48-7.66-5.75-3.61-.25-6.43,2.59-7.66,3.83-8.73,8.79-4.54,27.65-3.83,30.65Z"/></g><g id="hylde"><polygon class="cls-36" points="1613.2 477.07 1578.91 484.01 1167.93 487.82 1203.51 482.44 1613.2 477.07"/><path class="cls-44" d="m1285.5,451.82c3.08,9.77,3.19,24.8-5,30.5-2.58,1.79-7.75,1.88-18,2-12.15.14-18.28.16-21-2-7.9-6.29-4.87-22.42-2-30.5,1.34-3.76,8.16-19.93,22-20.5,12.47-.51,21.15,11.46,24,20.5Z"/><g id="blomst"><path class="cls-33" d="m1250.97,376.76c2.33-8.22,9.13-12.36,14-11,3.09.86,5.41,3.94,6,7,.98,5.06-2.59,10.84-9,13,8.59,3.37,12.09,11.23,10,16-1.77,4.05-7.57,5.85-12,5-6.16-1.18-11.14-7.73-11-16-.83,9.58-5.6,16.32-11,17-1.82.23-4.81-.09-6-2-2.06-3.3,1.9-10.34,10-18-5.29,7.4-13.9,8.5-18,5-2.95-2.52-3.9-7.69-2-11,2.63-4.58,11.2-6.41,18.98-1.09-7.17-4.22-9.44-11.59-6.98-15.91,1.53-2.7,4.99-4.37,8-4,5.08.62,9.81,7.16,9,16Z"/><line class="cls-4" x1="1258.63" y1="437.76" x2="1248.97" y2="383.76"/><ellipse class="cls-33" cx="1249.47" cy="383.76" rx="9.5" ry="7"/></g><g id="blomst-2"><path class="cls-4" d="m1264.97,437.76c3.33-17.67,6.67-35.33,10-53"/><path class="cls-33" d="m1272.97,365.76c-2.33-8.22-9.13-12.36-14-11-3.09.86-5.41,3.94-6,7-.98,5.06,2.59,10.84,9,13-8.59,3.37-12.09,11.23-10,16,1.77,4.05,7.57,5.85,12,5,6.16-1.18,11.14-7.73,11-16,.83,9.58,5.6,16.32,11,17,1.82.23,4.81-.09,6-2,2.06-3.3-1.9-10.34-10-18,5.29,7.4,13.9,8.5,18,5,2.95-2.52,3.9-7.69,2-11-2.63-4.58-11.2-6.41-18.98-1.09,7.17-4.22,9.44-11.59,6.98-15.91-1.53-2.7-4.99-4.37-8-4-5.08.62-9.81,7.16-9,16Z"/><ellipse class="cls-33" cx="1273.47" cy="373.76" rx="9.5" ry="7"/></g><path class="cls-6" d="m1251.5,435.32c2.29,1.14,4.88,2.05,11,2,5.87-.05,8.73-.87,11-2"/></g><g id="tæppe"><path id="gulvtæppe" class="cls-15" d="m7.34,812.74c196.53-35.16,393.06-70.32,589.6-105.48l412.37,107.11-548.14,260.45c-75.75-.16-151.5-.33-227.25-.49-75.19-.16-150.38-.33-225.57-.49-.2-52.42-.4-104.83-.6-157.24-.13-34.62-.27-69.23-.4-103.85Z"/><path class="cls-55" d="m143.83,792.82c48.85,92.33,97.69,184.67,146.54,277,56.54.33,113.08.67,169.62,1,7.36-3.67,14.72-7.33,22.08-11-85.31-94-170.62-188-255.94-282-27.43,5-54.87,10-82.3,15Z"/><path class="cls-55" d="m288.36,769.82c101.37,79.33,202.74,158.67,304.11,238,46.5-22.33,93.01-44.67,139.51-67-115.09-64-230.18-128-345.26-192-32.79,7-65.57,14-98.36,21Z"/><path class="cls-55" d="m460.99,735.82c122.11,53.33,253.6,73.44,375.71,126.78,33.79-16,58.21,1.22,92-14.78-128.14-42.33-256.27-84.67-384.41-127-27.77,5-55.54,10-83.3,15Z"/><path class="cls-55" d="m12.35,1069.82c-.33-84.67-.67-169.33-1-254,22.75-4,45.5-8,68.25-12,25.09,88.67,50.18,177.33,75.28,266H12.35Z"/></g><g id="billede"><path class="cls-20" d="m362.51,429.03l-1.62,179.19c-2.94.28-5.69-1.4-6.98-4.24-1.48-3.28-.73-7.54,1.9-10.18-2.99-2.09-4.64-5.84-4.18-9.56.48-3.92,3.08-6.17,3.59-6.58-.42-.38-4.46-4.26-4.08-10.71.36-6.1,4.37-9.5,4.88-9.92-.63-.84-3.39-4.75-3.08-10.62.29-5.58,3.16-9.15,3.89-10.01-.59-.73-3.26-4.15-3.18-9.48.09-5.76,3.32-9.39,3.89-10.01-.59-.73-3.26-4.15-3.18-9.48.09-5.76,3.32-9.39,3.89-10.01-.63-.84-3.39-4.75-3.08-10.62.29-5.58,3.16-9.15,3.89-10.01-.7-.84-4.14-5.13-3.98-11.85.15-6.14,3.21-10.17,3.99-11.15-.47-.52-4.81-5.48-3.88-12.99.97-7.85,6.83-11.49,7.35-11.79Z"/><path class="cls-20" d="m357.5,434.32c-1.9-2.34-1.89-5.7,0-8,1.94-2.35,5.35-2.98,8.03-1.45"/><path class="cls-20" d="m513.81,437.77c2.81-1.08,6.01-.02,7.6,2.49,1.64,2.57,1.17,6.01-1.12,8.08"/><path class="cls-22" d="m364.71,613.8c-2.63,1.47-5.94.88-7.88-1.38-1.98-2.31-2.01-5.78-.04-8.16"/><path class="cls-20" d="m361.18,429.11l155.97,14.03c.47-2.91-.78-5.79-3.15-7.32-2.74-1.76-6.5-1.39-9,1-1.59-3.16-4.73-5.13-8-5-3.45.13-5.6,2.53-6,3-.3-.45-3.36-4.81-9-5-5.34-.18-8.6,3.53-9,4-.69-.7-3.88-3.79-9-4-4.88-.2-8.2,2.35-9,3-.59-.65-3.36-3.61-8-4-5.02-.42-8.42,2.48-9,3-.59-.65-3.36-3.61-8-4-5.02-.42-8.42,2.48-9,3-.69-.7-3.88-3.79-9-4-4.88-.2-8.2,2.35-9,3-.68-.77-4.15-4.57-10-5-5.35-.39-9.09,2.31-10,3-.42-.52-4.4-5.27-11-5-6.9.28-10.51,5.8-10.82,6.29Z"/><path class="cls-20" d="m517.14,443.33l.38,157.35c2.94.2,5.7-1.31,7-3.82,1.5-2.91.78-6.63-1.82-8.91,3.01-1.88,4.67-5.2,4.24-8.46-.45-3.44-3.04-5.37-3.54-5.73.42-.34,4.48-3.81,4.15-9.46-.31-5.35-4.3-8.28-4.81-8.64.63-.75,3.42-4.23,3.16-9.37-.25-4.9-3.09-7.99-3.82-8.73.6-.65,3.29-3.69,3.25-8.37-.05-5.06-3.25-8.19-3.82-8.73.6-.65,3.29-3.69,3.25-8.37-.05-5.06-3.25-8.19-3.82-8.73.63-.75,3.42-4.23,3.16-9.37-.25-4.9-3.09-7.99-3.82-8.73.71-.75,4.17-4.57,4.06-10.46-.1-5.39-3.13-8.89-3.91-9.73.48-.47,4.84-4.88,3.97-11.46-.92-6.88-6.74-9.99-7.26-10.25Z"/><path class="cls-61" d="m521.5,596.14c1.76,2.44,1.55,5.8-.47,7.99-2.07,2.24-5.51,2.66-8.1.97"/><path class="cls-61" d="m517.63,600.81l-156.39,8.06c-.05,2.94,1.59,5.63,4.15,6.8,2.96,1.36,6.63.46,8.77-2.26,2.02,2.91,5.4,4.41,8.62,3.82,3.39-.62,5.19-3.3,5.52-3.81.36.4,4.01,4.29,9.61,3.68,5.31-.57,8.02-4.7,8.35-5.23.78.59,4.37,3.21,9.47,2.69,4.86-.49,7.79-3.48,8.49-4.24.67.57,3.83,3.11,8.48,2.83,5.02-.29,7.98-3.64,8.49-4.24.67.57,3.83,3.11,8.48,2.83,5.02-.29,7.98-3.64,8.49-4.24.78.59,4.37,3.21,9.47,2.69,4.86-.49,7.79-3.48,8.49-4.24.78.67,4.75,3.94,10.6,3.54,5.35-.37,8.68-3.56,9.48-4.38.49.45,5.1,4.6,11.59,3.4,6.79-1.25,9.59-7.22,9.82-7.75Z"/><polygon class="cls-48" points="362.51 429.03 361.24 608.86 517.63 600.81 517.14 443.33 362.51 429.03"/></g><g id="vindue"><path class="cls-14" d="m1065.02,330.11c-124.43,27.68-248.85,55.36-373.28,83.03l-.81,210.4c125.29,13.14,250.58,26.28,375.87,39.42"/><circle class="cls-16" cx="751" cy="451.03" r="40.5"/><path class="cls-25" d="m753.34,417.8c17.7,0,32.05,14.77,32.05,33s-14.35,33-32.05,33"/><circle class="cls-49" cx="732.96" cy="447.86" r="5.99"/><circle class="cls-70" cx="729.96" cy="450.48" r="1.12"/><circle class="cls-70" cx="734.9" cy="445.61" r="2.25"/><circle class="cls-49" cx="768.81" cy="448.19" r="5.95"/><circle class="cls-70" cx="771.79" cy="450.79" r="1.11"/><circle class="cls-70" cx="766.88" cy="445.96" r="2.23"/><ellipse class="cls-69" cx="776.33" cy="458.75" rx="4.64" ry="2.38"/><ellipse class="cls-69" cx="726.41" cy="458.75" rx="4.64" ry="2.38"/><path class="cls-28" d="m746.7,456.64c-.16,1.79,1.05,3.21,2.37,3.3.91.06,1.83-.51,2.38-1.42l.86-1.39.81,1.43c.07.1.89,1.3,2.1,1.27,1.26-.03,2.52-1.37,2.48-3.2"/><path class="cls-65" d="m1065.84,485.31c-.11,59.37-.22,118.74-.33,178.11-82.22-8.71-164.45-17.41-246.67-26.11,18.09-65.84,33.5-116.35,42-145,0,0,2.58-8.71,8.85-19.27.92,1.22,1.89,2.31,2.88,3.25,1.86,1.77,7.8,7.43,13.51,6,5.88-1.49,6.86-9.25,11.86-9.49,5.05-.25,6.86,7.5,12.65,7.9,4.75.34,8.72-4.53,10.89-7.29,2.85,6.99,4.03,12.39,4.36,13.9,10.45,47.74,12.75,51.63,13.82,51.97.08.02.13.02.18.03,8.37.79,22.12-64.57,26-83,.81-3.84,3.47-16.61,9.96-30.28.54.63,1.1,1.21,1.66,1.74,1.86,1.76,7.8,7.43,13.51,5.99,5.88-1.48,6.86-9.25,11.86-9.49,5.05-.24,6.86,7.51,12.65,7.91,4.82.34,8.84-4.67,10.98-7.41.3-.38.66-.84,1.06-1.37,6.42,8.97,12.9,18.6,19.32,28.91,7.09,11.36,13.39,22.41,19,33Z"/><path class="cls-56" d="m1027.52,423.4c-.4.53-.76.99-1.06,1.37-2.14,2.74-6.16,7.75-10.98,7.41-5.79-.4-7.6-8.15-12.65-7.91-5,.24-5.98,8.01-11.86,9.49-5.71,1.44-11.65-4.23-13.51-5.99-.56-.53-1.12-1.11-1.66-1.74,2.65-5.6,5.96-11.36,10.04-16.72,2.93-3.85,7.12-8.62,13.34-9.3,9.75-1.07,17.46,8.72,18.66,10.3,3.2,4.19,6.43,8.56,9.68,13.09Z"/><path class="cls-56" d="m912.84,457.31c3.87,5.63,6.66,11.25,8.64,16.1-2.17,2.76-6.14,7.63-10.89,7.29-5.79-.4-7.6-8.15-12.65-7.9-5,.24-5.98,8-11.86,9.49-5.71,1.43-11.65-4.23-13.51-6-.99-.94-1.96-2.03-2.88-3.25,4.42-7.46,10.68-15.84,19.15-22.73,2.3-1.87,5.77-4.24,10-4,4.95.27,9.19,4,14,11Z"/><path class="cls-8" d="m869.69,473.04c-6.27,10.56-8.85,19.27-8.85,19.27-8.5,28.65-23.91,79.16-42,145,82.22,8.7,164.45,17.4,246.67,26.11.11-59.37.22-118.74.33-178.11-5.61-10.59-11.91-21.64-19-33-6.42-10.31-12.9-19.94-19.32-28.91-3.25-4.53-6.48-8.9-9.68-13.09-1.2-1.58-8.91-11.37-18.66-10.3-6.22.68-10.41,5.45-13.34,9.3-4.08,5.36-7.39,11.12-10.04,16.72-6.49,13.67-9.15,26.44-9.96,30.28-3.88,18.43-17.63,83.79-26,83-.05-.01-.1-.01-.18-.03-1.07-.34-3.37-4.23-13.82-51.97-.33-1.51-1.51-6.91-4.36-13.9-1.98-4.85-4.77-10.47-8.64-16.1-4.81-7-9.05-10.73-14-11-4.23-.24-7.7,2.13-10,4-8.47,6.89-14.73,15.27-19.15,22.73Z"/><path class="cls-8" d="m1027.52,423.4c-.4.53-.76.99-1.06,1.37-2.14,2.74-6.16,7.75-10.98,7.41-5.79-.4-7.6-8.15-12.65-7.91-5,.24-5.98,8.01-11.86,9.49-5.71,1.44-11.65-4.23-13.51-5.99-.56-.53-1.12-1.11-1.66-1.74"/><path class="cls-8" d="m921.48,473.41c-2.17,2.76-6.14,7.63-10.89,7.29-5.79-.4-7.6-8.15-12.65-7.9-5,.24-5.98,8-11.86,9.49-5.71,1.43-11.65-4.23-13.51-6-.99-.94-1.96-2.03-2.88-3.25"/><polyline class="cls-45" points="1066 325.03 1065.5 665.03 690.93 623.54 691.74 413.14 1065.02 330.11"/><path class="cls-1" d="m888.26,597.08c-30.65-.13-61.3-.26-91.95-.39-1.51-.92-3.71-2.52-5.58-5.13-3.4-4.76-3.49-9.79-3.55-13.42-.12-6.68,1.83-12.05,3.44-15.4,3.7-9.06,13.33-14.18,22.62-12.24,8.69,1.82,15.24,9.44,15.79,18.56.87-.42,4.21-1.91,8.29-.79,5.03,1.39,7.18,5.65,7.5,6.32.26-.16,5.08-2.92,9.87-.39,3.71,1.96,5.81,6.26,5.13,10.66,2.91-.28,8.39-.42,14.61,1.97,7.56,2.9,11.98,7.91,13.82,10.27Z"/><line class="cls-45" x1="861.08" y1="642.93" x2="861.08" y2="375.08"/><path class="cls-1" d="m1033.27,539.62c-30.65-.13-61.3-.26-91.95-.39-1.51-.92-3.71-2.52-5.58-5.13-3.4-4.76-3.49-9.79-3.55-13.42-.12-6.68,1.83-12.05,3.44-15.4,3.7-9.06,13.33-14.18,22.62-12.24,8.69,1.82,15.24,9.44,15.79,18.56.87-.42,4.21-1.91,8.29-.79,5.03,1.39,7.18,5.65,7.5,6.32.26-.16,5.08-2.92,9.87-.39,3.71,1.96,5.81,6.26,5.13,10.66,2.91-.28,8.39-.42,14.61,1.97,7.56,2.9,11.98,7.91,13.82,10.27Z"/><path class="cls-45" d="m1066,507.22c-124.38,5.79-249.76,13.82-374,19.19"/><path class="cls-70" d="m1024.35,442.12c1.09.47,1.4,1.7,1.45,1.89.26.87.41,1.62.5,2.19.18,1.19.19,2.17.15,2.93-.05,1-.08,1.49-.31,1.78-.19.23-.5.46-3.3.61.13-.55.25-1.22.29-1.99.04-.83-.01-1.56-.1-2.14-.04-.35-.14-.84-.39-1.38-.18-.39-.4-.7-.58-.92-.15-.2-.44-.55-.92-.82-.52-.29-1-.35-1.25-.36.5-.6,1.23-1.26,2.25-1.63.59-.22,1.39-.51,2.23-.15Z"/><path class="cls-49" d="m1021.13,444.27c.48.27.77.62.92.82.18.22.4.53.58.92.25.54.35,1.03.39,1.38.09.59.14,1.31.1,2.14-.04.77-.16,1.45-.29,1.99-.33.02-1.39.07-2.8,0-1.44-.08-1.69-.2-1.86-.38-.12-.12-.49-.55-.12-2.65.16-.92.28-1.61.49-2.25.07.13.14.28.24.42.16.26.33.47.48.65.04.05.22.25.52.3.37.06.64-.17.68-.21.16-.14.39-.39.49-.75.22-.79-.35-1.5-.52-1.7-.28-.35-.61-.55-.85-.67.09-.12.19-.25.3-.39.25.01.73.07,1.25.36Z"/><path class="cls-71" d="m1019.58,444.29c.24.12.57.32.85.67.16.2.74.91.52,1.7-.1.36-.33.61-.49.75-.04.03-.31.26-.68.21-.3-.04-.48-.25-.52-.3-.16-.18-.32-.4-.48-.65-.09-.15-.17-.29-.24-.42.14-.41.31-.8.56-1.22.1-.18.26-.44.48-.73Z"/><path class="cls-30" d="m1018.54,446.25c.14-.41.31-.8.56-1.22.1-.18.26-.44.48-.73.09-.12.19-.25.3-.39.5-.6,1.23-1.26,2.25-1.63.59-.22,1.39-.51,2.23-.15,1.09.47,1.4,1.7,1.45,1.89.26.87.41,1.62.5,2.19.18,1.19.19,2.17.15,2.93-.05,1-.08,1.49-.31,1.78-.19.23-.5.46-3.3.61-.33.02-1.39.07-2.8,0-1.44-.08-1.69-.2-1.86-.38-.12-.12-.49-.55-.12-2.65.16-.92.28-1.61.49-2.25Z"/><path class="cls-30" d="m1022.83,451.52c.13-.55.25-1.22.29-1.99.04-.83-.01-1.56-.1-2.14-.04-.35-.14-.84-.39-1.38-.18-.39-.4-.7-.58-.92-.15-.2-.44-.55-.92-.82-.52-.29-1-.35-1.25-.36"/><path class="cls-30" d="m1018.54,446.25c.07.13.14.28.24.42.16.26.33.47.48.65.04.05.22.25.52.3.37.06.64-.17.68-.21.16-.14.39-.39.49-.75.22-.79-.35-1.5-.52-1.7-.28-.35-.61-.55-.85-.67"/><path class="cls-70" d="m984.76,442.17c-1.09.45-1.42,1.67-1.47,1.86-.28.86-.43,1.61-.53,2.18-.2,1.18-.22,2.16-.19,2.92.04.99.06,1.49.29,1.78.18.23.49.46,3.28.66-.12-.55-.23-1.22-.26-1.99-.03-.83.04-1.55.13-2.14.04-.35.15-.84.41-1.37.19-.39.41-.69.59-.91.15-.2.45-.54.93-.8.52-.28,1-.33,1.25-.34-.49-.61-1.21-1.27-2.21-1.66-.58-.23-1.38-.53-2.22-.18Z"/><path class="cls-49" d="m987.94,444.35c-.49.26-.78.6-.93.8-.19.22-.41.52-.59.91-.26.53-.37,1.02-.41,1.37-.09.58-.16,1.31-.13,2.14.03.77.14,1.44.26,1.99.33.02,1.39.09,2.79.04,1.43-.05,1.68-.17,1.86-.35.12-.12.5-.54.16-2.64-.15-.92-.26-1.61-.46-2.25-.07.13-.15.27-.24.42-.16.25-.33.47-.49.64-.04.05-.22.25-.52.29-.38.05-.64-.18-.67-.22-.16-.14-.38-.39-.47-.75-.21-.79.38-1.49.54-1.69.29-.34.62-.54.86-.66-.09-.12-.18-.26-.29-.39-.25,0-.73.06-1.25.34Z"/><path class="cls-71" d="m989.49,444.4c-.24.11-.57.31-.86.66-.17.2-.75.89-.54,1.69.09.36.32.61.47.75.04.03.3.27.67.22.3-.04.48-.24.52-.29.16-.18.33-.39.49-.64.09-.14.17-.28.24-.42-.13-.41-.3-.8-.54-1.23-.1-.18-.25-.44-.46-.74Z"/><path class="cls-30" d="m990.49,446.37c-.13-.41-.3-.8-.54-1.23-.1-.18-.25-.44-.46-.74-.09-.12-.18-.26-.29-.39-.49-.61-1.21-1.27-2.21-1.66-.58-.23-1.38-.53-2.22-.18-1.09.45-1.42,1.67-1.47,1.86-.28.86-.43,1.61-.53,2.18-.2,1.18-.22,2.16-.19,2.92.04.99.06,1.49.29,1.78.18.23.49.46,3.28.66.33.02,1.39.09,2.79.04,1.43-.05,1.68-.17,1.86-.35.12-.12.5-.54.16-2.64-.15-.92-.26-1.61-.46-2.25Z"/><path class="cls-30" d="m986.14,451.56c-.12-.55-.23-1.22-.26-1.99-.03-.83.04-1.55.13-2.14.04-.35.15-.84.41-1.37.19-.39.41-.69.59-.91.15-.2.45-.54.93-.8.52-.28,1-.33,1.25-.34"/><path class="cls-30" d="m990.49,446.37c-.07.13-.15.27-.24.42-.16.25-.33.47-.49.64-.04.05-.22.25-.52.29-.38.05-.64-.18-.67-.22-.16-.14-.38-.39-.47-.75-.21-.79.38-1.49.54-1.69.29-.34.62-.54.86-.66"/><ellipse class="cls-72" cx="1029.47" cy="451.84" rx="4.64" ry="2.38"/><ellipse class="cls-72" cx="979.55" cy="451.84" rx="4.64" ry="2.38"/><path class="cls-28" d="m1000.19,452.42c-.16,1.79,1.05,3.21,2.37,3.3.91.06,1.83-.51,2.38-1.42l.86-1.39.81,1.43c.07.1.89,1.3,2.1,1.27,1.26-.03,2.52-1.37,2.48-3.2"/><path class="cls-28" d="m873.73,490.76c.98-1.84,2.91-3,5-3s4.02,1.16,5,3"/><path class="cls-28" d="m905.82,491.15c.98-1.84,2.91-3,5-3s4.02,1.16,5,3"/><ellipse class="cls-72" cx="919.34" cy="495.89" rx="4.11" ry="2.11"/><ellipse class="cls-72" cx="871.88" cy="495.61" rx="4.64" ry="2.38"/><path class="cls-52" d="m892.55,496.26h7.41c.75,1.61.58,3.44-.46,4.63-1.53,1.76-4.58,1.69-6.18,0-1.1-1.17-1.39-2.98-.77-4.63Z"/></g><g id="lucky_cat"><path class="cls-43" d="m1435.76,398.77c-1.19-4.26-3.21-11-4.4-15.26-1.12-3.89,3-7.22,6.57-5.28,3.91,2.12,8.38,4.38,12.29,6.5"/><path class="cls-59" d="m1446.37,387.14l-9.16-5.16c-1.26-.71-2.71.54-2.26,1.95l3.34,10.35"/><path class="cls-43" d="m1486.13,399.59c1.19-4.26,3.2-11.43,4.39-15.69,1.12-3.89-3-7.22-6.57-5.28-3.91,2.12-7.82,4.24-11.73,6.35"/><path class="cls-59" d="m1475.84,386.96l9.16-5.16c1.26-.71,2.71.54,2.26,1.95l-3.34,10.35"/><path class="cls-43" d="m1487.37,471.76c-6.86,6.86-16.47,7.46-23.12,7.88-7.31.46-16.49,1.03-24.36-5.12-8.58-6.71-9.42-16.6-9.5-17.74-.68-9.97,5.41-16.98,9.5-21.68,7.45-8.56,16.33-11.86,20.65-13.4,8.12-2.9,16.45-5.88,24.36-1.97,5.05,2.49,9.15,7.4,10.74,12.61.6,1.98.68,3.55.83,6.7.37,7.79-.96,13.77-1.24,14.98-1.6,6.92-2.97,12.85-7.85,17.74Z"/><path class="cls-43" d="m1481.47,455.55c.47.23,7.68,3.71,13.7,0,5.79-3.56,5.25-15.2,1.28-22.93"/><path class="cls-43" d="m1485.34,433.14c6.1,2.25,11.67.72,13.47-2.64,1.4-2.61.1-5.57,0-5.8-1.8-3.93-7.48-6.1-14.01-4.78"/><path class="cls-64" d="m1448.29,433.1c.04,2.55.38,5.85,1.54,9.5,2.5,7.8,7.35,12.73,9.99,15.05,2.54-1.45,9.75-6.02,13.01-15.05,1.33-3.68,1.61-7.03,1.58-9.5h-26.13Z"/><path class="cls-43" d="m1449.18,476.37v-22.38c0-3.93,2.96-7.12,6.6-7.12h9.71c3.65,0,6.6,3.19,6.6,7.12v22.38c0,3.56-2.44,6.6-5.72,7.06-1.78.25-3.75.41-5.87.4-2.03,0-3.91-.16-5.63-.4-3.27-.46-5.7-3.5-5.7-7.05Z"/><path class="cls-43" d="m1435.71,471c.44-.41,2.9-2.65,6.62-2.48,3.2.15,5.26,1.98,5.79,2.48,3.47,2.99,4.48,6.88,3.09,9-.25.38-.97,1.31-2.79,1.76h-13.74c-1.88-.45-2.56-1.38-2.78-1.75-1.29-2.11-.02-6.03,3.81-9.01Z"/><path class="cls-43" d="m1474.54,471c.44-.41,2.9-2.65,6.62-2.48,3.2.15,5.26,1.98,5.79,2.48,3.47,2.99,4.48,6.88,3.09,9-.25.38-.97,1.31-2.79,1.76h-13.74c-1.88-.45-2.56-1.38-2.78-1.75-1.29-2.11-.02-6.03,3.81-9.01Z"/><path class="cls-43" d="m1444.58,426.96l-5.97,3.68c-1.37.78-3.96,2.51-5.75,5.71-3.61,6.44-.8,13.14-.41,14.04.93,2.12,3.65,4.42,9.08,9.03,1.03.87,2.84,2.32,5.23,2.33.05,0,.1,0,.13,0,1.74-.06,4.36-.91,5.37-3.26,1.19-2.77-.39-6.4-2.06-8.38-2.87-3.39-6.77-2.83-7.43-5.58-.27-1.1.1-2.14.41-2.79"/><path class="cls-59" d="m1446.33,428.11s-.06-.02-.1-.04c0,0-.03-.01-.05-.02-1.1-.48-1.76-.83-1.76-.83-.56-.29-1.25-.65-2.06-1.22-.93-.65-.97-.84-1.24-.81-.21.02-.59.17-1.71,3.35-.02.05-.02.05-.02.07-.35,1.06.82,2.26,1.32,2.78,4.73,4.87,21.62,5.21,21.62,5.21s9.95.2,16-3c.93-.49,3.09-1.63,3.25-3.46,0-.02,0-.03,0-.05.15-2.12-.53-4.44-1.25-4.49-.37-.02-.41.57-1.22,1.21-.77.6-1.69.5-2.06.81-1.44,1.19-5.02,2.54-14.45,3.21,0,0-7.23.62-16.27-2.71Z"/><line class="cls-10" x1="1489.85" y1="429.32" x2="1490.47" y2="434.19"/><line class="cls-10" x1="1494.41" y1="429.32" x2="1494.99" y2="433.55"/><line class="cls-24" x1="1446.72" y1="457.26" x2="1450.62" y2="460.5"/><line class="cls-10" x1="1448.79" y1="454.92" x2="1451.62" y2="457.26"/><line class="cls-10" x1="1436.99" y1="475.98" x2="1436.99" y2="481.76"/><line class="cls-10" x1="1443.45" y1="476.54" x2="1443.45" y2="481.76"/><line class="cls-10" x1="1478.08" y1="476.54" x2="1478.08" y2="481.76"/><line class="cls-10" x1="1483.85" y1="476.54" x2="1483.85" y2="481.76"/><path class="cls-43" d="m1485.19,397.91c3.08,6.75,3.9,16.72-1.83,24.21-6.5,8.49-17.33,8.46-22.38,8.44-4.84-.02-17.39-.06-23.85-9.9-6.95-10.6-.7-23.2-.37-23.85,4.87-9.42,15-14.04,24.21-13.94,9.47.1,19.72,5.22,24.21,15.04Z"/><path class="cls-23" d="m1444.6,412.74c.09-.14,2.18-3.12,5.78-2.89,3.09.2,4.76,2.6,4.95,2.89"/><path class="cls-23" d="m1466.28,412.58c.09-.14,2.18-3.12,5.78-2.89,3.09.2,4.76,2.6,4.95,2.89"/><path class="cls-49" d="m1460.65,415.1c.27,0,1.72,0,1.95.65.23.65-.77,1.95-1.95,1.95s-2.18-1.3-1.95-1.95c.23-.65,1.67-.65,1.95-.65Z"/><path class="cls-29" d="m1455.84,417.1c-.05.09-.52,1.09,0,2,.56.98,1.77,1,2,1,1.19-.01,2.32-.97,2.82-2.4.67,1.47,1.91,2.43,3.18,2.4.23,0,1.45-.03,2-1,.51-.9.05-1.89,0-2"/><ellipse class="cls-72" cx="1476.18" cy="417.47" rx="4.64" ry="2.38"/><ellipse class="cls-72" cx="1444.26" cy="416.47" rx="4.64" ry="2.38"/><ellipse class="cls-68" cx="1460.98" cy="437.58" rx="4.75" ry="4.54"/></g><g id="seng"><path class="cls-11" d="m659.8,682.55c-2.83,5.84-7.29,10.18-9.16,12.01-4.92,4.79-15.76,13.18-64.43,14.24-57.5,1.24-70.91-9.85-76.05-14.98-2.94-2.94-5.14-5.9-6.77-8.47-.72-1.14-1.33-2.2-1.85-3.15-1.7-9.07-.03-15.38,1.5-19.11,7.32-17.83,32.85-28.33,63.31-24.35,4-1.43,9.62-3.12,16.48-4.12,6.35-.93,20.03-2.19,35.59,2.25,4.14,1.18,42.24,12.05,43.83,34.09.31,4.24-.79,8.17-2.45,11.59Z"/><path class="cls-11" d="m659.8,682.55c1.28,4.97-2.15,10.54-4.67,14.63-8.45,13.73-24.52,17.84-35.96,20.6-10.29,2.48-21.49,2.44-43.45,2.25-31.65-.27-39.93-2.33-47.2-5.24-17.73-7.1-22.1-16.36-23.23-19.11-.38-.93-2.64-6.43-1.9-10.34,1.63,2.56,3.83,5.53,6.77,8.47,5.14,5.14,18.54,16.23,76.05,14.98,48.68-1.05,59.51-9.44,64.43-14.24,1.87-1.82,6.33-6.17,9.16-12.01Z"/><path class="cls-11" d="m636.03,649.98c-6.54-.05-14.76.5-23.98,2.62-13.57,3.12-24.06,8.42-31.09,12.74.54-1.75,1.35-3.82,2.62-5.99,2.63-4.51,5.97-7.37,8.24-8.99"/><path class="cls-11" d="m573.09,643.99c1.64,1.65,3.91,4.37,5.62,8.24,2.43,5.52,2.43,10.51,2.25,13.11-3.35-2.13-7.09-4.29-11.24-6.37-6.17-3.1-12.01-5.39-17.23-7.12"/><path class="cls-11" d="m580.96,665.34c5.48-.54,12.53-.72,20.6.37,6.79.92,12.6,2.51,17.23,4.12"/><path class="cls-11" d="m528.52,671.71c3.01-1.89,6.5-3.72,10.49-5.24,17.42-6.66,33.74-3.45,41.96-1.12,1.2,1.36,2.49,2.97,3.75,4.87,1.05,1.58,1.91,3.1,2.62,4.5"/></g><path class="cls-12" d="m1574.47,788.43l74.2-43.49-150.95-21.75-83.47,35.94c-.22.09-.18.42.05.46l161.46,28.85,72.92-43.49v105.63l-68.59,47.03"/><path class="cls-12" d="m1413.71,759.48l162.31,29.33c.08.01.14.08.14.16l3.91,108.4c0,.11-.1.2-.21.18l-163.28-33.24c-.08-.02-.14-.08-.14-.16l-2.93-84.13v-20.09c0-.16-.2-.24-.31-.11l-22.82,27.58c-.11.13.02.33.19.28l22.82-7.61c.07-.02.12-.09.12-.16v-20.24c0-.11.1-.19.2-.17Z"/><polyline class="cls-12" points="1413.51 759.44 1425.26 800.59 1552.64 825.09 1574.47 788.43 1413.51 759.44"/><polyline class="cls-37" points="1574.47 788.43 1599.19 820.68 1664.84 776.59 1648.67 744.93 1574.47 788.43"/><g id="legetøj"><path class="cls-7" d="m681.7,904.68l248.97-66.88c6.96-1.35,17.1-2.13,26.83,2.52,17.18,8.2,15.43,24.86,29,31,18.12,8.2,31.42-16.91,57-13,22.6,3.46,24.85,24.98,49,33,12.46,4.14,31.94,5.07,61.5-11.45"/><circle class="cls-40" cx="1160" cy="877.82" r="5.5"/><path class="cls-39" d="m1229.18,868.32l-21.68,12c-11.99,6.27-21.48,5.7-26,5-1.91-.29-13.21-2.04-14-7-.67-4.2,6.55-8.53,9-10,16.27-9.76,39.04-4.52,52.68,0Z"/><polyline class="cls-5" points="1178 866.82 1188.03 874.74 1181.91 885.7"/><polyline class="cls-5" points="1204.71 862.9 1212.51 870.24 1205.98 880.82"/><polyline class="cls-5" points="1187.72 863.82 1198.64 872.49 1191.97 884.49"/><line class="cls-5" x1="1167.5" y1="878.32" x2="1225.66" y2="870.27"/></g><g id="bi_baggrund"><polygon class="cls-53" points="1320.34 341.6 1322.34 342.6 1320.34 343.6 1320.34 341.6"/><circle class="cls-53" cx="1310.84" cy="342.1" r=".5"/><path class="cls-19" d="m1315.49,339.46c-.22-.1-1.16-.55-1.62-1.66-.38-.91-.21-1.72-.15-1.99.03-.11.26-.81.92-1.07.7-.28,1.62.05,2.11.85.1.28.35,1.06.1,2-.31,1.14-1.15,1.73-1.37,1.88Z"/><path class="cls-50" d="m1318.84,342.6c0,.64-.18,1.83-1.56,3.19-.6.17-1.26.27-1.95.29.72-.75,1.38-1.76,1.38-2.98,0-.75-.25-2.3-2.51-3.98.21-.01.42-.02.64-.02.86,0,1.68.11,2.42.3.79.76,1.58,1.86,1.58,3.2Z"/><path class="cls-53" d="m1317.26,339.4c2.11.54,3.58,1.77,3.58,3.2s-1.47,2.65-3.56,3.19c1.38-1.36,1.56-2.55,1.56-3.19,0-1.34-.79-2.44-1.58-3.2Z"/><path class="cls-53" d="m1314.2,339.12c2.26,1.68,2.51,3.23,2.51,3.98,0,1.22-.66,2.23-1.38,2.98-.16.02-.32.02-.49.02-.64,0-1.26-.06-1.84-.17,1.06-1.21,1.21-2.25,1.21-2.83,0-1.61-1.15-2.88-2.04-3.63.62-.19,1.3-.31,2.03-.35Z"/><path class="cls-50" d="m1314.21,343.1c0,.58-.15,1.62-1.21,2.83-2.41-.45-4.16-1.77-4.16-3.33,0-1.37,1.36-2.56,3.33-3.13.89.75,2.04,2.02,2.04,3.63Z"/><path class="cls-19" d="m1316.47,340.31c-.16-.18-.82-.99-.78-2.19.03-.99.53-1.65.7-1.87.08-.09.58-.63,1.29-.59.76.04,1.45.72,1.57,1.65-.02.29-.12,1.11-.75,1.86-.76.91-1.77,1.09-2.03,1.13Z"/><g id="bi_baggrund-2"><polygon class="cls-53" points="1294.41 332.34 1296.41 333.34 1294.41 334.34 1294.41 332.34"/><circle class="cls-53" cx="1284.91" cy="332.84" r=".5"/><path class="cls-19" d="m1289.56,330.2c-.22-.1-1.16-.55-1.62-1.66-.38-.91-.21-1.72-.15-1.99.03-.11.26-.81.92-1.07.7-.28,1.62.05,2.11.85.1.28.35,1.06.1,2-.31,1.14-1.15,1.73-1.37,1.88Z"/><path class="cls-53" d="m1288.27,329.87c2.26,1.67,2.51,3.23,2.51,3.98,0,1.22-.66,2.23-1.37,2.98-.16.02-.33.02-.5.02-.65,0-1.27-.06-1.85-.17,1.07-1.21,1.22-2.26,1.22-2.83,0-1.61-1.15-2.88-2.04-3.63.62-.19,1.31-.31,2.03-.35Z"/><path class="cls-50" d="m1292.91,333.35c0,.63-.18,1.83-1.57,3.2-.6.15-1.25.25-1.93.28.71-.75,1.37-1.76,1.37-2.98,0-.75-.25-2.31-2.51-3.98.21-.01.42-.02.64-.02.87,0,1.7.11,2.44.3.78.77,1.56,1.87,1.56,3.2Z"/><path class="cls-50" d="m1288.28,333.85c0,.57-.15,1.62-1.22,2.83-2.41-.46-4.15-1.78-4.15-3.33,0-1.38,1.36-2.56,3.33-3.13.89.75,2.04,2.02,2.04,3.63Z"/><path class="cls-53" d="m1291.35,330.15c2.1.55,3.56,1.77,3.56,3.2s-1.47,2.65-3.57,3.2c1.39-1.37,1.57-2.57,1.57-3.2,0-1.33-.78-2.43-1.56-3.2Z"/><path class="cls-19" d="m1290.54,331.05c-.16-.18-.82-.99-.78-2.19.03-.99.53-1.65.7-1.87.08-.09.58-.63,1.29-.59.76.04,1.45.72,1.57,1.65-.02.29-.12,1.11-.75,1.86-.76.91-1.77,1.09-2.03,1.13Z"/></g><g id="bi_baggrund-3"><polygon class="cls-53" points="1244.91 326.34 1242.91 327.34 1244.91 328.34 1244.91 326.34"/><circle class="cls-53" cx="1254.41" cy="326.84" r=".5"/><path class="cls-19" d="m1249.75,324.2c.22-.1,1.16-.55,1.62-1.66.38-.91.21-1.72.15-1.99-.03-.11-.26-.81-.92-1.07-.7-.28-1.62.05-2.11.85-.1.28-.35,1.06-.1,2,.31,1.14,1.15,1.73,1.37,1.88Z"/><path class="cls-53" d="m1251.05,323.87c-2.26,1.67-2.51,3.23-2.51,3.98,0,1.22.66,2.23,1.37,2.98.16.02.33.02.5.02.65,0,1.27-.06,1.85-.17-1.07-1.21-1.22-2.26-1.22-2.83,0-1.61,1.15-2.88,2.04-3.63-.62-.19-1.31-.31-2.03-.35Z"/><path class="cls-53" d="m1247.97,324.15c-2.1.55-3.56,1.77-3.56,3.2s1.47,2.65,3.57,3.2c-1.39-1.37-1.57-2.57-1.57-3.2,0-1.33.78-2.43,1.56-3.2Z"/><path class="cls-50" d="m1246.41,327.35c0,.63.18,1.83,1.57,3.2.6.15,1.25.25,1.93.28-.71-.75-1.37-1.76-1.37-2.98,0-.75.25-2.31,2.51-3.98-.21-.01-.42-.02-.64-.02-.87,0-1.7.11-2.44.3-.78.77-1.56,1.87-1.56,3.2Z"/><path class="cls-50" d="m1251.04,327.85c0,.57.15,1.62,1.22,2.83,2.41-.46,4.15-1.78,4.15-3.33,0-1.38-1.36-2.56-3.33-3.13-.89.75-2.04,2.02-2.04,3.63Z"/><path class="cls-19" d="m1248.77,325.05c.16-.18.82-.99.78-2.19-.03-.99-.53-1.65-.7-1.87-.08-.09-.58-.63-1.29-.59-.76.04-1.45.72-1.57,1.65.02.29.12,1.11.75,1.86.76.91,1.77,1.09,2.03,1.13Z"/></g><g id="bi_baggrund-4"><polygon class="cls-53" points="1196.76 366.66 1194.76 367.66 1196.76 368.66 1196.76 366.66"/><circle class="cls-53" cx="1206.26" cy="367.16" r=".5"/><path class="cls-19" d="m1201.61,364.52c.22-.1,1.16-.55,1.62-1.66.38-.91.21-1.72.15-1.99-.03-.11-.26-.81-.92-1.07-.7-.28-1.62.05-2.11.85-.1.28-.35,1.06-.1,2,.31,1.14,1.15,1.73,1.37,1.88Z"/><path class="cls-50" d="m1202.89,368.16c0,.58.15,1.62,1.21,2.83,2.42-.45,4.16-1.76,4.16-3.33,0-1.37-1.35-2.56-3.33-3.13-.89.75-2.04,2.02-2.04,3.63Z"/><path class="cls-53" d="m1199.84,364.46c-2.11.54-3.58,1.77-3.58,3.2s1.47,2.66,3.58,3.21c-1.4-1.36-1.58-2.57-1.58-3.21,0-1.34.8-2.44,1.58-3.2Z"/><path class="cls-53" d="m1202.9,364.18c-2.26,1.68-2.51,3.24-2.51,3.98,0,1.21.66,2.23,1.37,2.98.16.02.33.02.5.02.64,0,1.26-.06,1.84-.17-1.06-1.21-1.21-2.25-1.21-2.83,0-1.61,1.15-2.88,2.04-3.63-.62-.19-1.3-.31-2.03-.35Z"/><path class="cls-50" d="m1198.26,367.66c0,.64.18,1.85,1.58,3.21.59.15,1.24.25,1.92.27-.71-.75-1.37-1.77-1.37-2.98,0-.74.25-2.3,2.51-3.98-.21-.01-.42-.02-.64-.02-.86,0-1.68.11-2.42.3-.78.76-1.58,1.86-1.58,3.2Z"/><path class="cls-19" d="m1200.63,365.37c.16-.18.82-.99.78-2.19-.03-.99-.53-1.65-.7-1.87-.08-.09-.58-.63-1.29-.59-.76.04-1.45.72-1.57,1.65.02.29.12,1.11.75,1.86.76.91,1.77,1.09,2.03,1.13Z"/></g></g><g id="fugl"><path class="cls-18" d="m1022.59,541.03c2.13-.07,3.64-.7,4.57-1.14l.7-1.63,8.41,3.35-11.03-13.95c-1.08-1.37-3.13-1.42-4.28-.11l-12.34,14.06,9.12-3.83.29,2.12c.97.46,2.04,1.22,4.57,1.14Z"/><path class="cls-50" d="m1023.15,531.36l-9.69,3.88h5.82l.65,1.94c.65.27,1.78.65,3.23.65.7,0,1.89-.09,3.23-.65,0-.65.65-1.29.65-1.94l6.15,1.05-10.03-4.93Z"/><circle class="cls-49" cx="1027.05" cy="530.09" r="2.74"/><circle class="cls-70" cx="1028.42" cy="531.29" r=".51"/><circle class="cls-70" cx="1026.16" cy="529.06" r="1.03"/><circle class="cls-49" cx="1018.97" cy="530.01" r="2.74"/><circle class="cls-70" cx="1020.34" cy="531.21" r=".51"/><circle class="cls-70" cx="1018.08" cy="528.98" r="1.03"/><path class="cls-46" d="m1019.16,522.74c-.05.41-.14,1.62.57,2.86.56.98,1.34,1.5,1.71,1.71"/><path class="cls-46" d="m1021.45,522.17c-.1.46-.22,1.29,0,2.29.25,1.15.83,1.92,1.14,2.29"/><path class="cls-46" d="m1024.88,521.6c-.33.41-.87,1.18-1.14,2.29-.32,1.27-.13,2.34,0,2.86"/><path class="cls-46" d="m1027.16,523.88c-.35.27-.75.64-1.14,1.14-.67.86-.99,1.72-1.14,2.29"/><line class="cls-47" x1="1019.16" y1="535.03" x2="1026.88" y2="535.03"/></g><g id="fugl-2"><path class="cls-18" d="m948.72,466.61c1.13-.04,1.93-.37,2.42-.6l.37-.86,4.44,1.77-5.83-7.37c-.57-.72-1.66-.75-2.26-.06l-6.52,7.43,4.82-2.02.15,1.12c.51.24,1.08.65,2.42.6Z"/><path class="cls-50" d="m949.01,461.5l-5.12,2.05h3.07l.34,1.02c.34.14.94.34,1.71.34.37,0,1-.05,1.71-.34,0-.34.34-.68.34-1.02l3.25.56-5.3-2.61Z"/><circle class="cls-49" cx="951.08" cy="460.83" r="1.45"/><circle class="cls-70" cx="951.8" cy="461.47" r=".27"/><circle class="cls-70" cx="950.61" cy="460.29" r=".54"/><circle class="cls-49" cx="946.81" cy="460.79" r="1.45"/><circle class="cls-70" cx="947.53" cy="461.42" r=".27"/><circle class="cls-70" cx="946.34" cy="460.24" r=".54"/><path class="cls-46" d="m946.91,456.95c-.03.22-.07.85.3,1.51.3.52.71.79.91.91"/><path class="cls-46" d="m948.12,456.64c-.05.24-.12.68,0,1.21.13.61.44,1.01.6,1.21"/><path class="cls-46" d="m949.93,456.34c-.17.21-.46.62-.6,1.21-.17.67-.07,1.23,0,1.51"/><path class="cls-46" d="m951.14,457.55c-.18.14-.4.34-.6.6-.35.45-.52.91-.6,1.21"/><line class="cls-47" x1="946.91" y1="463.44" x2="950.99" y2="463.44"/></g><ellipse class="cls-32" cx="248.84" cy="598.6" rx="51" ry="5.5"/><polyline class="cls-32" points="213.84 477.6 213.84 598.1 222.84 598.1 221.84 476.6"/><ellipse class="cls-32" cx="218.84" cy="734.6" rx="75.5" ry="21" transform="translate(-77.54 27.71) rotate(-6.16)"/><rect class="cls-32" x="161.84" y="475.1" width="9" height="268"/><rect class="cls-32" x="260.84" y="605.1" width="9" height="121.25"/><rect class="cls-32" x="213.84" y="605.1" width="9" height="129.24"/><ellipse class="cls-32" cx="193.34" cy="471.6" rx="62.5" ry="5.5"/><g id="fugl-3"><path class="cls-18" d="m746.67,568.33c2.13-.07,3.64-.7,4.57-1.14l.7-1.63,8.41,3.35-11.03-13.95c-1.08-1.37-3.13-1.42-4.28-.11l-12.34,14.06,9.12-3.83.29,2.12c.97.46,2.04,1.22,4.57,1.14Z"/><path class="cls-50" d="m747.23,558.66l-9.69,3.88h5.82l.65,1.94c.65.27,1.78.65,3.23.65.7,0,1.89-.09,3.23-.65,0-.65.65-1.29.65-1.94l6.15,1.05-10.03-4.93Z"/><circle class="cls-49" cx="751.13" cy="557.4" r="2.74"/><circle class="cls-70" cx="752.51" cy="558.6" r=".51"/><circle class="cls-70" cx="750.24" cy="556.37" r="1.03"/><circle class="cls-49" cx="743.05" cy="557.31" r="2.74"/><circle class="cls-70" cx="744.42" cy="558.52" r=".51"/><circle class="cls-70" cx="742.16" cy="556.29" r="1.03"/><path class="cls-46" d="m743.25,550.04c-.05.41-.14,1.62.57,2.86.56.98,1.34,1.5,1.71,1.71"/><path class="cls-46" d="m745.53,549.47c-.1.46-.22,1.29,0,2.29.25,1.15.83,1.92,1.14,2.29"/><path class="cls-46" d="m748.96,548.9c-.33.41-.87,1.18-1.14,2.29-.32,1.27-.13,2.34,0,2.86"/><path class="cls-46" d="m751.25,551.19c-.35.27-.75.64-1.14,1.14-.67.86-.99,1.72-1.14,2.29"/><line class="cls-47" x1="743.25" y1="562.33" x2="750.96" y2="562.33"/></g><g id="fugl-4"><path class="cls-18" d="m771.97,513.66c1.15-.04,1.96-.38,2.46-.62l.38-.88,4.53,1.8-5.94-7.51c-.58-.74-1.69-.76-2.31-.06l-6.65,7.57,4.91-2.06.15,1.14c.52.25,1.1.66,2.46.62Z"/><path class="cls-50" d="m772.26,508.45l-5.22,2.09h3.13l.35,1.04c.35.15.96.35,1.74.35.38,0,1.02-.05,1.74-.35,0-.35.35-.7.35-1.04l3.32.57-5.41-2.66Z"/><circle class="cls-49" cx="774.37" cy="507.77" r="1.48"/><circle class="cls-70" cx="775.11" cy="508.42" r=".28"/><circle class="cls-70" cx="773.89" cy="507.22" r=".55"/><circle class="cls-49" cx="770.01" cy="507.73" r="1.48"/><circle class="cls-70" cx="770.75" cy="508.37" r=".28"/><circle class="cls-70" cx="769.53" cy="507.17" r=".55"/><path class="cls-46" d="m770.12,503.81c-.03.22-.07.87.31,1.54.3.53.72.81.92.92"/><path class="cls-46" d="m771.35,503.5c-.05.25-.12.69,0,1.23.14.62.45,1.03.62,1.23"/><path class="cls-46" d="m773.2,503.19c-.18.22-.47.63-.62,1.23-.17.69-.07,1.26,0,1.54"/><path class="cls-46" d="m774.43,504.43c-.19.14-.41.35-.62.62-.36.46-.53.92-.62,1.23"/><line class="cls-47" x1="770.12" y1="510.43" x2="774.27" y2="510.43"/></g></g><g id="figurer"><path class="cls-57" d="m1780.06,865.49c-.02-7.41-.04-14.82-.06-22.23,1.98-13.27,13.65-23.02,26.89-22.65,12.95.37,23.89,10.33,25.48,23.36.03,10.79.06,21.58.08,32.36l-52.39-10.84Z"/></g></svg>