<?xml version="1.0" encoding="UTF-8"?><svg id="figurer" xmlns="http://www.w3.org/2000/svg" width="124.53" height="113.52" viewBox="0 0 124.53 113.52"><defs><style>.cls-1{stroke-width:3px;}.cls-1,.cls-2,.cls-3,.cls-4,.cls-5,.cls-6{stroke-miterlimit:10;}.cls-1,.cls-3,.cls-5{stroke:#000;}.cls-1,.cls-5,.cls-6{fill:none;}.cls-2{fill:#d1e7ec;}.cls-2,.cls-3,.cls-4{stroke-width:2px;}.cls-2,.cls-4{stroke:#291c1b;}.cls-3,.cls-4{fill:#f4d270;}.cls-6{stroke:#2b1b1b;}.cls-7,.cls-8,.cls-9,.cls-10,.cls-11,.cls-12{stroke-width:0px;}.cls-8{fill:#f8e476;}.cls-9{fill:#291c1b;}.cls-10{fill:#fff;}.cls-11{fill:#fff8f8;}.cls-12{fill:#efa8b6;}</style></defs><ellipse class="cls-2" cx="25.2" cy="73.41" rx="25.11" ry="18.92" transform="translate(-27.77 16.67) rotate(-24.09)"/><ellipse class="cls-4" cx="35.28" cy="57.73" rx="8.11" ry="4.28" transform="translate(-24.14 25.38) rotate(-30)"/><ellipse class="cls-2" cx="79.69" cy="89.66" rx="18.92" ry="25.11" transform="translate(-38.68 70.22) rotate(-39.05)"/><ellipse class="cls-4" cx="83.98" cy="72.95" rx="4.28" ry="8.11" transform="translate(-22.46 40.62) rotate(-24.09)"/><ellipse class="cls-4" cx="58.84" cy="104.75" rx="6.07" ry="4.28" transform="translate(-51.22 152.94) rotate(-84.32)"/><ellipse class="cls-4" cx="36.78" cy="96.98" rx="6.07" ry="4.28" transform="translate(-57.8 54.41) rotate(-45)"/><ellipse class="cls-2" cx="99.04" cy="46.54" rx="25.11" ry="18.92" transform="translate(-9.91 36.28) rotate(-19.79)"/><ellipse class="cls-2" cx="36.82" cy="29.27" rx="18.92" ry="25.11" transform="translate(-10.22 29.73) rotate(-39.05)"/><path class="cls-3" d="m82.58,81.95c-.71,2.64-3.64,13.43-13.91,18.25-11.9,5.58-24.1-1.78-26.18-3.09-2.24-1.42-10.92-6.91-12.85-17.38-1.69-9.11,2.68-16.32,4.3-19,3.38-5.58,7.56-8.46,12.36-11.71,8.29-5.6,18.26-12.33,25.53-8.78,4.74,2.32,6.16,8.04,8.98,19.49,2.32,9.4,3.71,15.03,1.77,22.22Z"/><path class="cls-4" d="m93.79,47.95c-6.56,9.73-19.22,12.1-28.8,9.52-9.9-2.66-20.02-11.56-20.23-23.33-.15-8.24,4.6-15.59,10.47-19.52,13-8.69,34.92-2.88,40.94,11.43,2.92,6.95,1.92,15.51-2.38,21.9Z"/><line class="cls-8" x1="44.23" y1="48.34" x2="84.05" y2="58.78"/><path class="cls-9" d="m39.87,53.78c4.9,3.01,11.24,6.32,18.98,9.05,9.21,3.25,17.49,4.64,23.91,5.24.29,1.15.54,2.51.68,4.05.15,1.72.11,3.25,0,4.52-7.89-1.37-16.9-3.45-26.64-6.66-8.65-2.85-16.28-6.07-22.85-9.24.66-1.1,1.52-2.33,2.6-3.61,1.15-1.36,2.31-2.46,3.33-3.33Z"/><path class="cls-9" d="m29.39,73.32l48.92,18.22c-.58,1.45-1.71,3.72-3.92,5.8-3.97,3.74-8.68,4.29-10.25,4.4-2.42.57-8.08,1.56-14.75-.59-7.03-2.26-11.17-6.73-12.75-8.63-1.6-1.5-4.65-4.77-6.29-9.94-1.23-3.87-1.16-7.23-.96-9.26Z"/><path class="cls-1" d="m63.46,11.34c-.29-1.06-.96-2.95-2.55-4.81-1.45-1.69-3.02-2.61-3.98-3.08"/><path class="cls-1" d="m91.73,19.68c.65-.88,1.96-2.41,4.11-3.57,1.96-1.05,3.76-1.35,4.83-1.44"/><circle class="cls-7" cx="55.06" cy="2.34" r="2.34"/><circle class="cls-7" cx="101.8" cy="14.55" r="2.34"/><polygon class="cls-9" points="45.98 96.96 51.15 99.45 45.44 104.69 45.98 96.96"/><ellipse class="cls-12" cx="53.35" cy="35.36" rx="2.26" ry="4.39" transform="translate(-.64 69.74) rotate(-66.03)"/><ellipse class="cls-12" cx="83.04" cy="47.26" rx="2.26" ry="4.39" transform="translate(6.12 103.93) rotate(-66.03)"/><line class="cls-5" x1="63.61" y1="43.38" x2="67.04" y2="46.52"/><path class="cls-10" d="m83.73,36.91c.81.87.6,2.12.56,2.31-.11.9-.28,1.65-.43,2.21-.32,1.16-.7,2.06-1.05,2.74-.45.89-.68,1.33-1.01,1.5-.26.14-.64.22-3.27-.78.34-.44.72-1.01,1.07-1.7.38-.74.62-1.43.77-2,.1-.33.21-.82.2-1.42-.01-.43-.08-.8-.16-1.08-.05-.24-.18-.68-.51-1.12-.36-.47-.77-.72-1-.83.7-.35,1.63-.65,2.71-.59.63.04,1.48.09,2.1.76Z"/><path class="cls-7" d="m79.92,37.57c.33.44.46.88.51,1.12.08.28.15.65.16,1.08.01.6-.1,1.09-.2,1.42-.16.57-.4,1.26-.77,2-.35.69-.73,1.26-1.07,1.7-.31-.12-1.3-.5-2.56-1.13-1.28-.65-1.46-.86-1.55-1.1-.06-.15-.23-.7.96-2.47.52-.78.91-1.36,1.36-1.85,0,.15.02.31.05.48.04.3.11.57.18.79.02.06.1.32.36.48.32.2.66.1.71.08.2-.06.51-.2.75-.49.52-.64.28-1.51.21-1.77-.12-.43-.34-.75-.51-.96.13-.08.28-.16.43-.23.23.11.64.36,1,.83Z"/><path class="cls-11" d="m78.49,36.97c.17.2.39.53.51.96.07.25.31,1.13-.21,1.77-.24.29-.55.43-.75.49-.05.02-.39.12-.71-.08-.26-.16-.34-.42-.36-.48-.07-.23-.14-.49-.18-.79-.02-.17-.04-.33-.05-.48.29-.32.61-.61,1.01-.89.17-.12.41-.3.73-.48Z"/><path class="cls-6" d="m76.75,38.34c.29-.32.61-.61,1.01-.89.17-.12.41-.3.73-.48.13-.08.28-.16.43-.23.7-.35,1.63-.65,2.71-.59.63.04,1.48.09,2.1.76.81.87.6,2.12.56,2.31-.11.9-.28,1.65-.43,2.21-.32,1.16-.7,2.06-1.05,2.74-.45.89-.68,1.33-1.01,1.5-.26.14-.64.22-3.27-.78-.31-.12-1.3-.5-2.56-1.13-1.28-.65-1.46-.86-1.55-1.1-.06-.15-.23-.7.96-2.47.52-.78.91-1.36,1.36-1.85Z"/><path class="cls-6" d="m78.54,44.9c.34-.44.72-1.01,1.07-1.7.38-.74.62-1.43.77-2,.1-.33.21-.82.2-1.42-.01-.43-.08-.8-.16-1.08-.05-.24-.18-.68-.51-1.12-.36-.47-.77-.72-1-.83"/><path class="cls-6" d="m76.75,38.34c0,.15.02.31.05.48.04.3.11.57.18.79.02.06.1.32.36.48.32.2.66.1.71.08.2-.06.51-.2.75-.49.52-.64.28-1.51.21-1.77-.12-.43-.34-.75-.51-.96"/><path class="cls-10" d="m60.67,27.51c-1.19-.02-1.98.96-2.11,1.11-.6.68-1.05,1.3-1.37,1.78-.66,1.01-1.08,1.89-1.36,2.6-.37.93-.55,1.39-.46,1.75.07.29.26.62,2.75,1.93.11-.55.28-1.21.57-1.93.31-.77.66-1.41.99-1.91.18-.3.48-.71.93-1.09.33-.28.65-.47.91-.6.22-.12.63-.32,1.18-.36.59-.05,1.05.1,1.29.2-.21-.76-.59-1.66-1.36-2.42-.45-.44-1.05-1.05-1.96-1.07Z"/><path class="cls-7" d="m62.7,30.8c-.55.04-.96.24-1.18.36-.26.13-.58.32-.91.6-.46.39-.75.79-.93,1.09-.32.5-.68,1.13-.99,1.91-.29.72-.46,1.38-.57,1.93.29.16,1.23.65,2.55,1.17,1.34.53,1.61.52,1.85.43.16-.06.68-.29,1.22-2.36.24-.9.42-1.58.49-2.25-.12.09-.25.19-.39.28-.25.17-.5.29-.71.39-.06.03-.3.14-.6.05-.36-.11-.51-.43-.53-.47-.09-.19-.19-.51-.13-.88.13-.81.95-1.21,1.18-1.33.4-.2.79-.25,1.05-.26-.03-.15-.06-.31-.11-.48-.24-.09-.7-.24-1.29-.2Z"/><path class="cls-11" d="m64.1,31.47c-.27,0-.65.06-1.05.26-.23.12-1.05.52-1.18,1.33-.06.37.04.69.13.88.02.05.17.37.53.47.29.09.54-.02.6-.05.22-.1.46-.22.71-.39.14-.09.27-.19.39-.28.05-.43.05-.86,0-1.35-.02-.2-.05-.51-.13-.87Z"/><path class="cls-6" d="m64.22,33.69c.05-.43.05-.86,0-1.35-.02-.2-.05-.51-.13-.87-.03-.15-.06-.31-.11-.48-.21-.76-.59-1.66-1.36-2.42-.45-.44-1.05-1.05-1.96-1.07-1.19-.02-1.98.96-2.11,1.11-.6.68-1.05,1.3-1.37,1.78-.66,1.01-1.08,1.89-1.36,2.6-.37.93-.55,1.39-.46,1.75.07.29.26.62,2.75,1.93.29.16,1.23.65,2.55,1.17,1.34.53,1.61.52,1.85.43.16-.06.68-.29,1.22-2.36.24-.9.42-1.58.49-2.25Z"/><path class="cls-6" d="m58.12,36.69c.11-.55.28-1.21.57-1.93.31-.77.66-1.41.99-1.91.18-.3.48-.71.93-1.09.33-.28.65-.47.91-.6.22-.12.63-.32,1.18-.36.59-.05,1.05.1,1.29.2"/><path class="cls-6" d="m64.22,33.69c-.12.09-.25.19-.39.28-.25.17-.5.29-.71.39-.06.03-.3.14-.6.05-.36-.11-.51-.43-.53-.47-.09-.19-.19-.51-.13-.88.13-.81.95-1.21,1.18-1.33.4-.2.79-.25,1.05-.26"/><line class="cls-6" x1="63.62" y1="26.07" x2="66.94" y2="30.22"/><line class="cls-6" x1="83.1" y1="33.12" x2="77.89" y2="34.98"/></svg>