<?xml version="1.0" encoding="UTF-8"?><svg id="figurer" xmlns="http://www.w3.org/2000/svg" width="108.02" height="112.13" viewBox="0 0 108.02 112.13"><defs><style>.cls-1,.cls-2,.cls-3{stroke-miterlimit:10;}.cls-1,.cls-3{stroke:#000;}.cls-2{fill:#9dc4cb;stroke:#291c1b;stroke-width:2px;}.cls-3{fill:#fff;}.cls-4{fill:#f4d270;}.cls-4,.cls-5{stroke-width:0px;}.cls-5{fill:#e4aab5;}</style></defs><path class="cls-2" d="m83.25,84.77c4.56.97,9.12,1.94,13.69,2.91,1.25.27,2.51.53,3.76.8-.55.32-1.31.69-2.26.93-1.59.41-2.96.28-3.78.13.63.55,1.52,1.2,2.68,1.74,2.01.93,3.85,1.06,4.94,1.05-.88.29-2.13.59-3.65.63-1.96.05-3.54-.38-4.53-.73.97.79,2.43,1.79,4.38,2.57,2.25.9,4.27,1.14,5.61,1.19-1.75.38-3.85.64-6.2.56-7.74-.27-13.35-4.1-15.84-6.08.41-1.91.81-3.81,1.22-5.72Z"/><ellipse class="cls-2" cx="70.17" cy="105.32" rx="2.18" ry="3.67" transform="translate(-52.22 73.13) rotate(-41.59)"/><ellipse class="cls-2" cx="67.28" cy="106.72" rx="2.18" ry="3.67" transform="translate(-39.77 39.97) rotate(-25.83)"/><ellipse class="cls-2" cx="64.59" cy="108.02" rx="2.18" ry="3.67" transform="translate(-21.06 15.8) rotate(-12.01)"/><ellipse class="cls-2" cx="22.26" cy="104.28" rx="3.67" ry="2.18" transform="translate(-70.51 51.71) rotate(-48.41)"/><ellipse class="cls-2" cx="25.15" cy="105.68" rx="3.67" ry="2.18" transform="translate(-80.93 82.28) rotate(-64.17)"/><ellipse class="cls-2" cx="27.84" cy="106.98" rx="3.67" ry="2.18" transform="translate(-82.59 111.95) rotate(-77.99)"/><path class="cls-2" d="m6.37,69.56c-2.49-2.91-7.39-8.65-5.41-14.12.93-2.56,3.21-4.63,5.72-5.42,5.22-1.65,10.3,2.55,14.01,5.61,0,0,10.68,8.83,10.44,20.11-.01.53-.04,1.89-.97,2.71-.81.71-1.98.73-3.09.58-14.24-1.93-20.69-9.47-20.69-9.47Z"/><polygon class="cls-2" points="47.09 18 61.41 1.35 61.41 9.68 67.41 8.03 65.12 12.15 73.36 9.68 54.22 22.59 47.09 18"/><path class="cls-2" d="m86.4,45.99c2.13,5.16,5.51,13.62,4.94,25-.24,4.9-.69,13.81-6.19,22.02-10.61,15.84-33.17,18.87-48.4,15.37-4.4-1.01-12.01-2.67-17.98-9.17-6.5-7.07-7.92-15.78-9.19-23.63-2.77-17,1.16-30.06,2.45-33.95,1.87-5.62,4-11.78,9.59-17.89,2.59-2.83,8.16-8.77,17.43-11.01,9.07-2.2,16.57.38,19.36,1.38,17.42,6.23,24.76,24.05,27.99,31.88Z"/><ellipse class="cls-5" cx="62.78" cy="65.14" rx="4.24" ry="2.18"/><ellipse class="cls-5" cx="21.04" cy="65.83" rx="4.24" ry="2.18"/><ellipse class="cls-4" cx="40.67" cy="61.99" rx="4.47" ry="2.52"/><path class="cls-2" d="m78.27,73.11c-2.47-2.89-7.33-8.57-5.37-13.99.92-2.54,3.18-4.59,5.67-5.37,5.17-1.64,10.21,2.53,13.89,5.56,0,0,10.59,8.75,10.35,19.93-.01.53-.04,1.87-.96,2.68-.8.71-1.96.72-3.07.58-14.12-1.91-20.51-9.39-20.51-9.39Z"/><circle class="cls-1" cx="26.7" cy="54.97" r="4.7"/><circle class="cls-3" cx="24.35" cy="57.03" r=".88"/><circle class="cls-3" cx="28.23" cy="53.21" r="1.76"/><circle class="cls-1" cx="54.86" cy="55.24" r="4.67"/><circle class="cls-3" cx="57.19" cy="57.28" r=".88"/><circle class="cls-3" cx="53.34" cy="53.49" r="1.75"/></svg>