<?xml version="1.0" encoding="UTF-8"?><svg id="Lag_10" xmlns="http://www.w3.org/2000/svg" width="481.56" height="303" xmlns:xlink="http://www.w3.org/1999/xlink" viewBox="0 0 481.56 303"><defs><style>.cls-1,.cls-2,.cls-3{fill:#78abb2;}.cls-1,.cls-2,.cls-3,.cls-4,.cls-5,.cls-6{stroke:#d5cbe8;stroke-miterlimit:10;}.cls-1,.cls-4,.cls-5{stroke-width:2px;}.cls-2{stroke-width:4px;}.cls-7{filter:url(#drop-shadow-2);}.cls-4,.cls-6{fill:none;}.cls-8{fill:#d5cbe8;}.cls-8,.cls-9{stroke-width:0px;}.cls-9{fill:#fff;}</style><filter id="drop-shadow-2" filterUnits="userSpaceOnUse"><feOffset dx="15" dy="1"/><feGaussianBlur result="blur" stdDeviation="2"/><feFlood flood-color="#666565" flood-opacity=".75"/><feComposite in2="blur" operator="in"/><feComposite in="SourceGraphic"/></filter></defs><rect class="cls-2" x="5" y="6" width="471.56" height="292" rx="53.9" ry="53.9"/><g class="cls-7"><path class="cls-2" d="m41.29,95.42v-45.63c0-14.76,7.32-22.32,20.21-22.32,13.76,0,19.34,7.94,19.34,19.47v2.48c0,4.46-3.22,7.44-7.19,7.44s-7.19-2.85-7.19-7.44v-.25c0-5.58-1.24-7.56-4.59-7.56-3.6,0-5.46,2.36-5.46,8.18v45.38c0,5.83,1.74,8.18,5.08,8.18s5.21-2.36,5.21-8.18v-15.87h-.37c-3.84,0-6.7-3.1-6.7-6.94s2.85-6.94,6.7-6.94h5.33c6.2,0,9.67,3.22,9.67,9.3v21.2c0,14.26-6.94,21.82-19.84,21.82s-20.21-7.56-20.21-22.32Z"/><path class="cls-2" d="m126.6,61.2v48.36c0,4.09-3.22,7.32-7.32,7.32-1.61,0-3.22-.5-4.34-1.49-2.48,1.74-6.2,2.6-8.8,2.6-10.54,0-17.36-6.2-17.36-17.85v-14.01c0-11.9,6.82-18.1,17.36-18.1,1.74,0,3.97.5,5.95,1.24v-8.06c0-5.7-1.36-7.32-3.97-7.32-2.85,0-4.22,1.98-4.22,5.33v.25c0,3.84-2.73,6.82-6.82,6.82s-6.94-2.85-6.94-7.44v-.99c0-9.92,6.57-17.11,17.85-17.11,12.52,0,18.6,7.19,18.6,20.46Zm-14.51,26.91c0-5.83-1.86-8.56-4.59-8.56-2.98,0-4.34,1.86-4.34,7.94v11.04c0,5.83,1.36,7.94,4.34,7.94,2.73,0,4.59-2.98,4.59-8.68v-9.67Z"/><path class="cls-2" d="m196.53,61.2v48.36c0,4.09-3.22,7.32-7.32,7.32s-7.32-3.22-7.32-7.32v-47.86c0-5.95-1.24-8.06-4.22-8.06s-4.46,2.11-4.46,8.06v47.86c0,4.09-3.22,7.32-7.32,7.32s-7.32-3.22-7.32-7.32v-47.86c0-5.95-1.24-8.06-4.46-8.06-2.85,0-4.22,2.11-4.22,8.06v47.86c0,4.09-3.22,7.32-7.32,7.32s-7.32-3.22-7.32-7.32v-48.36c0-13.64,7.56-20.83,18.47-20.83,4.71,0,9.05,1.24,12.15,4.71,3.1-3.47,7.44-4.71,12.15-4.71,10.91,0,18.48,7.19,18.48,20.83Z"/><path class="cls-2" d="m205.22,96.78v-35.46c0-13.52,7.56-20.71,18.85-20.71s18.85,7.19,18.85,20.71v17.36c0,6.2-3.35,9.18-9.55,9.18h-13.52v8.93c0,5.46,1.74,7.81,4.84,7.81,3.6,0,4.34-2.36,4.34-5.58v-.74c0-3.84,2.98-6.82,6.82-6.82s6.82,2.98,6.82,6.82v1.86c0,11.53-7.07,17.61-18.1,17.61-11.78,0-19.34-7.19-19.34-20.95Zm23.31-20.71v-15.25c0-5.95-1.24-7.94-4.46-7.94-2.85,0-4.22,1.98-4.22,7.94v15.25h8.68Z"/><path class="cls-2" d="m264.98,97.15v-35.83c0-13.64,7.56-20.83,18.85-20.83s19.1,7.19,19.1,20.83v35.83c0,13.64-7.56,20.83-19.1,20.83s-18.85-7.19-18.85-20.83Zm23.31-.12v-35.46c0-5.95-1.24-8.06-4.46-8.06-2.85,0-4.22,2.11-4.22,8.06v35.46c0,5.95,1.36,7.81,4.22,7.81,3.22,0,4.46-1.86,4.46-7.81Z"/><path class="cls-2" d="m311.11,90.09v-41.04c0-4.09,3.22-7.44,7.32-7.44s7.32,3.35,7.32,7.44v40.42c0,6.82,2.6,12.4,4.22,12.4,1.74,0,4.34-7.44,4.34-16.61v-15.62c0-6.45-1.12-11.41-3.47-15.13-2.6-4.09-2.48-9.92.74-12.03,3.47-2.23,7.44-1.12,10.17,2.36,4.59,5.95,6.82,12.52,6.82,21.82v17.61c0,17.11-7.81,33.35-18.97,33.35-9.42,0-18.48-15.25-18.48-27.53Z"/><path class="cls-2" d="m356.62,96.78v-35.46c0-13.52,7.56-20.71,18.85-20.71s18.85,7.19,18.85,20.71v17.36c0,6.2-3.35,9.18-9.55,9.18h-13.52v8.93c0,5.46,1.74,7.81,4.84,7.81,3.6,0,4.34-2.36,4.34-5.58v-.74c0-3.84,2.98-6.82,6.82-6.82s6.82,2.98,6.82,6.82v1.86c0,11.53-7.07,17.61-18.1,17.61-11.78,0-19.34-7.19-19.34-20.95Zm23.31-20.71v-15.25c0-5.95-1.24-7.94-4.46-7.94-2.85,0-4.22,1.98-4.22,7.94v15.25h8.68Z"/><path class="cls-2" d="m402.5,109.55v-48.36c0-13.64,7.44-20.83,18.48-20.83s18.23,6.45,18.23,20.21v6.57c0,4.09-3.22,7.32-7.07,7.32-4.09,0-7.07-3.22-7.07-7.32v-5.95c0-5.83-1.12-7.56-4.09-7.56s-3.84,2.11-3.84,8.06v47.86c0,4.09-3.22,7.32-7.32,7.32s-7.32-3.22-7.32-7.32Z"/></g><path class="cls-1" d="m282.64,153.69l-8.88-.37c.19-4.47,1.35-8.21,3.46-11.17-2.98.41-5.97,1.82-8.68,4.09l-5.72-6.81c4.13-3.47,8.85-5.6,13.65-6.15.53-.06,12.96-1.41,14.09,5.54.55,3.39-2.15,5.22-3.44,6.1-.67.46-1.37.93-1.98,1.56-1.53,1.57-2.37,4-2.5,7.21Z"/><path class="cls-3" d="m266.57,142.38c4.72-3.97,9.06-4.88,11.31-5.14,4.03-.46,8.94.33,9.19,1.84.17,1.06-2.12,1.68-4.23,3.86-2.88,2.97-3.62,6.98-3.75,10.11"/><path class="cls-1" d="m210.92,153.02c-.13-3.21-.98-5.64-2.5-7.21-.62-.63-1.31-1.11-1.98-1.56-1.29-.88-3.99-2.71-3.44-6.1,1.13-6.96,13.56-5.6,14.09-5.54,4.8.55,9.52,2.68,13.65,6.15l-5.72,6.81c-2.71-2.27-5.7-3.68-8.68-4.09,2.11,2.96,3.27,6.71,3.46,11.17l-8.88.37Z"/><path class="cls-1" d="m226.99,141.72c-4.72-3.97-9.06-4.88-11.31-5.14-4.03-.46-8.94.33-9.19,1.84-.17,1.06,2.12,1.68,4.23,3.86,2.88,2.97,3.62,6.98,3.75,10.11"/><path class="cls-1" d="m284.53,163.67c.53,3.88,2.49,18.33-6.71,28.8-8.94,10.17-22.66,10.02-31.45,9.93-8.76-.1-21.42-.24-30.34-9.93-10.38-11.27-7.98-27.07-7.55-29.92.58-3.85,1.31-8.58,4.69-13.14,7.81-10.51,22.97-10.58,33.33-10.62,10.58-.05,24.75-.11,32.62,9.79,4.04,5.07,4.8,10.67,5.4,15.1Z"/><ellipse class="cls-8" cx="272.5" cy="184.08" rx="5.17" ry="2.66"/><ellipse class="cls-8" cx="224.69" cy="184.08" rx="5.17" ry="2.66"/><path class="cls-8" d="m244.96,178.62h6.89c.05.35.17,1.52-.74,2.7-.92,1.21-2.3,1.65-2.71,1.77-.45-.15-1.71-.62-2.61-1.77-.91-1.17-.87-2.32-.84-2.7Z"/><path class="cls-6" d="m213.03,173.78c-4.07-.63-8.92-1.01-14.37-.7-2.33.13-4.52.38-6.54.7"/><path class="cls-6" d="m212.97,177.22c-2.77-.35-6.2-.52-10.1-.13-2.34.23-4.44.63-6.28,1.08"/><path class="cls-6" d="m212.64,180.63c-2.22-.05-4.88.07-7.83.56-2.21.36-4.17.86-5.87,1.4"/><path class="cls-6" d="m280.97,174.31c4.07-.63,8.92-1.01,14.37-.7,2.33.13,4.52.38,6.54.7"/><path class="cls-6" d="m281.04,177.75c2.77-.35,6.2-.52,10.1-.13,2.34.23,4.44.63,6.28,1.08"/><path class="cls-6" d="m281.37,181.16c2.22-.05,4.88.07,7.83.56,2.21.36,4.17.86,5.87,1.4"/><line class="cls-5" x1="248.41" y1="182.65" x2="248.42" y2="185.83"/><path class="cls-4" d="m244.11,187.26c.78-.4,2.25-1.03,4.19-1.12,2.06-.09,3.66.48,4.47.84"/><path class="cls-8" d="m237.34,170.57c.73,1.88-1.42,5.94-5.01,6.37-3.14.38-6-1.87-6.37-5.01-.43-3.6,3-6.62,5.01-6.37.92.11.99.84,3.36,2.67,2.12,1.64,2.71,1.56,3.01,2.33Z"/><circle class="cls-9" cx="229.11" cy="174.09" r="1.07"/><circle class="cls-9" cx="232.83" cy="170.08" r="2.15"/><path class="cls-8" d="m258.98,170.94c-.6,1.93,1.8,5.84,5.41,6.04,3.16.17,5.86-2.25,6.04-5.41.2-3.62-3.42-6.42-5.41-6.04-.91.17-.94.9-3.18,2.89-2.01,1.77-2.61,1.73-2.85,2.52Z"/><circle class="cls-9" cx="267.42" cy="173.92" r="1.07"/><circle class="cls-9" cx="263.45" cy="170.15" r="2.15"/></svg>