<?xml version="1.0" encoding="UTF-8"?><svg id="Lag_1" xmlns="http://www.w3.org/2000/svg" width="1920" height="1080" viewBox="0 0 1920 1080"><defs><style>.cls-1{fill:#2b1b1b;}.cls-1,.cls-2,.cls-3,.cls-4,.cls-5,.cls-6,.cls-7,.cls-8,.cls-9,.cls-10,.cls-11,.cls-12,.cls-13,.cls-14,.cls-15,.cls-16,.cls-17,.cls-18,.cls-19,.cls-20,.cls-21,.cls-22,.cls-23,.cls-24,.cls-25,.cls-26,.cls-27,.cls-28{stroke-miterlimit:10;}.cls-1,.cls-2,.cls-5,.cls-17,.cls-18,.cls-21,.cls-23,.cls-26,.cls-27,.cls-28{stroke:#2b1b1b;}.cls-1,.cls-2,.cls-17,.cls-29,.cls-30,.cls-31,.cls-32,.cls-33,.cls-34,.cls-35,.cls-36,.cls-37,.cls-38,.cls-39,.cls-40,.cls-41{stroke-width:0px;}.cls-2,.cls-19,.cls-37{fill:#fff;}.cls-3{stroke:#f0b4a6;}.cls-3,.cls-4,.cls-5,.cls-21,.cls-22,.cls-23,.cls-24{fill:none;}.cls-3,.cls-4,.cls-5,.cls-25,.cls-26,.cls-27,.cls-28{stroke-width:3px;}.cls-4,.cls-6,.cls-14,.cls-19,.cls-22{stroke:#000;}.cls-7{fill:#e2eabf;}.cls-7,.cls-8,.cls-9,.cls-10,.cls-11,.cls-12,.cls-14,.cls-15,.cls-21{stroke-width:2px;}.cls-7,.cls-8,.cls-9,.cls-10,.cls-12,.cls-15{stroke:#291c1b;}.cls-8{fill:#b59f8f;}.cls-9{fill:#9dc4cb;}.cls-10{fill:#916d4a;}.cls-11,.cls-16,.cls-25{fill:#78aeb5;stroke:#569799;}.cls-12{fill:#d1e7ec;}.cls-13{fill:#d8ceeb;stroke:#6d6d66;stroke-width:4px;}.cls-14,.cls-15,.cls-31{fill:#f4d270;}.cls-16{stroke-width:9px;}.cls-18,.cls-28,.cls-36{fill:#eda6b4;}.cls-20{fill:#baa9e9;stroke:#baa9e9;}.cls-24{stroke:#adadad;}.cls-29{opacity:.88;}.cls-26{fill:#ffd3c1;}.cls-27,.cls-41{fill:#ffd2c5;}.cls-32{fill:#f8e476;}.cls-33{fill:#291c1b;}.cls-34{fill:#c1d1eb;}.cls-35{fill:#ff93af;}.cls-38{fill:#fff8f8;}.cls-39{fill:#e4aab5;}.cls-40{fill:#efa8b6;}</style></defs><rect class="cls-13" width="1920" height="1080"/><path class="cls-29" d="m661.98,63.06v119.2c0,6.8-5.4,12.2-12.2,12.2s-12.2-5.4-12.2-12.2v-53h-16.4v53c0,6.8-5.4,12.2-12.2,12.2s-12.2-5.4-12.2-12.2V63.06c0-6.8,5.4-12.2,12.2-12.2s12.2,5.4,12.2,12.2v42.6h16.4v-42.6c0-6.8,5.4-12.2,12.2-12.2s12.2,5.4,12.2,12.2Z"/><path class="cls-29" d="m678.98,162.46v-57.8c0-22,12.2-33.6,30.4-33.6s30.8,11.6,30.8,33.6v57.8c0,22-12.2,33.6-30.8,33.6s-30.4-11.6-30.4-33.6Zm37.6-.2v-57.2c0-9.6-2-13-7.2-13-4.6,0-6.8,3.4-6.8,13v57.2c0,9.6,2.2,12.6,6.8,12.6,5.2,0,7.2-3,7.2-12.6Z"/><path class="cls-29" d="m852.98,84.86v77.6c0,22-12.2,33.6-29.8,33.6-7.6,0-14.6-1.8-19.6-7.4-5,5.6-12,7.4-19.6,7.4-17.6,0-29.8-11.6-29.8-33.6v-77.6c0-6.6,5.2-12,11.8-12s11.8,5.4,11.8,12v77c0,9.6,2.2,12.6,6.8,12.6,5.2,0,7.2-3,7.2-12.6v-77c0-6.6,5.2-12,11.8-12s11.8,5.4,11.8,12v77c0,9.6,2.2,12.6,7.2,12.6s6.8-3,6.8-12.6v-77c0-6.6,5.2-12,11.8-12s11.8,5.4,11.8,12Z"/><path class="cls-29" d="m949.38,162.66v3.8c0,20.2-12,29.2-26.6,29.2-17.2,0-28.6-8.8-28.6-29.8v-69.8h-2.8c-6.2,0-10.8-4.8-10.8-10.8s4.6-10.8,10.8-10.8h2.8v-17.6c0-6.6,5.2-12,11.8-12s11.8,5.4,11.8,12v17.6h6.2c6,0,10.8,4.8,10.8,10.8s-4.8,10.8-10.8,10.8h-6.2v70.2c0,6.2,1.8,8.6,5.2,8.6,3.2,0,5-2.6,5-8.2v-4c0-6.8,4-11.2,10.8-11.2,6.4,0,10.6,4.8,10.6,11.2Z"/><path class="cls-29" d="m954.97,162.46v-57.8c0-22,12.2-33.6,30.4-33.6s30.8,11.6,30.8,33.6v57.8c0,22-12.2,33.6-30.8,33.6s-30.4-11.6-30.4-33.6Zm37.6-.2v-57.2c0-9.6-2-13-7.2-13-4.6,0-6.8,3.4-6.8,13v57.2c0,9.6,2.2,12.6,6.8,12.6,5.2,0,7.2-3,7.2-12.6Z"/><path class="cls-29" d="m1113.77,104.06v58.4c0,22-12.2,33.6-30.8,33.6-2.2,0-4.6-.2-6.8-1v21.4c0,6.6-5.2,11.8-11.8,11.8s-11.8-5.2-11.8-11.8v-112.4c0-22,12.2-33.6,30.4-33.6s30.8,11.6,30.8,33.6Zm-23.6.4c0-9.6-2-13-7.2-13-4.6,0-6.8,3.4-6.8,13v56.6c0,9.4,2.6,13.8,6.8,13.8,5.2,0,7.2-3,7.2-12.6v-57.8Z"/><path class="cls-29" d="m1128.97,182.46V54.46c0-6.6,5.2-12,11.8-12s11.8,5.4,11.8,12v128c0,6.6-5.2,11.8-11.8,11.8s-11.8-5.2-11.8-11.8Z"/><path class="cls-29" d="m1226.17,104.46v78c0,6.6-5.2,11.8-11.8,11.8-2.6,0-5.2-.8-7-2.4-4,2.8-10,4.2-14.2,4.2-17,0-28-10-28-28.8v-22.6c0-19.2,11-29.2,28-29.2,2.8,0,6.4.8,9.6,2v-13c0-9.2-2.2-11.8-6.4-11.8-4.6,0-6.8,3.2-6.8,8.6v.4c0,6.2-4.4,11-11,11s-11.2-4.6-11.2-12v-1.6c0-16,10.6-27.6,28.8-27.6,20.2,0,30,11.6,30,33Zm-23.4,43.4c0-9.4-3-13.8-7.4-13.8-4.8,0-7,3-7,12.8v17.8c0,9.4,2.2,12.8,7,12.8,4.4,0,7.4-4.8,7.4-14v-15.6Z"/><path class="cls-29" d="m1239.37,219.86c0-6,4.4-10.6,10.4-10.6h20.6c4.8,0,7.4-2.6,7.4-7v-6.8c-2.2.4-4.4.6-7.2.6-18.2,0-30.4-11.6-30.4-33.6v-77.8c0-6.4,5.2-11.8,11.8-11.8s11.8,5.4,11.8,11.8v77.2c0,9.6,2.2,12.6,6.8,12.6,5.2,0,7.2-3,7.2-12.6v-77.2c0-6.4,5.2-11.8,11.8-11.8s11.8,5.4,11.8,11.8v120.2c0,16-8.8,25.6-24.8,25.6h-26.8c-6,0-10.4-4.6-10.4-10.6Z"/><path class="cls-30" d="m432.88,258.77v42.92c0,2.45-1.94,4.39-4.39,4.39s-4.39-1.94-4.39-4.39v-19.08h-5.9v19.08c0,2.45-1.94,4.39-4.39,4.39s-4.39-1.94-4.39-4.39v-42.92c0-2.45,1.94-4.39,4.39-4.39s4.39,1.94,4.39,4.39v15.34h5.9v-15.34c0-2.45,1.94-4.39,4.39-4.39s4.39,1.94,4.39,4.39Z"/><path class="cls-30" d="m431.72,315.22c0-2.16,1.58-3.82,3.74-3.82h1.15c1.73,0,2.66-.94,2.66-2.52v-42.27c0-2.38,1.87-4.32,4.25-4.32s4.25,1.94,4.25,4.32v43.2c0,5.76-3.17,9.22-8.93,9.22h-3.38c-2.16,0-3.74-1.66-3.74-3.82Zm7.49-59.55c0-2.38,1.94-4.32,4.32-4.32s4.32,1.94,4.32,4.32-1.94,4.32-4.32,4.32-4.32-1.94-4.32-4.32Z"/><path class="cls-30" d="m474.13,289.15v5.18c0,3.17,1.01,4.54,2.81,4.54,2.09,0,2.52-1.37,2.52-3.24v-.43c0-2.23,1.73-3.96,3.96-3.96s3.96,1.73,3.96,3.96v1.08c0,6.7-4.1,10.23-10.51,10.23-3.31,0-6.05-1.01-7.92-3.1-1.22,2.16-4.46,3.24-6.7,3.24-6.12,0-10.08-3.6-10.08-10.37v-8.14c0-6.91,3.96-10.51,10.08-10.51,1.01,0,2.3.29,3.46.72v-4.68c0-3.31-.79-4.25-2.3-4.25-1.66,0-2.45,1.15-2.45,3.1v.14c0,2.23-1.58,3.96-3.96,3.96s-4.03-1.66-4.03-4.32v-.58c0-5.76,3.82-9.94,10.58-9.94,2.88,0,4.9.65,6.34,2.02,1.87-1.44,4.1-2.09,6.7-2.09,6.7,0,10.95,4.18,10.95,12.02v10.08c0,3.6-1.94,5.33-5.54,5.33h-7.85Zm-8.42.14c0-3.38-1.08-4.97-2.66-4.97-1.73,0-2.52,1.08-2.52,4.61v6.41c0,3.38.79,4.61,2.52,4.61,1.58,0,2.66-1.73,2.66-5.04v-5.62Zm8.42-6.98h5.04v-8.86c0-3.46-.72-4.61-2.59-4.61-1.66,0-2.45,1.15-2.45,4.61v8.86Z"/><path class="cls-30" d="m492.2,301.75v-46.08c0-2.38,1.87-4.32,4.25-4.32s4.25,1.94,4.25,4.32v46.08c0,2.38-1.87,4.25-4.25,4.25s-4.25-1.87-4.25-4.25Z"/><path class="cls-30" d="m528.2,273.53v21.03c0,7.92-4.39,12.1-11.09,12.1-.79,0-1.66-.07-2.45-.36v7.7c0,2.38-1.87,4.25-4.25,4.25s-4.25-1.87-4.25-4.25v-40.47c0-7.92,4.39-12.1,10.95-12.1s11.09,4.18,11.09,12.1Zm-8.5.14c0-3.46-.72-4.68-2.59-4.68-1.66,0-2.45,1.22-2.45,4.68v20.38c0,3.38.94,4.97,2.45,4.97,1.87,0,2.59-1.08,2.59-4.54v-20.81Z"/><path class="cls-30" d="m563.34,255.67v39.03c0,7.92-4.39,12.1-11.09,12.1s-10.95-4.18-10.95-12.1v-21.03c0-7.92,4.39-12.1,10.95-12.1.94,0,1.8.07,2.59.36v-6.26c0-2.38,1.87-4.32,4.25-4.32s4.25,1.94,4.25,4.32Zm-8.5,18.58c0-3.38-.94-5.11-2.59-5.11s-2.45,1.22-2.45,4.68v20.81c0,3.46.72,4.54,2.45,4.54s2.59-1.08,2.59-4.54v-20.38Z"/><path class="cls-30" d="m568.52,294.34v-20.59c0-7.85,4.39-12.02,10.95-12.02s10.94,4.18,10.94,12.02v10.08c0,3.6-1.94,5.33-5.54,5.33h-7.85v5.18c0,3.17,1.01,4.54,2.81,4.54,2.09,0,2.52-1.37,2.52-3.24v-.43c0-2.23,1.73-3.96,3.96-3.96s3.96,1.73,3.96,3.96v1.08c0,6.7-4.1,10.23-10.51,10.23-6.84,0-11.23-4.18-11.23-12.17Zm13.54-12.02v-8.86c0-3.46-.72-4.61-2.59-4.61-1.66,0-2.45,1.15-2.45,4.61v8.86h5.04Z"/><path class="cls-30" d="m595.16,301.75v-28.08c0-7.92,4.39-12.1,10.95-12.1s11.09,4.18,11.09,12.1v28.08c0,2.38-1.87,4.25-4.25,4.25s-4.25-1.87-4.25-4.25v-27.79c0-3.46-.72-4.68-2.59-4.68-1.66,0-2.45,1.22-2.45,4.68v27.79c0,2.38-1.87,4.25-4.25,4.25s-4.25-1.87-4.25-4.25Z"/><path class="cls-30" d="m628.57,295.13c0-4.39,1.37-7.27,4.75-7.27,2.66,0,3.74,1.87,3.82,3.38.07,1.22-.14,2.74-.14,4.54,0,2.16,1.15,3.38,2.59,3.38,2.45,0,2.74-1.87,2.74-5.83,0-4.46-1.01-6.77-4.18-8.57l-1.22-.72c-4.54-2.59-7.71-5.33-7.71-11.81s3.53-10.58,11.02-10.58c5.76,0,9.79,2.95,9.94,8.79.07,2.59-1.15,4.39-3.6,4.46-2.23.07-3.38-1.3-3.82-3.53-.29-1.44-1.08-2.45-2.45-2.45-1.73,0-2.59,1.22-2.59,3.1,0,2.02,1.01,3.17,2.95,4.18l2.38,1.3c5.83,3.02,7.78,8.64,7.78,15.27,0,9.5-3.82,13.75-11.38,13.75-6.34,0-10.87-3.31-10.87-11.38Z"/><path class="cls-30" d="m654.63,294.55v-28.01c0-2.38,1.87-4.25,4.25-4.25s4.25,1.87,4.25,4.25v27.72c0,3.46.79,4.68,2.45,4.68,1.87,0,2.59-1.22,2.59-4.68v-27.72c0-2.38,1.87-4.25,4.25-4.25s4.25,1.87,4.25,4.25v28.01c0,7.92-4.39,12.1-11.09,12.1s-10.95-4.18-10.95-12.1Z"/><path class="cls-30" d="m682.13,301.75v-46.08c0-2.38,1.87-4.32,4.25-4.32s4.25,1.94,4.25,4.32v46.08c0,2.38-1.87,4.25-4.25,4.25s-4.25-1.87-4.25-4.25Z"/><path class="cls-30" d="m717.7,294.62v1.37c0,7.27-4.32,10.51-9.58,10.51-6.19,0-10.3-3.17-10.3-10.73v-25.13h-1.01c-2.23,0-3.89-1.73-3.89-3.89s1.66-3.89,3.89-3.89h1.01v-6.34c0-2.38,1.87-4.32,4.25-4.32s4.25,1.94,4.25,4.32v6.34h2.23c2.16,0,3.89,1.73,3.89,3.89s-1.73,3.89-3.89,3.89h-2.23v25.27c0,2.23.65,3.1,1.87,3.1,1.15,0,1.8-.94,1.8-2.95v-1.44c0-2.45,1.44-4.03,3.89-4.03,2.3,0,3.82,1.73,3.82,4.03Z"/><path class="cls-30" d="m719.72,301.75v-28.08c0-7.92,4.39-12.1,10.95-12.1s11.09,4.18,11.09,12.1v28.08c0,2.38-1.87,4.25-4.25,4.25s-4.25-1.87-4.25-4.25v-27.79c0-3.46-.72-4.68-2.59-4.68-1.66,0-2.45,1.22-2.45,4.68v27.79c0,2.38-1.87,4.25-4.25,4.25s-4.25-1.87-4.25-4.25Z"/><path class="cls-30" d="m746.79,294.34v-20.59c0-7.85,4.39-12.02,10.95-12.02s10.94,4.18,10.94,12.02v10.08c0,3.6-1.94,5.33-5.54,5.33h-7.85v5.18c0,3.17,1.01,4.54,2.81,4.54,2.09,0,2.52-1.37,2.52-3.24v-.43c0-2.23,1.73-3.96,3.96-3.96s3.96,1.73,3.96,3.96v1.08c0,6.7-4.1,10.23-10.51,10.23-6.84,0-11.23-4.18-11.23-12.17Zm13.54-12.02v-8.86c0-3.46-.72-4.61-2.59-4.61-1.66,0-2.45,1.15-2.45,4.61v8.86h5.04Z"/><path class="cls-30" d="m803.88,289.94v11.81c0,2.38-1.87,4.25-4.25,4.25s-4.25-1.87-4.25-4.25v-11.59c0-2.52-1.01-3.74-3.1-3.74h-2.09v15.34c0,2.38-1.87,4.25-4.25,4.25s-4.25-1.87-4.25-4.25v-46.08c0-2.38,1.87-4.32,4.25-4.32s4.25,1.94,4.25,4.32v23.19h1.73c1.94,0,2.88-1.15,2.88-3.89v-8.64c0-2.38,1.73-4.32,4.1-4.32s4.25,1.94,4.25,4.32v9.86c0,2.95-.79,5.33-2.38,6.84,2.16,1.15,3.1,3.74,3.1,6.91Z"/><path class="cls-30" d="m829.8,273.67v28.08c0,2.38-1.87,4.25-4.25,4.25-.94,0-1.87-.29-2.52-.86-1.44,1.01-3.6,1.51-5.11,1.51-6.12,0-10.08-3.6-10.08-10.37v-8.14c0-6.91,3.96-10.51,10.08-10.51,1.01,0,2.3.29,3.46.72v-4.68c0-3.31-.79-4.25-2.3-4.25-1.66,0-2.45,1.15-2.45,3.1v.14c0,2.23-1.58,3.96-3.96,3.96s-4.03-1.66-4.03-4.32v-.58c0-5.76,3.82-9.94,10.37-9.94,7.27,0,10.8,4.18,10.8,11.88Zm-8.42,15.62c0-3.38-1.08-4.97-2.66-4.97-1.73,0-2.52,1.08-2.52,4.61v6.41c0,3.38.79,4.61,2.52,4.61,1.58,0,2.66-1.73,2.66-5.04v-5.62Z"/><path class="cls-30" d="m856.44,294.62v1.37c0,7.27-4.32,10.51-9.58,10.51-6.19,0-10.3-3.17-10.3-10.73v-25.13h-1.01c-2.23,0-3.89-1.73-3.89-3.89s1.66-3.89,3.89-3.89h1.01v-6.34c0-2.38,1.87-4.32,4.25-4.32s4.25,1.94,4.25,4.32v6.34h2.23c2.16,0,3.89,1.73,3.89,3.89s-1.73,3.89-3.89,3.89h-2.23v25.27c0,2.23.65,3.1,1.87,3.1,1.15,0,1.8-.94,1.8-2.95v-1.44c0-2.45,1.44-4.03,3.89-4.03,2.3,0,3.82,1.73,3.82,4.03Z"/><path class="cls-30" d="m902.09,273.67v28.08c0,2.38-1.87,4.25-4.25,4.25s-4.25-1.87-4.25-4.25v-27.79c0-3.46-.72-4.68-2.45-4.68s-2.59,1.22-2.59,4.68v27.79c0,2.38-1.87,4.25-4.25,4.25s-4.25-1.87-4.25-4.25v-27.79c0-3.46-.72-4.68-2.59-4.68-1.66,0-2.45,1.22-2.45,4.68v27.79c0,2.38-1.87,4.25-4.25,4.25s-4.25-1.87-4.25-4.25v-28.08c0-7.92,4.39-12.1,10.73-12.1,2.74,0,5.26.72,7.06,2.74,1.8-2.02,4.32-2.74,7.06-2.74,6.34,0,10.73,4.18,10.73,12.1Z"/><path class="cls-30" d="m907.13,294.34v-20.59c0-7.85,4.39-12.02,10.94-12.02s10.95,4.18,10.95,12.02v10.08c0,3.6-1.94,5.33-5.54,5.33h-7.85v5.18c0,3.17,1.01,4.54,2.81,4.54,2.09,0,2.52-1.37,2.52-3.24v-.43c0-2.23,1.73-3.96,3.96-3.96s3.96,1.73,3.96,3.96v1.08c0,6.7-4.1,10.23-10.51,10.23-6.84,0-11.23-4.18-11.23-12.17Zm13.54-12.02v-8.86c0-3.46-.72-4.61-2.59-4.61-1.66,0-2.45,1.15-2.45,4.61v8.86h5.04Z"/><path class="cls-30" d="m955.8,255.67v39.03c0,7.92-4.39,12.1-11.09,12.1s-10.94-4.18-10.94-12.1v-21.03c0-7.92,4.39-12.1,10.94-12.1.94,0,1.8.07,2.59.36v-6.26c0-2.38,1.87-4.32,4.25-4.32s4.25,1.94,4.25,4.32Zm-8.5,18.58c0-3.38-.94-5.11-2.59-5.11s-2.45,1.22-2.45,4.68v20.81c0,3.46.72,4.54,2.45,4.54s2.59-1.08,2.59-4.54v-20.38Z"/><path class="cls-30" d="m990.08,273.67v28.08c0,2.38-1.87,4.25-4.25,4.25-.94,0-1.87-.29-2.52-.86-1.44,1.01-3.6,1.51-5.11,1.51-6.12,0-10.08-3.6-10.08-10.37v-8.14c0-6.91,3.96-10.51,10.08-10.51,1.01,0,2.3.29,3.46.72v-4.68c0-3.31-.79-4.25-2.3-4.25-1.66,0-2.45,1.15-2.45,3.1v.14c0,2.23-1.58,3.96-3.96,3.96s-4.03-1.66-4.03-4.32v-.58c0-5.76,3.82-9.94,10.37-9.94,7.27,0,10.8,4.18,10.8,11.88Zm-8.42,15.62c0-3.38-1.08-4.97-2.66-4.97-1.73,0-2.52,1.08-2.52,4.61v6.41c0,3.38.79,4.61,2.52,4.61,1.58,0,2.66-1.73,2.66-5.04v-5.62Z"/><path class="cls-30" d="m1016.72,294.62v1.37c0,7.27-4.32,10.51-9.58,10.51-6.19,0-10.3-3.17-10.3-10.73v-25.13h-1.01c-2.23,0-3.89-1.73-3.89-3.89s1.66-3.89,3.89-3.89h1.01v-6.34c0-2.38,1.87-4.32,4.25-4.32s4.25,1.94,4.25,4.32v6.34h2.23c2.16,0,3.89,1.73,3.89,3.89s-1.73,3.89-3.89,3.89h-2.23v25.27c0,2.23.65,3.1,1.87,3.1,1.15,0,1.8-.94,1.8-2.95v-1.44c0-2.45,1.44-4.03,3.89-4.03,2.3,0,3.82,1.73,3.82,4.03Z"/><path class="cls-30" d="m1044.29,257.76c-.43,1.58-1.51,2.59-2.81,2.59-1.44,0-2.02-.86-3.17-.86-1.37,0-1.94.65-1.94,3.24v.14h.36c2.16,0,3.89,1.73,3.89,3.89s-1.73,3.89-3.89,3.89h-.36v31.11c0,2.38-1.87,4.25-4.25,4.25s-4.25-1.87-4.25-4.25v-31.11c-2.23,0-3.89-1.73-3.89-3.89s1.66-3.89,3.89-3.89v-.14c0-7.06,3.38-11.23,9.72-11.23,1.58,0,2.95.22,4.46.94,2.09,1.01,2.95,2.81,2.23,5.33Z"/><path class="cls-30" d="m1064.24,273.67v28.08c0,2.38-1.87,4.25-4.25,4.25-.94,0-1.87-.29-2.52-.86-1.44,1.01-3.6,1.51-5.11,1.51-6.12,0-10.08-3.6-10.08-10.37v-8.14c0-6.91,3.96-10.51,10.08-10.51,1.01,0,2.3.29,3.46.72v-4.68c0-3.31-.79-4.25-2.3-4.25-1.66,0-2.45,1.15-2.45,3.1v.14c0,2.23-1.58,3.96-3.96,3.96s-4.03-1.66-4.03-4.32v-.58c0-5.76,3.82-9.94,10.37-9.94,7.27,0,10.8,4.18,10.8,11.88Zm-8.42,15.62c0-3.38-1.08-4.97-2.66-4.97-1.73,0-2.52,1.08-2.52,4.61v6.41c0,3.38.79,4.61,2.52,4.61,1.58,0,2.66-1.73,2.66-5.04v-5.62Z"/><path class="cls-30" d="m1069.27,301.75v-28.08c0-7.92,4.39-12.1,10.94-12.1s11.09,4.18,11.09,12.1v28.08c0,2.38-1.87,4.25-4.25,4.25s-4.25-1.87-4.25-4.25v-27.79c0-3.46-.72-4.68-2.59-4.68-1.66,0-2.45,1.22-2.45,4.68v27.79c0,2.38-1.87,4.25-4.25,4.25s-4.25-1.87-4.25-4.25Z"/><path class="cls-30" d="m1118.38,273.67v36.15c0,5.76-3.17,9.22-8.93,9.22h-9.65c-2.16,0-3.74-1.66-3.74-3.82s1.58-3.82,3.74-3.82h7.42c1.73,0,2.66-.94,2.66-2.52v-2.59c-.79.29-1.66.36-2.59.36-6.55,0-10.94-4.18-10.94-12.1v-20.88c0-7.92,4.39-12.1,10.94-12.1s11.09,4.18,11.09,12.1Zm-8.5,20.38v-20.23c0-3.46-.79-4.68-2.59-4.68s-2.45,1.22-2.45,4.68v20.67c0,3.46.72,4.54,2.45,4.54s2.59-1.58,2.59-4.97Z"/><path class="cls-30" d="m1123.42,294.34v-20.59c0-7.85,4.39-12.02,10.94-12.02s10.95,4.18,10.95,12.02v10.08c0,3.6-1.94,5.33-5.54,5.33h-7.85v5.18c0,3.17,1.01,4.54,2.81,4.54,2.09,0,2.52-1.37,2.52-3.24v-.43c0-2.23,1.73-3.96,3.96-3.96s3.96,1.73,3.96,3.96v1.08c0,6.7-4.1,10.23-10.51,10.23-6.84,0-11.23-4.18-11.23-12.17Zm13.54-12.02v-8.86c0-3.46-.72-4.61-2.59-4.61-1.66,0-2.45,1.15-2.45,4.61v8.86h5.04Z"/><path class="cls-30" d="m1193.69,273.67v28.08c0,2.38-1.87,4.25-4.25,4.25s-4.25-1.87-4.25-4.25v-27.79c0-3.46-.72-4.68-2.45-4.68s-2.59,1.22-2.59,4.68v27.79c0,2.38-1.87,4.25-4.25,4.25s-4.25-1.87-4.25-4.25v-27.79c0-3.46-.72-4.68-2.59-4.68-1.66,0-2.45,1.22-2.45,4.68v27.79c0,2.38-1.87,4.25-4.25,4.25s-4.25-1.87-4.25-4.25v-28.08c0-7.92,4.39-12.1,10.73-12.1,2.74,0,5.26.72,7.06,2.74,1.8-2.02,4.32-2.74,7.06-2.74,6.34,0,10.73,4.18,10.73,12.1Z"/><path class="cls-30" d="m1198.73,294.55v-28.01c0-2.38,1.87-4.25,4.25-4.25s4.25,1.87,4.25,4.25v27.72c0,3.46.79,4.68,2.45,4.68,1.87,0,2.59-1.22,2.59-4.68v-27.72c0-2.38,1.87-4.25,4.25-4.25s4.25,1.87,4.25,4.25v28.01c0,7.92-4.39,12.1-11.09,12.1s-10.94-4.18-10.94-12.1Z"/><path class="cls-30" d="m1224.07,295.13c0-4.39,1.37-7.27,4.75-7.27,2.66,0,3.74,1.87,3.82,3.38.07,1.22-.14,2.74-.14,4.54,0,2.16,1.15,3.38,2.59,3.38,2.45,0,2.74-1.87,2.74-5.83,0-4.46-1.01-6.77-4.18-8.57l-1.22-.72c-4.54-2.59-7.7-5.33-7.7-11.81s3.53-10.58,11.02-10.58c5.76,0,9.79,2.95,9.94,8.79.07,2.59-1.15,4.39-3.6,4.46-2.23.07-3.38-1.3-3.82-3.53-.29-1.44-1.08-2.45-2.45-2.45-1.73,0-2.59,1.22-2.59,3.1,0,2.02,1.01,3.17,2.95,4.18l2.38,1.3c5.83,3.02,7.78,8.64,7.78,15.27,0,9.5-3.82,13.75-11.38,13.75-6.34,0-10.87-3.31-10.87-11.38Z"/><path class="cls-30" d="m1258.2,294.55v-20.81c0-7.92,4.39-12.1,10.94-12.1s11.09,4.18,11.09,12.1v20.81c0,7.92-4.39,12.1-11.09,12.1s-10.94-4.18-10.94-12.1Zm13.54-.07v-20.59c0-3.46-.72-4.68-2.59-4.68-1.66,0-2.45,1.22-2.45,4.68v20.59c0,3.46.79,4.54,2.45,4.54,1.87,0,2.59-1.08,2.59-4.54Z"/><path class="cls-30" d="m1307.3,273.67v36.15c0,5.76-3.17,9.22-8.93,9.22h-9.65c-2.16,0-3.74-1.66-3.74-3.82s1.58-3.82,3.74-3.82h7.42c1.73,0,2.66-.94,2.66-2.52v-2.59c-.79.29-1.66.36-2.59.36-6.55,0-10.94-4.18-10.94-12.1v-20.88c0-7.92,4.39-12.1,10.94-12.1s11.09,4.18,11.09,12.1Zm-8.5,20.38v-20.23c0-3.46-.79-4.68-2.59-4.68s-2.45,1.22-2.45,4.68v20.67c0,3.46.72,4.54,2.45,4.54s2.59-1.58,2.59-4.97Z"/><path class="cls-30" d="m1337.9,257.76c-.43,1.58-1.51,2.59-2.81,2.59-1.44,0-2.02-.86-3.17-.86-1.37,0-1.94.65-1.94,3.24v.14h.36c2.16,0,3.89,1.73,3.89,3.89s-1.73,3.89-3.89,3.89h-.36v31.11c0,2.38-1.87,4.25-4.25,4.25s-4.25-1.87-4.25-4.25v-31.11c-2.23,0-3.89-1.73-3.89-3.89s1.66-3.89,3.89-3.89v-.14c0-7.06,3.38-11.23,9.72-11.23,1.58,0,2.95.22,4.46.94,2.09,1.01,2.95,2.81,2.23,5.33Z"/><path class="cls-30" d="m1336.82,294.55v-28.01c0-2.38,1.87-4.25,4.25-4.25s4.25,1.87,4.25,4.25v27.72c0,3.46.79,4.68,2.45,4.68,1.87,0,2.59-1.22,2.59-4.68v-27.72c0-2.38,1.87-4.25,4.25-4.25s4.25,1.87,4.25,4.25v28.01c0,7.92-4.39,12.1-11.09,12.1s-10.94-4.18-10.94-12.1Z"/><path class="cls-30" d="m1385.93,273.67v36.15c0,5.76-3.17,9.22-8.93,9.22h-9.65c-2.16,0-3.74-1.66-3.74-3.82s1.58-3.82,3.74-3.82h7.42c1.73,0,2.66-.94,2.66-2.52v-2.59c-.79.29-1.66.36-2.59.36-6.55,0-10.94-4.18-10.94-12.1v-20.88c0-7.92,4.39-12.1,10.94-12.1s11.09,4.18,11.09,12.1Zm-8.5,20.38v-20.23c0-3.46-.79-4.68-2.59-4.68s-2.45,1.22-2.45,4.68v20.67c0,3.46.72,4.54,2.45,4.54s2.59-1.58,2.59-4.97Z"/><path class="cls-30" d="m1391.4,301.75v-46.08c0-2.38,1.87-4.32,4.25-4.32s4.25,1.94,4.25,4.32v46.08c0,2.38-1.87,4.25-4.25,4.25s-4.25-1.87-4.25-4.25Z"/><path class="cls-30" d="m1405.36,294.34v-20.59c0-7.85,4.39-12.02,10.94-12.02s10.95,4.18,10.95,12.02v10.08c0,3.6-1.94,5.33-5.54,5.33h-7.85v5.18c0,3.17,1.01,4.54,2.81,4.54,2.09,0,2.52-1.37,2.52-3.24v-.43c0-2.23,1.73-3.96,3.96-3.96s3.96,1.73,3.96,3.96v1.08c0,6.7-4.1,10.23-10.51,10.23-6.84,0-11.23-4.18-11.23-12.17Zm13.54-12.02v-8.86c0-3.46-.72-4.61-2.59-4.61-1.66,0-2.45,1.15-2.45,4.61v8.86h5.04Z"/><path class="cls-30" d="m1431.28,301.39c0-3.02,2.38-5.4,5.4-5.4s5.4,2.38,5.4,5.4-2.38,5.4-5.4,5.4-5.4-2.38-5.4-5.4Z"/><path class="cls-30" d="m455.92,353.3v34.78c0,2.45-1.94,4.39-4.39,4.39s-4.39-1.94-4.39-4.39v-34.78c0-3.38-1.01-4.75-2.95-4.75s-2.95,1.37-2.95,4.75v34.78c0,2.45-1.94,4.39-4.39,4.39s-4.39-1.94-4.39-4.39v-34.78c0-3.38-1.01-4.75-2.95-4.75s-2.95,1.37-2.95,4.75v34.78c0,2.45-1.94,4.39-4.39,4.39s-4.39-1.94-4.39-4.39v-34.78c0-8.57,4.1-12.96,11.59-12.96,2.95,0,5.54.72,7.49,2.88,1.94-2.16,4.54-2.88,7.49-2.88,7.49,0,11.59,4.39,11.59,12.96Z"/><path class="cls-30" d="m461.82,380.74v-20.59c0-7.85,4.39-12.02,10.95-12.02s10.94,4.18,10.94,12.02v10.08c0,3.6-1.94,5.33-5.54,5.33h-7.85v5.18c0,3.17,1.01,4.54,2.81,4.54,2.09,0,2.52-1.37,2.52-3.24v-.43c0-2.23,1.73-3.96,3.96-3.96s3.96,1.73,3.96,3.96v1.08c0,6.7-4.1,10.22-10.51,10.22-6.84,0-11.23-4.18-11.23-12.17Zm13.54-12.02v-8.86c0-3.46-.72-4.61-2.59-4.61-1.66,0-2.45,1.15-2.45,4.61v8.86h5.04Z"/><path class="cls-30" d="m488.46,388.15v-28.08c0-7.92,4.39-12.1,10.95-12.1s11.09,4.18,11.09,12.1v28.08c0,2.38-1.87,4.25-4.25,4.25s-4.25-1.87-4.25-4.25v-27.79c0-3.46-.72-4.68-2.59-4.68-1.66,0-2.45,1.22-2.45,4.68v27.79c0,2.38-1.87,4.25-4.25,4.25s-4.25-1.87-4.25-4.25Z"/><path class="cls-30" d="m545.63,359.93v21.03c0,7.92-4.39,12.1-11.09,12.1-.79,0-1.66-.07-2.45-.36v7.7c0,2.38-1.87,4.25-4.25,4.25s-4.25-1.87-4.25-4.25v-40.47c0-7.92,4.39-12.1,10.95-12.1s11.09,4.18,11.09,12.1Zm-8.5.14c0-3.46-.72-4.68-2.59-4.68-1.66,0-2.45,1.22-2.45,4.68v20.38c0,3.38.94,4.97,2.45,4.97,1.87,0,2.59-1.08,2.59-4.54v-20.81Z"/><path class="cls-30" d="m571.69,360.07v28.08c0,2.38-1.87,4.25-4.25,4.25-.94,0-1.87-.29-2.52-.86-1.44,1.01-3.6,1.51-5.11,1.51-6.12,0-10.08-3.6-10.08-10.37v-8.14c0-6.91,3.96-10.51,10.08-10.51,1.01,0,2.3.29,3.46.72v-4.68c0-3.31-.79-4.25-2.3-4.25-1.66,0-2.45,1.15-2.45,3.1v.14c0,2.23-1.58,3.96-3.96,3.96s-4.03-1.66-4.03-4.32v-.58c0-5.76,3.82-9.94,10.37-9.94,7.27,0,10.8,4.18,10.8,11.88Zm-8.42,15.62c0-3.38-1.08-4.97-2.66-4.97-1.73,0-2.52,1.08-2.52,4.61v6.41c0,3.38.79,4.61,2.52,4.61,1.58,0,2.66-1.73,2.66-5.04v-5.62Z"/><path class="cls-30" d="m575,381.53c0-4.39,1.37-7.27,4.75-7.27,2.66,0,3.74,1.87,3.82,3.38.07,1.22-.14,2.74-.14,4.54,0,2.16,1.15,3.38,2.59,3.38,2.45,0,2.74-1.87,2.74-5.83,0-4.46-1.01-6.77-4.18-8.57l-1.22-.72c-4.54-2.59-7.71-5.33-7.71-11.81s3.53-10.58,11.02-10.58c5.76,0,9.79,2.95,9.94,8.79.07,2.59-1.15,4.39-3.6,4.46-2.23.07-3.38-1.3-3.82-3.53-.29-1.44-1.08-2.45-2.45-2.45-1.73,0-2.59,1.22-2.59,3.1,0,2.02,1.01,3.17,2.95,4.18l2.38,1.3c5.83,3.02,7.78,8.64,7.78,15.27,0,9.5-3.82,13.75-11.38,13.75-6.34,0-10.87-3.31-10.87-11.38Z"/><path class="cls-30" d="m631.16,359.93v21.03c0,7.92-4.39,12.1-11.09,12.1-.79,0-1.66-.07-2.45-.36v7.7c0,2.38-1.87,4.25-4.25,4.25s-4.25-1.87-4.25-4.25v-40.47c0-7.92,4.39-12.1,10.95-12.1s11.09,4.18,11.09,12.1Zm-8.5.14c0-3.46-.72-4.68-2.59-4.68-1.66,0-2.45,1.22-2.45,4.68v20.38c0,3.38.94,4.97,2.45,4.97,1.87,0,2.59-1.08,2.59-4.54v-20.81Z"/><path class="cls-30" d="m657.22,360.07v28.08c0,2.38-1.87,4.25-4.25,4.25-.94,0-1.87-.29-2.52-.86-1.44,1.01-3.6,1.51-5.11,1.51-6.12,0-10.08-3.6-10.08-10.37v-8.14c0-6.91,3.96-10.51,10.08-10.51,1.01,0,2.3.29,3.46.72v-4.68c0-3.31-.79-4.25-2.3-4.25-1.66,0-2.45,1.15-2.45,3.1v.14c0,2.23-1.58,3.96-3.96,3.96s-4.03-1.66-4.03-4.32v-.58c0-5.76,3.82-9.94,10.37-9.94,7.27,0,10.8,4.18,10.8,11.88Zm-16.71-19.66c0-3.53,2.66-6.19,6.19-6.19s6.19,2.66,6.19,6.19-2.66,6.19-6.19,6.19-6.19-2.66-6.19-6.19Zm8.28,35.28c0-3.38-1.08-4.97-2.66-4.97-1.73,0-2.52,1.08-2.52,4.61v6.41c0,3.38.79,4.61,2.52,4.61,1.58,0,2.66-1.73,2.66-5.04v-5.62Zm-3.82-35.28c0,1.01.72,1.73,1.73,1.73s1.73-.72,1.73-1.73-.72-1.73-1.73-1.73-1.73.72-1.73,1.73Z"/><path class="cls-30" d="m662.48,388.15c0-2.81,2.23-5.04,5.04-5.04s5.04,2.23,5.04,5.04-2.23,5.04-5.04,5.04-5.04-2.23-5.04-5.04Zm.79-11.81v-31.32c0-2.3,1.94-4.25,4.25-4.25s4.25,1.94,4.25,4.25v31.32c0,2.3-1.94,4.25-4.25,4.25s-4.25-1.94-4.25-4.25Z"/><path class="cls-30" d="m686.96,386.79v-40.04c0-3.46,1.8-5.69,5.9-5.69h5.33c7.92,0,12.02,5.26,12.02,12.6v26.21c0,7.34-4.1,12.6-12.02,12.6h-5.33c-4.1,0-5.9-2.23-5.9-5.69Zm10.66-2.02c2.45,0,3.82-1.73,3.82-6.26v-23.47c0-4.54-1.37-6.26-3.82-6.26h-2.02v36h2.02Z"/><path class="cls-30" d="m716.04,380.74v-20.59c0-7.85,4.39-12.02,10.95-12.02s10.94,4.18,10.94,12.02v10.08c0,3.6-1.94,5.33-5.54,5.33h-7.85v5.18c0,3.17,1.01,4.54,2.81,4.54,2.09,0,2.52-1.37,2.52-3.24v-.43c0-2.23,1.73-3.96,3.96-3.96s3.96,1.73,3.96,3.96v1.08c0,6.7-4.1,10.22-10.51,10.22-6.84,0-11.23-4.18-11.23-12.17Zm13.54-12.02v-8.86c0-3.46-.72-4.61-2.59-4.61-1.66,0-2.45,1.15-2.45,4.61v8.86h5.04Z"/><path class="cls-30" d="m742.68,388.15v-28.08c0-7.92,4.32-12.1,10.73-12.1s10.58,3.74,10.58,11.74v3.82c0,2.38-1.87,4.25-4.1,4.25-2.38,0-4.1-1.87-4.1-4.25v-3.46c0-3.38-.65-4.39-2.38-4.39s-2.23,1.22-2.23,4.68v27.79c0,2.38-1.87,4.25-4.25,4.25s-4.25-1.87-4.25-4.25Z"/><path class="cls-30" d="m775.16,380.74v-20.59c0-7.85,4.39-12.02,10.95-12.02s10.94,4.18,10.94,12.02v10.08c0,3.6-1.94,5.33-5.54,5.33h-7.85v5.18c0,3.17,1.01,4.54,2.81,4.54,2.09,0,2.52-1.37,2.52-3.24v-.43c0-2.23,1.73-3.96,3.96-3.96s3.96,1.73,3.96,3.96v1.08c0,6.7-4.1,10.22-10.51,10.22-6.84,0-11.23-4.18-11.23-12.17Zm13.54-12.02v-8.86c0-3.46-.72-4.61-2.59-4.61-1.66,0-2.45,1.15-2.45,4.61v8.86h5.04Z"/><path class="cls-30" d="m801.8,388.15v-28.08c0-7.92,4.32-12.1,10.73-12.1s10.58,3.74,10.58,11.74v3.82c0,2.38-1.87,4.25-4.1,4.25-2.38,0-4.1-1.87-4.1-4.25v-3.46c0-3.38-.65-4.39-2.38-4.39s-2.23,1.22-2.23,4.68v27.79c0,2.38-1.87,4.25-4.25,4.25s-4.25-1.87-4.25-4.25Z"/><path class="cls-30" d="m834.27,380.95v-20.81c0-7.92,4.39-12.1,10.95-12.1s11.09,4.18,11.09,12.1v20.81c0,7.92-4.39,12.1-11.09,12.1s-10.95-4.18-10.95-12.1Zm13.54-.07v-20.59c0-3.46-.72-4.68-2.59-4.68-1.66,0-2.45,1.22-2.45,4.68v20.59c0,3.46.79,4.54,2.45,4.54,1.87,0,2.59-1.08,2.59-4.54Z"/><path class="cls-30" d="m883.37,360.07v36.15c0,5.76-3.17,9.22-8.93,9.22h-9.65c-2.16,0-3.74-1.66-3.74-3.82s1.58-3.82,3.74-3.82h7.42c1.73,0,2.66-.94,2.66-2.52v-2.59c-.79.29-1.66.36-2.59.36-6.55,0-10.95-4.18-10.95-12.1v-20.88c0-7.92,4.39-12.1,10.95-12.1s11.09,4.18,11.09,12.1Zm-8.5,20.38v-20.23c0-3.46-.79-4.68-2.59-4.68s-2.45,1.22-2.45,4.68v20.67c0,3.46.72,4.54,2.45,4.54s2.59-1.58,2.59-4.97Z"/><path class="cls-30" d="m886.68,381.53c0-4.39,1.37-7.27,4.75-7.27,2.66,0,3.74,1.87,3.82,3.38.07,1.22-.14,2.74-.14,4.54,0,2.16,1.15,3.38,2.59,3.38,2.45,0,2.74-1.87,2.74-5.83,0-4.46-1.01-6.77-4.18-8.57l-1.22-.72c-4.54-2.59-7.71-5.33-7.71-11.81s3.53-10.58,11.02-10.58c5.76,0,9.79,2.95,9.94,8.79.07,2.59-1.15,4.39-3.6,4.46-2.23.07-3.38-1.3-3.82-3.53-.29-1.44-1.08-2.45-2.45-2.45-1.73,0-2.59,1.22-2.59,3.1,0,2.02,1.01,3.17,2.95,4.18l2.38,1.3c5.83,3.02,7.78,8.64,7.78,15.27,0,9.5-3.82,13.75-11.38,13.75-6.34,0-10.87-3.31-10.87-11.38Z"/><path class="cls-30" d="m933.77,360.07v28.08c0,2.38-1.87,4.25-4.25,4.25-.94,0-1.87-.29-2.52-.86-1.44,1.01-3.6,1.51-5.11,1.51-6.12,0-10.08-3.6-10.08-10.37v-8.14c0-6.91,3.96-10.51,10.08-10.51,1.01,0,2.3.29,3.46.72v-4.68c0-3.31-.79-4.25-2.3-4.25-1.66,0-2.45,1.15-2.45,3.1v.14c0,2.23-1.58,3.96-3.96,3.96s-4.03-1.66-4.03-4.32v-.58c0-5.76,3.82-9.94,10.37-9.94,7.27,0,10.8,4.18,10.8,11.88Zm-16.71-19.66c0-3.53,2.66-6.19,6.19-6.19s6.19,2.66,6.19,6.19-2.66,6.19-6.19,6.19-6.19-2.66-6.19-6.19Zm8.28,35.28c0-3.38-1.08-4.97-2.66-4.97-1.73,0-2.52,1.08-2.52,4.61v6.41c0,3.38.79,4.61,2.52,4.61,1.58,0,2.66-1.73,2.66-5.04v-5.62Zm-3.82-35.28c0,1.01.72,1.73,1.73,1.73s1.73-.72,1.73-1.73-.72-1.73-1.73-1.73-1.73.72-1.73,1.73Z"/><path class="cls-30" d="m964.37,344.16c-.43,1.58-1.51,2.59-2.81,2.59-1.44,0-2.02-.86-3.17-.86-1.37,0-1.94.65-1.94,3.24v.14h.36c2.16,0,3.89,1.73,3.89,3.89s-1.73,3.89-3.89,3.89h-.36v31.11c0,2.38-1.87,4.25-4.25,4.25s-4.25-1.87-4.25-4.25v-31.11c-2.23,0-3.89-1.73-3.89-3.89s1.66-3.89,3.89-3.89v-.14c0-7.06,3.38-11.23,9.72-11.23,1.58,0,2.95.22,4.46.94,2.09,1.01,2.95,2.81,2.23,5.33Z"/><path class="cls-30" d="m984.32,360.07v28.08c0,2.38-1.87,4.25-4.25,4.25-.94,0-1.87-.29-2.52-.86-1.44,1.01-3.6,1.51-5.11,1.51-6.12,0-10.08-3.6-10.08-10.37v-8.14c0-6.91,3.96-10.51,10.08-10.51,1.01,0,2.3.29,3.46.72v-4.68c0-3.31-.79-4.25-2.3-4.25-1.66,0-2.45,1.15-2.45,3.1v.14c0,2.23-1.58,3.96-3.96,3.96s-4.03-1.66-4.03-4.32v-.58c0-5.76,3.82-9.94,10.37-9.94,7.27,0,10.8,4.18,10.8,11.88Zm-8.42,15.62c0-3.38-1.08-4.97-2.66-4.97-1.73,0-2.52,1.08-2.52,4.61v6.41c0,3.38.79,4.61,2.52,4.61,1.58,0,2.66-1.73,2.66-5.04v-5.62Z"/><path class="cls-30" d="m989.35,388.15v-28.08c0-7.92,4.32-12.1,10.73-12.1s10.58,3.74,10.58,11.74v3.82c0,2.38-1.87,4.25-4.1,4.25-2.38,0-4.1-1.87-4.1-4.25v-3.46c0-3.38-.65-4.39-2.38-4.39s-2.23,1.22-2.23,4.68v27.79c0,2.38-1.87,4.25-4.25,4.25s-4.25-1.87-4.25-4.25Z"/><path class="cls-30" d="m1014.19,388.15v-46.08c0-2.38,1.87-4.32,4.25-4.32s4.25,1.94,4.25,4.32v46.08c0,2.38-1.87,4.25-4.25,4.25s-4.25-1.87-4.25-4.25Z"/><path class="cls-30" d="m1028.67,342.07c0-2.45,1.87-4.32,4.32-4.32s4.32,1.87,4.32,4.32-1.87,4.32-4.32,4.32-4.32-1.87-4.32-4.32Zm.07,46.08v-35.14c0-2.38,1.87-4.32,4.25-4.32s4.25,1.94,4.25,4.32v35.14c0,2.38-1.87,4.25-4.25,4.25s-4.25-1.87-4.25-4.25Z"/><path class="cls-30" d="m1064.88,360.07v36.15c0,5.76-3.17,9.22-8.93,9.22h-9.65c-2.16,0-3.74-1.66-3.74-3.82s1.58-3.82,3.74-3.82h7.42c1.73,0,2.66-.94,2.66-2.52v-2.59c-.79.29-1.66.36-2.59.36-6.55,0-10.94-4.18-10.94-12.1v-20.88c0-7.92,4.39-12.1,10.94-12.1s11.09,4.18,11.09,12.1Zm-8.5,20.38v-20.23c0-3.46-.79-4.68-2.59-4.68s-2.45,1.22-2.45,4.68v20.67c0,3.46.72,4.54,2.45,4.54s2.59-1.58,2.59-4.97Z"/><path class="cls-30" d="m1069.92,380.74v-20.59c0-7.85,4.39-12.02,10.94-12.02s10.95,4.18,10.95,12.02v10.08c0,3.6-1.94,5.33-5.54,5.33h-7.85v5.18c0,3.17,1.01,4.54,2.81,4.54,2.09,0,2.52-1.37,2.52-3.24v-.43c0-2.23,1.73-3.96,3.96-3.96s3.96,1.73,3.96,3.96v1.08c0,6.7-4.1,10.22-10.51,10.22-6.84,0-11.23-4.18-11.23-12.17Zm13.54-12.02v-8.86c0-3.46-.72-4.61-2.59-4.61-1.66,0-2.45,1.15-2.45,4.61v8.86h5.04Z"/><path class="cls-30" d="m1102.9,381.53c0-4.39,1.37-7.27,4.75-7.27,2.66,0,3.74,1.87,3.82,3.38.07,1.22-.14,2.74-.14,4.54,0,2.16,1.15,3.38,2.59,3.38,2.45,0,2.74-1.87,2.74-5.83,0-4.46-1.01-6.77-4.18-8.57l-1.22-.72c-4.54-2.59-7.7-5.33-7.7-11.81s3.53-10.58,11.02-10.58c5.76,0,9.79,2.95,9.94,8.79.07,2.59-1.15,4.39-3.6,4.46-2.23.07-3.38-1.3-3.82-3.53-.29-1.44-1.08-2.45-2.45-2.45-1.73,0-2.59,1.22-2.59,3.1,0,2.02,1.01,3.17,2.95,4.18l2.38,1.3c5.83,3.02,7.78,8.64,7.78,15.27,0,9.5-3.82,13.75-11.38,13.75-6.34,0-10.87-3.31-10.87-11.38Z"/><path class="cls-30" d="m1129.39,388.15v-46.08c0-2.38,1.87-4.32,4.25-4.32s4.25,1.94,4.25,4.32v46.08c0,2.38-1.87,4.25-4.25,4.25s-4.25-1.87-4.25-4.25Z"/><path class="cls-30" d="m1164.38,360.07v28.08c0,2.38-1.87,4.25-4.25,4.25-.94,0-1.87-.29-2.52-.86-1.44,1.01-3.6,1.51-5.11,1.51-6.12,0-10.08-3.6-10.08-10.37v-8.14c0-6.91,3.96-10.51,10.08-10.51,1.01,0,2.3.29,3.46.72v-4.68c0-3.31-.79-4.25-2.3-4.25-1.66,0-2.45,1.15-2.45,3.1v.14c0,2.23-1.58,3.96-3.96,3.96s-4.03-1.66-4.03-4.32v-.58c0-5.76,3.82-9.94,10.37-9.94,7.27,0,10.8,4.18,10.8,11.88Zm-8.42,15.62c0-3.38-1.08-4.97-2.66-4.97-1.73,0-2.52,1.08-2.52,4.61v6.41c0,3.38.79,4.61,2.52,4.61,1.58,0,2.66-1.73,2.66-5.04v-5.62Z"/><path class="cls-30" d="m1169.42,388.15v-28.08c0-7.92,4.39-12.1,10.94-12.1s11.09,4.18,11.09,12.1v28.08c0,2.38-1.87,4.25-4.25,4.25s-4.25-1.87-4.25-4.25v-27.79c0-3.46-.72-4.68-2.59-4.68-1.66,0-2.45,1.22-2.45,4.68v27.79c0,2.38-1.87,4.25-4.25,4.25s-4.25-1.87-4.25-4.25Z"/><path class="cls-30" d="m1218.53,360.07v36.15c0,5.76-3.17,9.22-8.93,9.22h-9.65c-2.16,0-3.74-1.66-3.74-3.82s1.58-3.82,3.74-3.82h7.42c1.73,0,2.66-.94,2.66-2.52v-2.59c-.79.29-1.66.36-2.59.36-6.55,0-10.94-4.18-10.94-12.1v-20.88c0-7.92,4.39-12.1,10.94-12.1s11.09,4.18,11.09,12.1Zm-8.5,20.38v-20.23c0-3.46-.79-4.68-2.59-4.68s-2.45,1.22-2.45,4.68v20.67c0,3.46.72,4.54,2.45,4.54s2.59-1.58,2.59-4.97Z"/><path class="cls-30" d="m1223.57,380.74v-20.59c0-7.85,4.39-12.02,10.94-12.02s10.95,4.18,10.95,12.02v10.08c0,3.6-1.94,5.33-5.54,5.33h-7.85v5.18c0,3.17,1.01,4.54,2.81,4.54,2.09,0,2.52-1.37,2.52-3.24v-.43c0-2.23,1.73-3.96,3.96-3.96s3.96,1.73,3.96,3.96v1.08c0,6.7-4.1,10.22-10.51,10.22-6.84,0-11.23-4.18-11.23-12.17Zm13.54-12.02v-8.86c0-3.46-.72-4.61-2.59-4.61-1.66,0-2.45,1.15-2.45,4.61v8.86h5.04Z"/><path class="cls-30" d="m1250.21,388.15v-28.08c0-7.92,4.32-12.1,10.73-12.1s10.58,3.74,10.58,11.74v3.82c0,2.38-1.87,4.25-4.1,4.25-2.38,0-4.1-1.87-4.1-4.25v-3.46c0-3.38-.65-4.39-2.38-4.39s-2.23,1.22-2.23,4.68v27.79c0,2.38-1.87,4.25-4.25,4.25s-4.25-1.87-4.25-4.25Z"/><path class="cls-30" d="m1282.68,380.95v-20.81c0-7.92,4.39-12.1,10.94-12.1s11.09,4.18,11.09,12.1v20.81c0,7.92-4.39,12.1-11.09,12.1s-10.94-4.18-10.94-12.1Zm13.54-.07v-20.59c0-3.46-.72-4.68-2.59-4.68-1.66,0-2.45,1.22-2.45,4.68v20.59c0,3.46.79,4.54,2.45,4.54,1.87,0,2.59-1.08,2.59-4.54Z"/><path class="cls-30" d="m1331.78,360.07v36.15c0,5.76-3.17,9.22-8.93,9.22h-9.65c-2.16,0-3.74-1.66-3.74-3.82s1.58-3.82,3.74-3.82h7.42c1.73,0,2.66-.94,2.66-2.52v-2.59c-.79.29-1.66.36-2.59.36-6.55,0-10.94-4.18-10.94-12.1v-20.88c0-7.92,4.39-12.1,10.94-12.1s11.09,4.18,11.09,12.1Zm-8.5,20.38v-20.23c0-3.46-.79-4.68-2.59-4.68s-2.45,1.22-2.45,4.68v20.67c0,3.46.72,4.54,2.45,4.54s2.59-1.58,2.59-4.97Z"/><path class="cls-30" d="m1367.06,360.07v21.03c0,7.92-4.39,12.1-11.09,12.1s-10.95-4.18-10.95-12.1v-39.03c0-2.38,1.87-4.32,4.25-4.32s4.25,1.94,4.25,4.32v6.26c.79-.29,1.66-.36,2.45-.36,6.7,0,11.09,4.18,11.09,12.1Zm-8.5.14c0-3.46-.72-4.68-2.59-4.68-1.51,0-2.45,1.73-2.45,5.11v20.38c0,3.46.79,4.54,2.45,4.54,1.87,0,2.59-1.08,2.59-4.54v-20.81Z"/><path class="cls-30" d="m1372.6,342.07c0-2.45,1.87-4.32,4.32-4.32s4.32,1.87,4.32,4.32-1.87,4.32-4.32,4.32-4.32-1.87-4.32-4.32Zm.07,46.08v-35.14c0-2.38,1.87-4.32,4.25-4.32s4.25,1.94,4.25,4.32v35.14c0,2.38-1.87,4.25-4.25,4.25s-4.25-1.87-4.25-4.25Z"/><path class="cls-30" d="m1386.79,380.74v-20.59c0-7.85,4.39-12.02,10.94-12.02s10.95,4.18,10.95,12.02v10.08c0,3.6-1.94,5.33-5.54,5.33h-7.85v5.18c0,3.17,1.01,4.54,2.81,4.54,2.09,0,2.52-1.37,2.52-3.24v-.43c0-2.23,1.73-3.96,3.96-3.96s3.96,1.73,3.96,3.96v1.08c0,6.7-4.1,10.22-10.51,10.22-6.84,0-11.23-4.18-11.23-12.17Zm13.54-12.02v-8.86c0-3.46-.72-4.61-2.59-4.61-1.66,0-2.45,1.15-2.45,4.61v8.86h5.04Z"/><path class="cls-30" d="m1413.43,388.15v-28.08c0-7.92,4.32-12.1,10.73-12.1s10.58,3.74,10.58,11.74v3.82c0,2.38-1.87,4.25-4.1,4.25-2.38,0-4.1-1.87-4.1-4.25v-3.46c0-3.38-.65-4.39-2.38-4.39s-2.23,1.22-2.23,4.68v27.79c0,2.38-1.87,4.25-4.25,4.25s-4.25-1.87-4.25-4.25Z"/><path class="cls-30" d="m656.61,428.47v39.03c0,7.92-4.39,12.1-11.09,12.1s-10.95-4.18-10.95-12.1v-21.03c0-7.92,4.39-12.1,10.95-12.1.94,0,1.8.07,2.59.36v-6.26c0-2.38,1.87-4.32,4.25-4.32s4.25,1.94,4.25,4.32Zm-8.5,18.58c0-3.38-.94-5.11-2.59-5.11s-2.45,1.22-2.45,4.68v20.81c0,3.46.72,4.54,2.45,4.54s2.59-1.08,2.59-4.54v-20.38Z"/><path class="cls-30" d="m661.79,467.14v-20.59c0-7.85,4.39-12.03,10.95-12.03s10.94,4.18,10.94,12.03v10.08c0,3.6-1.94,5.33-5.54,5.33h-7.85v5.18c0,3.17,1.01,4.54,2.81,4.54,2.09,0,2.52-1.37,2.52-3.24v-.43c0-2.23,1.73-3.96,3.96-3.96s3.96,1.73,3.96,3.96v1.08c0,6.7-4.1,10.23-10.51,10.23-6.84,0-11.23-4.18-11.23-12.17Zm13.54-12.03v-8.86c0-3.46-.72-4.61-2.59-4.61-1.66,0-2.45,1.15-2.45,4.61v8.86h5.04Z"/><path class="cls-30" d="m688.43,474.55v-28.08c0-7.92,4.32-12.1,10.73-12.1s10.58,3.75,10.58,11.74v3.82c0,2.38-1.87,4.25-4.1,4.25-2.38,0-4.1-1.87-4.1-4.25v-3.46c0-3.38-.65-4.39-2.38-4.39s-2.23,1.22-2.23,4.68v27.79c0,2.38-1.87,4.25-4.25,4.25s-4.25-1.87-4.25-4.25Z"/><path class="cls-30" d="m743.3,462.74v11.81c0,2.38-1.87,4.25-4.25,4.25s-4.25-1.87-4.25-4.25v-11.59c0-2.52-1.01-3.74-3.1-3.74h-2.09v15.34c0,2.38-1.87,4.25-4.25,4.25s-4.25-1.87-4.25-4.25v-46.08c0-2.38,1.87-4.32,4.25-4.32s4.25,1.94,4.25,4.32v23.19h1.73c1.94,0,2.88-1.15,2.88-3.89v-8.64c0-2.38,1.73-4.32,4.1-4.32s4.25,1.94,4.25,4.32v9.87c0,2.95-.79,5.33-2.38,6.84,2.16,1.15,3.1,3.75,3.1,6.91Z"/><path class="cls-30" d="m769.22,446.47v28.08c0,2.38-1.87,4.25-4.25,4.25-.94,0-1.87-.29-2.52-.86-1.44,1.01-3.6,1.51-5.11,1.51-6.12,0-10.08-3.6-10.08-10.37v-8.14c0-6.91,3.96-10.51,10.08-10.51,1.01,0,2.3.29,3.46.72v-4.68c0-3.31-.79-4.25-2.3-4.25-1.66,0-2.45,1.15-2.45,3.1v.14c0,2.23-1.58,3.96-3.96,3.96s-4.03-1.66-4.03-4.32v-.58c0-5.76,3.82-9.94,10.37-9.94,7.27,0,10.8,4.18,10.8,11.88Zm-8.42,15.62c0-3.38-1.08-4.97-2.66-4.97-1.73,0-2.52,1.08-2.52,4.61v6.41c0,3.38.79,4.61,2.52,4.61,1.58,0,2.66-1.73,2.66-5.04v-5.62Z"/><path class="cls-30" d="m774.26,474.55v-28.08c0-7.92,4.39-12.1,10.95-12.1s11.09,4.18,11.09,12.1v28.08c0,2.38-1.87,4.25-4.25,4.25s-4.25-1.87-4.25-4.25v-27.79c0-3.46-.72-4.68-2.59-4.68-1.66,0-2.45,1.22-2.45,4.68v27.79c0,2.38-1.87,4.25-4.25,4.25s-4.25-1.87-4.25-4.25Z"/><path class="cls-30" d="m831.79,462.74v11.81c0,2.38-1.87,4.25-4.25,4.25s-4.25-1.87-4.25-4.25v-11.59c0-2.52-1.01-3.74-3.1-3.74h-2.09v15.34c0,2.38-1.87,4.25-4.25,4.25s-4.25-1.87-4.25-4.25v-46.08c0-2.38,1.87-4.32,4.25-4.32s4.25,1.94,4.25,4.32v23.19h1.73c1.94,0,2.88-1.15,2.88-3.89v-8.64c0-2.38,1.73-4.32,4.1-4.32s4.25,1.94,4.25,4.32v9.87c0,2.95-.79,5.33-2.38,6.84,2.16,1.15,3.1,3.75,3.1,6.91Z"/><path class="cls-30" d="m836.68,467.35v-20.81c0-7.92,4.39-12.1,10.95-12.1s11.09,4.18,11.09,12.1v20.81c0,7.92-4.39,12.1-11.09,12.1s-10.95-4.18-10.95-12.1Zm13.54-.07v-20.59c0-3.46-.72-4.68-2.59-4.68-1.66,0-2.45,1.22-2.45,4.68v20.59c0,3.46.79,4.54,2.45,4.54,1.87,0,2.59-1.08,2.59-4.54Z"/><path class="cls-30" d="m862.02,467.93c0-4.39,1.37-7.27,4.75-7.27,2.66,0,3.74,1.87,3.82,3.38.07,1.22-.14,2.74-.14,4.54,0,2.16,1.15,3.38,2.59,3.38,2.45,0,2.74-1.87,2.74-5.83,0-4.46-1.01-6.77-4.18-8.57l-1.22-.72c-4.54-2.59-7.71-5.33-7.71-11.81s3.53-10.58,11.02-10.58c5.76,0,9.79,2.95,9.94,8.79.07,2.59-1.15,4.39-3.6,4.46-2.23.07-3.38-1.3-3.82-3.53-.29-1.44-1.08-2.45-2.45-2.45-1.73,0-2.59,1.22-2.59,3.1,0,2.02,1.01,3.17,2.95,4.18l2.38,1.3c5.83,3.02,7.78,8.64,7.78,15.26,0,9.5-3.82,13.75-11.38,13.75-6.34,0-10.87-3.31-10.87-11.38Z"/><path class="cls-30" d="m909.69,467.42v1.37c0,7.27-4.32,10.51-9.58,10.51-6.19,0-10.3-3.17-10.3-10.73v-25.13h-1.01c-2.23,0-3.89-1.73-3.89-3.89s1.66-3.89,3.89-3.89h1.01v-6.34c0-2.38,1.87-4.32,4.25-4.32s4.25,1.94,4.25,4.32v6.34h2.23c2.16,0,3.89,1.73,3.89,3.89s-1.73,3.89-3.89,3.89h-2.23v25.27c0,2.23.65,3.1,1.87,3.1,1.15,0,1.8-.94,1.8-2.95v-1.44c0-2.45,1.44-4.03,3.89-4.03,2.3,0,3.82,1.73,3.82,4.03Z"/><path class="cls-30" d="m911.7,467.14v-20.59c0-7.85,4.39-12.03,10.94-12.03s10.95,4.18,10.95,12.03v10.08c0,3.6-1.94,5.33-5.54,5.33h-7.85v5.18c0,3.17,1.01,4.54,2.81,4.54,2.09,0,2.52-1.37,2.52-3.24v-.43c0-2.23,1.73-3.96,3.96-3.96s3.96,1.73,3.96,3.96v1.08c0,6.7-4.1,10.23-10.51,10.23-6.84,0-11.23-4.18-11.23-12.17Zm13.54-12.03v-8.86c0-3.46-.72-4.61-2.59-4.61-1.66,0-2.45,1.15-2.45,4.61v8.86h5.04Z"/><path class="cls-30" d="m968.8,462.74v11.81c0,2.38-1.87,4.25-4.25,4.25s-4.25-1.87-4.25-4.25v-11.59c0-2.52-1.01-3.74-3.1-3.74h-2.09v15.34c0,2.38-1.87,4.25-4.25,4.25s-4.25-1.87-4.25-4.25v-46.08c0-2.38,1.87-4.32,4.25-4.32s4.25,1.94,4.25,4.32v23.19h1.73c1.94,0,2.88-1.15,2.88-3.89v-8.64c0-2.38,1.73-4.32,4.1-4.32s4.25,1.94,4.25,4.32v9.87c0,2.95-.79,5.33-2.38,6.84,2.16,1.15,3.1,3.75,3.1,6.91Z"/><path class="cls-30" d="m994.72,446.47v28.08c0,2.38-1.87,4.25-4.25,4.25-.94,0-1.87-.29-2.52-.86-1.44,1.01-3.6,1.51-5.11,1.51-6.12,0-10.08-3.6-10.08-10.37v-8.14c0-6.91,3.96-10.51,10.08-10.51,1.01,0,2.3.29,3.46.72v-4.68c0-3.31-.79-4.25-2.3-4.25-1.66,0-2.45,1.15-2.45,3.1v.14c0,2.23-1.58,3.96-3.96,3.96s-4.03-1.66-4.03-4.32v-.58c0-5.76,3.82-9.94,10.37-9.94,7.27,0,10.8,4.18,10.8,11.88Zm-8.42,15.62c0-3.38-1.08-4.97-2.66-4.97-1.73,0-2.52,1.08-2.52,4.61v6.41c0,3.38.79,4.61,2.52,4.61,1.58,0,2.66-1.73,2.66-5.04v-5.62Z"/><path class="cls-30" d="m1021.36,467.42v1.37c0,7.27-4.32,10.51-9.58,10.51-6.19,0-10.3-3.17-10.3-10.73v-25.13h-1.01c-2.23,0-3.89-1.73-3.89-3.89s1.66-3.89,3.89-3.89h1.01v-6.34c0-2.38,1.87-4.32,4.25-4.32s4.25,1.94,4.25,4.32v6.34h2.23c2.16,0,3.89,1.73,3.89,3.89s-1.73,3.89-3.89,3.89h-2.23v25.27c0,2.23.65,3.1,1.87,3.1,1.15,0,1.8-.94,1.8-2.95v-1.44c0-2.45,1.44-4.03,3.89-4.03,2.3,0,3.82,1.73,3.82,4.03Z"/><path class="cls-30" d="m1042.81,467.42v1.37c0,7.27-4.32,10.51-9.58,10.51-6.19,0-10.3-3.17-10.3-10.73v-25.13h-1.01c-2.23,0-3.89-1.73-3.89-3.89s1.66-3.89,3.89-3.89h1.01v-6.34c0-2.38,1.87-4.32,4.25-4.32s4.25,1.94,4.25,4.32v6.34h2.23c2.16,0,3.89,1.73,3.89,3.89s-1.73,3.89-3.89,3.89h-2.23v25.27c0,2.23.65,3.1,1.87,3.1,1.15,0,1.8-.94,1.8-2.95v-1.44c0-2.45,1.44-4.03,3.89-4.03,2.3,0,3.82,1.73,3.82,4.03Z"/><path class="cls-30" d="m1044.83,467.14v-20.59c0-7.85,4.39-12.03,10.94-12.03s10.95,4.18,10.95,12.03v10.08c0,3.6-1.94,5.33-5.54,5.33h-7.85v5.18c0,3.17,1.01,4.54,2.81,4.54,2.09,0,2.52-1.37,2.52-3.24v-.43c0-2.23,1.73-3.96,3.96-3.96s3.96,1.73,3.96,3.96v1.08c0,6.7-4.1,10.23-10.51,10.23-6.84,0-11.23-4.18-11.23-12.17Zm13.54-12.03v-8.86c0-3.46-.72-4.61-2.59-4.61-1.66,0-2.45,1.15-2.45,4.61v8.86h5.04Z"/><path class="cls-30" d="m1071.47,474.55v-28.08c0-7.92,4.39-12.1,10.94-12.1s11.09,4.18,11.09,12.1v28.08c0,2.38-1.87,4.25-4.25,4.25s-4.25-1.87-4.25-4.25v-27.79c0-3.46-.72-4.68-2.59-4.68-1.66,0-2.45,1.22-2.45,4.68v27.79c0,2.38-1.87,4.25-4.25,4.25s-4.25-1.87-4.25-4.25Z"/><path class="cls-30" d="m1106.6,467.14v-20.59c0-7.85,4.39-12.03,10.94-12.03s10.95,4.18,10.95,12.03v10.08c0,3.6-1.94,5.33-5.54,5.33h-7.85v5.18c0,3.17,1.01,4.54,2.81,4.54,2.09,0,2.52-1.37,2.52-3.24v-.43c0-2.23,1.73-3.96,3.96-3.96s3.96,1.73,3.96,3.96v1.08c0,6.7-4.1,10.23-10.51,10.23-6.84,0-11.23-4.18-11.23-12.17Zm13.54-12.03v-8.86c0-3.46-.72-4.61-2.59-4.61-1.66,0-2.45,1.15-2.45,4.61v8.86h5.04Z"/><path class="cls-30" d="m1154.84,467.42v1.37c0,7.27-4.32,10.51-9.58,10.51-6.19,0-10.3-3.17-10.3-10.73v-25.13h-1.01c-2.23,0-3.89-1.73-3.89-3.89s1.66-3.89,3.89-3.89h1.01v-6.34c0-2.38,1.87-4.32,4.25-4.32s4.25,1.94,4.25,4.32v6.34h2.23c2.16,0,3.89,1.73,3.89,3.89s-1.73,3.89-3.89,3.89h-2.23v25.27c0,2.23.65,3.1,1.87,3.1,1.15,0,1.8-.94,1.8-2.95v-1.44c0-2.45,1.44-4.03,3.89-4.03,2.3,0,3.82,1.73,3.82,4.03Z"/><path class="cls-30" d="m1165.35,474.55v-46.08c0-2.38,1.87-4.32,4.25-4.32s4.25,1.94,4.25,4.32v46.08c0,2.38-1.87,4.25-4.25,4.25s-4.25-1.87-4.25-4.25Z"/><path class="cls-30" d="m1179.82,428.47c0-2.45,1.87-4.32,4.32-4.32s4.32,1.87,4.32,4.32-1.87,4.32-4.32,4.32-4.32-1.87-4.32-4.32Zm.07,46.08v-35.14c0-2.38,1.87-4.32,4.25-4.32s4.25,1.94,4.25,4.32v35.14c0,2.38-1.87,4.25-4.25,4.25s-4.25-1.87-4.25-4.25Z"/><path class="cls-30" d="m1193.72,463.25v-23.83c0-2.38,1.87-4.32,4.25-4.32s4.25,1.94,4.25,4.32v23.47c0,3.96,1.51,7.2,2.45,7.2,1.01,0,2.52-4.32,2.52-9.65v-9.07c0-3.74-.65-6.62-2.02-8.79-1.51-2.38-1.44-5.76.43-6.98,2.02-1.3,4.32-.65,5.9,1.37,2.66,3.46,3.96,7.27,3.96,12.67v10.22c0,9.94-4.54,19.37-11.02,19.37-5.47,0-10.73-8.86-10.73-15.99Z"/><g id="kat"><path class="cls-41" d="m245.15,836.42c25.78,106.18,64.21,133.83,40.51,161.3-19.3,22.36-60.08,21.72-96.42,21.15-36.32-.57-72.01-1.12-92.63-22.21-22.29-22.81-4.66-70.86,32.27-165.25,1.86,27.22,3.73,54.44,5.59,81.66.78,11.53,10.46,20.43,22.01,20.25l65.81-.99c12.43-.18,22.36-10.44,22.14-22.86l-1.4-81.31c.93,3.27,1.61,6.13,2.13,8.27Z"/><path class="cls-34" d="m153.5,813.35c8.27,10.58,21.13,17.04,34.93,16.77,18.53-.37,34.99-12.83,40.55-30.85,7.41,8.54,11.59,20.15,14.05,28.88l1.4,81.31c.22,12.43-9.71,22.68-22.14,22.86l-65.81.99c-11.55.18-21.23-8.73-22.01-20.25-1.86-27.22-3.73-54.44-5.59-81.66,1.47-3.75,2.97-7.58,4.5-11.49,2.1-5.36,5.6-13.98,12.7-20.88,1.61,5.31,4.16,10.13,7.43,14.31Z"/><path class="cls-41" d="m153.5,813.35c-3.27-4.18-5.82-9-7.43-14.31,2.71-2.64,5.95-5.02,9.83-6.87,9.79-4.67,21.25-4.81,33.34-4.95,10.02-.13,18.26-.23,25.05,1.96,5.95,1.91,10.77,5.56,14.69,10.09-5.56,18.02-22.02,30.48-40.55,30.85-13.8.28-26.66-6.19-34.93-16.77Z"/><path class="cls-5" d="m243.02,828.14c.93,3.27,1.61,6.13,2.13,8.27,25.78,106.18,64.21,133.83,40.51,161.3-19.3,22.36-60.08,21.72-96.42,21.15-36.32-.57-72.01-1.12-92.63-22.21-22.29-22.81-4.66-70.86,32.27-165.25,1.47-3.75,2.97-7.58,4.5-11.49,2.1-5.36,5.6-13.98,12.7-20.88,2.71-2.64,5.95-5.02,9.83-6.87,9.79-4.67,21.25-4.81,33.34-4.95,10.02-.13,18.26-.23,25.05,1.96,5.95,1.91,10.77,5.56,14.69,10.09,7.41,8.54,11.59,20.15,14.05,28.88Z"/><path class="cls-5" d="m153.5,813.35c2.79.25,5.35-.32,9.07.08,1.52.18,3.85.57,6.67,1.67"/><path class="cls-5" d="m228.98,799.27c-5.56,18.02-22.02,30.48-40.55,30.85-13.8.28-26.66-6.19-34.93-16.77-3.27-4.18-5.82-9-7.43-14.31"/><path class="cls-5" d="m128.88,831.41c1.86,27.22,3.73,54.44,5.59,81.66.78,11.53,10.46,20.43,22.01,20.25l65.81-.99c12.43-.18,22.36-10.44,22.14-22.86l-1.4-81.31"/><path class="cls-27" d="m140.88,652.44c.81-.75,2.2-1.85,4.17-2.5,2.95-.98,5.56-.43,7.51,0,4.1.91,4.06,2.17,6.67,2.5,4.26.54,5.1-2.7,10.01-3.34,5.61-.73,6.74,3.21,12.51,2.5,4.73-.58,4.94-3.35,9.18-3.34,4.64.02,5.41,3.35,10.01,3.34,4.16,0,5.18-2.74,9.18-3.34,2.72-.41,6.84.16,12.54,5.13,3.55-8.39,11.78-24.72,29.04-38.85,15.8-12.94,31.77-17.99,40.5-20.09,1.64,8,3,16.46,3.95,25.35,4.85,45.29-2.62,84.68-11.85,114.26-6.18,19.78-12.62,27.18-14.82,29.96-14.2,18-33.06,25.65-43.79,28.98-10.31,2.5-23.36,4.68-38.52,4.94-20.36.35-37.4-2.89-49.72-6.26-4-1.67-8.87-3.98-14.18-7.14,0,0-9.33-5.57-16.77-12.29-11.32-10.22-18.08-24.14-23.16-36.41-7.39-17.87-17.81-43.66-20.85-80.91-1.07-13.06-1.53-31.24,1.21-52.9,8.79.76,24.86,3.33,41.82,13.5,20.5,12.3,31.04,28.97,35.38,36.9Z"/><path class="cls-18" d="m238.48,654.94c1.03-5.39,3.79-13.07,12.51-23.36,12.05-14.21,27.42-18.12,32.53-19.19.84,6.95,1.45,14.48,1.67,22.52.36,13.27-.39,30.32-1.67,40.87-15.04-4.24-30-16.61-45.05-20.85Z"/><path class="cls-18" d="m124.2,659.11c-1.69-5.23-6.08-15.28-16-24.41-13.7-12.62-29.44-14.6-34.65-15.03.02,7,.35,14.54,1.12,22.56,1.27,13.21,3.58,30.76,6.15,41.08,14.4-6.06,28.97-18.13,43.38-24.19Z"/><path class="cls-3" d="m105.01,691.64c1.55-1.51,3.75-3.35,6.67-5.01,3.26-1.84,6.28-2.81,8.51-3.34"/><path class="cls-3" d="m159.42,653.47c2.57,2.35,3.12,4.29,3.15,5.64.05,2.16-1.22,3.33-1.67,6.67-.24,1.76-.12,3.23,0,4.17"/><path class="cls-3" d="m141.71,652.44c1.2,1.73,2.59,4.35,2.5,7.51-.16,5.71-5.03,7.98-6.67,14.18-.69,2.62-.96,6.53,1.19,11.91"/><line class="cls-3" x1="180.5" y1="652.61" x2="180.5" y2="661.65"/><path class="cls-3" d="m200.11,652.44c-.41.97-.88,2.42-.83,4.17.06,2.44,1.05,3.74,1.67,5.84.49,1.67.82,4.14,0,7.51"/><path class="cls-3" d="m221.82,654.24c-2.33,3.52-2.66,6.31-2.53,8.21.38,5.25,4.59,7.29,5.84,13.35.69,3.36.15,6.34-.43,8.34"/><path class="cls-3" d="m247.05,677.06c2.1.51,4.83,1.39,7.79,2.98,3.3,1.78,5.72,3.82,7.36,5.43"/><path class="cls-3" d="m97.64,924.52c7.89,10.55,15.36,13.83,20.72,14.87,8.68,1.69,14.13-2.04,26.69-.83,7.25.69,13.02,2.66,16.68,4.17"/><path class="cls-3" d="m91.66,946.9c8.86,5.46,16.38,7.07,21.69,7.51,9.78.8,14.99-2.14,26.34-1.04,7.18.69,12.92,2.63,16.68,4.17"/><ellipse class="cls-27" cx="140.89" cy="994.27" rx="28.57" ry="45.61" transform="translate(-352.85 119.83) rotate(-21.39)"/><ellipse class="cls-28" cx="122.46" cy="986.43" rx="5.42" ry="8.34" transform="translate(-476.81 193.39) rotate(-30)"/><path class="cls-28" d="m133.3,1018.21c-.78-.34-2.02-1.02-2.9-2.33-1.39-2.09-1.41-5.09-.38-7.28.91-1.91,2.37-2.67,2.52-4.95.04-.65-.07-.65-.08-1.46-.02-2.88,1.42-5.13,1.75-5.64,1.73-2.58,4.12-3.67,5.34-4.07,1.32-.43,4.51-1.77,7.71-.54,1.62.62,3.13,2.17,5.03,3.98.92.87,1,1.04,1.53,1.38,2.15,1.37,3.5.32,5.47,1.32,2.17,1.1,2.94,3.58,3.14,4.22.54,1.73.34,3.22.2,3.95-.25.69-.72,1.68-1.61,2.55-1.25,1.22-2.75,1.63-5.15,2.02-5.87.94-6.08-.08-8.57.88-.64.25-2.41,1.44-5.94,3.81-1.51,1.02-2.52,1.73-4.13,2.11-1.6.38-3.01.24-3.94.06Z"/><ellipse class="cls-28" cx="133.54" cy="975.92" rx="5.42" ry="8.34" transform="translate(-306.42 94.62) rotate(-18.74)"/><ellipse class="cls-28" cx="149.39" cy="975.92" rx="8.34" ry="5.42" transform="translate(-833.27 1071.43) rotate(-86.85)"/><path class="cls-3" d="m271.57,922.88c-7.89,10.55-15.36,13.83-20.72,14.87-8.68,1.69-14.13-2.04-26.69-.83-7.25.69-13.02,2.66-16.68,4.17"/><path class="cls-3" d="m282.55,948.6c-8.86,5.46-16.38,7.07-21.69,7.51-9.78.8-14.99-2.14-26.34-1.04-7.18.69-12.92,2.63-16.68,4.17"/><ellipse class="cls-27" cx="240.13" cy="994.19" rx="45.61" ry="28.57" transform="translate(-773.17 855.27) rotate(-68.61)"/><path class="cls-28" d="m247.72,1018.13c.78-.34,2.02-1.02,2.9-2.33,1.39-2.09,1.41-5.09.38-7.28-.91-1.91-2.37-2.67-2.52-4.95-.04-.65.07-.65.08-1.46.02-2.88-1.42-5.13-1.75-5.64-1.73-2.58-4.12-3.67-5.34-4.07-1.32-.43-4.51-1.77-7.71-.54-1.62.62-3.13,2.17-5.03,3.98-.92.87-1,1.04-1.53,1.38-2.15,1.37-3.5.32-5.47,1.32-2.17,1.1-2.94,3.58-3.14,4.22-.54,1.73-.34,3.22-.2,3.95.25.69.72,1.68,1.61,2.55,1.25,1.22,2.75,1.63,5.15,2.02,5.87.94,6.08-.08,8.57.88.64.25,2.41,1.44,5.94,3.81,1.51,1.02,2.52,1.73,4.13,2.11,1.6.38,3.01.24,3.94.06Z"/><ellipse class="cls-28" cx="257.96" cy="986.72" rx="8.34" ry="5.42" transform="translate(-725.54 716.76) rotate(-60)"/><ellipse class="cls-28" cx="246.88" cy="976.21" rx="8.34" ry="5.42" transform="translate(-756.9 896.42) rotate(-71.26)"/><ellipse class="cls-28" cx="231.03" cy="976.21" rx="5.42" ry="8.34" transform="translate(-53.32 14.18) rotate(-3.15)"/><path class="cls-3" d="m220.13,808.43c-2.7,2.33-5.07,3.07-6.67,3.34-4.06.67-6.4-1.17-10.01,0-2.28.74-3.81,2.28-4.69,3.34"/><path class="cls-3" d="m219.47,798.09c-.62.8-1.76,2.03-3.51,2.83-3.81,1.73-6.78-.33-11.68.83-1.27.3-3.09.92-5.16,2.34"/><path class="cls-27" d="m286.03,951.91c10.6-23.66,11.39-42.23,10.01-55.06-2.52-23.41-12.87-33.3-8.34-55.06,2.79-13.41,9.51-23.01,15.02-30.86,7-10,13.63-19.18,25.03-21.69,2.31-.51,8.05-1.69,14.18.83,11.14,4.6,14.08,17.55,15.02,21.69,1.51,6.65,2.7,20.27-4.17,24.19-.63.36-3.46,1.97-5.84.83-7.32-3.51,2.77-26.85-7.51-35.04-3.4-2.71-7.5-2.54-8.34-2.5-8.01.33-13.46,8.54-20.85,20.02-5.16,8.01-8.65,13.43-10.84,20.02-6.49,19.49,2.23,37.61,5.84,49.22,5.47,17.57,6.8,44.52-12.51,85.09-2.22-7.23-4.45-14.46-6.67-21.69Z"/><circle class="cls-30" cx="136" cy="733.13" r="17.1"/><circle class="cls-37" cx="127.45" cy="740.61" r="3.21"/><circle class="cls-37" cx="141.56" cy="726.72" r="6.41"/><circle class="cls-30" cx="228.38" cy="731.59" r="16.98"/><circle class="cls-37" cx="236.87" cy="739.02" r="3.18"/><circle class="cls-37" cx="222.86" cy="725.22" r="6.37"/><ellipse class="cls-36" cx="238.48" cy="757.54" rx="15.43" ry="7.92"/><ellipse class="cls-36" cx="130.04" cy="758.38" rx="15.43" ry="7.92"/><path class="cls-21" d="m176.29,754.62c-1.35,2.28-1.23,4.73,0,5.84,1.35,1.22,3.6.44,4.89,0,2.21-.76,4.66-2.62,5.12-5.01.14-.7.14-1.67.14-1.67,0,0-.19.93-.14,1.67.14,2.12,2.26,4.31,4.74,5.01.72.2,3.62,1.02,5.27-.83,1.26-1.41,1.33-3.83,0-5.84"/><path class="cls-1" d="m180.48,746.28h12.16c.09.61.3,2.68-1.3,4.78-1.63,2.14-4.07,2.92-4.78,3.12-.79-.26-3.02-1.1-4.6-3.12-1.61-2.07-1.54-4.09-1.48-4.78Z"/><path class="cls-35" d="m178.38,864.46c-9.29-9.75-14.69-19.17-17.82-25.78-5.06-10.66-10.73-22.6-5.48-31.81,1.9-3.34,5.85-7.38,10.42-7.4,6.99-.03,14.66,9.32,16.45,24.13,6.87-16.56,20.16-23.9,27.97-20.84,5.82,2.28,8.97,10.5,9.05,17,.04,3.78-.92,9.44-9.87,20.02-5.53,6.53-15.19,16.24-30.71,24.68Z"/><path class="cls-27" d="m124.2,862.65c4.51-.44,10.99-1.82,15.85-6.67,4.96-4.96,3.81-9.13,9.18-19.19,3.63-6.81,8.35-15.63,15.85-16.68,4.68-.65,10.5,1.72,13.35,5.84,8.67,12.54-5.05,45.81-30.03,59.23-16.74,8.99-33.99,6.62-41.71,5.01"/><path class="cls-27" d="m248.49,865.99c-4.96-1.39-11.91-4.21-17.02-10.49-4.65-5.73-3.89-9.28-9.18-19.19-3.63-6.81-8.35-15.63-15.85-16.68-4.68-.65-10.5,1.72-13.35,5.84-8.7,12.59,5.44,45.38,30.03,59.23,14.46,8.14,29.11,7.81,36.2,7.15"/></g><g id="katsur"><path class="cls-41" d="m1739.69,840.66c25.43,104.74,63.34,132.01,39.96,159.1-19.04,22.05-59.26,21.43-95.11,20.87-35.83-.56-71.03-1.1-91.37-21.91-21.99-22.5-4.6-69.9,31.84-163,1.83,26.85,3.68,53.7,5.51,80.55.77,11.37,10.32,20.15,21.71,19.98l64.91-.98c12.26-.18,22.05-10.29,21.84-22.55l-1.38-80.21c.91,3.23,1.59,6.05,2.1,8.16Z"/><path class="cls-34" d="m1649.28,817.91c8.15,10.43,20.84,16.81,34.45,16.54,18.27-.36,34.51-12.66,40-30.43,7.31,8.43,11.43,19.88,13.86,28.49l1.38,80.21c.21,12.26-9.58,22.37-21.84,22.55l-64.91.98c-11.4.17-20.94-8.61-21.71-19.98-1.83-26.85-3.68-53.7-5.51-80.55,1.45-3.7,2.93-7.48,4.44-11.33,2.07-5.29,5.52-13.79,12.52-20.6,1.59,5.23,4.11,9.99,7.33,14.11Z"/><path class="cls-41" d="m1649.28,817.91c-3.23-4.12-5.74-8.88-7.33-14.11,2.67-2.6,5.87-4.95,9.69-6.78,9.66-4.61,20.97-4.75,32.89-4.89,9.88-.12,18.01-.22,24.71,1.93,5.87,1.88,10.62,5.49,14.49,9.96-5.49,17.77-21.72,30.07-40,30.43-13.61.27-26.3-6.11-34.45-16.54Z"/><path class="cls-5" d="m1737.59,832.5c.91,3.23,1.59,6.05,2.1,8.16,25.43,104.74,63.34,132.01,39.96,159.1-19.04,22.05-59.26,21.43-95.11,20.87-35.83-.56-71.03-1.1-91.37-21.91-21.99-22.5-4.6-69.9,31.84-163,1.45-3.7,2.93-7.48,4.44-11.33,2.07-5.29,5.52-13.79,12.52-20.6,2.67-2.6,5.87-4.95,9.69-6.78,9.66-4.61,20.97-4.75,32.89-4.89,9.88-.12,18.01-.22,24.71,1.93,5.87,1.88,10.62,5.49,14.49,9.96,7.31,8.43,11.43,19.88,13.86,28.49Z"/><path class="cls-5" d="m1649.28,817.91c2.76.25,5.27-.31,8.94.08,1.5.17,3.8.56,6.58,1.65"/><path class="cls-5" d="m1723.73,804.02c-5.49,17.77-21.72,30.07-40,30.43-13.61.27-26.3-6.11-34.45-16.54-3.23-4.12-5.74-8.88-7.33-14.11"/><path class="cls-5" d="m1624.99,835.72c1.83,26.85,3.68,53.7,5.51,80.55.77,11.37,10.32,20.15,21.71,19.98l64.91-.98c12.26-.18,22.05-10.29,21.84-22.55l-1.38-80.21"/><path class="cls-27" d="m1636.83,659.19c.8-.74,2.17-1.82,4.11-2.47,2.91-.97,5.49-.43,7.41,0,4.05.9,4,2.14,6.58,2.47,4.21.54,5.03-2.66,9.87-3.29,5.53-.72,6.65,3.17,12.34,2.47,4.67-.57,4.87-3.31,9.05-3.29,4.58.02,5.34,3.3,9.87,3.29,4.1,0,5.11-2.7,9.05-3.29,2.68-.4,6.74.16,12.37,5.06,3.5-8.28,11.62-24.38,28.64-38.32,15.59-12.77,31.34-17.75,39.95-19.81,1.62,7.9,2.96,16.24,3.9,25.01,4.79,44.67-2.58,83.53-11.69,112.7-6.09,19.51-12.45,26.81-14.62,29.56-14,17.75-32.61,25.3-43.2,28.58-10.17,2.46-23.05,4.61-38,4.87-20.08.35-36.89-2.85-49.04-6.17-3.95-1.65-8.75-3.92-13.98-7.04,0,0-9.2-5.49-16.55-12.12-11.17-10.08-17.84-23.81-22.85-35.92-7.29-17.62-17.57-43.07-20.57-79.81-1.05-12.88-1.51-30.81,1.19-52.18,8.67.75,24.52,3.28,41.25,13.32,20.23,12.14,30.62,28.57,34.9,36.4Z"/><path class="cls-17" d="m1675.94,741.88h12c.09.61.29,2.64-1.28,4.71-1.61,2.11-4.01,2.88-4.71,3.08-.78-.26-2.98-1.08-4.54-3.08-1.59-2.04-1.52-4.04-1.46-4.71Z"/><ellipse class="cls-36" cx="1746.27" cy="757.1" rx="15.22" ry="7.82"/><ellipse class="cls-36" cx="1618.67" cy="759.48" rx="15.22" ry="7.82"/><line class="cls-21" x1="1681.88" y1="749.2" x2="1681.91" y2="758.55"/><path class="cls-21" d="m1669.24,761.45c2.3-1.19,6.62-3.05,12.34-3.29,6.07-.26,10.76,1.41,13.17,2.47"/><path class="cls-17" d="m1648.49,731.27c2.14,5.55-4.18,17.49-14.74,18.76-9.25,1.11-17.65-5.49-18.76-14.74-1.27-10.6,8.83-19.49,14.74-18.76,2.7.33,2.92,2.48,9.9,7.87,6.23,4.82,7.98,4.59,8.86,6.87Z"/><circle class="cls-2" cx="1624.25" cy="741.6" r="3.16"/><circle class="cls-2" cx="1635.19" cy="729.8" r="6.33"/><path class="cls-17" d="m1711.33,733.99c-1.78,5.67,5.29,17.18,15.91,17.77,9.3.51,17.26-6.61,17.77-15.91.59-10.66-10.06-18.88-15.91-17.77-2.67.51-2.76,2.66-9.37,8.49-5.91,5.21-7.67,5.1-8.4,7.42Z"/><circle class="cls-2" cx="1736.19" cy="742.75" r="3.16"/><circle class="cls-2" cx="1724.51" cy="731.67" r="6.33"/><path class="cls-18" d="m1733.1,661.65c1.02-5.32,3.74-12.9,12.34-23.04,11.88-14.02,27.04-17.87,32.09-18.92.83,6.85,1.43,14.28,1.65,22.22.36,13.09-.39,29.91-1.65,40.32-14.84-4.18-29.6-16.39-44.43-20.57Z"/><path class="cls-18" d="m1620.38,665.77c-1.67-5.16-5.99-15.07-15.78-24.08-13.52-12.44-29.04-14.4-34.18-14.83.02,6.9.34,14.35,1.1,22.25,1.26,13.03,3.53,30.35,6.06,40.52,14.21-5.98,28.58-17.88,42.79-23.86Z"/><path class="cls-3" d="m1601.45,697.86c1.52-1.48,3.7-3.3,6.58-4.94,3.21-1.82,6.19-2.77,8.4-3.29"/><path class="cls-3" d="m1655.12,660.21c2.53,2.31,3.08,4.24,3.11,5.56.05,2.13-1.2,3.28-1.65,6.58-.23,1.73-.12,3.18,0,4.11"/><path class="cls-3" d="m1637.66,659.19c1.18,1.71,2.56,4.29,2.47,7.41-.16,5.63-4.97,7.88-6.58,13.99-.68,2.59-.95,6.44,1.17,11.74"/><line class="cls-3" x1="1675.92" y1="659.36" x2="1675.92" y2="668.28"/><path class="cls-3" d="m1695.25,659.19c-.41.96-.86,2.39-.82,4.11.06,2.41,1.04,3.69,1.65,5.76.48,1.65.81,4.08,0,7.41"/><path class="cls-3" d="m1716.67,660.96c-2.3,3.47-2.63,6.22-2.49,8.1.38,5.18,4.52,7.19,5.76,13.17.68,3.31.15,6.25-.42,8.23"/><path class="cls-3" d="m1741.56,683.47c2.07.5,4.77,1.37,7.69,2.94,3.25,1.75,5.64,3.77,7.26,5.35"/><path class="cls-3" d="m1594.18,927.57c7.78,10.41,15.15,13.64,20.44,14.67,8.56,1.66,13.94-2.01,26.33-.82,7.15.69,12.84,2.63,16.46,4.11"/><path class="cls-3" d="m1588.29,949.64c8.74,5.39,16.16,6.98,21.39,7.41,9.65.79,14.78-2.11,25.98-1.03,7.08.68,12.75,2.59,16.46,4.11"/><ellipse class="cls-27" cx="1636.84" cy="996.36" rx="28.19" ry="44.99" transform="translate(-250.62 665.47) rotate(-21.39)"/><ellipse class="cls-28" cx="1618.67" cy="988.64" rx="5.35" ry="8.23" transform="translate(-277.46 941.79) rotate(-30)"/><path class="cls-28" d="m1629.36,1019.98c-.77-.33-1.99-1-2.86-2.3-1.37-2.06-1.39-5.03-.37-7.19.89-1.88,2.33-2.63,2.49-4.88.04-.64-.07-.64-.07-1.44-.02-2.84,1.4-5.06,1.73-5.56,1.7-2.55,4.06-3.62,5.27-4.02,1.3-.42,4.45-1.75,7.61-.54,1.6.61,3.09,2.15,4.96,3.92.9.86.99,1.03,1.51,1.36,2.12,1.35,3.45.32,5.4,1.31,2.14,1.09,2.9,3.53,3.1,4.16.53,1.71.34,3.18.19,3.9-.25.68-.71,1.65-1.59,2.51-1.24,1.2-2.71,1.61-5.08,1.99-5.79.93-6-.08-8.46.87-.64.24-2.38,1.42-5.86,3.76-1.49,1-2.49,1.71-4.07,2.08-1.58.37-2.97.23-3.89.06Z"/><ellipse class="cls-28" cx="1629.6" cy="978.27" rx="5.35" ry="8.23" transform="translate(-227.88 575.32) rotate(-18.74)"/><ellipse class="cls-28" cx="1645.23" cy="978.27" rx="8.23" ry="5.35" transform="translate(577.98 2567.23) rotate(-86.85)"/><path class="cls-3" d="m1765.75,925.95c-7.78,10.41-15.15,13.64-20.44,14.67-8.56,1.66-13.94-2.01-26.33-.82-7.15.69-12.84,2.63-16.46,4.11"/><path class="cls-3" d="m1776.58,951.32c-8.74,5.39-16.16,6.98-21.39,7.41-9.65.79-14.78-2.11-25.98-1.03-7.08.68-12.75,2.59-16.46,4.11"/><ellipse class="cls-27" cx="1734.74" cy="996.29" rx="44.99" ry="28.19" transform="translate(174.48 2248.3) rotate(-68.61)"/><path class="cls-28" d="m1742.22,1019.91c.77-.33,1.99-1,2.86-2.3,1.37-2.06,1.39-5.03.37-7.19-.89-1.88-2.33-2.63-2.49-4.88-.04-.64.07-.64.07-1.44.02-2.84-1.4-5.06-1.73-5.56-1.7-2.55-4.06-3.62-5.27-4.02-1.3-.42-4.45-1.75-7.61-.54-1.6.61-3.09,2.15-4.96,3.92-.9.86-.99,1.03-1.51,1.36-2.12,1.35-3.45.32-5.4,1.31-2.14,1.09-2.9,3.53-3.1,4.16-.53,1.71-.34,3.18-.19,3.9.25.68.71,1.65,1.59,2.51,1.24,1.2,2.71,1.61,5.08,1.99,5.79.93,6-.08,8.46.87.64.24,2.38,1.42,5.86,3.76,1.49,1,2.49,1.71,4.07,2.08,1.58.37,2.97.23,3.89.06Z"/><ellipse class="cls-28" cx="1752.33" cy="988.92" rx="8.23" ry="5.35" transform="translate(19.73 2012.02) rotate(-60)"/><ellipse class="cls-28" cx="1741.39" cy="978.55" rx="8.23" ry="5.35" transform="translate(255.32 2313.32) rotate(-71.26)"/><ellipse class="cls-28" cx="1725.76" cy="978.55" rx="5.35" ry="8.23" transform="translate(-51.19 96.37) rotate(-3.15)"/><path class="cls-3" d="m1715,813.05c-2.66,2.3-5.01,3.03-6.58,3.29-4,.67-6.32-1.15-9.87,0-2.25.73-3.76,2.25-4.62,3.29"/><path class="cls-3" d="m1714.35,802.86c-.62.78-1.73,2-3.46,2.79-3.76,1.71-6.68-.32-11.52.82-1.25.3-3.05.91-5.09,2.31"/><path class="cls-27" d="m1649.79,878.69c19.84.5,22.57,21.09,43.8,23.49,14.6,1.65,28.35-6.25,36.82-11.43,8.33-5.09,14.36-10.49,18.14-14.26,4.88,10.43,8.75,21.36,11.29,32.25-16.42,12.12-31.13,15.67-39.59,16.92-12.69,1.87-35.93-6.77-81.9-24.12-6.45-2.44-13.81-5.3-13.97-9.52-.01-.36.02-.72.11-1.1,1.3-5.59,13.49-12.53,25.28-12.23Z"/><path class="cls-26" d="m1656.35,898.21c-5.2-2.5-5.39-4.87-22.2-15.95-8.82-5.81-16.32-10.12-21.26-12.84-5.33,11.39-9.56,23.34-12.34,35.24,5.83,6.48,24.66,25.72,53.02,27.54,1.24.08,2.35.11,3.52.04,7.77-.42,21.71-1.37,40.87-11.14,19.19-9.79,15.39-13.67,31.21-20.12,13.08-5.32,22.67-5.51,23.58-10.4.78-4.18-5.12-9.84-11.1-12.49-26.93-11.93-67.76,28.58-85.32,20.12Z"/><path class="cls-27" d="m1780.01,954.58c10.46-23.34,11.24-41.66,9.87-54.31-2.49-23.09-12.7-32.85-8.23-54.31,2.76-13.23,9.38-22.69,14.81-30.44,6.91-9.86,13.44-18.92,24.68-21.39,2.28-.5,7.94-1.67,13.99.82,10.99,4.53,13.89,17.31,14.81,21.39,1.48,6.56,2.66,20-4.11,23.86-.62.36-3.42,1.95-5.76.82-7.22-3.46,2.74-26.48-7.41-34.56-3.36-2.67-7.4-2.5-8.23-2.47-7.91.33-13.28,8.43-20.57,19.75-5.09,7.9-8.53,13.25-10.7,19.75-6.4,19.22,2.2,37.1,5.76,48.55,5.39,17.33,6.71,43.92-12.34,83.93-2.19-7.13-4.39-14.26-6.58-21.39Z"/></g><path class="cls-16" d="m492,520c5.17-4.65,28.04-24.19,63-24,34.33.18,56.73,19.26,62,24,3.59-1.42,12.74-4.49,24-2,15.11,3.35,23.14,14.31,25,17,16.76-3.1,33.76,3.04,44,16,13.26,16.78,8.6,36.63,8,39,20.83,12.87,29.88,34.3,24,50-3.42,9.14-11.19,14.42-16,17,.53,1,6.46,12.79,0,25-6.26,11.85-18.75,13.83-20,14-1.87,4.1-8.76,17.84-25,26-17.51,8.79-33.89,5.06-38,4-3.82,2.89-31.45,23.17-58,13-3.6-1.38-7.75-3.54-12-7-4.44,2.99-24.14,15.55-50,11-17.6-3.1-29.19-12.56-34-17-1.31.27-23.16,4.32-37-11-7.16-7.92-8.62-17.1-9-21-23.08.28-42.32-15.21-46-35-2.76-14.88,3.57-30.59,16-41-1.4-2.41-8.82-15.68-4-31,4.67-14.84,18.94-25.62,36-27,.46-3.34,2.95-18.82,17-30,12.54-9.98,26.22-10.09,30-10Z"/><path class="cls-16" d="m1240.08,512.38c5.17-4.65,28.04-24.19,63-24,34.33.18,56.73,19.26,62,24,3.59-1.42,12.74-4.49,24-2,15.11,3.35,23.14,14.31,25,17,16.76-3.1,33.76,3.04,44,16,13.26,16.78,8.6,36.63,8,39,20.83,12.87,29.88,34.3,24,50-3.42,9.14-11.19,14.42-16,17,.53,1,6.46,12.79,0,25-6.26,11.85-18.75,13.83-20,14-1.87,4.1-8.76,17.84-25,26-17.51,8.79-33.89,5.06-38,4-3.82,2.89-31.45,23.17-58,13-3.6-1.38-7.75-3.54-12-7-4.44,2.99-24.14,15.55-50,11-17.6-3.1-29.19-12.56-34-17-1.31.27-23.16,4.32-37-11-7.16-7.92-8.62-17.1-9-21-23.08.28-42.32-15.21-46-35-2.76-14.88,3.57-30.59,16-41-1.4-2.41-8.82-15.68-4-31,4.67-14.84,18.94-25.62,36-27,.46-3.34,2.95-18.82,17-30,12.54-9.98,26.22-10.09,30-10Z"/><circle class="cls-25" cx="371.5" cy="702.5" r="19"/><circle class="cls-11" cx="318.5" cy="733.5" r="11"/><circle class="cls-25" cx="1497.14" cy="718.07" r="19"/><circle class="cls-11" cx="1550.14" cy="749.07" r="11"/><path class="cls-9" d="m549.68,622.58c4.56.97,9.12,1.94,13.69,2.91,1.25.27,2.51.53,3.76.8-.55.32-1.31.69-2.26.93-1.59.41-2.96.28-3.78.13.63.55,1.52,1.2,2.68,1.74,2.01.93,3.85,1.06,4.94,1.05-.88.29-2.13.59-3.65.63-1.96.05-3.54-.38-4.53-.73.97.79,2.43,1.79,4.38,2.57,2.25.9,4.27,1.14,5.61,1.19-1.75.38-3.85.64-6.2.56-7.74-.27-13.35-4.1-15.84-6.08.41-1.91.81-3.81,1.22-5.72Z"/><ellipse class="cls-9" cx="536.6" cy="643.13" rx="2.18" ry="3.67" transform="translate(-291.64 518.33) rotate(-41.59)"/><ellipse class="cls-9" cx="533.71" cy="644.53" rx="2.18" ry="3.67" transform="translate(-227.48 296.89) rotate(-25.83)"/><ellipse class="cls-9" cx="531.02" cy="645.83" rx="2.18" ry="3.67" transform="translate(-122.75 124.62) rotate(-12.01)"/><ellipse class="cls-9" cx="488.69" cy="642.09" rx="3.67" ry="2.18" transform="translate(-315.93 581.36) rotate(-48.41)"/><ellipse class="cls-9" cx="491.58" cy="643.49" rx="3.67" ry="2.18" transform="translate(-301.79 805.63) rotate(-64.17)"/><ellipse class="cls-9" cx="494.27" cy="644.79" rx="3.67" ry="2.18" transform="translate(-239.25 994.09) rotate(-77.99)"/><path class="cls-9" d="m472.8,607.38c-2.49-2.91-7.39-8.65-5.41-14.12.93-2.56,3.21-4.63,5.72-5.42,5.22-1.65,10.3,2.55,14.01,5.61,0,0,10.68,8.83,10.44,20.11-.01.53-.04,1.89-.97,2.71-.81.71-1.98.73-3.09.58-14.24-1.93-20.69-9.47-20.69-9.47Z"/><polygon class="cls-9" points="513.52 555.82 527.84 539.16 527.84 547.49 533.84 545.84 531.55 549.97 539.79 547.49 520.65 560.4 513.52 555.82"/><path class="cls-9" d="m552.83,583.8c2.13,5.16,5.51,13.62,4.94,25-.24,4.9-.69,13.81-6.19,22.02-10.61,15.84-33.17,18.87-48.4,15.37-4.4-1.01-12.01-2.67-17.98-9.17-6.5-7.07-7.92-15.78-9.19-23.63-2.77-17,1.16-30.06,2.45-33.95,1.87-5.62,4-11.78,9.59-17.89,2.59-2.83,8.16-8.77,17.43-11.01,9.07-2.2,16.57.38,19.36,1.38,17.42,6.23,24.76,24.05,27.99,31.88Z"/><ellipse class="cls-39" cx="529.21" cy="602.95" rx="4.24" ry="2.18"/><ellipse class="cls-39" cx="487.47" cy="603.64" rx="4.24" ry="2.18"/><ellipse class="cls-31" cx="507.1" cy="599.8" rx="4.47" ry="2.52"/><path class="cls-9" d="m544.7,610.92c-2.47-2.89-7.33-8.57-5.37-13.99.92-2.54,3.18-4.59,5.67-5.37,5.17-1.64,10.21,2.53,13.89,5.56,0,0,10.59,8.75,10.35,19.93-.01.53-.04,1.87-.96,2.68-.8.71-1.96.72-3.07.58-14.12-1.91-20.51-9.39-20.51-9.39Z"/><circle class="cls-6" cx="493.13" cy="592.78" r="4.7"/><circle class="cls-19" cx="490.78" cy="594.84" r=".88"/><circle class="cls-19" cx="494.66" cy="591.02" r="1.76"/><circle class="cls-6" cx="521.29" cy="593.05" r="4.67"/><circle class="cls-19" cx="523.62" cy="595.09" r=".88"/><circle class="cls-19" cx="519.77" cy="591.3" r="1.75"/><ellipse class="cls-10" cx="642.47" cy="684.4" rx="5.64" ry="4.45" transform="translate(-198.64 1101.18) rotate(-73.17)"/><ellipse class="cls-10" cx="603.11" cy="683.11" rx="5.64" ry="4.45" transform="translate(-225.37 1062.58) rotate(-73.17)"/><path class="cls-10" d="m649.67,674.06c-.87-.51-1.14-1.65-.59-2.49,3.84-5.96,8.46-11.92,14.04-17.62.59-.6,1.18-1.2,1.78-1.78.37-.38.89-.97,1.38-1.78.67-1.09.97-2.03,1.38-3.36,1.27-4.13,1-3.26,1.19-3.95,1.4-5.17,1.31-5.31,1.78-6.33.28-.6,1.18-2.51,2.97-4.15.67-.61,1.97-1.66,8.7-3.76,5.12-1.59,5.81-1.43,6.72-2.57,1.23-1.53,1.39-3.56,3.16-4.15.24-.08.86-.29,1.38,0,1.08.6,1.05,2.96.4,4.55-.83,2.03-2.74,2.96-3.16,3.16-.26.13-.73.27-1.64.6-.53.19-1.29.44-3.11.98-4.45,1.33-5.21.99-7.12,1.98-.65.34-1.84.96-2.97,2.18-1.57,1.69-2.07,3.48-2.97,6.92-.86,3.27-.62,3.88-1.58,6.33,0,0-.64,1.69-1.58,3.36-2.23,3.97-4.66,5.28-7.32,8.3-5.43,6.2-7.05,8.58-9.77,13.51-.44.79-1.44,1.06-2.22.6l-.87-.52Z"/><path class="cls-10" d="m581.16,595.86c.56,7.47,5.78,18.81,16.72,19.59,9.17.65,17.92-6.44,19.07-15.79,1.29-10.49-8.03-17.66-14.68-19.93-1.47-.5-9.99-3.32-16.16,1.8-5.67,4.71-5.08,12.58-4.95,14.33Z"/><path class="cls-8" d="m587.22,598.25c.48,5.35,4.35,13.41,12.19,13.84,6.57.36,12.76-4.81,13.48-11.51.81-7.52-5.94-12.56-10.73-14.11-1.05-.34-7.19-2.27-11.55,1.47-4.01,3.43-3.5,9.07-3.39,10.32Z"/><path class="cls-10" d="m666.96,596.19c-.68,7.47-6.07,18.72-17.02,19.33-9.18.51-17.82-6.72-18.83-16.08-1.13-10.51,8.3-17.54,14.99-19.7,1.47-.48,10.04-3.17,16.13,2.05,5.6,4.79,4.89,12.66,4.73,14.41Z"/><path class="cls-8" d="m661.35,597.41c-.48,5.35-4.35,13.41-12.19,13.84-6.57.36-12.76-4.81-13.48-11.51-.81-7.52,5.94-12.56,10.73-14.11,1.05-.34,7.19-2.27,11.55,1.47,4.01,3.43,3.5,9.07,3.39,10.32Z"/><path class="cls-10" d="m658.87,637.83s4.29,20.91-2.18,35.11c-1.97,4.34-5.14,6.81-5.14,6.81-2.3,1.8-4.59,2.54-6.13,2.97-7.08,1.96-14.83,1.76-20.66,1.58-12.45-.39-19.73-.69-25.41-3.55-3.25-1.64-4.92-3.58-5.54-4.35-2-2.52-2.67-5.07-2.97-6.23-3.78-15.02-.2-32.33-.2-32.33,1.88-9.1,7.25-35.14,19.58-42.71,4.2-2.58,8.7-3.56,8.7-3.56,1.49-.28,6.01-1.18,11.67,0,0,0,5.25,1.09,10.28,4.35,7.64,4.94,15.5,20.62,17.99,41.92Z"/><ellipse class="cls-30" cx="623.1" cy="628.29" rx="3.06" ry="1.98"/><line class="cls-22" x1="622.59" y1="630.07" x2="622.59" y2="632.24"/><ellipse class="cls-39" cx="641.57" cy="633.58" rx="3.66" ry="1.88"/><ellipse class="cls-39" cx="607.75" cy="633.58" rx="3.66" ry="1.88"/><path class="cls-10" d="m637.98,644.21l-5.18,4.71c-1.03.94-1.69,2.19-1.8,3.42l-.02.22c-.2,2.21,1.37,3.82,3.62,3.71h0c1.17-.06,2.38-.58,3.34-1.46l5.3-4.82"/><path class="cls-10" d="m608.29,644.16l5.18,4.71c1.03.94,1.69,2.19,1.8,3.42l.02.22c.2,2.21-1.37,3.82-3.62,3.71h0c-1.17-.06-2.38-.58-3.34-1.46l-5.3-4.82"/><path class="cls-24" d="m596.76,624.78c-2.88-.45-6.31-.72-10.16-.49-1.65.1-3.2.27-4.63.49"/><path class="cls-24" d="m596.71,627.21c-1.96-.24-4.39-.36-7.14-.09-1.65.17-3.14.45-4.44.77"/><path class="cls-24" d="m596.48,629.62c-1.57-.03-3.45.05-5.54.4-1.56.26-2.95.61-4.15.99"/><path class="cls-24" d="m653.71,625.15c2.88-.45,6.31-.72,10.16-.49,1.65.1,3.2.27,4.63.49"/><path class="cls-24" d="m653.75,627.59c1.96-.24,4.39-.36,7.14-.09,1.65.17,3.14.45,4.44.77"/><path class="cls-24" d="m653.99,630c1.57-.03,3.45.05,5.54.4,1.56.26,2.95.61,4.15.99"/><circle class="cls-30" cx="608.94" cy="623.74" r="4.8"/><circle class="cls-37" cx="606.54" cy="625.84" r=".9"/><circle class="cls-37" cx="610.5" cy="621.94" r="1.8"/><circle class="cls-30" cx="638.42" cy="623.72" r="4.8"/><circle class="cls-37" cx="640.82" cy="625.82" r=".9"/><circle class="cls-37" cx="636.86" cy="621.92" r="1.8"/><ellipse class="cls-12" cx="1356.12" cy="643.94" rx="25.11" ry="18.92" transform="translate(-144.73 609.49) rotate(-24.09)"/><ellipse class="cls-15" cx="1366.21" cy="628.27" rx="8.11" ry="4.28" transform="translate(-131.1 767.28) rotate(-30)"/><ellipse class="cls-12" cx="1410.61" cy="660.19" rx="18.92" ry="25.11" transform="translate(-100.81 1036.08) rotate(-39.05)"/><ellipse class="cls-15" cx="1414.91" cy="643.48" rx="4.28" ry="8.11" transform="translate(-139.42 633.44) rotate(-24.09)"/><ellipse class="cls-15" cx="1389.77" cy="675.28" rx="6.07" ry="4.28" transform="translate(580.34 1991.44) rotate(-84.32)"/><ellipse class="cls-15" cx="1367.7" cy="667.51" rx="6.07" ry="4.28" transform="translate(-71.41 1162.62) rotate(-45)"/><ellipse class="cls-12" cx="1429.97" cy="617.07" rx="25.11" ry="18.92" transform="translate(-124.47 520.6) rotate(-19.79)"/><ellipse class="cls-12" cx="1367.74" cy="599.8" rx="18.92" ry="25.11" transform="translate(-72.34 995.58) rotate(-39.05)"/><path class="cls-14" d="m1413.51,652.48c-.71,2.64-3.64,13.43-13.91,18.25-11.9,5.58-24.1-1.78-26.18-3.09-2.24-1.42-10.92-6.91-12.85-17.38-1.69-9.11,2.68-16.32,4.3-19,3.38-5.58,7.56-8.46,12.36-11.71,8.29-5.6,18.26-12.33,25.53-8.78,4.74,2.32,6.16,8.04,8.98,19.49,2.32,9.4,3.71,15.03,1.77,22.22Z"/><path class="cls-15" d="m1424.71,618.48c-6.56,9.73-19.22,12.1-28.8,9.52-9.9-2.66-20.02-11.56-20.23-23.33-.15-8.24,4.6-15.59,10.47-19.52,13-8.69,34.92-2.88,40.94,11.43,2.92,6.95,1.92,15.51-2.38,21.9Z"/><line class="cls-32" x1="1375.16" y1="618.87" x2="1414.98" y2="629.31"/><path class="cls-33" d="m1370.8,624.31c4.9,3.01,11.24,6.32,18.98,9.05,9.21,3.25,17.49,4.64,23.91,5.24.29,1.15.54,2.51.68,4.05.15,1.72.11,3.25,0,4.52-7.89-1.37-16.9-3.45-26.64-6.66-8.65-2.85-16.28-6.07-22.85-9.24.66-1.1,1.52-2.33,2.6-3.61,1.15-1.36,2.31-2.46,3.33-3.33Z"/><path class="cls-33" d="m1360.31,643.85l48.92,18.22c-.58,1.45-1.71,3.72-3.92,5.8-3.97,3.74-8.68,4.29-10.25,4.4-2.42.57-8.08,1.56-14.75-.59-7.03-2.26-11.17-6.73-12.75-8.63-1.6-1.5-4.65-4.77-6.29-9.94-1.23-3.87-1.16-7.23-.96-9.26Z"/><path class="cls-4" d="m1394.39,581.87c-.29-1.06-.96-2.95-2.55-4.81-1.45-1.69-3.02-2.61-3.98-3.08"/><path class="cls-4" d="m1422.65,590.21c.65-.88,1.96-2.41,4.11-3.57,1.96-1.05,3.76-1.35,4.83-1.44"/><circle class="cls-30" cx="1385.99" cy="572.87" r="2.34"/><circle class="cls-30" cx="1432.73" cy="585.08" r="2.34"/><polygon class="cls-33" points="1376.9 667.49 1382.07 669.98 1376.37 675.22 1376.9 667.49"/><ellipse class="cls-40" cx="1384.27" cy="605.89" rx="2.26" ry="4.39" transform="translate(268.24 1624.6) rotate(-66.03)"/><ellipse class="cls-40" cx="1413.96" cy="617.79" rx="2.26" ry="4.39" transform="translate(274.99 1658.8) rotate(-66.03)"/><line class="cls-22" x1="1394.54" y1="613.91" x2="1397.96" y2="617.05"/><path class="cls-37" d="m1414.66,607.44c.81.87.6,2.12.56,2.31-.11.9-.28,1.65-.43,2.21-.31,1.16-.7,2.06-1.05,2.74-.45.89-.68,1.33-1.01,1.5-.26.14-.64.22-3.27-.78.34-.45.72-1.01,1.07-1.7.38-.74.62-1.43.77-2,.1-.33.22-.82.2-1.42-.01-.43-.08-.8-.16-1.08-.05-.24-.18-.68-.51-1.12-.36-.47-.77-.72-1-.83.7-.35,1.63-.65,2.71-.59.63.04,1.48.09,2.1.76Z"/><path class="cls-30" d="m1410.85,608.1c.33.44.46.88.51,1.12.08.28.15.65.16,1.08.01.6-.1,1.09-.2,1.42-.16.57-.4,1.26-.77,2-.35.69-.73,1.26-1.07,1.7-.31-.12-1.3-.5-2.56-1.13-1.28-.65-1.46-.86-1.55-1.1-.06-.15-.23-.7.96-2.47.52-.77.91-1.36,1.36-1.85,0,.15.02.31.05.48.04.3.11.57.18.79.02.06.1.32.36.48.32.2.66.1.71.08.2-.06.51-.2.75-.49.52-.64.28-1.51.21-1.77-.12-.43-.33-.76-.5-.96.13-.08.27-.16.43-.23.23.11.64.36,1,.83Z"/><path class="cls-38" d="m1409.42,607.5c.17.2.39.53.5.96.07.25.31,1.13-.21,1.77-.24.29-.55.43-.75.49-.05.02-.39.12-.71-.08-.26-.16-.34-.42-.36-.48-.07-.23-.14-.49-.18-.79-.02-.17-.04-.33-.05-.48.29-.32.61-.61,1.01-.89.17-.12.41-.3.73-.48Z"/><path class="cls-23" d="m1407.68,608.87c.29-.32.61-.61,1.01-.89.17-.12.41-.3.73-.48.13-.08.27-.16.43-.23.7-.35,1.63-.65,2.71-.59.63.04,1.48.09,2.1.76.81.87.6,2.12.56,2.31-.11.9-.28,1.65-.43,2.21-.31,1.16-.7,2.06-1.05,2.74-.45.89-.68,1.33-1.01,1.5-.26.14-.64.22-3.27-.78-.31-.12-1.3-.5-2.56-1.13-1.28-.65-1.46-.86-1.55-1.1-.06-.15-.23-.7.96-2.47.52-.77.91-1.36,1.36-1.85Z"/><path class="cls-23" d="m1409.47,615.43c.34-.45.72-1.01,1.07-1.7.38-.74.62-1.43.77-2,.1-.33.22-.82.2-1.42-.01-.43-.08-.8-.16-1.08-.05-.24-.18-.68-.51-1.12-.36-.47-.77-.72-1-.83"/><path class="cls-23" d="m1407.68,608.87c0,.15.02.31.05.48.04.3.11.57.18.79.02.06.1.32.36.48.32.2.66.1.71.08.2-.06.51-.2.75-.49.52-.64.28-1.51.21-1.77-.12-.43-.33-.76-.5-.96"/><path class="cls-37" d="m1391.59,598.04c-1.19-.03-1.98.96-2.11,1.11-.6.68-1.05,1.3-1.37,1.78-.66,1.01-1.08,1.89-1.36,2.6-.37.93-.55,1.39-.46,1.75.07.29.26.62,2.75,1.93.11-.55.28-1.21.57-1.93.31-.77.66-1.41.99-1.91.18-.3.47-.71.93-1.09.33-.28.65-.47.91-.6.22-.12.63-.32,1.18-.36.59-.05,1.05.1,1.29.2-.2-.76-.59-1.66-1.36-2.42-.44-.44-1.05-1.05-1.96-1.07Z"/><path class="cls-30" d="m1393.62,601.33c-.55.04-.96.24-1.18.36-.26.13-.58.32-.91.6-.46.39-.75.79-.93,1.09-.32.5-.68,1.13-.99,1.91-.29.72-.46,1.38-.57,1.93.3.16,1.23.65,2.55,1.17,1.34.53,1.61.52,1.85.43.16-.06.68-.29,1.22-2.36.24-.9.42-1.58.49-2.25-.12.09-.25.19-.39.28-.25.17-.5.29-.71.39-.06.03-.3.14-.6.05-.36-.11-.51-.43-.53-.47-.09-.19-.19-.51-.13-.88.13-.81.95-1.21,1.18-1.33.4-.2.79-.25,1.05-.26-.03-.15-.07-.31-.11-.47-.24-.09-.7-.24-1.29-.2Z"/><path class="cls-38" d="m1395.02,602c-.27,0-.65.06-1.05.26-.23.12-1.05.52-1.18,1.33-.06.37.04.69.13.88.02.05.17.37.53.47.29.09.54-.03.6-.05.22-.1.46-.22.71-.39.14-.09.27-.19.39-.28.05-.43.05-.86,0-1.35-.02-.2-.05-.51-.12-.87Z"/><path class="cls-23" d="m1395.15,604.22c.05-.43.05-.86,0-1.35-.02-.2-.05-.51-.12-.87-.03-.15-.07-.31-.11-.47-.2-.76-.59-1.66-1.36-2.42-.44-.44-1.05-1.05-1.96-1.07-1.19-.03-1.98.96-2.11,1.11-.6.68-1.05,1.3-1.37,1.78-.66,1.01-1.08,1.89-1.36,2.6-.37.93-.55,1.39-.46,1.75.07.29.26.62,2.75,1.93.3.16,1.23.65,2.55,1.17,1.34.53,1.61.52,1.85.43.16-.06.68-.29,1.22-2.36.24-.9.42-1.58.49-2.25Z"/><path class="cls-23" d="m1389.05,607.22c.11-.55.28-1.21.57-1.93.31-.77.66-1.41.99-1.91.18-.3.47-.71.93-1.09.33-.28.65-.47.91-.6.22-.12.63-.32,1.18-.36.59-.05,1.05.1,1.29.2"/><path class="cls-23" d="m1395.15,604.22c-.12.09-.25.19-.39.28-.25.17-.5.29-.71.39-.06.03-.3.14-.6.05-.36-.11-.51-.43-.53-.47-.09-.19-.19-.51-.13-.88.13-.81.95-1.21,1.18-1.33.4-.2.79-.25,1.05-.26"/><line class="cls-23" x1="1394.54" y1="596.61" x2="1397.86" y2="600.75"/><line class="cls-23" x1="1414.03" y1="603.65" x2="1408.82" y2="605.51"/><path class="cls-7" d="m1291.09,595.92c-6.99-4.5-17.11-5.05-23.11-5.08-.29,0-.53,0-.69,0,.1-1.54.23-3.13.41-4.78.19-1.78.41-3.5.66-5.15l-27.64.91c.62,1.83,1.34,4.15,2.04,6.88-5.7.26-10.62,1.45-15.45,4.21-5.16,2.94-7.17,5.92-11.09,5.31-6.66-1.02-13.11-11.45-12.02-20.56,1.14-9.49,9.95-13.38,7.86-19.41-.96-2.77-3.82-4.87-6.47-5.08-7.84-.64-13.99,15.27-14.33,16.17-1.19,3.17-7.28,19.37,2.77,33.73,5.22,7.46,15.32,15.18,25.88,14.09,10.63-1.09,10.82-9.97,25.42-14.33,0,0,0,0,0,0,.59,5.54.31,8.11,1.61,13.17,1.57,6.11,3.32,12.8,9.01,17.79,6.68,5.86,16.65,7.47,25.19,4.85,2.31-.71,13.08-4.36,17.1-15.48,3.76-10.4-.06-22.69-7.16-27.26Zm-11.32,19.18c-1.02,3.29-4.8,5.64-7.39,5.08-3.71-.8-6.27-7.83-5.71-17.72,1.09,0,7.1.15,10.8,4.78.84,1.05,3.42,4.29,2.31,7.86Z"/><path class="cls-7" d="m1288.55,555.71c-3.07-14.5-18.78-24.5-33.73-24.03-13.87.44-28.6,9.92-31.42,24.03-1.45,7.25.06,16.63,6.24,22.87,6.41,6.48,14.87,6.57,26.11,6.7,11.39.13,20.05.23,26.57-6.24,6.38-6.32,7.79-16.01,6.24-23.34Z"/><ellipse class="cls-39" cx="1276.3" cy="569.67" rx="4.27" ry="2.2"/><ellipse class="cls-39" cx="1236.79" cy="569.67" rx="4.27" ry="2.2"/><line class="cls-7" x1="1242.77" y1="588.7" x2="1245.34" y2="602.85"/><line class="cls-7" x1="1266.66" y1="602.46" x2="1267.21" y2="590.73"/><line class="cls-22" x1="1252.44" y1="567.94" x2="1252.44" y2="571.69"/><line class="cls-22" x1="1261.16" y1="567.94" x2="1261.16" y2="571.69"/><line class="cls-23" x1="1247.47" y1="555.49" x2="1249.5" y2="558.4"/><path class="cls-37" d="m1241.58,555.17c-1.18.41-1.61,1.66-1.67,1.86-.35.89-.56,1.67-.7,2.26-.29,1.23-.38,2.26-.4,3.06-.02,1.05-.04,1.57.18,1.89.18.26.48.52,3.41.91-.09-.58-.16-1.3-.14-2.11.02-.88.14-1.63.28-2.24.07-.36.21-.87.52-1.42.23-.4.47-.7.69-.92.17-.2.51-.54,1.03-.78.56-.26,1.07-.28,1.34-.27-.48-.67-1.19-1.42-2.22-1.89-.6-.28-1.41-.65-2.32-.34Z"/><path class="cls-30" d="m1244.78,557.68c-.53.24-.86.58-1.03.78-.21.22-.46.52-.69.92-.31.55-.45,1.05-.52,1.42-.14.61-.26,1.36-.28,2.24-.02.81.05,1.53.14,2.11.35.05,1.45.19,2.94.23,1.51.04,1.78-.07,1.98-.24.13-.11.56-.54.35-2.77-.09-.98-.16-1.71-.34-2.39-.08.13-.17.28-.28.42-.19.26-.38.47-.56.64-.05.05-.25.25-.57.27-.4.03-.66-.24-.7-.27-.15-.16-.37-.44-.45-.82-.16-.85.49-1.54.68-1.74.33-.34.69-.53.95-.64-.08-.14-.18-.28-.28-.43-.27,0-.78.01-1.34.27Z"/><path class="cls-38" d="m1246.4,557.83c-.26.1-.62.29-.95.64-.19.2-.85.89-.68,1.74.08.39.29.67.45.82.04.04.3.3.7.27.32-.02.52-.22.57-.27.18-.17.37-.39.56-.64.11-.15.2-.29.28-.42h0c-.11-.44-.26-.87-.49-1.33-.09-.19-.24-.48-.44-.81Z"/><path class="cls-23" d="m1247.33,559.97c-.11-.44-.26-.87-.49-1.33-.09-.19-.24-.48-.44-.81-.08-.14-.18-.28-.28-.43-.48-.67-1.19-1.42-2.22-1.89-.6-.28-1.41-.65-2.32-.34-1.18.41-1.61,1.66-1.67,1.86-.35.89-.56,1.67-.7,2.26-.29,1.23-.38,2.26-.4,3.06-.02,1.05-.04,1.57.18,1.89.18.26.48.52,3.41.91.35.05,1.45.19,2.94.23,1.51.04,1.78-.07,1.98-.24.13-.11.56-.54.35-2.77-.09-.98-.16-1.71-.34-2.39"/><path class="cls-23" d="m1242.4,565.15c-.09-.58-.16-1.3-.14-2.11.02-.88.14-1.63.28-2.24.07-.36.21-.87.52-1.42.23-.4.47-.7.69-.92.17-.2.51-.54,1.03-.78.56-.26,1.07-.28,1.34-.27"/><path class="cls-23" d="m1247.33,559.97h0c-.08.14-.17.28-.28.42-.19.26-.38.47-.56.64-.05.05-.25.25-.57.27-.4.03-.66-.24-.7-.27-.15-.16-.37-.44-.45-.82-.16-.85.49-1.54.68-1.74.33-.34.69-.53.95-.64"/><line class="cls-23" x1="1265.83" y1="555.42" x2="1263.8" y2="558.33"/><path class="cls-37" d="m1271.73,555.1c1.18.41,1.61,1.66,1.67,1.86.35.89.56,1.67.7,2.26.29,1.23.38,2.26.4,3.06.02,1.05.04,1.57-.18,1.89-.17.26-.48.52-3.41.91.09-.58.17-1.3.14-2.11-.02-.88-.14-1.63-.28-2.24-.07-.36-.21-.87-.52-1.41-.22-.4-.47-.7-.69-.92-.17-.2-.51-.54-1.03-.78-.56-.26-1.07-.28-1.34-.27.48-.67,1.19-1.42,2.22-1.89.6-.28,1.41-.65,2.32-.34Z"/><path class="cls-30" d="m1268.53,557.61c.53.24.86.58,1.03.78.21.22.46.52.69.92.31.55.45,1.05.52,1.41.14.61.26,1.36.28,2.24.02.81-.05,1.53-.14,2.11-.35.05-1.45.19-2.94.23-1.51.04-1.78-.07-1.98-.24-.13-.11-.56-.54-.35-2.77.09-.98.16-1.71.34-2.4h0c.08.14.17.28.28.42.19.26.38.47.56.64.05.05.25.25.57.27.4.03.66-.24.7-.27.16-.16.37-.44.45-.82.16-.85-.49-1.54-.68-1.74-.33-.34-.69-.53-.94-.64.08-.14.18-.28.28-.43.27,0,.78.01,1.34.27Z"/><path class="cls-38" d="m1266.9,557.76c.26.1.62.29.94.64.19.2.85.89.68,1.74-.07.39-.29.67-.45.82-.04.04-.3.3-.7.27-.32-.02-.52-.22-.57-.27-.18-.18-.37-.39-.56-.64-.11-.15-.2-.29-.28-.42h0c.11-.44.26-.87.49-1.33.09-.19.24-.48.44-.81Z"/><path class="cls-23" d="m1265.98,559.9c.11-.44.26-.86.49-1.33.09-.19.24-.48.44-.81.08-.14.18-.28.28-.43.48-.67,1.19-1.42,2.22-1.89.6-.28,1.41-.65,2.32-.34,1.18.41,1.61,1.66,1.67,1.86.35.89.56,1.67.7,2.26.29,1.23.38,2.26.4,3.06.02,1.05.04,1.57-.18,1.89-.17.26-.48.52-3.41.91-.35.05-1.45.19-2.94.23-1.51.04-1.78-.07-1.98-.24-.13-.11-.56-.54-.35-2.77.09-.98.16-1.71.34-2.4Z"/><path class="cls-23" d="m1270.9,565.07c.09-.58.17-1.3.14-2.11-.02-.88-.14-1.63-.28-2.24-.07-.36-.21-.87-.52-1.41-.22-.4-.47-.7-.69-.92-.17-.2-.51-.54-1.03-.78-.56-.26-1.07-.28-1.34-.27"/><path class="cls-23" d="m1265.98,559.9h0c.08.14.17.28.28.42.19.26.38.47.56.64.05.05.25.25.57.27.4.03.66-.24.7-.27.16-.16.37-.44.45-.82.16-.85-.49-1.54-.68-1.74-.33-.34-.69-.53-.94-.64"/><path class="cls-20" d="m1254.89,569.85l-.32,9.22,1.94-3.95,1.61,3.74v-9.38"/><line class="cls-22" x1="1253.02" y1="569.6" x2="1261.06" y2="569.64"/></svg>