<?xml version="1.0" encoding="UTF-8"?><svg id="knapper" xmlns="http://www.w3.org/2000/svg" width="326.75" height="147" xmlns:xlink="http://www.w3.org/1999/xlink" viewBox="0 0 326.75 147"><defs><style>.cls-1{stroke-width:3px;}.cls-1,.cls-2{fill:#d5cbe8;stroke:#78abb2;stroke-miterlimit:10;}.cls-2{filter:url(#drop-shadow-1);stroke-width:12px;}</style><filter id="drop-shadow-1" filterUnits="userSpaceOnUse"><feOffset dx="15" dy="1"/><feGaussianBlur result="blur" stdDeviation="2"/><feFlood flood-color="#666565" flood-opacity=".75"/><feComposite in2="blur" operator="in"/><feComposite in="SourceGraphic"/></filter></defs><rect class="cls-2" x="6" y="11.66" width="293" height="122" rx="50.15" ry="50.15"/><path class="cls-1" d="m54.58,52.65v41.72c0,2.38-1.89,4.27-4.27,4.27s-4.27-1.89-4.27-4.27v-18.55h-5.74v18.55c0,2.38-1.89,4.27-4.27,4.27s-4.27-1.89-4.27-4.27v-41.72c0-2.38,1.89-4.27,4.27-4.27s4.27,1.89,4.27,4.27v14.91h5.74v-14.91c0-2.38,1.89-4.27,4.27-4.27s4.27,1.89,4.27,4.27Z"/><path class="cls-1" d="m60.53,87.44v-20.23c0-7.7,4.27-11.76,10.64-11.76s10.78,4.06,10.78,11.76v20.23c0,7.7-4.27,11.76-10.78,11.76s-10.64-4.06-10.64-11.76Zm13.16-.07v-20.02c0-3.36-.7-4.55-2.52-4.55-1.61,0-2.38,1.19-2.38,4.55v20.02c0,3.36.77,4.41,2.38,4.41,1.82,0,2.52-1.05,2.52-4.41Z"/><path class="cls-1" d="m121.43,60.28v27.16c0,7.7-4.27,11.76-10.43,11.76-2.66,0-5.11-.63-6.86-2.59-1.75,1.96-4.2,2.59-6.86,2.59-6.16,0-10.43-4.06-10.43-11.76v-27.16c0-2.31,1.82-4.2,4.13-4.2s4.13,1.89,4.13,4.2v26.95c0,3.36.77,4.41,2.38,4.41,1.82,0,2.52-1.05,2.52-4.41v-26.95c0-2.31,1.82-4.2,4.13-4.2s4.13,1.89,4.13,4.2v26.95c0,3.36.77,4.41,2.52,4.41s2.38-1.05,2.38-4.41v-26.95c0-2.31,1.82-4.2,4.13-4.2s4.13,1.89,4.13,4.2Z"/><path class="cls-1" d="m155.17,87.51v1.33c0,7.07-4.2,10.22-9.31,10.22-6.02,0-10.01-3.08-10.01-10.43v-24.43h-.98c-2.17,0-3.78-1.68-3.78-3.78s1.61-3.78,3.78-3.78h.98v-6.16c0-2.31,1.82-4.2,4.13-4.2s4.13,1.89,4.13,4.2v6.16h2.17c2.1,0,3.78,1.68,3.78,3.78s-1.68,3.78-3.78,3.78h-2.17v24.57c0,2.17.63,3.01,1.82,3.01,1.12,0,1.75-.91,1.75-2.87v-1.4c0-2.38,1.4-3.92,3.78-3.92,2.24,0,3.71,1.68,3.71,3.92Z"/><path class="cls-1" d="m157.13,87.44v-20.23c0-7.7,4.27-11.76,10.64-11.76s10.78,4.06,10.78,11.76v20.23c0,7.7-4.27,11.76-10.78,11.76s-10.64-4.06-10.64-11.76Zm13.16-.07v-20.02c0-3.36-.7-4.55-2.52-4.55-1.61,0-2.38,1.19-2.38,4.55v20.02c0,3.36.77,4.41,2.38,4.41,1.82,0,2.52-1.05,2.52-4.41Z"/><path class="cls-1" d="m212.71,67v20.44c0,7.7-4.27,11.76-10.78,11.76-.77,0-1.61-.07-2.38-.35v7.49c0,2.31-1.82,4.13-4.13,4.13s-4.13-1.82-4.13-4.13v-39.34c0-7.7,4.27-11.76,10.64-11.76s10.78,4.06,10.78,11.76Zm-8.26.14c0-3.36-.7-4.55-2.52-4.55-1.61,0-2.38,1.19-2.38,4.55v19.81c0,3.29.91,4.83,2.38,4.83,1.82,0,2.52-1.05,2.52-4.41v-20.23Z"/><path class="cls-1" d="m218.03,94.45v-44.8c0-2.31,1.82-4.2,4.13-4.2s4.13,1.89,4.13,4.2v44.8c0,2.31-1.82,4.13-4.13,4.13s-4.13-1.82-4.13-4.13Z"/><path class="cls-1" d="m252.05,67.14v27.3c0,2.31-1.82,4.13-4.13,4.13-.91,0-1.82-.28-2.45-.84-1.4.98-3.5,1.47-4.97,1.47-5.95,0-9.8-3.5-9.8-10.08v-7.91c0-6.72,3.85-10.22,9.8-10.22.98,0,2.24.28,3.36.7v-4.55c0-3.22-.77-4.13-2.24-4.13-1.61,0-2.38,1.12-2.38,3.01v.14c0,2.17-1.54,3.85-3.85,3.85s-3.92-1.61-3.92-4.2v-.56c0-5.6,3.71-9.66,10.08-9.66,7.07,0,10.5,4.06,10.5,11.55Zm-8.19,15.19c0-3.29-1.05-4.83-2.59-4.83-1.68,0-2.45,1.05-2.45,4.48v6.23c0,3.29.77,4.48,2.45,4.48,1.54,0,2.59-1.68,2.59-4.9v-5.46Z"/><path class="cls-1" d="m256.67,107.54c0-2.1,1.54-3.71,3.64-3.71h7.21c1.68,0,2.59-.91,2.59-2.45v-2.38c-.77.14-1.54.21-2.52.21-6.37,0-10.64-4.06-10.64-11.76v-27.23c0-2.24,1.82-4.13,4.13-4.13s4.13,1.89,4.13,4.13v27.02c0,3.36.77,4.41,2.38,4.41,1.82,0,2.52-1.05,2.52-4.41v-27.02c0-2.24,1.82-4.13,4.13-4.13s4.13,1.89,4.13,4.13v42.08c0,5.6-3.08,8.96-8.68,8.96h-9.38c-2.1,0-3.64-1.61-3.64-3.71Z"/></svg>