<?xml version="1.0" encoding="UTF-8"?><svg id="figurer" xmlns="http://www.w3.org/2000/svg" width="412" height="574.33" viewBox="0 0 412 574.33"><defs><style>.cls-1{fill:#291c1b;}.cls-1,.cls-2,.cls-3,.cls-4,.cls-5,.cls-6,.cls-7,.cls-8{stroke-miterlimit:10;}.cls-1,.cls-3,.cls-4,.cls-5,.cls-6,.cls-7,.cls-8{stroke:#291c1b;}.cls-1,.cls-9,.cls-10,.cls-11,.cls-12,.cls-13{stroke-width:0px;}.cls-2{stroke:#e8b7aa;}.cls-2,.cls-3,.cls-6{fill:none;}.cls-2,.cls-3,.cls-7,.cls-8{stroke-width:3px;}.cls-4{fill:#c1c8d1;}.cls-4,.cls-6{stroke-width:2px;}.cls-5,.cls-7,.cls-13{fill:#e4aab5;}.cls-8,.cls-10{fill:#f8d4c8;}.cls-11{fill:#c5d2ea;}.cls-12{fill:#fff;}</style></defs><path class="cls-10" d="m262.39,322.95c30.9,127.29,76.98,160.44,48.56,193.36-23.14,26.8-72.02,26.04-115.59,25.36-43.54-.68-86.33-1.34-111.05-26.63-22.07-22.58-11.49-65.81,17.8-143.92,6.17-16.47,13.18-34.49,20.89-54.18,2.23,32.63,4.47,65.26,6.7,97.89.94,13.82,12.54,24.49,26.39,24.28l78.89-1.19c14.9-.22,26.8-12.51,26.54-27.41l-1.68-97.48c1.11,3.92,1.93,7.35,2.55,9.92Z"/><path class="cls-11" d="m261.52,410.51c.26,14.9-11.64,27.19-26.54,27.41l-78.89,1.19c-13.85.21-25.45-10.46-26.39-24.28-2.23-32.63-4.47-65.26-6.7-97.89,1.76-4.5,3.56-9.09,5.39-13.77,2.52-6.43,6.71-16.76,15.22-25.03,6.8,22.44,27.71,37.71,50.78,37.25,22.21-.44,41.93-15.38,48.61-36.97,8.88,10.23,13.89,24.15,16.84,34.61l1.68,97.48Z"/><path class="cls-10" d="m243,278.41h0c-6.68,21.6-26.4,36.54-48.61,36.98-23.07.46-43.98-14.81-50.78-37.25,3.25-3.16,7.13-6.02,11.78-8.24,11.74-5.6,25.48-5.77,39.97-5.94,12.01-.15,21.89-.27,30.03,2.35,7.13,2.29,12.91,6.68,17.61,12.1Z"/><path class="cls-3" d="m243,278.42c8.88,10.23,13.89,24.15,16.84,34.61,1.11,3.92,1.93,7.35,2.55,9.92,30.9,127.29,76.98,160.44,48.56,193.36-23.14,26.8-72.02,26.04-115.59,25.36-43.54-.68-86.33-1.34-111.05-26.63-22.07-22.58-11.49-65.81,17.8-143.92,6.17-16.47,13.18-34.49,20.89-54.18,1.76-4.5,3.56-9.09,5.39-13.77,2.52-6.43,6.71-16.76,15.22-25.03,3.25-3.16,7.13-6.02,11.78-8.24,11.74-5.6,25.48-5.77,39.97-5.94,12.01-.15,21.89-.27,30.03,2.35,7.13,2.29,12.91,6.68,17.61,12.1"/><path class="cls-3" d="m243,278.41h0c-6.68,21.6-26.4,36.54-48.61,36.98-23.07.46-43.98-14.81-50.78-37.25"/><path class="cls-3" d="m123,316.94c2.23,32.63,4.47,65.26,6.7,97.89.94,13.82,12.54,24.49,26.39,24.28l78.89-1.19c14.9-.22,26.8-12.51,26.54-27.41l-1.68-97.48"/><path class="cls-4" d="m123.52,431.11l29-105c1.67.33,3.33.67,5,1,1.46,1.65,3.49,4.3,5,8,.8,1.95,2.89,7.02,2,12-1.18,6.62-7.43,12.08-15.5,14.5-6.33,23.67-12.67,47.33-19,71-2.17-.5-4.33-1-6.5-1.5Z"/><path class="cls-8" d="m102.52,371.11c6.89,3.61,17.88,8.03,31,7,16.76-1.32,24.98-10.6,35-6,6.99,3.21,12.15,11.93,11,19-2.56,15.66-35.64,20.14-42,21-9.63,1.3-26.85,2.09-48.09-5.79,2.73-6.9,5.43-13.97,8.09-21.21,1.73-4.71,3.39-9.38,5-14Z"/><path class="cls-4" d="m210.52,355.11c-1.62.24-6.06.67-10-2-4.2-2.84-5.32-7.26-6-10-1.46-5.88-.23-11.47.5-11.5.59-.03.47,3.57,3,8,1.41,2.46,4.1,6.01,5.5,5.5,2.08-.76-.23-9.95,1.5-10.5,1.75-.55,5.4,8.49,7,8,1.93-.59-2.08-14.2,0-15,1.81-.7,9.53,7.88,8,17-.76,4.54-3.55,7.61-5,9,12.22,27.04,24.44,54.09,36.65,81.13-1.88.96-3.77,1.91-5.65,2.87-11.83-27.5-23.67-55-35.5-82.5Z"/><path class="cls-8" d="m276.52,372.11c-13.54,6.36-24.79,7.39-33.61,6.49-16.93-1.74-25.04-10.57-35-6-6.99,3.21-12.15,11.93-11,19,2.55,15.61,35.5,20.11,42,21,10.09,1.38,28.23,2.18,50.61-6.49-2.72-6.38-5.4-13.04-8-20-1.78-4.75-3.44-9.42-5-14Z"/><path class="cls-2" d="m229.89,286.23c-3.24,2.79-6.08,3.68-8,4-4.86.81-7.68-1.4-12,0-2.74.89-4.57,2.73-5.62,4"/><path class="cls-2" d="m229.1,273.84c-.75.95-2.11,2.43-4.21,3.39-4.57,2.08-8.12-.39-14,1-1.52.36-3.71,1.1-6.18,2.81"/><path class="cls-2" d="m159.42,285.83c3.24,2.79,6.08,3.68,8,4,4.86.81,7.68-1.4,12,0,2.74.89,4.57,2.73,5.62,4"/><path class="cls-2" d="m160.21,273.44c.75.95,2.11,2.43,4.21,3.39,4.57,2.08,8.12-.39,14,1,1.52.36,3.71,1.1,6.18,2.81"/><g id="kat"><path class="cls-8" d="m132.4,100.35c.97-.91,2.63-2.21,5-3,3.54-1.18,6.67-.52,9,0,4.92,1.1,4.86,2.6,8,3,5.11.65,6.12-3.23,12-4,6.73-.88,8.08,3.85,15,3,5.67-.7,5.92-4.02,11-4,5.56.02,6.49,4.01,12,4,4.99-.01,6.21-3.28,11-4,3.26-.49,8.2.19,15.03,6.16,4.26-10.06,14.12-29.63,34.81-46.58,18.94-15.52,38.09-21.57,48.55-24.08,1.97,9.6,3.59,19.74,4.74,30.39,5.82,54.29-3.14,101.51-14.21,136.97-7.4,23.71-15.13,32.58-17.76,35.92-17.02,21.57-39.63,30.75-52.5,34.74-12.36,2.99-28.01,5.61-46.18,5.92-24.4.42-44.83-3.46-59.6-7.5-4.8-2-10.64-4.77-17-8.56,0,0-11.18-6.68-20.11-14.73-13.58-12.25-21.68-28.93-27.77-43.65-8.86-21.42-21.35-52.34-25-97-1.28-15.66-1.83-37.44,1.45-63.42,10.54.91,29.8,3.99,50.13,16.18,24.58,14.75,37.21,34.73,42.42,44.24Z"/><path class="cls-5" d="m249.4,103.35c1.24-6.47,4.55-15.67,15-28,14.44-17.03,32.87-21.72,39-23,1.01,8.33,1.74,17.35,2,27,.44,15.91-.47,36.35-2,49-18.03-5.09-35.97-19.91-54-25Z"/><path class="cls-5" d="m112.4,108.35c-2.02-6.27-7.28-18.32-19.18-29.27-16.43-15.12-35.29-17.5-41.54-18.02.03,8.39.42,17.44,1.34,27.04,1.53,15.84,4.3,36.88,7.37,49.24,17.27-7.27,34.73-21.73,52-29Z"/><path class="cls-2" d="m89.4,147.35c1.85-1.8,4.49-4.02,8-6,3.91-2.21,7.53-3.37,10.21-4"/><path class="cls-2" d="m154.62,101.59c3.08,2.81,3.74,5.15,3.78,6.76.06,2.59-1.46,3.99-2,8-.28,2.11-.15,3.87,0,5"/><path class="cls-2" d="m133.4,100.35c1.44,2.07,3.11,5.22,3,9-.19,6.84-6.03,9.57-8,17-.83,3.14-1.15,7.82,1.42,14.27"/><line class="cls-2" x1="179.9" y1="100.56" x2="179.9" y2="111.4"/><path class="cls-2" d="m203.4,100.35c-.49,1.16-1.05,2.9-1,5,.07,2.92,1.26,4.48,2,7,.59,2.01.98,4.96,0,9"/><path class="cls-2" d="m229.43,102.51c-2.8,4.22-3.19,7.56-3.03,9.84.46,6.29,5.5,8.73,7,16,.83,4.02.18,7.59-.51,10"/><path class="cls-2" d="m259.68,129.86c2.51.61,5.79,1.66,9.34,3.57,3.95,2.13,6.86,4.58,8.82,6.51"/><ellipse class="cls-13" cx="249.52" cy="226.11" rx="18.5" ry="9.5"/><path class="cls-6" d="m174.85,222.85c-1.62,2.73-1.48,5.67,0,7,1.62,1.46,4.32.53,5.86,0,2.65-.91,5.59-3.14,6.14-6,.16-.84.17-2,.16-2,0,0-.22,1.11-.16,2,.17,2.54,2.71,5.17,5.68,6,.86.24,4.34,1.22,6.32-1,1.51-1.69,1.59-4.59,0-7"/><ellipse class="cls-13" cx="119.52" cy="230.11" rx="18.5" ry="9.5"/><path class="cls-9" d="m152.29,197.58c2.6,6.74-5.08,21.26-17.91,22.79-11.24,1.35-21.45-6.67-22.79-17.91-1.54-12.88,10.73-23.68,17.91-22.79,3.28.41,3.55,3.01,12.03,9.57,7.57,5.85,9.7,5.58,10.77,8.35Z"/><circle class="cls-12" cx="122.83" cy="210.14" r="3.84"/><circle class="cls-12" cx="136.13" cy="195.8" r="7.69"/><path class="cls-1" d="m179.88,212.85h14.58c.11.74.35,3.21-1.56,5.72-1.95,2.56-4.87,3.5-5.73,3.74-.95-.31-3.63-1.32-5.52-3.74-1.93-2.48-1.85-4.91-1.78-5.72Z"/><path class="cls-9" d="m217.67,194.89c-2.16,6.89,6.43,20.89,19.34,21.6,11.3.62,20.97-8.04,21.6-19.34.71-12.95-12.23-22.95-19.34-21.6-3.25.62-3.35,3.24-11.39,10.32-7.18,6.33-9.32,6.19-10.21,9.02Z"/><circle class="cls-12" cx="247.88" cy="205.53" r="3.84"/><circle class="cls-12" cx="233.68" cy="192.07" r="7.69"/></g><ellipse class="cls-8" cx="134.56" cy="517.6" rx="34.25" ry="54.67" transform="translate(-179.48 84.7) rotate(-21.39)"/><ellipse class="cls-7" cx="112.47" cy="508.21" rx="6.5" ry="10" transform="translate(-239.04 124.32) rotate(-30)"/><path class="cls-7" d="m125.46,546.3c-.94-.4-2.42-1.22-3.47-2.8-1.67-2.51-1.69-6.11-.45-8.73,1.09-2.29,2.84-3.2,3.02-5.93.05-.78-.08-.78-.09-1.75-.02-3.46,1.7-6.15,2.1-6.76,2.07-3.1,4.94-4.4,6.4-4.88,1.58-.52,5.41-2.13,9.25-.65,1.94.75,3.75,2.61,6.02,4.77,1.1,1.04,1.2,1.25,1.84,1.66,2.58,1.65,4.19.39,6.56,1.59,2.6,1.32,3.53,4.3,3.76,5.06.65,2.08.41,3.86.23,4.74-.3.83-.86,2.01-1.93,3.05-1.5,1.46-3.3,1.96-6.18,2.42-7.04,1.13-7.29-.09-10.28,1.06-.77.3-2.89,1.72-7.12,4.57-1.81,1.22-3.02,2.08-4.95,2.53-1.92.45-3.6.28-4.72.07Z"/><ellipse class="cls-7" cx="125.76" cy="495.61" rx="6.5" ry="10" transform="translate(-152.54 66.66) rotate(-18.74)"/><ellipse class="cls-7" cx="144.76" cy="495.61" rx="10" ry="6.5" transform="translate(-358.07 612.9) rotate(-86.85)"/><ellipse class="cls-8" cx="253.54" cy="517.51" rx="54.67" ry="34.25" transform="translate(-320.79 564.88) rotate(-68.61)"/><path class="cls-7" d="m262.63,546.21c.94-.4,2.42-1.22,3.47-2.8,1.67-2.51,1.69-6.11.45-8.73-1.09-2.29-2.84-3.2-3.02-5.93-.05-.78.08-.78.09-1.75.02-3.46-1.7-6.15-2.1-6.76-2.07-3.1-4.94-4.4-6.4-4.88-1.58-.52-5.41-2.13-9.25-.65-1.94.75-3.75,2.61-6.02,4.77-1.1,1.04-1.2,1.25-1.84,1.66-2.58,1.65-4.19.39-6.56,1.59-2.6,1.32-3.53,4.3-3.76,5.06-.65,2.08-.41,3.86-.23,4.74.3.83.86,2.01,1.93,3.05,1.5,1.46,3.3,1.96,6.18,2.42,7.04,1.13,7.29-.09,10.28,1.06.77.3,2.89,1.72,7.12,4.57,1.81,1.22,3.02,2.08,4.95,2.53,1.92.45,3.6.28,4.72.07Z"/><ellipse class="cls-7" cx="274.91" cy="508.56" rx="10" ry="6.5" transform="translate(-302.97 492.36) rotate(-60)"/><ellipse class="cls-7" cx="261.62" cy="495.96" rx="10" ry="6.5" transform="translate(-292.09 584.4) rotate(-71.26)"/><ellipse class="cls-7" cx="242.62" cy="495.96" rx="6.5" ry="10" transform="translate(-26.9 14.09) rotate(-3.15)"/><path class="cls-8" d="m312.06,462.37c12.71-28.37,13.65-50.63,12-66-3.02-28.06-15.43-39.92-10-66,3.35-16.08,11.4-27.58,18-37,8.39-11.98,16.34-22.99,30-26,2.77-.61,9.65-2.03,17,1,13.36,5.51,16.88,21.04,18,26,1.8,7.97,3.24,24.3-5,29-.76.43-4.15,2.37-7,1-8.77-4.21,3.33-32.19-9-42-4.08-3.25-8.99-3.04-10-3-9.61.4-16.14,10.24-25,24-6.19,9.61-10.37,16.1-13,24-7.78,23.36,2.67,45.09,7,59,6.55,21.06,8.16,53.38-15,102-2.67-8.67-5.33-17.33-8-26Z"/></svg>