<?xml version="1.0" encoding="UTF-8"?><svg id="figurer" xmlns="http://www.w3.org/2000/svg" width="414" height="570.33" viewBox="0 0 414 570.33"><defs><style>.cls-1{fill:#291c1b;}.cls-1,.cls-2,.cls-3,.cls-4,.cls-5,.cls-6,.cls-7,.cls-8{stroke-miterlimit:10;}.cls-1,.cls-3,.cls-4,.cls-5,.cls-6,.cls-7,.cls-8{stroke:#291c1b;}.cls-1,.cls-9,.cls-10,.cls-11,.cls-12,.cls-13,.cls-14{stroke-width:0px;}.cls-2{stroke:#e8b7aa;}.cls-2,.cls-3,.cls-6{fill:none;}.cls-2,.cls-3,.cls-7,.cls-8{stroke-width:3px;}.cls-4,.cls-7,.cls-13{fill:#e4aab5;}.cls-5,.cls-8,.cls-10{fill:#f8d4c8;}.cls-6{stroke-width:2px;}.cls-11{fill:#c5d2ea;}.cls-12{fill:#fff;}.cls-14{fill:#f79ab0;}</style></defs><path class="cls-10" d="m276.59,319.02c30.9,127.29,76.98,160.44,48.56,193.36-23.14,26.8-72.01,26.04-115.59,25.36-43.54-.68-86.33-1.35-111.05-26.63-26.72-27.35-5.59-84.95,38.69-198.09,2.23,32.63,4.47,65.25,6.7,97.88.95,13.82,12.54,24.48,26.39,24.27l78.89-1.18c14.9-.23,26.8-12.51,26.54-27.42l-1.68-97.47c1.11,3.92,1.93,7.35,2.55,9.92Z"/><path class="cls-11" d="m166.71,291.35h.01c9.91,12.69,25.33,20.44,41.87,20.11,22.21-.44,41.94-15.39,48.61-36.98,8.88,10.24,13.89,24.16,16.84,34.62l1.68,97.47c.26,14.91-11.64,27.19-26.54,27.42l-78.89,1.18c-13.85.21-25.44-10.45-26.39-24.27-2.23-32.63-4.47-65.25-6.7-97.88h0c1.76-4.51,3.56-9.1,5.39-13.78,2.52-6.43,6.71-16.76,15.22-25.03,1.93,6.35,4.99,12.13,8.9,17.14Z"/><path class="cls-10" d="m166.72,291.35h-.01c-3.91-5.01-6.97-10.79-8.9-17.14,3.25-3.16,7.13-6.02,11.78-8.24,11.74-5.61,25.48-5.77,39.97-5.95,12.01-.14,21.89-.26,30.03,2.35,7.13,2.29,12.91,6.68,17.61,12.1h0c-6.67,21.6-26.4,36.55-48.61,36.99-16.54.33-31.96-7.42-41.87-20.11Z"/><path class="cls-3" d="m257.2,274.48c8.88,10.24,13.89,24.16,16.84,34.62,1.11,3.92,1.93,7.35,2.55,9.92,30.9,127.29,76.98,160.44,48.56,193.36-23.14,26.8-72.01,26.04-115.59,25.36-43.54-.68-86.33-1.35-111.05-26.63-26.72-27.35-5.59-84.95,38.69-198.09"/><path class="cls-3" d="m137.2,313.01c1.76-4.5,3.56-9.09,5.39-13.77,2.52-6.43,6.71-16.76,15.22-25.03,3.25-3.16,7.13-6.02,11.78-8.24,11.74-5.61,25.48-5.77,39.97-5.95,12.01-.14,21.89-.26,30.03,2.35,7.13,2.29,12.91,6.68,17.61,12.1"/><path class="cls-2" d="m166.72,291.35c3.35.3,6.42-.38,10.87.11,1.82.2,4.62.68,8,2"/><path class="cls-3" d="m257.2,274.47h0c-6.67,21.6-26.4,36.55-48.61,36.99-16.54.33-31.96-7.42-41.87-20.11h-.01c-3.91-5.01-6.97-10.79-8.9-17.14"/><path class="cls-3" d="m137.2,313.02c2.23,32.63,4.47,65.25,6.7,97.88.95,13.82,12.54,24.48,26.39,24.27l78.89-1.18c14.9-.23,26.8-12.51,26.54-27.42l-1.68-97.47"/><path class="cls-8" d="m151.59,98.46c.97-.91,2.63-2.21,5-3,3.54-1.18,6.67-.52,9,0,4.92,1.1,4.86,2.6,8,3,5.11.65,6.12-3.23,12-4,6.73-.88,8.08,3.85,15,3,5.67-.7,5.92-4.02,11-4,5.56.02,6.49,4.01,12,4,4.99-.01,6.21-3.28,11-4,3.26-.49,8.2.19,15.03,6.16,4.26-10.06,14.12-29.63,34.81-46.58,18.94-15.52,38.09-21.57,48.55-24.08,1.97,9.6,3.59,19.74,4.74,30.39,5.82,54.29-3.14,101.51-14.21,136.97-7.4,23.71-15.13,32.58-17.76,35.92-17.02,21.57-39.63,30.75-52.5,34.74-12.36,2.99-28.01,5.61-46.18,5.92-24.4.42-44.83-3.46-59.6-7.5-4.8-2-10.64-4.77-17-8.56,0,0-11.18-6.68-20.11-14.73-13.58-12.25-21.68-28.93-27.77-43.65-8.86-21.42-21.35-52.34-25-97-1.28-15.66-1.83-37.44,1.45-63.42,10.54.91,29.8,3.99,50.13,16.18,24.58,14.75,37.21,34.73,42.42,44.24Z"/><path class="cls-4" d="m268.59,101.46c1.24-6.47,4.55-15.67,15-28,14.44-17.03,32.87-21.72,39-23,1.01,8.33,1.74,17.35,2,27,.44,15.91-.47,36.35-2,49-18.03-5.09-35.97-19.91-54-25Z"/><path class="cls-4" d="m131.59,106.46c-2.02-6.27-7.28-18.32-19.18-29.27-16.43-15.12-35.29-17.5-41.54-18.02.03,8.39.42,17.44,1.34,27.04,1.53,15.84,4.3,36.88,7.37,49.24,17.27-7.27,34.73-21.73,52-29Z"/><path class="cls-2" d="m108.59,145.46c1.85-1.8,4.49-4.02,8-6,3.91-2.21,7.53-3.37,10.21-4"/><path class="cls-2" d="m173.81,99.7c3.08,2.81,3.74,5.15,3.78,6.76.06,2.59-1.46,3.99-2,8-.28,2.11-.15,3.87,0,5"/><path class="cls-2" d="m152.59,98.46c1.44,2.07,3.11,5.22,3,9-.19,6.84-6.03,9.57-8,17-.83,3.14-1.15,7.82,1.42,14.27"/><line class="cls-2" x1="199.09" y1="98.67" x2="199.09" y2="109.51"/><path class="cls-2" d="m222.59,98.46c-.49,1.16-1.05,2.9-1,5,.07,2.92,1.26,4.48,2,7,.59,2.01.98,4.96,0,9"/><path class="cls-2" d="m248.62,100.62c-2.8,4.22-3.19,7.56-3.03,9.84.46,6.29,5.5,8.73,7,16,.83,4.02.18,7.59-.51,10"/><path class="cls-2" d="m278.86,127.97c2.51.61,5.79,1.66,9.34,3.57,3.95,2.13,6.86,4.58,8.82,6.51"/><path class="cls-2" d="m99.75,424.63c9.46,12.65,18.41,16.58,24.84,17.83,10.41,2.02,16.94-2.44,32-1,8.69.83,15.61,3.19,20,5"/><path class="cls-2" d="m92.59,451.46c10.63,6.55,19.64,8.48,26,9,11.72.96,17.97-2.57,31.58-1.25,8.61.83,15.49,3.15,20,5"/><ellipse class="cls-5" cx="151.59" cy="508.24" rx="34.25" ry="54.67" transform="translate(-174.89 90.27) rotate(-21.39)"/><ellipse class="cls-7" cx="129.51" cy="498.85" rx="6.5" ry="10" transform="translate(-232.07 131.59) rotate(-30)"/><path class="cls-7" d="m142.5,536.94c-.94-.4-2.42-1.22-3.47-2.8-1.67-2.51-1.69-6.11-.45-8.73,1.09-2.29,2.84-3.2,3.02-5.93.05-.78-.08-.78-.09-1.75-.02-3.46,1.7-6.15,2.1-6.76,2.07-3.1,4.94-4.4,6.4-4.88,1.58-.52,5.41-2.13,9.25-.65,1.94.75,3.75,2.61,6.02,4.77,1.1,1.04,1.2,1.25,1.84,1.66,2.58,1.65,4.19.39,6.56,1.59,2.6,1.32,3.53,4.3,3.76,5.06.65,2.08.41,3.86.23,4.74-.3.83-.86,2.01-1.93,3.05-1.5,1.46-3.3,1.96-6.18,2.42-7.04,1.13-7.29-.09-10.28,1.06-.77.3-2.89,1.72-7.12,4.57-1.81,1.22-3.02,2.08-4.95,2.53-1.92.45-3.6.28-4.72.07Z"/><ellipse class="cls-7" cx="142.79" cy="486.25" rx="6.5" ry="10" transform="translate(-148.63 71.64) rotate(-18.74)"/><ellipse class="cls-7" cx="161.79" cy="486.25" rx="10" ry="6.5" transform="translate(-332.62 621.07) rotate(-86.85)"/><path class="cls-2" d="m308.26,422.66c-9.46,12.65-18.41,16.58-24.84,17.83-10.41,2.02-16.94-2.44-32-1-8.69.83-15.61,3.19-20,5"/><path class="cls-2" d="m321.42,453.49c-10.63,6.55-19.64,8.48-26,9-11.72.96-17.97-2.57-31.58-1.25-8.61.83-15.49,3.15-20,5"/><ellipse class="cls-5" cx="270.57" cy="508.15" rx="54.67" ry="34.25" transform="translate(-301.25 574.8) rotate(-68.61)"/><path class="cls-7" d="m279.67,536.85c.94-.4,2.42-1.22,3.47-2.8,1.67-2.51,1.69-6.11.45-8.73-1.09-2.29-2.84-3.2-3.02-5.93-.05-.78.08-.78.09-1.75.02-3.46-1.7-6.15-2.1-6.76-2.07-3.1-4.94-4.4-6.4-4.88-1.58-.52-5.41-2.13-9.25-.65-1.94.75-3.75,2.61-6.02,4.77-1.1,1.04-1.2,1.25-1.84,1.66-2.58,1.65-4.19.39-6.56,1.59-2.6,1.32-3.53,4.3-3.76,5.06-.65,2.08-.41,3.86-.23,4.74.3.83.86,2.01,1.93,3.05,1.5,1.46,3.3,1.96,6.18,2.42,7.04,1.13,7.29-.09,10.28,1.06.77.3,2.89,1.72,7.12,4.57,1.81,1.22,3.02,2.08,4.95,2.53,1.92.45,3.6.28,4.72.07Z"/><ellipse class="cls-7" cx="291.95" cy="499.19" rx="10" ry="6.5" transform="translate(-286.34 502.43) rotate(-60)"/><ellipse class="cls-7" cx="278.66" cy="486.6" rx="10" ry="6.5" transform="translate(-271.66 594.18) rotate(-71.26)"/><ellipse class="cls-7" cx="259.66" cy="486.6" rx="6.5" ry="10" transform="translate(-26.36 15.01) rotate(-3.15)"/><path class="cls-2" d="m246.59,285.46c-3.24,2.79-6.08,3.68-8,4-4.86.81-7.68-1.4-12,0-2.74.89-4.57,2.73-5.62,4"/><path class="cls-2" d="m245.79,273.07c-.75.95-2.11,2.43-4.21,3.39-4.57,2.08-8.12-.39-14,1-1.52.36-3.71,1.1-6.18,2.81"/><path class="cls-8" d="m325.59,457.46c12.71-28.37,13.65-50.63,12-66-3.02-28.06-15.43-39.92-10-66,3.35-16.08,11.4-27.58,18-37,8.39-11.98,16.34-22.99,30-26,2.77-.61,9.65-2.03,17,1,13.36,5.51,16.88,21.04,18,26,1.8,7.97,3.24,24.3-5,29-.76.43-4.15,2.37-7,1-8.77-4.21,3.33-32.19-9-42-4.08-3.25-8.99-3.04-10-3-9.61.4-16.14,10.24-25,24-6.19,9.61-10.37,16.1-13,24-7.78,23.36,2.67,45.09,7,59,6.55,21.06,8.16,53.38-15,102-2.67-8.67-5.33-17.33-8-26Z"/><circle class="cls-9" cx="145.73" cy="195.2" r="20.5"/><circle class="cls-12" cx="135.48" cy="204.17" r="3.84"/><circle class="cls-12" cx="152.4" cy="187.51" r="7.69"/><circle class="cls-9" cx="256.48" cy="193.34" r="20.35"/><circle class="cls-12" cx="266.66" cy="202.25" r="3.82"/><circle class="cls-12" cx="249.86" cy="185.71" r="7.63"/><ellipse class="cls-13" cx="268.59" cy="224.46" rx="18.5" ry="9.5"/><ellipse class="cls-13" cx="138.59" cy="225.46" rx="18.5" ry="9.5"/><path class="cls-6" d="m194.04,220.96c-1.62,2.73-1.48,5.67,0,7,1.62,1.46,4.32.53,5.86,0,2.65-.91,5.59-3.14,6.14-6,.16-.84.17-2,.16-2,0,0-.22,1.11-.16,2,.17,2.54,2.71,5.17,5.68,6,.86.24,4.34,1.22,6.32-1,1.51-1.69,1.59-4.59,0-7"/><path class="cls-1" d="m199.06,210.96h14.58c.11.74.35,3.21-1.56,5.72-1.95,2.56-4.87,3.5-5.73,3.74-.95-.31-3.63-1.32-5.52-3.74-1.93-2.48-1.85-4.91-1.78-5.72Z"/><path class="cls-14" d="m196.54,352.63c-11.13-11.69-17.61-22.99-21.37-30.9-6.07-12.78-12.86-27.09-6.57-38.13,2.28-4.01,7.01-8.85,12.49-8.88,8.38-.04,17.57,11.17,19.72,28.93,8.23-19.85,24.17-28.65,33.53-24.98,6.98,2.74,10.76,12.59,10.85,20.38.05,4.53-1.11,11.31-11.83,24-6.62,7.83-18.22,19.47-36.82,29.58Z"/><path class="cls-8" d="m131.59,350.46c5.41-.52,13.18-2.18,19-8,5.95-5.95,4.57-10.95,11-23,4.36-8.16,10.01-18.74,19-20,5.62-.78,12.58,2.06,16,7,10.39,15.04-6.06,54.92-36,71-20.06,10.77-40.75,7.93-50,6"/><path class="cls-8" d="m280.59,354.46c-5.95-1.67-14.28-5.04-20.4-12.57-5.58-6.87-4.66-11.12-11-23-4.36-8.16-10.01-18.74-19-20-5.62-.78-12.58,2.06-16,7-10.43,15.09,6.52,54.4,36,71,17.33,9.76,34.89,9.36,43.4,8.57"/></svg>