<?xml version="1.0" encoding="UTF-8"?><svg id="figurer" xmlns="http://www.w3.org/2000/svg" width="127.93" height="113.44" viewBox="0 0 127.93 113.44"><defs><style>.cls-1{fill:#b59f8f;}.cls-1,.cls-2{stroke:#291c1b;stroke-width:2px;}.cls-1,.cls-2,.cls-3,.cls-4{stroke-miterlimit:10;}.cls-2{fill:#916d4a;}.cls-3{stroke:#000;}.cls-3,.cls-4{fill:none;}.cls-4{stroke:#adadad;}.cls-5,.cls-6,.cls-7{stroke-width:0px;}.cls-6{fill:#fff;}.cls-7{fill:#e4aab5;}</style></defs><ellipse class="cls-2" cx="72.29" cy="106.9" rx="5.64" ry="4.45" transform="translate(-50.96 145.14) rotate(-73.17)"/><ellipse class="cls-2" cx="32.92" cy="105.61" rx="5.64" ry="4.45" transform="translate(-77.69 106.54) rotate(-73.17)"/><path class="cls-2" d="m79.48,96.56c-.87-.51-1.14-1.65-.59-2.49,3.84-5.96,8.46-11.92,14.04-17.62.59-.6,1.18-1.2,1.78-1.78.37-.38.89-.97,1.38-1.78.67-1.09.97-2.03,1.38-3.36,1.27-4.13,1-3.26,1.19-3.95,1.4-5.17,1.31-5.31,1.78-6.33.28-.6,1.18-2.51,2.97-4.15.67-.61,1.97-1.66,8.7-3.76,5.12-1.59,5.81-1.43,6.72-2.57,1.23-1.53,1.39-3.56,3.16-4.15.24-.08.86-.29,1.38,0,1.08.6,1.05,2.96.4,4.55-.83,2.03-2.74,2.96-3.16,3.16-.26.13-.73.27-1.64.6-.53.19-1.29.44-3.11.98-4.45,1.33-5.21.99-7.12,1.98-.65.34-1.84.96-2.97,2.18-1.57,1.69-2.07,3.48-2.97,6.92-.86,3.27-.62,3.88-1.58,6.33,0,0-.64,1.69-1.58,3.36-2.23,3.97-4.66,5.28-7.32,8.3-5.43,6.2-7.05,8.58-9.77,13.51-.44.79-1.44,1.06-2.22.6l-.87-.52Z"/><path class="cls-2" d="m10.98,18.36c.56,7.47,5.78,18.81,16.72,19.59,9.17.65,17.92-6.44,19.07-15.79,1.29-10.49-8.03-17.66-14.68-19.93-1.47-.5-9.99-3.32-16.16,1.8-5.67,4.71-5.08,12.58-4.95,14.33Z"/><path class="cls-1" d="m17.04,20.75c.48,5.35,4.35,13.41,12.19,13.84,6.57.36,12.76-4.81,13.48-11.51.81-7.52-5.94-12.56-10.73-14.11-1.05-.34-7.19-2.27-11.55,1.47-4.01,3.43-3.5,9.07-3.39,10.32Z"/><path class="cls-2" d="m96.78,18.68c-.68,7.47-6.07,18.72-17.02,19.33-9.18.51-17.82-6.72-18.83-16.08-1.13-10.51,8.3-17.54,14.99-19.7,1.47-.48,10.04-3.17,16.13,2.05,5.6,4.79,4.89,12.66,4.73,14.41Z"/><path class="cls-1" d="m91.16,19.91c-.48,5.35-4.35,13.41-12.19,13.84-6.57.36-12.76-4.81-13.48-11.51-.81-7.52,5.94-12.56,10.73-14.11,1.05-.34,7.19-2.27,11.55,1.47,4.01,3.43,3.5,9.07,3.39,10.32Z"/><path class="cls-2" d="m88.68,60.33s4.29,20.91-2.18,35.11c-1.97,4.34-5.14,6.81-5.14,6.81-2.3,1.8-4.59,2.54-6.13,2.97-7.08,1.96-14.83,1.76-20.66,1.58-12.45-.39-19.73-.69-25.41-3.55-3.25-1.64-4.92-3.58-5.54-4.35-2-2.52-2.67-5.07-2.97-6.23-3.78-15.02-.2-32.33-.2-32.33,1.88-9.1,7.25-35.14,19.58-42.71,4.2-2.58,8.7-3.56,8.7-3.56,1.49-.28,6.01-1.18,11.67,0,0,0,5.25,1.09,10.28,4.35,7.64,4.94,15.5,20.62,17.99,41.92Z"/><ellipse class="cls-5" cx="52.92" cy="50.78" rx="3.06" ry="1.98"/><line class="cls-3" x1="52.4" y1="52.56" x2="52.4" y2="54.74"/><ellipse class="cls-7" cx="71.38" cy="56.08" rx="3.66" ry="1.88"/><ellipse class="cls-7" cx="37.57" cy="56.08" rx="3.66" ry="1.88"/><path class="cls-2" d="m67.79,66.71l-5.18,4.71c-1.03.94-1.69,2.19-1.8,3.42l-.02.22c-.2,2.21,1.37,3.82,3.62,3.71h0c1.17-.06,2.38-.58,3.34-1.46l5.3-4.82"/><path class="cls-2" d="m38.11,66.66l5.18,4.71c1.03.94,1.69,2.19,1.8,3.42l.02.22c.2,2.21-1.37,3.82-3.62,3.71h0c-1.17-.06-2.38-.58-3.34-1.46l-5.3-4.82"/><path class="cls-4" d="m26.58,47.28c-2.88-.45-6.31-.72-10.16-.49-1.65.1-3.2.27-4.63.49"/><path class="cls-4" d="m26.53,49.71c-1.96-.24-4.39-.36-7.14-.09-1.65.17-3.14.45-4.44.77"/><path class="cls-4" d="m26.3,52.12c-1.57-.03-3.45.05-5.54.4-1.56.26-2.95.61-4.15.99"/><path class="cls-4" d="m83.52,47.65c2.88-.45,6.31-.72,10.16-.49,1.65.1,3.2.27,4.63.49"/><path class="cls-4" d="m83.57,50.08c1.96-.24,4.39-.36,7.14-.09,1.65.17,3.14.45,4.44.77"/><path class="cls-4" d="m83.8,52.5c1.57-.03,3.45.05,5.54.4,1.56.26,2.95.61,4.15.99"/><circle class="cls-5" cx="38.76" cy="46.23" r="4.8"/><circle class="cls-6" cx="36.36" cy="48.33" r=".9"/><circle class="cls-6" cx="40.32" cy="44.43" r="1.8"/><circle class="cls-5" cx="68.24" cy="46.22" r="4.8"/><circle class="cls-6" cx="70.64" cy="48.32" r=".9"/><circle class="cls-6" cx="66.68" cy="44.42" r="1.8"/></svg>