<?xml version="1.0" encoding="UTF-8"?><svg id="knapper" xmlns="http://www.w3.org/2000/svg" width="326" height="146" xmlns:xlink="http://www.w3.org/1999/xlink" viewBox="0 0 326 146"><defs><style>.cls-1{stroke-width:3px;}.cls-1,.cls-2{fill:#d5cbe8;stroke:#78abb2;stroke-miterlimit:10;}.cls-2{filter:url(#drop-shadow-1);stroke-width:12px;}</style><filter id="drop-shadow-1" filterUnits="userSpaceOnUse"><feOffset dx="15" dy="1"/><feGaussianBlur result="blur" stdDeviation="2"/><feFlood flood-color="#666565" flood-opacity=".75"/><feComposite in2="blur" operator="in"/><feComposite in="SourceGraphic"/></filter></defs><rect class="cls-2" x="6" y="11" width="293" height="122" rx="50.15" ry="50.15"/><path class="cls-1" d="m106.82,86.87v-44.77c0-3.74,1.95-6.16,6.4-6.16h5.77c8.5,0,12.79,5.46,12.79,13.42v14.43c0,7.96-4.76,13.1-12.56,13.1h-3.04v9.98c0,2.65-2.03,4.76-4.68,4.76s-4.68-2.11-4.68-4.76Zm11.39-18.17c2.96,0,4.29-2.42,4.29-7.57v-10.22c0-4.91-1.4-6.79-3.98-6.79h-2.34v24.57h2.03Z"/><path class="cls-1" d="m137.32,86.95v-49.92c0-2.57,2.03-4.68,4.6-4.68s4.6,2.11,4.6,4.68v49.92c0,2.57-2.03,4.6-4.6,4.6s-4.6-2.03-4.6-4.6Z"/><path class="cls-1" d="m175.23,56.53v30.42c0,2.57-2.03,4.6-4.6,4.6-1.01,0-2.03-.31-2.73-.94-1.56,1.09-3.9,1.64-5.54,1.64-6.63,0-10.92-3.9-10.92-11.23v-8.81c0-7.49,4.29-11.39,10.92-11.39,1.09,0,2.5.31,3.74.78v-5.07c0-3.59-.86-4.6-2.5-4.6-1.79,0-2.65,1.25-2.65,3.35v.16c0,2.42-1.72,4.29-4.29,4.29s-4.37-1.79-4.37-4.68v-.62c0-6.24,4.13-10.76,11.23-10.76,7.88,0,11.7,4.52,11.7,12.87Zm-9.13,16.93c0-3.67-1.17-5.38-2.89-5.38-1.87,0-2.73,1.17-2.73,4.99v6.94c0,3.67.86,4.99,2.73,4.99,1.72,0,2.89-1.87,2.89-5.46v-6.08Z"/><path class="cls-1" d="m180.38,101.54c0-2.34,1.72-4.13,4.06-4.13h8.03c1.87,0,2.89-1.01,2.89-2.73v-2.65c-.86.16-1.72.23-2.81.23-7.1,0-11.86-4.52-11.86-13.1v-30.34c0-2.5,2.03-4.6,4.6-4.6s4.6,2.11,4.6,4.6v30.11c0,3.74.86,4.91,2.65,4.91,2.03,0,2.81-1.17,2.81-4.91v-30.11c0-2.5,2.03-4.6,4.6-4.6s4.6,2.11,4.6,4.6v46.88c0,6.24-3.43,9.98-9.67,9.98h-10.45c-2.34,0-4.06-1.79-4.06-4.13Z"/></svg>