<?xml version="1.0" encoding="UTF-8"?><svg id="figurer" xmlns="http://www.w3.org/2000/svg" width="129.44" height="67.24" viewBox="0 0 129.44 67.24"><defs><style>.cls-1{fill:#8562d0;stroke-width:0px;}</style></defs><path class="cls-1" d="m3.19,50.97V14.35c0-3.06,1.59-5.04,5.23-5.04h4.72c6.95,0,10.46,4.47,10.46,10.97v11.8c0,6.51-3.89,10.72-10.27,10.72h-2.49v8.17c0,2.17-1.66,3.89-3.83,3.89s-3.83-1.72-3.83-3.89Zm9.31-14.86c2.42,0,3.51-1.98,3.51-6.19v-8.36c0-4.02-1.15-5.55-3.25-5.55h-1.91v20.1h1.66Z"/><path class="cls-1" d="m27.75,44.66v-18.44c0-7.02,3.89-10.72,9.7-10.72s9.82,3.7,9.82,10.72v18.44c0,7.02-3.89,10.72-9.82,10.72s-9.7-3.7-9.7-10.72Zm11.99-.06v-18.25c0-3.06-.64-4.15-2.3-4.15-1.47,0-2.17,1.08-2.17,4.15v18.25c0,3.06.7,4.02,2.17,4.02,1.66,0,2.3-.96,2.3-4.02Z"/><path class="cls-1" d="m52.19,10.21c0-2.17,1.66-3.83,3.83-3.83s3.83,1.66,3.83,3.83-1.66,3.83-3.83,3.83-3.83-1.66-3.83-3.83Zm.06,40.83v-31.13c0-2.11,1.66-3.83,3.76-3.83s3.76,1.72,3.76,3.83v31.13c0,2.11-1.66,3.76-3.76,3.76s-3.76-1.66-3.76-3.76Z"/><path class="cls-1" d="m64.75,51.04v-24.88c0-7.02,3.89-10.72,9.7-10.72s9.82,3.7,9.82,10.72v24.88c0,2.11-1.66,3.76-3.76,3.76s-3.76-1.66-3.76-3.76v-24.63c0-3.06-.64-4.15-2.3-4.15-1.47,0-2.17,1.08-2.17,4.15v24.63c0,2.11-1.66,3.76-3.76,3.76s-3.76-1.66-3.76-3.76Z"/><path class="cls-1" d="m107.88,44.72v1.21c0,6.44-3.83,9.31-8.48,9.31-5.49,0-9.12-2.81-9.12-9.51v-22.27h-.89c-1.98,0-3.45-1.53-3.45-3.45s1.47-3.44,3.45-3.44h.89v-5.61c0-2.11,1.66-3.83,3.76-3.83s3.76,1.72,3.76,3.83v5.61h1.98c1.91,0,3.45,1.53,3.45,3.44s-1.53,3.45-3.45,3.45h-1.98v22.39c0,1.98.57,2.74,1.66,2.74,1.02,0,1.6-.83,1.6-2.62v-1.28c0-2.17,1.28-3.57,3.44-3.57,2.04,0,3.38,1.53,3.38,3.57Z"/><path class="cls-1" d="m108.58,45.17c0-3.89,1.21-6.44,4.21-6.44,2.36,0,3.32,1.66,3.38,3,.06,1.08-.13,2.42-.13,4.02,0,1.91,1.02,3,2.3,3,2.17,0,2.42-1.66,2.42-5.17,0-3.96-.89-6-3.7-7.59l-1.08-.64c-4.02-2.3-6.83-4.72-6.83-10.46s3.13-9.38,9.76-9.38c5.1,0,8.68,2.62,8.8,7.78.06,2.3-1.02,3.89-3.19,3.96-1.98.06-3-1.15-3.38-3.13-.26-1.28-.96-2.17-2.17-2.17-1.53,0-2.3,1.08-2.3,2.74,0,1.79.89,2.81,2.62,3.7l2.11,1.15c5.17,2.68,6.89,7.66,6.89,13.52,0,8.42-3.38,12.19-10.08,12.19-5.61,0-9.63-2.93-9.63-10.08Z"/></svg>