<?xml version="1.0" encoding="utf-8"?>
<!-- Generator: Adobe Illustrator 28.1.0, SVG Export Plug-In . SVG Version: 6.00 Build 0)  -->
<svg version="1.1" id="figurer" xmlns="http://www.w3.org/2000/svg" xmlns:xlink="http://www.w3.org/1999/xlink" x="0px" y="0px"
	 viewBox="0 0 116.4 113.2" style="enable-background:new 0 0 116.4 113.2;" xml:space="preserve">
<style type="text/css">
	.st0{fill:#E2EABF;stroke:#291C1B;stroke-width:2;stroke-miterlimit:10;}
	.st1{fill:#E4AAB5;}
	.st2{fill:none;stroke:#291C1B;stroke-width:2;stroke-miterlimit:10;}
	.st3{fill:none;stroke:#000000;stroke-width:0.5;stroke-miterlimit:10;}
	.st4{fill:none;stroke:#2B1B1B;stroke-miterlimit:10;}
	.st5{fill:#FFFFFF;}
	.st6{fill:#FFF8F8;}
	.st7{fill:#BAA9E9;stroke:#BAA9E9;stroke-miterlimit:10;}
</style>
<path class="st0" d="M105.2,66.8c-7-4.5-17.1-5-23.1-5.1c-0.3,0-0.5,0-0.7,0c0.1-1.5,0.2-3.1,0.4-4.8c0.2-1.8,0.4-3.5,0.7-5.2
	l-27.6,0.9c0.6,1.8,1.3,4.2,2,6.9c-2.5,0.9-6.1,2.3-10.3,4.2c-11.7,5.4-14.1,8.4-18.8,7.8c-5.9-0.8-10.2-6.5-11.9-10.9
	c-1-2.6-2.3-7.6,1.8-19.7c6-17.3,14.6-24.5,13.3-25.8c-1.8-1.8-19,8-25.6,25c-0.5,1.3-0.8,2.4-0.9,2.7C2.6,48.8-0.2,62,8.2,73.9
	c5.2,7.5,15.3,15.2,25.9,14.1c10.6-1.1,10.8-10,25.4-14.3c0.6,5.5,0.3,8.1,1.6,13.2c1.6,6.1,3.3,12.8,9,17.8
	c6.7,5.9,16.7,7.5,25.2,4.8c2.3-0.7,13.2-4.4,17.1-15.5C115.7,84.8,112.8,74.1,105.2,66.8z M93.9,85.9c-1,3.3-4.8,5.6-7.4,5.1
	c-3.7-0.8-6.3-7.8-5.7-17.7c1.1,0,7.1,0.2,10.8,4.8C92.5,79.1,95,82.4,93.9,85.9L93.9,85.9z"/>
<path class="st0" d="M102.9,26.2c-3.1-14.5-18.8-24.5-33.7-24c-13.9,0.4-28.6,9.9-31.4,24c-1.5,7.2,0.1,16.6,6.2,22.9
	c6.4,6.5,14.9,6.6,26.1,6.7c11.4,0.1,20,0.2,26.6-6.2C103.1,43.2,104.5,33.5,102.9,26.2L102.9,26.2z"/>
<ellipse class="st1" cx="90.4" cy="40.5" rx="4.3" ry="2.2"/>
<ellipse class="st1" cx="50.9" cy="40.5" rx="4.3" ry="2.2"/>
<line class="st2" x1="56.9" y1="59.5" x2="59.5" y2="73.7"/>
<line class="st2" x1="80.8" y1="73.3" x2="81.3" y2="61.6"/>
<line class="st3" x1="67.2" y1="39" x2="67.2" y2="42.1"/>
<line class="st3" x1="74.8" y1="38.9" x2="74.8" y2="42"/>
<line class="st4" x1="61.6" y1="26.3" x2="63.6" y2="29.2"/>
<path class="st5" d="M55.7,26c-1.2,0.4-1.6,1.7-1.7,1.9c-0.3,0.9-0.6,1.7-0.7,2.3c-0.3,1.2-0.4,2.3-0.4,3.1c0,1,0,1.6,0.2,1.9
	c0.2,0.3,0.5,0.5,3.4,0.9c-0.1-0.6-0.2-1.3-0.1-2.1c0-0.9,0.1-1.6,0.3-2.2c0.1-0.4,0.2-0.9,0.5-1.4c0.2-0.4,0.5-0.7,0.7-0.9
	c0.2-0.2,0.5-0.5,1-0.8c0.6-0.3,1.1-0.3,1.3-0.3c-0.5-0.7-1.2-1.4-2.2-1.9C57.4,26.1,56.6,25.7,55.7,26L55.7,26z"/>
<path d="M58.9,28.5c-0.5,0.2-0.9,0.6-1,0.8c-0.2,0.2-0.5,0.5-0.7,0.9c-0.3,0.5-0.5,1-0.5,1.4c-0.1,0.6-0.3,1.4-0.3,2.2
	c0,0.8,0,1.5,0.1,2.1c0.3,0,1.5,0.2,2.9,0.2c1.5,0,1.8-0.1,2-0.2c0.1-0.1,0.6-0.5,0.3-2.8c-0.1-1-0.2-1.7-0.3-2.4
	c-0.1,0.1-0.2,0.3-0.3,0.4c-0.2,0.3-0.4,0.5-0.6,0.6c0,0-0.2,0.3-0.6,0.3c-0.4,0-0.7-0.2-0.7-0.3c-0.2-0.2-0.4-0.4-0.5-0.8
	c-0.2-0.9,0.5-1.5,0.7-1.7c0.3-0.3,0.7-0.5,1-0.6c-0.1-0.1-0.2-0.3-0.3-0.4C60,28.2,59.5,28.2,58.9,28.5z"/>
<path class="st6" d="M60.5,28.7c-0.3,0.1-0.6,0.3-1,0.6c-0.2,0.2-0.8,0.9-0.7,1.7c0.1,0.4,0.3,0.7,0.5,0.8c0,0,0.3,0.3,0.7,0.3
	c0.3,0,0.5-0.2,0.6-0.3c0.2-0.2,0.4-0.4,0.6-0.6c0.1-0.1,0.2-0.3,0.3-0.4l0,0c-0.1-0.4-0.3-0.9-0.5-1.3C60.9,29.3,60.7,29,60.5,28.7
	z"/>
<path class="st4" d="M61.5,30.8c-0.1-0.4-0.3-0.9-0.5-1.3c-0.1-0.2-0.2-0.5-0.4-0.8c-0.1-0.1-0.2-0.3-0.3-0.4
	c-0.5-0.7-1.2-1.4-2.2-1.9c-0.6-0.3-1.4-0.6-2.3-0.3c-1.2,0.4-1.6,1.7-1.7,1.9c-0.3,0.9-0.6,1.7-0.7,2.3c-0.3,1.2-0.4,2.3-0.4,3.1
	c0,1,0,1.6,0.2,1.9c0.2,0.3,0.5,0.5,3.4,0.9c0.3,0,1.5,0.2,2.9,0.2c1.5,0,1.8-0.1,2-0.2c0.1-0.1,0.6-0.5,0.3-2.8
	C61.7,32.2,61.6,31.5,61.5,30.8"/>
<path class="st4" d="M56.5,36c-0.1-0.6-0.2-1.3-0.1-2.1c0-0.9,0.1-1.6,0.3-2.2c0.1-0.4,0.2-0.9,0.5-1.4c0.2-0.4,0.5-0.7,0.7-0.9
	c0.2-0.2,0.5-0.5,1-0.8c0.6-0.3,1.1-0.3,1.3-0.3"/>
<path class="st4" d="M61.5,30.8L61.5,30.8c-0.1,0.1-0.2,0.3-0.3,0.4c-0.2,0.3-0.4,0.5-0.6,0.6c0,0-0.2,0.3-0.6,0.3
	c-0.4,0-0.7-0.2-0.7-0.3c-0.2-0.2-0.4-0.4-0.5-0.8c-0.2-0.9,0.5-1.5,0.7-1.7c0.3-0.3,0.7-0.5,1-0.6"/>
<line class="st4" x1="80" y1="26.2" x2="77.9" y2="29.2"/>
<path class="st5" d="M85.9,25.9c1.2,0.4,1.6,1.7,1.7,1.9c0.3,0.9,0.6,1.7,0.7,2.3c0.3,1.2,0.4,2.3,0.4,3.1c0,1,0,1.6-0.2,1.9
	c-0.2,0.3-0.5,0.5-3.4,0.9c0.1-0.6,0.2-1.3,0.1-2.1c0-0.9-0.1-1.6-0.3-2.2c-0.1-0.4-0.2-0.9-0.5-1.4c-0.2-0.4-0.5-0.7-0.7-0.9
	c-0.2-0.2-0.5-0.5-1-0.8c-0.6-0.3-1.1-0.3-1.3-0.3c0.5-0.7,1.2-1.4,2.2-1.9C84.2,26,85,25.6,85.9,25.9L85.9,25.9z"/>
<path d="M82.7,28.4c0.5,0.2,0.9,0.6,1,0.8c0.2,0.2,0.5,0.5,0.7,0.9c0.3,0.5,0.4,1,0.5,1.4c0.1,0.6,0.3,1.4,0.3,2.2
	c0,0.8-0.1,1.5-0.1,2.1c-0.3,0-1.4,0.2-2.9,0.2c-1.5,0-1.8-0.1-2-0.2c-0.1-0.1-0.6-0.5-0.3-2.8c0.1-1,0.2-1.7,0.3-2.4
	c0.1,0.1,0.2,0.3,0.3,0.4c0.2,0.3,0.4,0.5,0.6,0.6c0.1,0,0.2,0.3,0.6,0.3c0.4,0,0.7-0.2,0.7-0.3c0.2-0.2,0.4-0.4,0.4-0.8
	c0.2-0.9-0.5-1.5-0.7-1.7c-0.3-0.3-0.7-0.5-0.9-0.6c0.1-0.1,0.2-0.3,0.3-0.4C81.6,28.2,82.1,28.2,82.7,28.4L82.7,28.4z"/>
<path class="st6" d="M81,28.6c0.3,0.1,0.6,0.3,0.9,0.6c0.2,0.2,0.8,0.9,0.7,1.7c-0.1,0.4-0.3,0.7-0.4,0.8c0,0-0.3,0.3-0.7,0.3
	c-0.3,0-0.5-0.2-0.6-0.3c-0.2-0.2-0.4-0.4-0.6-0.6c-0.1-0.1-0.2-0.3-0.3-0.4l0,0c0.1-0.4,0.3-0.9,0.5-1.3
	C80.7,29.2,80.8,28.9,81,28.6L81,28.6z"/>
<path class="st4" d="M80.1,30.7c0.1-0.4,0.3-0.9,0.5-1.3c0.1-0.2,0.2-0.5,0.4-0.8c0.1-0.1,0.2-0.3,0.3-0.4c0.5-0.7,1.2-1.4,2.2-1.9
	c0.6-0.3,1.4-0.6,2.3-0.3c1.2,0.4,1.6,1.7,1.7,1.9c0.3,0.9,0.6,1.7,0.7,2.3c0.3,1.2,0.4,2.3,0.4,3.1c0,1,0,1.6-0.2,1.9
	c-0.2,0.3-0.5,0.5-3.4,0.9c-0.3,0-1.4,0.2-2.9,0.2c-1.5,0-1.8-0.1-2-0.2c-0.1-0.1-0.6-0.5-0.3-2.8C79.9,32.1,79.9,31.4,80.1,30.7"/>
<path class="st4" d="M85,35.9c0.1-0.6,0.2-1.3,0.1-2.1c0-0.9-0.1-1.6-0.3-2.2c-0.1-0.4-0.2-0.9-0.5-1.4c-0.2-0.4-0.5-0.7-0.7-0.9
	c-0.2-0.2-0.5-0.5-1-0.8c-0.6-0.3-1.1-0.3-1.3-0.3"/>
<path class="st4" d="M80.1,30.7L80.1,30.7c0.1,0.1,0.2,0.3,0.3,0.4c0.2,0.3,0.4,0.5,0.6,0.6c0.1,0,0.2,0.3,0.6,0.3
	c0.4,0,0.7-0.2,0.7-0.3c0.2-0.2,0.4-0.4,0.4-0.8c0.2-0.9-0.5-1.5-0.7-1.7c-0.3-0.3-0.7-0.5-0.9-0.6"/>
<path class="st7" d="M69.3,40.7L69,49.9l1.9-4l1.6,3.7v-9.4"/>
<line class="st3" x1="67.3" y1="40.4" x2="74.6" y2="40.5"/>
</svg>
