<?xml version="1.0" encoding="UTF-8"?><svg id="Lag_10" xmlns="http://www.w3.org/2000/svg" width="196.84" height="181.52" viewBox="0 0 196.84 181.52"><defs><style>.cls-1{fill:#78abb2;stroke-width:0px;}</style></defs><path class="cls-1" d="m14.38,68.89C10.14,63.11.93,48.86.07,28.71-.47,16.2,2.4,6.15,4.73,0c6.8.73,18.59,2.91,31.11,10.33,14.87,8.82,23.04,20.45,26.71,26.51,8.24-2,18.13-3.71,29.38-4.27,18.67-.93,34.47,1.62,46.05,4.48,4.03-5.58,11.52-14.48,23.58-21.89,12.15-7.46,23.56-10.1,30.37-11.16,2.35,5.91,6.25,18.04,4.44,33.4-2.26,19.17-12.07,31.9-16.19,36.71,1.65,3.65,15.85,36.45-2.18,68.7-13.25,23.69-35.53,32.11-41.47,34.14-11.35,2.57-26.21,4.82-43.63,4.54-14.81-.24-27.6-2.23-37.79-4.54-3.72-1.36-36.69-14.07-47.31-49.61-8.81-29.49,4.02-53.83,6.57-58.46Z"/></svg>