<?xml version="1.0" encoding="UTF-8"?><svg id="Lag_10" xmlns="http://www.w3.org/2000/svg" width="205.55" height="189.78" viewBox="0 0 205.55 189.78"><defs><style>.cls-1{fill:#6a7475;stroke-width:0px;}</style></defs><path class="cls-1" d="m15.87,72.31C11.49,66.34,1.96,51.6,1.07,30.76.51,17.83,3.49,7.44,5.9,1.08c7.03.76,19.22,3.01,32.17,10.68,15.38,9.12,23.82,21.15,27.62,27.42,8.52-2.07,18.75-3.83,30.38-4.42,19.31-.97,35.65,1.67,47.61,4.63,4.16-5.77,11.91-14.97,24.39-22.63,12.56-7.71,24.36-10.45,31.41-11.54,2.43,6.11,6.47,18.66,4.59,34.54-2.34,19.82-12.48,32.99-16.74,37.96,1.71,3.77,16.39,37.7-2.26,71.04-13.7,24.5-36.74,33.2-42.88,35.3-11.73,2.66-27.1,4.98-45.12,4.7-15.31-.24-28.54-2.31-39.08-4.7-3.84-1.41-37.94-14.55-48.92-51.3C-.04,102.26,13.22,77.1,15.87,72.31Z"/></svg>