<?xml version="1.0" encoding="UTF-8"?><svg id="Lag_1" xmlns="http://www.w3.org/2000/svg" width="1926.58" height="1086.08" xmlns:xlink="http://www.w3.org/1999/xlink" viewBox="0 0 1926.58 1086.08"><defs><style>.cls-1,.cls-2,.cls-3,.cls-4,.cls-5,.cls-6,.cls-7,.cls-8,.cls-9,.cls-10,.cls-11,.cls-12,.cls-13,.cls-14,.cls-15,.cls-16,.cls-17,.cls-18,.cls-19{stroke-miterlimit:10;}.cls-1,.cls-2,.cls-4,.cls-20,.cls-7,.cls-8,.cls-9,.cls-10{fill:none;}.cls-1,.cls-2,.cls-11,.cls-12,.cls-13,.cls-14,.cls-15,.cls-16,.cls-17,.cls-18{stroke-width:3px;}.cls-1,.cls-4,.cls-7,.cls-17,.cls-18{stroke:#000;}.cls-2,.cls-8,.cls-21,.cls-22,.cls-23,.cls-24,.cls-11,.cls-25,.cls-12,.cls-26,.cls-13,.cls-14,.cls-27,.cls-15,.cls-16{stroke:#2b1b1b;}.cls-3{fill:#78aeb5;stroke:#d8ceeb;stroke-width:5px;}.cls-4{stroke-width:6px;}.cls-20,.cls-28,.cls-29,.cls-30,.cls-31,.cls-32,.cls-33,.cls-34,.cls-35{stroke-width:0px;}.cls-5,.cls-10{stroke:#78aeb5;stroke-width:11px;}.cls-5,.cls-30{fill:#d8ceeb;}.cls-6{fill:#c0a9f0;stroke:#c0a9f0;}.cls-7{stroke-width:4px;}.cls-9{stroke:#afafaf;}.cls-21{stroke-miterlimit:10;stroke-width:3px;}.cls-21,.cls-22,.cls-11{fill:#ceeaef;}.cls-22{stroke-miterlimit:10;stroke-width:3px;}.cls-23{stroke-miterlimit:10;stroke-width:3px;}.cls-23,.cls-25,.cls-12,.cls-26{fill:#95c7ce;}.cls-24{stroke-miterlimit:10;stroke-width:3px;}.cls-24,.cls-14,.cls-27,.cls-18,.cls-35{fill:#fcd45c;}.cls-25{stroke-miterlimit:10;stroke-width:3px;}.cls-26{stroke-miterlimit:10;stroke-width:3px;}.cls-13,.cls-17{fill:#e2edbc;}.cls-27{stroke-miterlimit:10;stroke-width:3px;}.cls-15{fill:#bba08f;}.cls-16{fill:#9a6c44;}.cls-19{fill:url(#Ikke-navngivet_forløb);stroke:url(#Ikke-navngivet_forløb_2);}.cls-29{fill:#2b1b1b;}.cls-31{fill:#fff;}.cls-32{fill:#fff8f8;}.cls-33{fill:#efa8b6;}.cls-34{fill:#f0a9b7;}</style><linearGradient id="Ikke-navngivet_forløb" x1="2.31" y1="-2923.88" x2="1922.31" y2="-2923.88" gradientTransform="translate(0 -2383.38) scale(1 -1)" gradientUnits="userSpaceOnUse"><stop offset="0" stop-color="#93bec2"/><stop offset=".07" stop-color="#99c2c0"/><stop offset=".16" stop-color="#accfbd"/><stop offset=".19" stop-color="#b2d3bc"/><stop offset=".4" stop-color="#c2c4aa"/><stop offset=".58" stop-color="#c2c2b4"/><stop offset=".64" stop-color="#c2bfbe"/><stop offset=".81" stop-color="#c4bad8"/><stop offset="1" stop-color="#c0b0c3"/></linearGradient><radialGradient id="Ikke-navngivet_forløb_2" cx="962.31" cy="-2923.88" fx="962.31" fy="-2923.88" r="779.33" gradientTransform="translate(0 -2383.38) scale(1 -1)" gradientUnits="userSpaceOnUse"><stop offset=".29" stop-color="#8cbcc2"/><stop offset=".43" stop-color="#9dc6cb"/><stop offset=".71" stop-color="#cae0e3"/><stop offset="1" stop-color="#fff"/></radialGradient></defs><rect class="cls-19" x="2.31" y=".5" width="1920" height="1080"/><line class="cls-1" x1="1838.42" y1="764.95" x2="1838.42" y2="784.45"/><line class="cls-1" x1="1866.42" y1="764.95" x2="1866.42" y2="784.45"/><g id="mus"><path class="cls-16" d="m54.65,602.66c-7.14-10.34-23.54-11.4-36.64-2.36-7.23,4.99-11.94,12.01-13.51,19.05v9.99c.53,2.15,1.42,4.19,2.71,6.06,7.14,10.34,23.54,11.4,36.64,2.36,13.1-9.04,17.94-24.75,10.8-35.1Z"/><path class="cls-16" d="m92.66,600.63c-1.83-4.82.71-10.21,5.59-11.85,34.36-11.56,71.85-20.68,112.33-25.72,4.29-.53,8.56-1.01,12.79-1.44,2.68-.35,6.65-1.07,11.21-2.7,6.17-2.21,10.37-5.02,16.25-9.03,18.26-12.46,14.4-9.87,17.35-12.03,22.11-16.22,22.19-17.07,27.29-19.63,3.02-1.52,12.71-6.28,25.1-7.15,4.61-.32,13.2-.36,46.77,12.71,25.57,9.96,27.78,12.79,35.08,11.15,9.82-2.2,16.9-9.81,25.89-6.52,1.19.44,4.36,1.6,5.54,4.41,2.43,5.84-5.24,15.17-12.92,19.45-9.81,5.47-20.37,3.1-22.74,2.57-1.45-.33-3.77-1.23-8.47-2.82-2.7-.92-6.54-2.35-15.55-5.98-22.02-8.87-23.98-12.65-34.77-14.79-3.66-.73-10.42-2.01-18.8-.76-11.68,1.74-19.35,7.33-33.92,18.22-13.84,10.34-14.85,13.54-26.5,20.26,0,0-7.95,4.7-17.04,8.4-21.55,8.78-35.48,6.24-55.73,9.89-41.46,7.47-55.53,11.85-82.11,22.88-4.27,1.77-9.15-.34-10.79-4.66l-1.84-4.86h-.01Z"/><path class="cls-16" d="m68,69.53c-21.59,31.68-36.86,93.66,4.43,131.62,34.6,31.81,92.21,31.38,126.59-2.33,38.59-37.84,24.21-96.23,4.82-126.52-4.27-6.67-29.35-45.13-70.36-44.31-37.68.75-60.43,34.13-65.48,41.55h0Z"/><path class="cls-15" d="m84.6,98.4c-15.11,22.92-25.36,67.48,4.62,94.2,25.12,22.4,66.37,21.46,90.62-3.07,27.21-27.52,16.28-69.17,2.06-90.65-3.13-4.73-21.52-31.99-50.87-30.95-26.98.95-42.89,25.1-46.43,30.47h0Z"/><path class="cls-16" d="m410.07,344.34c-26.5,27.7-83.96,55.52-129.67,23.03-38.3-27.23-49.86-83.67-24.03-124.31,28.99-45.61,89.09-43.68,122.76-31.01,7.41,2.79,50.24,19.33,57.97,59.61,7.1,37.02-20.82,66.2-27.03,72.69h0Z"/><path class="cls-15" d="m383.71,331.33c-18.98,19.84-60.13,39.76-92.86,16.49-27.43-19.5-35.71-59.92-17.21-89.03,20.76-32.66,63.8-31.28,87.91-22.21,5.31,2,35.98,13.84,41.51,42.69,5.08,26.51-14.91,47.41-19.36,52.05h0Z"/><path class="cls-16" d="m306.63,260.06c-9.76-29.07-27.25-50.17-27.25-50.17-18.87-22.76-39.79-33.55-46.65-37.19,0,0-21.13-10.43-46.14-13.5-57.5-7.07-134.05,44.75-182.09,82.17v355.57c13.49,9.4,28.12,18.17,43.6,24.76,7.54,3.21,19.04,7.52,33.97,7.68,0,0,20.54.22,42.26-10.83,71.16-36.19,120.64-133.49,120.64-133.49,57.93-93.14,76.49-180.87,61.67-224.99h0Z"/><ellipse class="cls-28" cx="124.79" cy="347.71" rx="10.11" ry="15.67" transform="translate(-224.89 228.55) rotate(-51.44)"/><line class="cls-7" x1="118.72" y1="354.52" x2="111.79" y2="363.22"/><ellipse class="cls-34" cx="209.33" cy="412.9" rx="9.61" ry="18.71" transform="translate(-244.02 319.21) rotate(-51.44)"/><ellipse class="cls-34" cx="53.11" cy="291.11" rx="9.61" ry="18.71" transform="translate(-207.63 151.18) rotate(-51.44)"/><path class="cls-16" d="m141.06,444l-35.72,2.32c-7.12.46-13.72,3.36-18.1,7.95l-.76.8c-7.84,8.2-6.69,19.65,2.63,26.36h0c4.87,3.5,11.36,5.24,18.01,4.8l36.54-2.37"/><path class="cls-16" d="m28.21,384.5l-5.7-35.34-18.01,2.91v60.11c7.13,2.34,14.7-.25,19.38-7.33l.61-.92c3.5-5.29,4.85-12.38,3.72-19.42h0Z"/><path class="cls-9" d="m38.19,234.88c-9.07-9.86-18.93-18.98-29.48-27.24"/><path class="cls-9" d="m30.25,244.46c-6.66-6.82-13.91-13.06-21.66-18.61"/><path class="cls-9" d="m21.63,253.37c-4.15-3.45-8.48-6.68-12.97-9.68"/><path class="cls-9" d="m264.72,417.92c12.93,7.38,27.52,17.25,42.23,30.43,6.29,5.64,11.92,11.27,16.93,16.73"/><path class="cls-9" d="m257.16,427.8c8.61,5.27,18.71,12.53,28.85,22.41,6.08,5.93,11.14,11.79,15.33,17.23"/><path class="cls-9" d="m250.39,438.18c6.39,4.89,13.63,11.2,20.88,19.23,5.42,6,9.85,11.85,13.45,17.19"/><circle class="cls-28" cx="91.48" cy="276.11" r="24.54"/><circle class="cls-31" cx="75.19" cy="276.86" r="4.6"/><circle class="cls-31" cx="103.45" cy="273.89" r="9.2"/><circle class="cls-28" cx="206.24" cy="366.58" r="24.54"/><circle class="cls-31" cx="209.14" cy="382.62" r="4.6"/><circle class="cls-31" cx="205.74" cy="354.41" r="9.2"/></g><g id="bi"><path class="cls-11" d="m1920.09,292.27c-29.29,13.4-50,36.59-54.22,65.25-5.32,36.14,16.99,71.51,54.22,93.23v-158.48h0Z"/><path class="cls-14" d="m1920.09,291.31c-19.43-3.31-36.23,1.67-38.9,12.16-2.95,11.58,12.42,25.49,34.33,31.06,1.53.39,3.06.72,4.57,1.01v-44.24h0Z"/><ellipse class="cls-22" cx="1748.71" cy="529.48" rx="126.8" ry="95.54" transform="translate(569.99 1925.53) rotate(-66.67)"/><ellipse class="cls-24" cx="1705.01" cy="454.13" rx="40.94" ry="21.63" transform="translate(1007.52 2074.87) rotate(-81.63)"/><ellipse class="cls-27" cx="1870.68" cy="574.4" rx="21.63" ry="30.65" transform="translate(-80.64 721.83) rotate(-21.39)"/><ellipse class="cls-21" cx="1595.54" cy="346.34" rx="95.54" ry="126.8" transform="translate(1136.83 1913.28) rotate(-85.93)"/><path class="cls-11" d="m1920.09,59.09c-47.69-16.85-106.47,18.12-133.33,80.4-27.73,64.3-10.94,133.37,37.51,154.27,30.61,13.2,66.52,4.01,95.82-20.75V59.09Z"/><path class="cls-18" d="m1920.09,316.65c-20.39-15.5-41.29-22.63-64.7-30.37-47.95-15.87-105.62-34.96-136.1-7.76-19.89,17.75-18.93,47.51-17.01,107.03,1.58,48.86,2.52,78.13,21.8,110.41,7.09,11.87,36.07,60.29,92.55,69.67,44.64,7.41,81.73-14.63,103.45-32.33v-216.65h0Z"/><path class="cls-14" d="m1623.12,346.02c45.17,38.31,109.97,32.51,153.01,6.88,44.49-26.49,81.52-83.55,66.44-141.05-10.56-40.25-43.7-69.49-77.6-80.55-75.06-24.47-173.69,33.76-183.37,111.53-4.7,37.78,11.86,78.03,41.52,103.18h0Z"/><line class="cls-20" x1="1864.52" y1="280.12" x2="1685.25" y2="385.34"/><path class="cls-29" d="m1920.09,316.7c-1.96-1.48-4.01-2.96-6.19-4.44-7.48-5.05-14.58-8.82-20.76-11.64-19.7,21.32-46.01,46.1-79.86,69.92-40.31,28.37-78.66,46.48-109.03,58.16.17,5.96.78,12.93,2.24,20.59,1.62,8.55,3.9,15.93,6.19,21.98,36.47-17.44,77.42-39.9,120.38-68.83,33.02-22.24,61.96-44.77,87.04-66.25v-19.48h-.01Z"/><path class="cls-29" d="m1920.09,418.31l-162.12,118.42c4.77,6.24,13.41,15.74,26.99,22.83,24.43,12.75,48.06,8.95,55.82,7.36,12.53-.54,41.42-3.49,70.87-23.03,2.97-1.97,5.78-4,8.44-6.07v-119.5h0Z"/><path class="cls-4" d="m1720.43,126.62c-.03-5.55.63-15.67,5.84-26.87,4.72-10.17,11.13-16.82,15.16-20.42"/><path class="cls-4" d="m1594.47,205.8c-4.39-3.41-12.82-9.03-24.88-11.71-10.95-2.44-20.12-1.4-25.43-.39"/><circle class="cls-28" cx="1748.95" cy="71.37" r="11.81"/><circle class="cls-28" cx="1538.47" cy="194.63" r="11.81"/><ellipse class="cls-33" cx="1662.17" cy="326.59" rx="22.23" ry="11.42" transform="translate(67.41 897.72) rotate(-30.82)"/><ellipse class="cls-33" cx="1798.09" cy="238.5" rx="22.23" ry="11.42" transform="translate(131.73 954.92) rotate(-30.82)"/><polygon class="cls-29" points="1920.09 521 1900.8 538.01 1920.09 547.79 1920.09 521"/><line class="cls-1" x1="1725.31" y1="307.5" x2="1748.31" y2="302.5"/><line class="cls-2" x1="1675.31" y1="258.5" x2="1691.31" y2="264.5"/><line class="cls-2" x1="1735.31" y1="224.5" x2="1733.31" y2="242.5"/><path class="cls-31" d="m1757.28,205.36c5.97-.79,10.51,3.71,11.21,4.43,3.42,3.09,6.02,5.98,7.88,8.23,3.9,4.7,6.49,8.93,8.28,12.32,2.36,4.47,3.54,6.69,3.28,8.56-.2,1.48-.96,3.28-12.76,11.25-.84-2.72-2.08-5.94-3.92-9.41-1.98-3.73-4.12-6.73-6.02-9.05-1.07-1.41-2.79-3.3-5.29-4.98-1.82-1.23-3.55-2-4.93-2.49-1.16-.5-3.34-1.24-6.14-1.16-2.99.09-5.23,1.09-6.37,1.7.61-3.92,2.07-8.66,5.5-12.94,2-2.49,4.7-5.86,9.28-6.46h0Z"/><path class="cls-28" d="m1748.87,223.06c2.8-.09,4.98.66,6.14,1.16,1.39.5,3.11,1.27,4.93,2.49,2.51,1.69,4.22,3.57,5.29,4.98,1.9,2.31,4.04,5.32,6.02,9.05,1.84,3.47,3.07,6.69,3.92,9.41-1.4.95-5.85,3.93-12.18,7.29-6.43,3.42-7.84,3.52-9.05,3.21-.81-.21-3.56-1.11-7.44-11.19-1.69-4.41-2.96-7.7-3.7-11.04.64.41,1.34.82,2.11,1.21,1.37.7,2.66,1.2,3.81,1.57.32.11,1.6.53,3.04-.06,1.78-.74,2.34-2.43,2.41-2.67.33-1.02.67-2.68.16-4.52-1.12-4.02-5.44-5.58-6.68-6.03-2.15-.78-4.1-.82-5.44-.71.06-.77.16-1.59.29-2.45,1.14-.61,3.38-1.61,6.37-1.7h0Z"/><path class="cls-32" d="m1742.21,227.21c1.34-.11,3.3-.07,5.44.71,1.25.45,5.56,2.01,6.68,6.03.51,1.84.17,3.5-.16,4.52-.08.24-.63,1.94-2.41,2.67-1.43.59-2.72.17-3.04.06-1.15-.37-2.44-.87-3.81-1.57-.77-.4-1.48-.81-2.11-1.21h0c-.47-2.14-.73-4.3-.74-6.78,0-1.04,0-2.58.15-4.43h0Z"/><path class="cls-8" d="m1742.8,238.42c-.47-2.14-.73-4.3-.74-6.78,0-1.04,0-2.58.15-4.43.06-.77.16-1.59.29-2.45.61-3.92,2.07-8.66,5.5-12.94,2-2.49,4.7-5.86,9.28-6.46,5.97-.79,10.51,3.71,11.21,4.43,3.42,3.09,6.02,5.98,7.88,8.23,3.9,4.7,6.49,8.93,8.28,12.32,2.36,4.47,3.54,6.69,3.28,8.56-.2,1.48-.96,3.28-12.76,11.25-1.4.95-5.85,3.93-12.18,7.29-6.43,3.42-7.84,3.52-9.05,3.21-.81-.21-3.56-1.11-7.44-11.19-1.69-4.41-2.96-7.7-3.7-11.04"/><path class="cls-8" d="m1775.17,250.14c-.84-2.72-2.08-5.94-3.92-9.41-1.98-3.73-4.12-6.73-6.02-9.05-1.07-1.41-2.79-3.3-5.29-4.98-1.82-1.23-3.55-2-4.93-2.49-1.16-.5-3.34-1.24-6.14-1.16-2.99.09-5.23,1.09-6.37,1.7"/><path class="cls-8" d="m1742.8,238.42h0c.64.41,1.34.82,2.11,1.22,1.37.7,2.66,1.2,3.81,1.57.32.11,1.6.53,3.04-.06,1.78-.74,2.34-2.43,2.41-2.67.33-1.02.67-2.68.16-4.52-1.12-4.02-5.44-5.58-6.68-6.03-2.15-.78-4.1-.82-5.44-.71"/><path class="cls-31" d="m1651.06,273.36c-3.58,4.84-1.84,11-1.55,11.95,1.05,4.49,2.32,8.16,3.39,10.87,2.23,5.68,4.68,10,6.78,13.21,2.77,4.23,4.15,6.34,5.9,7.01,1.39.54,3.34.74,16.01-5.73-1.97-2.05-4.2-4.69-6.34-7.98-2.31-3.53-3.9-6.87-5.01-9.64-.71-1.62-1.54-4.03-1.8-7.04-.19-2.18-.03-4.07.2-5.52.13-1.26.53-3.53,1.96-5.93,1.53-2.57,3.49-4.05,4.57-4.75-3.72-1.36-8.58-2.38-13.98-1.45-3.14.54-7.4,1.28-10.14,5h.01Z"/><path class="cls-28" d="m1670.61,274.55c-1.43,2.41-1.83,4.67-1.96,5.93-.24,1.45-.39,3.34-.2,5.52.26,3.01,1.09,5.42,1.8,7.04,1.11,2.78,2.7,6.11,5.01,9.64,2.14,3.28,4.37,5.93,6.34,7.98,1.5-.76,6.27-3.22,12.27-7.13,6.1-3.98,6.87-5.16,7.19-6.37.21-.81.75-3.65-6.2-11.92-3.03-3.61-5.31-6.32-7.87-8.57.05.75.07,1.57.04,2.44-.05,1.53-.23,2.91-.47,4.09-.05.33-.31,1.66-1.52,2.63-1.5,1.2-3.26.87-3.51.82-1.05-.21-2.67-.71-4.03-2.05-2.97-2.92-2.25-7.46-2.05-8.77.36-2.26,1.27-3.99,2.01-5.11-.7-.31-1.47-.63-2.29-.92-1.08.7-3.04,2.18-4.57,4.75h0Z"/><path class="cls-32" d="m1677.47,270.73c-.74,1.12-1.65,2.86-2.01,5.11-.21,1.31-.93,5.84,2.05,8.77,1.36,1.34,2.98,1.84,4.03,2.05.25.05,2.01.38,3.51-.82,1.21-.97,1.46-2.3,1.52-2.63.23-1.18.42-2.56.47-4.09.03-.87,0-1.68-.04-2.44h0c-1.64-1.46-3.41-2.73-5.57-3.93-.9-.51-2.25-1.26-3.95-2.02h-.01Z"/><path class="cls-8" d="m1686.99,276.67c-1.64-1.45-3.41-2.72-5.57-3.93-.9-.51-2.25-1.26-3.95-2.02-.7-.31-1.47-.63-2.29-.92-3.72-1.36-8.58-2.38-13.98-1.45-3.14.54-7.4,1.28-10.14,5-3.58,4.84-1.84,11-1.55,11.95,1.05,4.49,2.32,8.16,3.39,10.87,2.23,5.68,4.68,10,6.78,13.21,2.77,4.23,4.15,6.34,5.9,7.01,1.39.54,3.34.74,16.01-5.73,1.5-.76,6.27-3.22,12.27-7.13,6.1-3.98,6.87-5.16,7.19-6.37.21-.81.75-3.65-6.2-11.92-3.03-3.61-5.31-6.32-7.87-8.57"/><path class="cls-8" d="m1681.6,310.67c-1.97-2.05-4.2-4.69-6.34-7.98-2.31-3.53-3.9-6.87-5.01-9.64-.71-1.62-1.54-4.03-1.8-7.04-.19-2.18-.03-4.07.2-5.52.13-1.26.53-3.53,1.96-5.93,1.53-2.57,3.49-4.05,4.57-4.75"/><path class="cls-8" d="m1686.99,276.67h0c.05.76.07,1.57.04,2.44-.05,1.53-.23,2.91-.47,4.09-.05.33-.31,1.66-1.52,2.63-1.5,1.2-3.26.87-3.51.82-1.05-.21-2.67-.71-4.03-2.05-2.97-2.92-2.25-7.46-2.05-8.77.36-2.26,1.27-3.99,2.01-5.11"/></g><g id="slange"><path class="cls-17" d="m1919.09,841.87c-7.84-5.82-15.89-12.9-23.9-21.22,2.32-2.49,10.99-11.53,23.9-18.17v-78.41c-24.97,16.21-46.6,37.84-60.86,53.16-1.03,1.11-1.88,2.03-2.45,2.66-5.16-5.46-10.4-11.23-15.68-17.32-5.72-6.6-11.09-13.12-16.11-19.49l-94.3,108.92c8.73,3.67,19.58,8.56,31.87,14.87-19.21,22.69-32.28,45.49-39.46,73.09-7.68,29.5-4.1,46.99-20.12,60.04-27.16,22.14-87.29,12.46-116.08-21.8-29.97-35.66-12.79-82.26-41.78-94.15-13.29-5.45-30.93-1.4-41.05,8.03-29.97,27.94,5.32,103.98,7.36,108.27,5.13,10.78,25.4,53.39,68.58,79.85h166.67c14.26-8.05,27.11-18.54,37.22-31.86,33.62-44.32,2.46-74.37,38.42-144.68,0-.01.01-.02.02-.03,21.9,16.02,30.16,25.56,52.87,37.29,14.01,7.23,28.75,14.78,44.89,19.71v-118.75h-.01Z"/><path class="cls-13" d="m1805.03,582.53c-62.77-36.05-154.05-8.86-205.17,50.02-47.41,54.6-65.42,142.35-24.87,199.73,20.84,29.48,59.76,54.65,103.96,51.56,45.84-3.21,76.05-35.31,116.18-77.97,40.68-43.23,71.59-76.09,71.47-122.43-.12-45.29-29.84-82.69-61.56-100.91h0Z"/><ellipse class="cls-34" cx="1814.79" cy="678.3" rx="22.28" ry="10.69" transform="translate(86.34 1553.53) rotate(-47.35)"/><ellipse class="cls-34" cx="1675.29" cy="829.75" rx="22.28" ry="10.69" transform="translate(-70.03 1499.76) rotate(-47.35)"/><line class="cls-1" x1="1761.57" y1="866.87" x2="1821.32" y2="903.65"/><line class="cls-1" x1="1895.19" y1="820.65" x2="1855.14" y2="779.84"/><path class="cls-6" d="m1738.68,761.16l20.05,19.81-4.88-12.54,11.75,4.13c-7.03-6.47-14.05-12.94-21.08-19.42"/><line class="cls-1" x1="1731.35" y1="768.2" x2="1751" y2="746.87"/><line class="cls-2" x1="1653.09" y1="752.02" x2="1670.03" y2="754.32"/><line class="cls-2" x1="1734.06" y1="671.56" x2="1736.1" y2="689.56"/><path class="cls-31" d="m1751.24,648.03c5.64-2.09,11.07,1.29,11.91,1.83,4.01,2.26,7.19,4.5,9.5,6.27,4.84,3.72,8.31,7.27,10.81,10.18,3.29,3.83,4.93,5.74,5.1,7.62.13,1.49-.21,3.41-9.95,13.8-1.43-2.46-3.35-5.33-5.91-8.31-2.75-3.2-5.51-5.65-7.88-7.49-1.36-1.13-3.44-2.6-6.26-3.69-2.05-.79-3.91-1.16-5.36-1.34-1.25-.23-3.53-.47-6.24.24-2.9.76-4.86,2.23-5.83,3.07-.27-3.96.09-8.9,2.49-13.83,1.39-2.87,3.28-6.75,7.61-8.36h0Z"/><path class="cls-28" d="m1746.96,667.15c2.71-.71,4.99-.46,6.24-.24,1.46.18,3.32.54,5.36,1.34,2.82,1.09,4.9,2.55,6.26,3.69,2.37,1.83,5.13,4.29,7.88,7.49,2.56,2.97,4.48,5.84,5.91,8.31-1.16,1.23-4.83,5.13-10.26,9.81-5.52,4.76-6.86,5.17-8.12,5.14-.84-.02-3.72-.29-9.74-9.26-2.63-3.92-4.6-6.86-6.06-9.94.71.26,1.49.5,2.33.72,1.49.38,2.86.58,4.06.69.33.04,1.68.16,2.95-.73,1.57-1.11,1.74-2.89,1.76-3.14.09-1.06.06-2.76-.85-4.44-1.98-3.67-6.54-4.23-7.86-4.4-2.27-.28-4.18.11-5.47.51-.1-.76-.2-1.58-.25-2.45.97-.85,2.94-2.32,5.83-3.07l.03-.03Z"/><path class="cls-32" d="m1741.38,672.67c1.29-.4,3.2-.8,5.47-.51,1.32.16,5.87.73,7.86,4.4.91,1.68.94,3.38.85,4.44-.02.25-.19,2.03-1.76,3.14-1.27.9-2.61.77-2.95.73-1.21-.1-2.57-.31-4.06-.69-.85-.21-1.62-.46-2.33-.72h0c-.94-1.99-1.67-4.03-2.22-6.44-.24-1.01-.59-2.51-.84-4.36h-.02Z"/><path class="cls-8" d="m1744.44,683.47c-.94-1.98-1.67-4.03-2.22-6.44-.24-1.01-.59-2.51-.84-4.36-.1-.76-.2-1.58-.25-2.45-.27-3.96.09-8.9,2.49-13.83,1.39-2.87,3.28-6.75,7.61-8.36,5.64-2.09,11.07,1.29,11.91,1.83,4.01,2.26,7.19,4.5,9.5,6.27,4.84,3.72,8.31,7.27,10.81,10.18,3.29,3.83,4.93,5.74,5.1,7.62.13,1.49-.21,3.41-9.95,13.8-1.16,1.23-4.83,5.13-10.26,9.81-5.52,4.76-6.86,5.17-8.12,5.14-.84-.02-3.72-.29-9.74-9.26-2.63-3.92-4.6-6.86-6.06-9.94"/><path class="cls-8" d="m1778.62,687.72c-1.43-2.46-3.35-5.33-5.91-8.31-2.75-3.2-5.51-5.65-7.88-7.49-1.36-1.13-3.44-2.6-6.26-3.69-2.05-.79-3.91-1.16-5.36-1.34-1.25-.23-3.53-.47-6.24.24-2.9.76-4.86,2.23-5.83,3.07"/><path class="cls-8" d="m1744.44,683.47h0c.71.26,1.49.51,2.33.72,1.49.38,2.86.58,4.06.69.33.04,1.68.16,2.95-.73,1.57-1.11,1.74-2.89,1.76-3.14.09-1.06.06-2.76-.85-4.44-1.98-3.67-6.54-4.23-7.86-4.4-2.27-.28-4.18.11-5.47.51"/><path class="cls-31" d="m1632.74,771.89c-2.41,5.51.65,11.13,1.14,12,2.02,4.14,4.07,7.44,5.72,9.85,3.43,5.05,6.78,8.71,9.54,11.38,3.64,3.51,5.45,5.26,7.31,5.53,1.48.22,3.42-.01,14.35-9.14-2.38-1.56-5.13-3.65-7.95-6.37-3.03-2.93-5.33-5.83-7.02-8.29-1.05-1.42-2.39-3.59-3.32-6.47-.67-2.09-.93-3.96-1.03-5.43-.16-1.26-.27-3.55.59-6.22.92-2.85,2.5-4.72,3.4-5.65-3.93-.5-8.89-.42-13.95,1.69-2.94,1.23-6.93,2.89-8.78,7.12h0Z"/><path class="cls-28" d="m1652.07,768.72c-.86,2.66-.75,4.96-.59,6.22.09,1.47.36,3.34,1.03,5.43.92,2.88,2.27,5.05,3.32,6.47,1.7,2.46,3.99,5.36,7.02,8.29,2.82,2.73,5.58,4.81,7.95,6.37,1.3-1.08,5.4-4.53,10.39-9.68,5.07-5.23,5.56-6.55,5.6-7.81.03-.84-.08-3.73-8.69-10.25-3.76-2.85-6.58-4.98-9.58-6.61.21.72.41,1.51.58,2.37.29,1.51.42,2.89.45,4.09.02.34.07,1.69-.9,2.9-1.2,1.51-2.99,1.57-3.24,1.58-1.07.03-2.76-.1-4.39-1.1-3.55-2.19-3.85-6.77-3.94-8.1-.15-2.28.35-4.17.82-5.43-.76-.15-1.57-.29-2.44-.39-.9.93-2.48,2.8-3.4,5.65h.01Z"/><path class="cls-32" d="m1657.91,763.47c-.47,1.26-.98,3.15-.82,5.43.09,1.32.39,5.9,3.94,8.1,1.62,1,3.32,1.13,4.39,1.1.25,0,2.04-.07,3.24-1.58.97-1.21.92-2.57.9-2.9-.03-1.2-.16-2.59-.45-4.09-.17-.85-.37-1.64-.58-2.37h0c-1.92-1.05-3.93-1.9-6.3-2.6-.99-.3-2.47-.73-4.3-1.09h-.02Z"/><path class="cls-8" d="m1668.52,767.15c-1.92-1.05-3.93-1.89-6.3-2.6-.99-.3-2.47-.73-4.3-1.09-.76-.15-1.57-.29-2.44-.39-3.93-.5-8.89-.42-13.95,1.69-2.94,1.23-6.93,2.89-8.78,7.12-2.41,5.51.65,11.13,1.14,12,2.02,4.14,4.07,7.44,5.72,9.85,3.43,5.05,6.78,8.71,9.54,11.38,3.64,3.51,5.45,5.26,7.31,5.53,1.48.22,3.42-.01,14.35-9.14,1.3-1.08,5.4-4.53,10.39-9.68,5.07-5.23,5.56-6.55,5.6-7.81.03-.84-.08-3.73-8.69-10.25-3.76-2.85-6.58-4.98-9.58-6.61"/><path class="cls-8" d="m1670.8,801.5c-2.38-1.56-5.13-3.65-7.95-6.37-3.03-2.93-5.33-5.83-7.02-8.29-1.05-1.42-2.39-3.59-3.32-6.47-.67-2.09-.93-3.96-1.03-5.43-.16-1.26-.27-3.55.59-6.22.92-2.85,2.5-4.72,3.4-5.65"/><path class="cls-8" d="m1668.52,767.15h0c.21.73.41,1.52.58,2.37.29,1.51.42,2.89.45,4.09.02.34.07,1.69-.9,2.9-1.2,1.51-2.99,1.57-3.24,1.58-1.07.03-2.76-.1-4.39-1.1-3.55-2.19-3.85-6.77-3.94-8.1-.15-2.28.35-4.17.82-5.43"/></g><path class="cls-12" d="m298.42,1080.2c-4-7.37-6.37-14.15-7.8-19.34,3.2,4.63,8.7,11.35,17.25,17.2,1.14.78,2.26,1.48,3.37,2.14h6.56c-3.47-3.4-7.17-7.82-10.36-13.47-3.36-5.95-5.19-11.55-6.23-15.9,3.08,3.17,8.55,7.95,16.63,11.08,4.79,1.86,9.13,2.61,12.49,2.9-4.58-5.04-9.16-10.09-13.74-15.13-16.64-18.33-33.29-36.67-49.93-55.01l-22.5,21.3c4.05,13.98,13.8,41.01,36.84,64.22h17.42,0Z"/><ellipse class="cls-23" cx="148.38" cy="1044.33" rx="11.44" ry="19.67" transform="translate(-111.21 21.95) rotate(-6.16)"/><ellipse class="cls-26" cx="131.76" cy="1041.57" rx="19.66" ry="11.44" transform="translate(-917.63 1009.69) rotate(-81.05)"/><ellipse class="cls-25" cx="116.31" cy="1038.91" rx="19.61" ry="11.47" transform="translate(-889.18 752.83) rotate(-67.73)"/><path class="cls-12" d="m89.2,673.88c-6.65-24.88-15.76-58.96-43.15-67.84-13.16-4.27-29.18-2.27-40.91,6.11-.22.16-.42.33-.64.49v130.73c8.95,16.14,22.09,34.47,41.35,52.74,4.33,4.11,9.42,7.63,15.03,7.01,6.44-.72,10.68-6.59,12.33-8.88,35.14-48.69,15.98-120.36,15.98-120.36h.01Z"/><polygon class="cls-12" points="313.33 590.46 425.11 561.67 399.93 598.16 430.69 609.47 408.37 620.48 451.25 635.07 330.03 632.56 313.33 590.46"/><path class="cls-12" d="m376.67,608.3c-8.96-13-33.37-47.43-78.94-65.81-46.57-18.79-88.41-9.99-108.09-5.57-42.48,9.54-70.18,29.95-95.23,48.81-14.12,10.64-54.19,42.61-89.91,99.07v276.09c56.19,59.74,158.17,111.13,248.4,75.73,48.44-19.01,77.3-56.68,93.15-77.38,36.85-48.11,47.91-95.65,54.38-124.82,9.81-44.28,32.15-145.05-23.75-226.13h0Z"/><ellipse class="cls-34" cx="248.17" cy="836.45" rx="11.6" ry="22.43" transform="translate(-573.69 543.56) rotate(-53.86)"/><ellipse class="cls-34" cx="56.95" cy="696.6" rx="11.6" ry="22.43" transform="translate(-539.19 331.76) rotate(-53.86)"/><ellipse class="cls-35" cx="147.09" cy="762.55" rx="13.43" ry="23.65" transform="translate(-554.73 430.02) rotate(-53.73)"/><path class="cls-12" d="m280.55,928.2c-1.86-20.26-5.53-60.18,19.27-77.89,11.63-8.31,27.51-10.28,40.55-6.05,27.15,8.8,36.18,42.59,42.77,67.25,0,0,18.99,71.04-15.84,119.31-1.64,2.27-5.84,8.09-12.23,8.8-5.56.62-10.61-2.88-14.9-6.95-54.8-51.95-59.62-104.47-59.62-104.47h0Z"/><ellipse class="cls-28" cx="114.06" cy="689.53" rx="24.68" ry="25.21"/><ellipse class="cls-31" cx="97.75" cy="691.29" rx="4.63" ry="4.73"/><ellipse class="cls-31" cx="125.95" cy="686.52" rx="9.26" ry="9.45"/><ellipse class="cls-28" cx="234.09" cy="777.6" rx="24.51" ry="25.02"/><ellipse class="cls-31" cx="237.93" cy="793.75" rx="4.59" ry="4.69"/><ellipse class="cls-31" cx="232.87" cy="765.24" rx="9.19" ry="9.38"/><path class="cls-5" d="m1112.71,249.28c99.11-135.02,201.36-130.47,201.36-130.47,0,0,61.3,118.19-46.61,262.46"/><path class="cls-5" d="m846.81,242.46c-100.78-135.02-204.75-130.47-204.75-130.47,0,0-62.33,118.19,47.39,262.46"/><path class="cls-3" d="m793.37,252.59c-57.71-77.32-117.25-74.72-117.25-74.72,0,0-35.69,67.69,27.14,150.3"/><path class="cls-3" d="m1164.97,257.14c56.76-77.32,115.31-74.72,115.31-74.72,0,0,35.1,67.69-26.69,150.3"/><path class="cls-30" d="m1277.72,430.1c4.28,31.57,20.22,148.99-54.53,234.04-72.67,82.68-184.19,81.45-255.61,80.66-71.23-.78-174.06-1.92-246.55-80.66-84.33-91.59-64.85-220.02-61.35-243.13,4.74-31.28,10.61-69.74,38.12-106.79,63.45-85.45,186.7-85.98,270.9-86.35,86.01-.37,201.16-.86,265.11,79.53,32.81,41.24,39.02,86.69,43.91,122.7h0Z"/><path class="cls-10" d="m1277.72,430.1c4.28,31.57,20.22,148.99-54.53,234.04-72.67,82.68-184.19,81.45-255.61,80.66-71.23-.78-174.06-1.92-246.55-80.66-84.33-91.59-64.85-220.02-61.35-243.13,4.74-31.28,10.61-69.74,38.12-106.79,63.45-85.45,186.7-85.98,270.9-86.35,86.01-.37,201.16-.86,265.11,79.53,32.81,41.24,39.02,86.69,43.91,122.7h0Z"/><path class="cls-5" d="m847.26,304.89c-6.65,46.86-8.07,93.8-8.9,141.04-.9,10.45-12.09,15.6-21.41,15.49-9.02-.11-20.32-5.17-20.86-15.49,1.18-45.96,3.4-91.44,11.91-136.74,3.34-15.95.91-21.87-7.19-20.17-11.01,2.31-16.29,14.34-18.84,24.44-9.78,43.79-12.6,87.89-14.06,132.59-1.14,10.02-12.23,14.61-21.14,14.44-11.41-.22-20.15-6.89-19.81-14.03,2.02-42.14,5.97-83.38,17.49-124.15,4.68-14.81,3.33-19.61-4.07-16.61-10.02,4.06-16.13,14.62-19.92,24.5-12.66,38.03-17.51,76.87-19.98,116.7-.41,6.64-9.32,12.64-19.76,12.41-10.44-.22-17.99-5.81-17.45-11.47,3.51-35.44,10.02-69.67,24.01-102.59,13.77-28.46,40.87-55.76,69.09-69.99,10.56-5.32,18.74-6.88,22.64-1.25,9.65-9.08,21.37-15.97,34.29-19.1,36.26-8.78,37.39,22.6,33.97,50v-.02Z"/><path class="cls-5" d="m866.96,423.54c-.12-29.11,1.37-58.24,3.36-87.28,1.57-29.08,21.56-59.7,52.99-60.08,31.56-.38,43.01,31.21,42.28,58.5-.07,15.99-.07,31.98-.09,47.97,1.29,14.87-9.67,24.18-23.72,24.14-11.72.02-23.44.06-35.17.16-.19,9.13.15,10.93.1,16.56-.09,8.6,4.54,13.45,12.7,13.52,9.47.08,11.37-4.38,11.41-9.76v-1.23c.04-6.3,7.65-11.45,17.3-11.41s17,5.41,16.98,11.73v3.12c-.05,24.78-25.1,34.82-46.16,34.74-23.86-.09-51.29-13.84-51.97-40.69h-.01Zm62.87-47.82c.22-14.1.55-28.19.96-42.28.87-8.68-.57-22.67-10.14-22.36-9.21.31-11.97,13.72-11.89,22.65-.63,14.06-1.14,28.12-1.49,42.2,9.15-.12,13.67-.15,22.56-.21h0Z"/><path class="cls-5" d="m986.04,424.78c-.27-30.04-.45-60.08-.74-90.12-.07-26.72,12.51-59.69,44.19-58.69,31.43.99,52.07,31.43,54.36,60.66,2.23,29.88,3.65,59.85,4.18,89.81-.56,27.49-28.51,39.49-52.38,39.7-24.54.22-48.75-15.02-49.61-41.36h0Zm61.65.6c-.39-29.83-1.27-59.67-2.68-89.47.05-8.28-1.89-22.81-12.87-23.02-7.3-.14-10.41,5.87-9.81,22.64.98,29.82,1.58,59.66,1.91,89.5-.01,9.53,3.63,13.65,11.35,13.75,8.72.12,12.11-3.89,12.1-13.39h0Z"/><path class="cls-5" d="m1249.03,343.98c13.36,31.07,19.49,62.66,23.65,96.09,2.16,21.85-28.59,26.81-42.99,27.37-11.03.43-23.21-2.08-32.41-9.14-9.31,7.11-21.71,8.83-32.91,8.85-23.69.03-50.67-13.57-52.17-39.97-.81-41.16-3.59-82.34-9.47-123.09-1.78-11.36,4.75-19.99,14.61-18.29,11.08,1.91,20.19,12.01,22.89,23.04,7.67,39.45,11.05,79.37,12.52,119.5.21,8.76,4.12,12.7,11.95,13,8.85.34,12.05-3.22,11.76-11.63-1.79-39.37-5.67-78.41-14.43-116.87-2.68-10.81,2.64-17.99,11.88-14.97,10.65,3.48,19.69,13.37,23.59,24.11,10.56,36.32,15.11,73.11,17.82,110.74.43,7.62,4.23,11.28,12.18,11.8,7.63.5,10.47-2.53,9.95-9.54-3.17-36.23-8.27-71.38-19.92-105.97-3.62-9.82-.07-14.76,8.12-10.04,9.64,5.57,18.12,14.92,23.4,25h-.02Z"/><path class="cls-5" d="m903.26,538.86c1.4,61.41,4.69,122.68,12.81,183.6,1.77,12.57-3.57,21.15-12.38,20.29-11.25-1.09-19.42-11.95-21.81-22.63-12.59-60.13-17.73-121.08-19.84-182.4.37-9.56-3.31-22.73-14.69-23.29-11.65-.57-14.59,13.08-13.57,22.12,2.58,61.08,8.98,121.56,24.49,180.82,3.42,12.38-1.06,20.09-10.21,18.01-11.67-2.66-21.03-13.35-25.3-24.49-19.7-57.31-28.03-116.56-31.27-176.88.22-9.65-3.95-21.99-14.97-22.93-11.22-.96-14.42,11.73-13.23,20.54,3.64,59.49,13.32,117.45,35.69,172.95,5.04,11.84,1.83,17.81-7.05,13.81-11.54-5.19-21.23-15.64-27.66-26.77-26.06-52.06-37.78-106.99-42.03-164.75-3.32-34.37,21.6-51.15,53.28-50.32,12.89.34,26.53,3.51,36.07,12.94,9.72-9,23.55-11.38,36.16-11.19,36.33.56,55.08,25.47,55.51,60.58h0Z"/><path class="cls-5" d="m935.19,684.67c-2.24-36.77-3.65-73.56-4.53-110.38-1.39-29.32,13.83-59.54,46.29-59.41,33.39.13,48.85,30.36,47.79,60.47-.52,17.88-1.18,35.75-2.01,53.62-.38,15.07-8.44,28.72-24.68,28.72-10.26-.06-20.52-.18-30.78-.32.08,11.19.12,16.78.21,27.84-.34,8.72,1.21,22.79,9.96,24.09,6.31.93,9.28-7.04,9.58-16.97.03-.92.04-1.38.07-2.29.12-9.59,6.02-21.06,16.35-21.08,10.3-.01,15.66,11.61,14.66,21.08-.19,2.29-.29,3.43-.49,5.71-3.44,23.61-13.02,51.04-40.58,50.98-31.05-.07-39.13-37.1-41.83-62.03v-.03Zm52.2-64.01c.21-15.69.38-31.38.5-47.07.56-8.31-1.09-24.3-10.95-23.82-10.06.49-9.69,14.79-10.13,23.55.06,15.7.14,31.39.23,47.09,7.88.11,12.01.17,20.35.25Z"/><path class="cls-5" d="m1146.48,571.02c-4.26,48.77-12.34,96.35-28.15,142.79-4.03,10.44-12.54,20.43-23.66,22.79-3.57.76-6.84.28-8.77-1.75-6.73,5.19-15.78,8.17-21.56,8.85-30.18,3.59-32.34-25.12-30.69-48.28,1.62-14.45,3.02-28.89,4.25-43.38,1.75-29.9,18.37-56.24,50.43-57.41,4.74-.17,10.78,1.04,16.04,3,.84-9.77,1.19-14.62,1.79-24.18,1.06-16.93-2.68-21.28-9.95-21.09-7.96.22-11.94,6.02-12.43,15.97-.01.29-.02.44-.04.74-.53,10.9-8.45,20.6-19.78,21.01-12.33.44-18.63-11.23-17.83-22.26.04-1.19.06-1.78.1-2.96,1.19-28.77,21.92-48.97,50.67-49.32,33.53-.4,52.53,22.41,49.56,55.49h.02Zm-48.98,84.25c.68-9.4,2.07-24.76-8.68-25.45-10.18-.66-13.36,16.15-14.38,25.16-1.52,11.33-3.18,22.59-5.01,33.88-3.03,17.72-.71,24.06,5.85,22.93,9.93-1.72,15.41-17.83,16.95-27.08,2.01-9.75,3.76-19.59,5.27-29.42v-.02Z"/><path class="cls-5" d="m1140.58,708.29c27.75-70.36,35.49-145.63,35.03-220.78.19-10.49,10.1-16.67,19.73-16.66,9.17,0,19.43,5.42,19.92,15.63,1.17,72.35-8.82,144.52-40.86,210-5.78,10.39-14.79,20.03-25.68,24.58-8.81,3.68-12.87-1.44-8.13-12.77h-.01Z"/><line class="cls-1" x1="1727.2" y1="760.06" x2="1741.04" y2="773.79"/><line class="cls-1" x1="1746.92" y1="740.18" x2="1760.76" y2="753.91"/></svg>