<?xml version="1.0" encoding="UTF-8"?><svg id="Lag_10" xmlns="http://www.w3.org/2000/svg" width="472.76" height="293" xmlns:xlink="http://www.w3.org/1999/xlink" viewBox="0 0 472.76 293"><defs><style>.cls-1,.cls-2,.cls-3,.cls-4{stroke:#d5cbe8;stroke-miterlimit:10;}.cls-1,.cls-5{fill:#d5cbe8;}.cls-1,.cls-5,.cls-6{stroke-width:0px;}.cls-7{filter:url(#drop-shadow-2);}.cls-2{stroke-width:2px;}.cls-2,.cls-3{fill:none;}.cls-4{fill:#78abb2;stroke-width:3px;}.cls-6{fill:#fff;}</style><filter id="drop-shadow-2" filterUnits="userSpaceOnUse"><feOffset dx="15" dy="1"/><feGaussianBlur result="blur" stdDeviation="2"/><feFlood flood-color="#666565" flood-opacity=".75"/><feComposite in2="blur" operator="in"/><feComposite in="SourceGraphic"/></filter></defs><rect class="cls-4" x="1.5" y="1.5" width="469.76" height="290" rx="53.9" ry="53.9"/><g class="cls-7"><path class="cls-4" d="m112.64,35.3v31c0,11.49-4.32,18.53-12.23,21.12v21.49c0,4.2-3.33,7.54-7.53,7.54s-7.54-3.33-7.54-7.54v-21.49c-7.91-2.59-12.23-9.63-12.23-21.12v-31c0-4.2,3.33-7.54,7.54-7.54s7.53,3.33,7.53,7.54v30.76c0,5.81,1.61,8.15,4.69,8.15s4.69-2.35,4.69-8.15v-30.76c0-4.2,3.33-7.54,7.54-7.54s7.53,3.33,7.53,7.54Z"/><path class="cls-4" d="m120.43,96.69v-35.7c0-13.59,7.53-20.75,18.77-20.75s19.02,7.16,19.02,20.75v35.7c0,13.59-7.53,20.75-19.02,20.75s-18.77-7.16-18.77-20.75Zm23.22-.12v-35.33c0-5.93-1.24-8.03-4.45-8.03-2.84,0-4.2,2.1-4.2,8.03v35.33c0,5.93,1.36,7.78,4.2,7.78,3.21,0,4.45-1.85,4.45-7.78Z"/><path class="cls-4" d="m166.87,96.69v-48.05c0-4.08,3.21-7.29,7.29-7.29s7.29,3.21,7.29,7.29v47.55c0,5.93,1.36,8.03,4.2,8.03,3.21,0,4.45-2.1,4.45-8.03v-47.55c0-4.08,3.21-7.29,7.29-7.29s7.29,3.21,7.29,7.29v48.05c0,13.59-7.53,20.75-19.02,20.75s-18.78-7.16-18.78-20.75Z"/><path class="cls-4" d="m288.17,48.76v47.93c0,13.59-7.54,20.75-18.4,20.75-4.69,0-9.02-1.11-12.11-4.57-3.09,3.46-7.41,4.57-12.1,4.57-10.87,0-18.4-7.16-18.4-20.75v-47.93c0-4.08,3.21-7.41,7.29-7.41s7.29,3.33,7.29,7.41v47.56c0,5.93,1.36,7.78,4.2,7.78,3.21,0,4.45-1.85,4.45-7.78v-47.56c0-4.08,3.21-7.41,7.29-7.41s7.29,3.33,7.29,7.41v47.56c0,5.93,1.36,7.78,4.45,7.78s4.2-1.85,4.2-7.78v-47.56c0-4.08,3.21-7.41,7.29-7.41s7.29,3.33,7.29,7.41Z"/><path class="cls-4" d="m297.68,29.99c0-4.2,3.21-7.41,7.41-7.41s7.41,3.21,7.41,7.41-3.21,7.41-7.41,7.41-7.41-3.21-7.41-7.41Zm.12,79.05v-60.28c0-4.08,3.21-7.41,7.29-7.41s7.29,3.33,7.29,7.41v60.28c0,4.08-3.21,7.29-7.29,7.29s-7.29-3.21-7.29-7.29Z"/><path class="cls-4" d="m322.02,109.04v-48.17c0-13.59,7.53-20.75,18.77-20.75s19.02,7.17,19.02,20.75v48.17c0,4.08-3.21,7.29-7.29,7.29s-7.29-3.21-7.29-7.29v-47.68c0-5.93-1.24-8.03-4.45-8.03-2.84,0-4.2,2.1-4.2,8.03v47.68c0,4.08-3.21,7.29-7.29,7.29s-7.29-3.21-7.29-7.29Z"/><path class="cls-4" d="m368.83,109.04c0-4.82,3.83-8.65,8.65-8.65s8.65,3.83,8.65,8.65-3.83,8.65-8.65,8.65-8.65-3.83-8.65-8.65Zm1.36-20.26v-53.73c0-3.95,3.33-7.29,7.29-7.29s7.29,3.33,7.29,7.29v53.73c0,3.95-3.33,7.29-7.29,7.29s-7.29-3.33-7.29-7.29Z"/></g><path class="cls-4" d="m259.51,144.84c12.81-17.46,26.03-16.87,26.03-16.87,0,0,7.93,15.28-6.03,33.93"/><path class="cls-4" d="m225.43,142.78c-13.03-17.46-26.47-16.87-26.47-16.87,0,0-8.06,15.28,6.13,33.93"/><path class="cls-4" d="m218.52,144.09c-7.46-10-15.16-9.66-15.16-9.66,0,0-4.61,8.75,3.51,19.43"/><path class="cls-4" d="m266.27,145.86c7.34-10,14.91-9.66,14.91-9.66,0,0,4.54,8.75-3.45,19.43"/><path class="cls-4" d="m280.84,167.92c.55,4.08,2.61,19.26-7.05,30.26-9.4,10.69-23.81,10.53-33.05,10.43-9.21-.1-22.5-.25-31.88-10.43-10.9-11.84-8.38-28.45-7.93-31.43.61-4.04,1.37-9.02,4.93-13.81,8.2-11.05,24.14-11.12,35.02-11.16,11.12-.05,26.01-.11,34.28,10.28,4.24,5.33,5.04,11.21,5.68,15.86Z"/><ellipse class="cls-5" cx="267.92" cy="187.31" rx="5.43" ry="2.79"/><ellipse class="cls-5" cx="217.68" cy="187.31" rx="5.43" ry="2.79"/><path class="cls-1" d="m238.98,181.58h7.24c.05.37.18,1.59-.77,2.84-.97,1.27-2.42,1.74-2.84,1.86-.47-.16-1.8-.65-2.74-1.86-.96-1.23-.92-2.44-.88-2.84Z"/><path class="cls-3" d="m206.61,176.49c-4.27-.66-9.38-1.07-15.1-.73-2.45.14-4.75.4-6.88.73"/><path class="cls-3" d="m206.54,180.1c-2.91-.36-6.52-.54-10.61-.13-2.45.25-4.67.66-6.6,1.14"/><path class="cls-3" d="m206.19,183.69c-2.34-.05-5.12.08-8.23.59-2.32.38-4.38.91-6.17,1.47"/><path class="cls-3" d="m277.99,177.05c4.27-.66,9.38-1.07,15.1-.73,2.45.14,4.75.4,6.88.73"/><path class="cls-3" d="m278.06,180.66c2.91-.36,6.52-.54,10.61-.13,2.45.25,4.67.66,6.6,1.14"/><path class="cls-3" d="m278.4,184.25c2.34-.05,5.12.08,8.23.59,2.32.38,4.38.91,6.17,1.47"/><path class="cls-2" d="m242.63,185.03l.02,3.98c.72,2.16,2.88,3.45,4.97,3.07,1.82-.33,3.26-1.88,3.53-3.82"/><path class="cls-2" d="m242.65,188.85c-.7,2.14-2.82,3.49-5.02,3.23-2.13-.25-3.84-1.95-4.11-4.11"/><circle class="cls-5" cx="223.79" cy="173.6" r="6.02"/><circle class="cls-6" cx="220.78" cy="176.24" r="1.13"/><circle class="cls-6" cx="225.74" cy="171.35" r="2.26"/><circle class="cls-5" cx="259.85" cy="173.94" r="5.98"/><circle class="cls-6" cx="262.84" cy="176.56" r="1.12"/><circle class="cls-6" cx="257.9" cy="171.7" r="2.24"/></svg>