<?xml version="1.0" encoding="UTF-8"?><svg id="Lag_1" xmlns="http://www.w3.org/2000/svg" width="252.94" height="338.25" xmlns:xlink="http://www.w3.org/1999/xlink" viewBox="0 0 252.94 338.25"><defs><style>.cls-1{clip-path:url(#clippath);}.cls-2{fill:none;}.cls-2,.cls-3,.cls-4{stroke-width:0px;}.cls-4{fill:#fff;}</style><clipPath id="clippath"><polyline class="cls-2" points="-135.71 -43.05 -135.71 310.36 319.27 310.36 319.27 -43.05"/></clipPath></defs><g class="cls-1"><path class="cls-3" d="M207.63,256.58c-.88-.79-1.69-1.51-2.64-2.36-.35.1-.91.27-1.53.45.04.2.08.35.1.5.36,2.39.69,2.84,3.07,3.12.93.11,1.94-.33,2.89-.58.76-.2,1.52-.45,2.25-.75.26-.11.43-.42.63-.65.33-.39.66-.8.99-1.2.7-.84,1.43-1.66,2.09-2.54.47-.63.9-1.3,1.26-2,.43-.85.93-1.72,1.11-2.64.37-1.89.8-3.84.72-5.74-.11-2.67-.59-5.33-1.04-7.98-.31-1.84-.63-3.72-1.3-5.44-.88-2.25-.25-4.34.11-6.5.25-1.46.56-2.91.83-4.37.04-.23.02-.49-.04-.72-.75-2.63-.02-5.01,1.21-7.31.22-.41.34-.88.5-1.32,1,.32,1.23,1.07.57,2.01-1.14,1.62-1.57,3.43-1.53,5.36.02.72.39,1.44.39,2.15-.01,1.63-.15,3.26-.27,4.88-.02.21-.28.39-.34.61-.22.75-.64,1.55-.55,2.27.22,1.74.38,3.6,1.13,5.15,1.46,3.06,1.31,6.32,1.37,9.47.05,2.54.32,5.3-1.03,7.75-.25.46-.31,1.1-.26,1.64.2,2.31-.44,4.19-2.52,5.44-.28.17-.39.63-.55.96-.26.51-.37,1.18-.77,1.52-1.03.88-1.57,1.97-2.15,3.17-.65,1.33-1.79,2.43-2.79,3.56-.19.21-.73.11-1.41.19.3-.46.42-.6.49-.77.11-.29.18-.59.27-.89-.31.07-.7.04-.91.23-.62.55-1.18,1.1-2.32.73.33-.43.59-.77,1.09-1.42-1.18.38-2.08.67-2.98.96-.01-.01-.02-.03-.03-.04-.48.21-.99.39-1.45.65-1.62.91-3.71.49-5.17,1.86-.19.17-.6.14-.91.14-1.83-.05-3.66-.07-5.48-.22-.72-.06-1.46-.37-2.12-.71-.9-.47-1.75-.8-2.83-.82-1.13-.01-2.25-.49-3.37-.78-.23-.06-.43-.23-.66-.3-1.4-.42-2.8-.84-4.2-1.24-.27-.08-.54-.11-.8-.16-.77,1.27-1.58,1.63-3.03,1.25-1.09-.28-2.23-.52-3.19-1.06-.62-.35-1.14-1.15-1.37-1.86-.49-1.45-.75-2.97-1.12-4.51-.68.6-1.42,1.3-2.2,1.93-1.77,1.44-4.78,1.18-6.57-.29-.94-.77-1.1-1.27-.3-2.19.54-.62.98-.68,1.67-.31.34.18.94.32,1.2.15,1.26-.86,2.53-.54,3.94-.16-.43-1.43.25-2.4,1.23-3.27.18-.16.22-.48.32-.73.25-.61.48-1.24.75-1.84.6-1.34,1.88-1.64,2.94-1.13.74.35,1.11,1.52,1.59,2.35.12.21.02.55-.21.67-.45.48-.9.96-1.51,1.61-.17-.05-.61-.18-1.04-.31-.06.05-.19.12-.18.15.6,1.94-.12,4.21,1.41,5.9.52.57,1.1,1.2,1.79,1.49.91.38,1.02-.42.97-1.35,2.4.11,4.72.1,7.01.39.81.1,1.51.99,2.31,1.43.37.2.85.25,1.28.28,1.58.12,2.78-.39,3.92-1.64.56-.62,2-.45,3.05-.61.49-.08.99-.09,1.13-.11.64.43,1.06.74,1.51,1.02.49.3.45,1.67-.14,1.86-.67.22-1.41.21-2.11.32-.65.11-1.28.25-1.92.4-.01,0,.01.4.07.41.73.16,1.48.48,2.19.39,1.47-.18,2.95-.49,4.37-.92,1.72-.52,3.42-1.12,5.06-1.86,1.36-.61,1.53-2.54.31-3.42-.84-.61-1.29-1.24-1.15-2.31.09-.67-.09-1.22-.84-1.67-1.09-.66-2-1.62-2.99-2.46-2.56,2.03-3.68,2.21-5.65.78.07,1.39-.72,1.08-1.53.89-.45-.11-.95-.07-1.42-.05-.82.03-1.64.07-2.46.16-.42.05-.83.2-1.23.34-.33.12-.65.46-.96.44-.46-.02-.92-.28-1.37-.43.28-.36.5-.78.85-1.06.62-.49,1.6-.7,1.31-1.92-.43.03-.8.06-1.55.12.42-.4.6-.62.81-.77.73-.49,1.63-.83,2.18-1.46.64-.73,1.37-.66,2.15-.81.87-.17,1.73-.47,2.54-.84,1.37-.63,2.21-1.87,3.11-3.01.69-.87,1.54-1.15,2.58-.76.89.34,1.37-.02,1.61-.91-.93-.05-1.84-.1-2.74-.15,0-.11,0-.21,0-.32.31-.05.62-.1.73-.12.89-2.34,2.09-4.38,3.53-6.29.11-.14.67-.16.81-.02.31.31.76.84.67,1.13-.58,1.9-.41,4.13-2.24,5.54-.11.08-.21.3-.17.42.39,1.41-.47,1.76-1.83,1.87.36.27.6.37.7.54.17.29.42.67.34.93-.07.24-.5.41-.81.54-.38.16-.78.23-.86.25-.09,1.01-.15,1.72-.21,2.44-.03.32-.07.64-.07.96,0,1.13.61,1.54,1.51.84,1.02-.79,1.48-.25,2.08.45.29.35.74.57,1.06.9.42.44.75.96,1.16,1.42.47.52.85.99.14,1.63-.11.1-.08.51.04.64.12.13.45.17.65.11.3-.09.56-.3.56-.3.1-.67,0-1.3.26-1.49.7-.53,1.32-1.15,2.48-.84,1.6.42,2.33,1.72,3.35,2.73.23.23,0,1.08-.22,1.55-.14.28-.68.36-1.09.56ZM211.47,260.38c-.07-.2-.14-.39-.2-.59-.44.13-.89.26-1.33.39.1.24.19.48.29.71.42-.17.83-.34,1.25-.51Z"/><path class="cls-3" d="M94.23,180.64c.27-.87-2.28-1.04-.42-2.34-.55-.18-.97-.32-1.48-.48-.07.42-.06.75-.19,1.02-.08.18-.36.37-.54.37-.16,0-.37-.25-.45-.43-.2-.46-.34-.96-.49-1.39.45-.26,1.01-.48,1.4-.87.21-.21.14-.71.19-1.08-.33-.04-.66-.12-.98-.12-.23,0-.49.07-.7.19-1.33.77-1.32.78-1.83-.68-.15-.42-.34-.82-.54-1.3-.69.5-1.22.87-1.72,1.26-.39.31-.53,1.22-1.25.7-.94-.67-2.29-1.04-2.34-2.55-.01-.34,0-.68,0-1.26-1.03,1.07-1.95.98-2.95.32-.34-.22-.84-.27-1.27-.28-.9-.02-1.76.02-2.31-.96-.11-.2-.76-.1-1.26-.14.04-.21.1-.51.19-.99-.49.04-.95-.05-1.23.13-1.35.86-2.27.54-2.65-.66-1.1.26-2.03.45-2.94.72-.68.2-1.38.81-1.98.7-2.19-.38-4.21.53-6.31.57-1.2.02-2.22.04-3.41.53-1.17.48-2.73-.07-4.1.05-.95.08-1.87.51-2.82.79-.15-.33-.28-.61-.39-.85-.63.21-1.24.59-1.77.51-.38-.06-.66-.75-.99-1.17-.23.92-.89,1.2-1.92.88-.34-.11-.78.1-1.18.17-.24.05-.56.26-.69.17-1.29-.94-2.05.14-3.01.66-.48.26-1.17.15-1.76.22-.23.02-.53-.03-.69.1-2.35,1.8-5.3,1.79-7.96,2.66-.74.25-1.59.16-2.35.36-.96.25-1.89.64-2.97,1.02-.13-.46-.31-1.13-.59-2.14-.76.39-1.62.64-2.21,1.18-.83.74-1.5,1.67-2.16,2.58-.87,1.2-1.68,2.44-2.48,3.68-.21.33-.33.73-.42,1.12-.16.7.12.95.86.84,1.31-.2,2.64-.52,3.94-.42,2.3.17,4.45.95,6.13,2.65.1.1-.05.46-.11.79,2.27-.58,2.62,1.51,3.49,2.65,1.35,1.77,3.13,2.82,5.08,3.6.58.23,1.44-.23,2.23-.38.07.61,0,1.18.24,1.57.18.31.73.41,1.2.65-.83.65-1.64,1.28-2.4,1.87-.73-.35-1.46-.7-2.41-1.15-.71.38-1.51.12-2.18-.68-.12-.15-.31-.27-.49-.34-2.04-.72-3.04-2.46-4.17-4.11-.51-.75-1.17-1.43-1.85-2.05-.62-.56-1.35-1.01-2.04-1.48-.26-.18-.55-.39-.85-.45-1.31-.26-2.62-.52-3.94-.68-.68-.08-1.39.07-2.08.12-.71.05-1.42.12-2.45.21.55-.85,1.1-1.2.26-1.93-.77-.67-.06-1.36.5-1.47.56-1.31,1.01-2.37,1.48-3.43.1-.21.34-.37.4-.59.14-.45.2-.92.29-1.38-.34.27-.65.57-1.02.79-.85.52-1.71,1.02-2.6,1.47-.13.06-.64-.28-.62-.34.09-.32.22-.71.47-.9.68-.52,1.49-.89,2.14-1.45.89-.76,1.53-.37,2.24.59.6-1.09,1.09-1.97,1.59-2.89.15.12.39.3.77.6.2-.35.44-.61.53-.92.3-1.09,2.12-2.57,3.25-2.66.33-.03.67-.16.97-.31.64-.31,1.06-1.15,1.99-.8.09.03.3-.21.43-.35.72-.82,1.84-1.03,2.51-.67.69-.27,1.16-.5,1.65-.63.82-.22,1.58-.45,1.28-1.75,1.33,1.5,2.79.77,4.16.7.44-1.31,1.66-1.72,3.16-1.08.74-1.07,2.93-1.86,4.26-1.47,2.4.71,4.82.58,7.26.3.44-.05.9.15,1.48.26.38-.4.8-1,1.36-1.41.32-.23.93-.31,1.28-.16.32.14.59.66.65,1.04.03.22-.41.72-.64.72-.32,0-.64-.35-1.16-.68-.12.36-.27.77-.48,1.39-1.1.47-2.48,1.05-3.87,1.64.03.05.07.11.1.16,2.01-.2,4.03-.34,6.04-.6,3.22-.42,6.42-.95,9.64-1.36,1.43-.18,2.9-.32,4.32-.18,1.62.15,3.21.63,4.82.97,1.8.38,3.59.85,5.4,1.14,1.78.28,3.22,1.09,4.39,2.39.89.98,1.42,1.02,2.09-.15.48-.85,1.18-.82,1.45-.13.6,1.5,1.29,1.09,2.26.09.59,1.38,1.07,2.62,1.64,3.83.44.94.95,1.85,1.47,2.74.52.88.61,1.75.08,2.67ZM32.84,171.36c1.14.76,1.85,1,2.54-.03.19-.28.65-.39,1.01-.52.52-.19,1.06-.31,1.59-.48.76-.24,1.51-.53,2.28-.72.8-.2,1.61-.31,2.66-.51-.79-.47-1.29-.78-1.79-1.08-.25.32-.48.9-.86,1.03-1.4.46-2.85.72-4.26,1.14-.99.29-1.93.71-3.16,1.17ZM35.47,172.27c-.12,0-.24,0-.35,0-.06.4-.12.81-.18,1.21.34.03.68.06,1.33.12-.38-.64-.59-.99-.8-1.33ZM27.25,173.95c0-.22-.02-.43-.02-.65h-1.28c0,.26,0,.51,0,.77.43-.04.87-.08,1.3-.12Z"/><path class="cls-3" d="M40.8,196.43c.66.19,1.31.43,1.98.55,1.65.29,3.32.52,4.97.78.15.02.38.05.44.16.8,1.47,1.81.59,2.86.38,1.17-.24,2.41-.17,3.62-.19,1.49-.03,2.94.28,3.97,1.39,1.13,1.22,2.91,1.71,3.61,3.41.26.62.77,1.07-.11,1.58-.15.09-.13.45-.22.82,2.06-.33,3.7-1.71,5.72-1.48.36-.21.79-.69,1.23-.69,2.48-.01,5.02-.67,7.44.27.89.34,1.65,1,2.54,1.88-.49.08-.99.16-1.48.23.18.25.36.5.54.75,1.11-.46,1.63.17,2.07.95.47.84.79,1.84,1.46,2.49,1.06,1.04,2.36,1.85,3.54,2.78.62.48,1.27.94,1.81,1.5.75.78,1.47,1.43,2.7,1.3.76-.08,1.56.26,2.33.22.75-.03,1.5-.3,2.16-.45.58.03,1.12.14,1.63.06.76-.11,1.35-.09,1.99.49.47.43,1.24.55,2.13.9-.53.2-.96.48-1.4.51-2.03.12-4.06.16-6.08.26-.34.02-.68.13-1.01.22-.9.25-1.77.53-2.67-.08-.34-.23-.84-.29-1.27-.3-1.47-.06-2.47-.89-3.54-1.8-.88-.75-2.11-1.07-3.14-1.67-.45-.26-.83-.7-1.15-1.13-.35-.47-.29-1.16-1.19-1.28-.44-.06-.74-.83-.12-1.35.19-.15.42-.27.56-.45.15-.2.2-.46.29-.7-.29-.06-.61-.22-.87-.15-.35.1-.65.37-1.18.7.35-1.17.24-1.41-.92-1.61-1.18-.21-2.19-1.44-3.25-2.25-.18-.14-.28-.37-.26-.35-.65.13-1.12.22-1.6.31-2.33.41-4.66.87-7,1.19-1.14.16-2.42.48-3.19-.89-.1-.18-.43-.21-.6-.37-.8-.75-1.58-1.52-2.38-2.26-.31-.29-.65-.55-1.01-.79-.16-.11-.46-.07-.56-.2-1.18-1.55-2.9-1.11-4.46-1.23-2.82-.2-5.66-.22-8.44-.64-.97-.15-2.38-.46-2.74-1.8-.18-.67-.1-1.41-.14-2.12.13.06.26.11.39.17ZM75.8,204.75l-.43.3c-.06.82.09,1.58.97,1.92.15.06.68-.45.66-.47-.37-.6-.79-1.17-1.2-1.75ZM80.46,212.59c.5-.31.97-.58,1.41-.89.04-.03-.13-.47-.15-.46-.53.1-1.07.19-1.57.38-.11.04-.17.45-.12.66.03.14.3.22.43.32Z"/><path class="cls-3" d="M140.54,231.14c-.57.46-1.14.92-1.73,1.37-.12.09-.36.09-.43.2-.91,1.5-2.55,1.38-3.91,1.52-1.84.19-3.75.85-5.58-.11-.11-.06-.25-.13-.35-.1-2.5.7-4.14-1.12-6.07-2.07-.45-.22-.82-.65-1.16-1.04-.76-.88-1.62-1.71-2.17-2.71-.57-1.05-.81-2.28-1.17-3.36,1.14-.84,1.39.3,1.95.65l.31-.25c-.43-.7-.86-1.4-1.41-2.3-.55.66-.9,1.07-1.39,1.66-.19-.57-.42-.98-.47-1.42-.16-1.26.52-2.8-1.4-3.41-.46-.15-.72-.88-1.08-1.33-.85-1.08-2.2-1.04-3.33-1.48-1.23-.48-2.13-2.44-1.59-4.06.54.41,1.17.67,1.42,1.13.35.65.76.9,1.46,1.04.68.14,1.31.55,1.98.84v1.39c.25-.37.4-.51.45-.67.26-.89.74-.84,1.33-.32,1.44,1.28,2.93,2.52,3.51,4.48.09.3.3.57.43.8,1.78.14,3.51.28,5.39.43-.22.45-.34.71-.59,1.25.72-.25,1.18-.43,1.64-.57,1.23-.39,2.43-.44,3.65.17.58.29,1.28.52,1.9-.15.25-.27.72-.34,1.08-.53,1.62-.87,1.93-.77,2.79.99-.45.18-.9.36-1.35.53,0,.11,0,.22,0,.33.54.08,1.08.16,1.7.26.14.53.84,1.26-.81,1.49.68.42,1.13.7,1.75,1.09-.67,0-1.17.06-1.66,0-2.65-.38-5.33-.39-7.99-.95-1.78-.38-3.63-.39-5.35-1.16-.31-.14-.84.22-1.27.34.2.41.33.86.6,1.22.56.74,1.17,1.45,1.8,2.14.95,1.05,2.1,1.7,3.55,1.84,2.64.26,5.26.66,7.91.87,1.1.09,2.22-.15,3.33-.29.67-.08,1.33-.26,1.99-.39.11.22.23.45.34.67Z"/><path class="cls-3" d="M182.33,183.26c-.98.05-1.35-.46-1-1.63.22-.73.56-1.26-.15-2.02-.62-.68.38-2.63,1.03-2.32.68.33,1.38.97,1.67,1.65.69,1.57,1.33,3.21,1.61,4.88.19,1.12,1.37,2.44-.14,3.59-.16.12.08.76.13,1.15.45-.19,1.28-.36,1.3-.58.08-1.13,1.06-1.58,1.56-2.38.08-.13.18-.31.3-.33,1.94-.28,2.49-1.94,3.22-3.33,1.05-2.02,1.95-4.11,2.85-6.04,1.3,2.43,1.31,2.43.84,3.56-.25.59-.58,1.15-.83,1.74-.69,1.69-.53,1.93,1.22,1.79.71-.06,1.4-.28,2.11-.36.54-.06,1.09-.01,2.02-.01-.41-.34-.58-.57-.8-.64-.49-.17-1.43-.23-1.45-.41-.06-.71.04-1.49.28-2.17.37-1.04.92-2.03,1.31-2.89.35.32.85.77,1.33,1.19,1.21-.33,1.66-1.16,1.94-2.2.24-.9.19-2.05,1.23-2.08-.16-.99-.3-1.89-.45-2.78-.11-.66-.12-1.37-.38-1.97-.64-1.45-1.43-2.83-2.12-4.26-.16-.32-.15-.73-.21-1.09.12-.09.24-.18.35-.27.54.45,1.24.81,1.6,1.38,2.12,3.29,2.45,6.9,1.75,10.74-1.3.04-1.75.74-1.37,1.88.29.87-.18,1.38-.58,2.04-.52.86-.8,1.87-1.18,2.81-.02.04-.02.08-.05.11-.64.72-1.52,1.35-1.86,2.19-.32.78-.07,1.79-.07,2.66-1.32.51-1.67-.48-2.26-1.09-.45-.47-.97-.86-1.46-1.29-.1.08-.2.17-.31.25.02.34.05.68.06.81-2.05,1.71-4.02,3.33-5.95,4.99-.26.22-.35.65-.48.99-.17.45-.17,1.03-.47,1.36-1.1,1.21-.73,2.57-.27,3.76.45,1.16-.53,1.48-.86,2.16-.06.14-.79.07-1.15-.07-.84-.33-1.12-1.26-.74-1.8.86-1.22,0-2.42.25-3.62.18-.87.09-1.79.1-2.69,0-.34-.05-.68-.08-1.01l-.38-.18c-.43.57-.85,1.14-1.3,1.7-.19.23-.44.42-.67.63-.23-.26-.54-.48-.66-.78-.21-.51-.29-1.08-.45-1.7,1.58-.83,2.81-2.05,2.27-3.97-.26-.93-1.18-1.68-1.79-2.51-.15.16-.3.31-.45.47v-.02Z"/><path class="cls-3" d="M183.36,70.99c0-1.01-.12-1.93.02-2.8.56-3.33,1.17-6.65,1.86-9.95.1-.46.68-1.05,1.15-1.17,1.84-.48,3.38.11,4.81,1.39,1.15,1.04.84,2.45,1.34,3.64.24.56.52,1.16.96,1.56,1.98,1.8,2.52,4.24,2.4,6.62-.13,2.48.68,4.49,1.97,6.35.73,1.05,1.97,1.75,3.04,2.52.12.08.72-.35.97-.65.22-.26.27-.66.43-1.11,1.05,1.31.9,2.46-.14,2.83.07.33.23.66.19.97-.11.93-.26,1.86-.48,2.77-.19.76-.65,1.48-.76,2.24-.32,2.23-.5,4.49-.8,6.72-.05.38-.41.72-.62,1.08-.17-.39-.53-.81-.48-1.16.39-2.62.05-5.27.71-7.9.65-2.59-.74-4.57-2.83-6.16-1.53-1.16-2.27-2.76-2.38-4.78-.11-2.03-.57-4.05-.96-6.06-.09-.46-.43-1.08-.81-1.24-1.93-.82-1.54-2.67-2.03-4.14-.27-.81-.67-1.61-1.15-2.32-.81-1.18-1.91-1.18-3.03-.45-.22.14-.37.47-.46.74-.3.9-.6,1.81-.82,2.73-.16.65-.22,1.33-.29,2-.15,1.39-.26,2.79-.41,4.18-.08.68-.23,1.35-1.41,1.55Z"/><path class="cls-3" d="M162.76,241.3c-.43.32-.76.56-1.09.81.67.99,2.18-.84,2.46.85.08.46-.27.99-.49,1.68.09.17.49.58.49,1,0,.28-.56.57-.86.85-.38-.47-1.18-1.11-1.07-1.4.69-1.8-1.05-1.65-1.82-2.7v1.83c-.47-.82-.65-1.6-1.12-1.85-.53-.27-1.32-.06-1.9-.06-.17,1.02-.49,1.86-.41,2.65.17,1.57.52,3.13.9,4.67.11.45.3.77.24,1.32-.05.48.83,1.06,1.36,1.68-.25.63-.52,1.59-1.01,2.43-.46.78-1.02.23-1.32-.22-.7-1.05-1.18-2.27-2-3.19-.71-.8-1.8-1.26-2.69-1.9-.28-.2-.47-.53-.7-.8.36-.06.73-.13,1.09-.18.15-.02.31.03.26.03.57-.68,1.05-1.26,1.62-1.95-.3-.37-.8-.84-1.11-1.41-.64-1.17.12-2.18.58-3.17.64-1.36,1.4-2.66,2.2-4.14,1.11-.02,1.86,2.2,3.32.98,1.05.75,2.02,1.44,3.07,2.19Z"/><path class="cls-3" d="M208.78,105.05c.16-.48.31-.96.48-1.43.81-2.35.68-4.55-1.05-6.49-.1-.11-.17-.27-.22-.42-1-3.07-1.87-6.18-3.04-9.19-.47-1.22-1.36-2.28-1.52-3.66-.09-.75-.33-1.47-.51-2.21.17-.08.35-.16.52-.24.48.72.98,1.42,1.44,2.15.19.3.24.7.46.98,1.49,1.92,2.02,4.1,1.87,6.5-.03.49.13,1.08.4,1.48,1.01,1.47,1.03,3.36,2.42,4.77.74.75,1.72,2.2.98,3.75-.08.17.39.69.69.94.26.21.65.25,1.02.38-.14.52-.25.94-.36,1.36.09-.03.19-.07.28-.1.62,1.33,1.31,2.63,1.83,4,.71,1.86,1.34,3.76,1.91,5.67.48,1.61.76,3.27,1.22,4.88,1.36,4.7,1.72,9.48,1.3,14.33-.03.39-.53.74-.81,1.11-.28-.26-.63-.48-.8-.79-.1-.18.13-.52.16-.8.1-1.22.18-2.43.26-3.65,0-.12-.08-.24-.06-.35.7-3.95-.42-7.61-1.68-11.27-.91-2.65-1.63-5.37-2.5-8.03-.41-1.26-.94-2.48-1.46-3.71-.3-.71-.75-.65-1.36-.26-.48.31-1.09.44-1.64.65-.08-.11-.16-.22-.24-.33Z"/><path class="cls-3" d="M191.54,202.88c-1.18.15-1.84-.78-1.54-2.67.33.08.74.05.96.24,1.08.94,2.09,1.97,3.18,2.91.38.33.9.61,1.4.69,1.28.2,2.59.42,3.88.35,1.06-.05,2.08-.64,3.14-.74,2.22-.22,4.47-.44,6.7-.33.9.04,1.86.83,2.6,1.5.79.72,1.37,1.68,1.98,2.58.34.5.61,1.06.8,1.63.2.58-.43,1.11-1.01.84-.42-.19-.8-.53-1.15-.85-1.01-.93-1.98-1.9-3.02-2.8-.3-.26-.79-.4-1.2-.41-1.64-.06-3.25-.09-4.86.59-1.45.61-3.06,1.04-4.62,1.13-1.73.1-3.7.14-5.05-1.1-.96-.89-1.44-2.3-2.18-3.55Z"/><path class="cls-3" d="M173.02,153.65c1.09.2,2.1.29,3.05.57,1.35.38,2.69.82,3.96,1.4.29.13.51,1.24.34,1.39-.41.35-1.14.63-1.65.52-1.25-.28-2.51-.66-3.64-1.25-1.32-.69-2.48-.25-3.58.25-2.14.99-4.16.47-6.05-.45-1.63-.8-3.1-1.94-4.6-3-.4-.29-.61-.84-.92-1.26-.58-.81-1.1-1.67-1.75-2.41-.96-1.08-1.02-1.48-.24-2.68.38-.58.69-1.22.98-1.86.29-.64.66-1.26,1.43-.92.83.37.35,1.01.07,1.53-.93,1.75-.31,3.97,1.38,5.1,1.06.72,2.21,1.38,3.06,2.31,1.21,1.32,2.66,1.42,4.25,1.43.58,0,1.2.11,1.74.32,1.32.51,1.92.23,2.17-.97Z"/><path class="cls-3" d="M143.93,146.03c-2.3-2.63-4.95-2.3-7.68-1.73-.51.11-1.1-.14-1.65-.22.13-.64.06-1.45.43-1.88.68-.8,1.61-1.39,2.45-2.07.17,1.13.65,1.3,1.66.63.58-.39,1.31-1.72,1.53.24,0,.03.04.08.08.09.87.37,1.8.64,2.6,1.13.91.56,1.68.63,2.57.03.08-.06.73.38.74.6.04,1.07.1,2.19-.14,3.22-.16.7-.68,1.49-1.27,1.89-2.07,1.39-4.47,1.52-6.87,1.36-.39-.03-.84-.66-1.05-1.11-.08-.18.37-.82.69-.92.8-.26,1.66-.31,2.48-.48,1.1-.23,2.18-.49,3.42-.77Z"/><path class="cls-3" d="M190.23,47.28c.05-.29.11-.64.21-1.14,1.39.34,2.7,1.04,3.46,2.12,2.23,3.18,4.43,6.41,6.28,9.81,1.89,3.48,3.99,6.96,4.3,11.07.17,2.25.13,4.52.22,6.78.02.51.17,1.02.29,1.53.15.67.42,1.32.46,2,.03.43-.26.88-.4,1.32-.17-.4-.34-.8-.49-1.21-.08-.22-.1-.47-.16-.7-.31-1.14-.79-2.27-.9-3.43-.16-1.84.08-3.72-.13-5.55-.17-1.49-.92-2.9-1.13-4.39-.25-1.83-1.74-2.93-2.33-4.58-.58-1.61-1.87-2.96-2.77-4.47-.34-.57-.51-1.26-.7-1.91-.22-.74-.13-1.63-1.13-1.91-.1-.03-.24-.19-.23-.26.29-1.3-.88-1.44-1.55-2.01-1.11-.94-2.13-1.97-3.29-3.06Z"/><path class="cls-3" d="M212.98,194.19c-.24.64-.47.98-.47,1.32.02,1.4-.53,1.77-1.52,1.15-.25.6-.33,1.41-.72,1.61-.68.35-1.71.49-2.17-.38-.69-1.32-2.05-1.37-3.15-1.79-1.69-.65-3.43-.84-5.3-.21-1.15.39-2.54.12-3.83.07-.67-.03-1.21-1.71-.66-2.16.53-.43,1.22-.84,1.88-.92,1.67-.22,3.36-.31,5.04-.34.67,0,1.55-.22,2.03.8-.46.07-.82.13-1.24.19.46.96,1.41.76,1.78.46,1.43-1.13,2.3.03,3.13.71,1.32,1.08,1.48,1.12,2.95.13.55-.37,1.34-.39,2.24-.63Z"/><path class="cls-3" d="M188.45,218.09c.65.97,1.05,1.99,1.78,2.55.89.68.96,1.36.78,2.3-.08.43.02.91.05,1.36.14,0,.27,0,.41,0,.21-.42.42-.83.64-1.25.12-.05.24-.09.36-.14.21.49.73,1.17.57,1.42-.4.64-1.16,1.11-1.97.58-.7-.46-1.55-.96-1.89-1.66-.93-1.92-2.82-2.24-4.46-2.74-2.04-.62-2.94-2.12-3.84-3.74-.37-.66-.68-1.35-1-2.04-.11-.24-.23-.52-.22-.78.05-1.26.14-2.52.22-3.82,1.07-.35,1.15-.19,1.26.88.11,1.01.28,1.94.19,3-.11,1.19,1.26,2.84,2.95,3.07.46.06.89.34,1.33.54.98.43,1.93,1.09,2.83.45Z"/><path class="cls-3" d="M218.44,154.95c1.77-.12,1.65,1.01,2.06,1.74.58,1.04,1.44,1.93,1.93,3,.7,1.53,1.35,3.12,1.7,4.76.23,1.05-.07,2.24-.26,3.35-.04.22-.61.35-.93.53-.18-.35-.6-.81-.5-1.04.69-1.6.24-2.91-.63-4.31-.73-1.17-1.55-2.48-1.67-3.78-.26-2.84-2.14-4.38-3.96-6.12-1.73-1.65-2.92-3.87-1.55-6.46.11-.21.21-.44.26-.68.4-2.03.79-4.07,1.19-6.11.03-.16.01-.38.11-.46.27-.23.59-.4.89-.59.14.29.46.62.4.85-.41,1.55-.96,3.07-1.35,4.63-.64,2.56-1.54,5.19.68,7.49.44.46.98.85,1.53,1.16.8.45,1.53.84.09,2.04Z"/><path class="cls-3" d="M135.17,208.39c.37-.12.66-.22,1.03-.34-.35.96,0,1.43.91,1.35,1.54-.13,2.68.75,3.87,1.46.28.17.59.89.47,1.04-.34.43-.98,1.06-1.33.96-1.08-.3-2.08-.92-3.12-1.37-.22-.1-.65-.16-.75-.05-.98,1.15-2.33.25-3.47.59-.36.11-1.01-.73-1.33-.98-.65-1.29-1.26-2.39-1.75-3.55-.16-.37.02-.87.04-1.32.32.15.74.21.93.45.39.5.67,1.09.96,1.66.43.81.97,1.02,1.93.29-1.71-1.2-3.11-2.55-2.28-4.73l.52-.15c.12.63.25,1.27.41,2.09.53-.69.97-1.28,1.42-1.87.1.03.21.07.31.1-.09,1.03-.18,2.05-.28,3.23.34-.08.57-.14.89-.22.16.36.35.78.61,1.35Z"/><path class="cls-3" d="M166.46,226.7c.37-.03.68-.05,1.02-.08-.1-.45-.19-.82-.28-1.25.96.44,1.16,1.32.45,2.05-.59.6-.53.9.23,1.2.67.26,1.3.6,1.96.9.14-.11.28-.22.42-.33,1,3.37,1.97,6.76,3.01,10.12.22.71.76,1.33,1,2.04.13.4.1,1.13-.14,1.31-.31.23-1.02.22-1.39.02-1.16-.64-2.03-2.97-1.7-4.29-.93-.15-1.22-.72-.8-1.52.52-.99-.03-1.81-.55-2.41-.5-.58-.7-1-.39-1.69.24-.55.07-1.11-.56-1.01-1.59.24-1.66-1.01-1.91-1.91-.27-.97-.24-2.03-.35-3.14Z"/><path class="cls-3" d="M209.73,177.97c.42.27,1.08.5,1.08.72-.01.49-.29,1.02-.6,1.43-.39.51-.93.9-1.38,1.36-.17.17-.44.41-.41.56.43,2.15-2.07,2.18-2.61,3.62-.05.14-.6.28-.71.18-.25-.22-.58-.68-.49-.88.41-1.02.75-2.15,1.46-2.93,1.26-1.39,2.53-2.73,2.96-4.6.18-.76.04-1.61-.02-2.42-.05-.7-.18-1.4-.3-2.09-.03-.22-.09-.44-.18-.64-.65-1.5-1.59-2.94-.97-4.72.08-.24-.12-.57-.05-.82.06-.26.29-.47.45-.7.24.22.65.42.68.67.21,1.5.21,3.04.53,4.52.21.97.83,1.85,1.26,2.76.44.93,0,3.33-.69,3.97Z"/><path class="cls-3" d="M163.52,135.88c-1.46,1.14-1.95,1.02-2.68-.37-.19-.35-.69-.61-1.11-.76-.71-.25-1.49-.34-2.21-.59-.63-.22-.76-1.68-.16-1.86.4-.12.96.24,1.68.45.73-.31,1.87-.68,2.91-1.25.76-.42,1.39-1.08,2.13-1.67.26.39.67.98,1.06,1.58.74,1.12,1.38,1.08,1.98-.16.19-.39.32-.81.79-1.32.17.54.43,1.08.48,1.63.15,1.58-.75,3.01-2.05,3.37-.87.24-1.58.28-1.7-.97-.07-.72-.44-1.42-1.45-1.04-1.29.5-1.42,1.08-.45,2.11.24.26.48.52.78.85Z"/><path class="cls-3" d="M130.04,145.96c.58.51.96.89,1.38,1.21,1.02.76,2.11,1.43,3.08,2.26.48.41-.27,1.52-1.08,1.4-.75-.11-1.49-.53-2.15-.95-.61-.39-1.06-.29-1.28.27-1.11,2.72-3.36,4.48-5.36,6.45-1.26-1.04-1.31-1.13-.19-2.3,1.63-1.72,3.51-3.24,4.22-5.64.07-.23.29-.45.27-.67-.1-1.12.46-1.78,1.13-2.03Z"/><path class="cls-3" d="M170.96,84.32c-.72-1.02-.15-1.83.48-2.59,2.22-2.67,3.3-5.81,3.92-9.17.44-2.38,1.05-4.73,1.63-7.09.41-1.66.9-3.3,1.38-5.06,1.04.52.88,1.28.72,1.94-.63,2.53-1.37,5.04-1.95,7.58-.5,2.18-.77,4.42-1.31,6.6-.27,1.1-.84,2.16-1.44,3.14-.86,1.43-1.85,2.78-2.81,4.14-.14.2-.43.31-.65.46l.03.03Z"/><path class="cls-3" d="M203.24,116.38c-.29-.64-.55-.96-.55-1.27.04-1.57.19-3.13.21-4.69,0-.51-.4-1.02-.45-1.55-.2-2.36-1.84-3.96-2.91-5.88-.87-1.58-1.41-3.38-.63-5.27.17-.42.03-.96.19-1.4.1-.29.47-.48.72-.72.07.29.19.58.19.87-.02,1.47-.37,2.98.49,4.34,1.09,1.74,2.21,3.46,3.3,5.19.14.23.29.51.28.76-.15,2.82-.32,5.63-.5,8.45-.02.26-.15.51-.35,1.15Z"/><path class="cls-3" d="M155.51,208.72c.03.24.08.7.12,1.09.54-.35.82-.54,1.12-.73-.17-.54-.36-1.14-.56-1.75,1.15-.7,2.26-.54,3.34-.18.23.08.31.57.46.88-.27.11-.56.35-.81.31-.42-.07-.8-.35-1.22-.47-.24-.07-.62-.1-.77.04-.13.12-.11.51-.04.75.36,1.18-.29,2.25-1.59,2.34-.73.05-1.48-.22-2.22-.32-.28-.04-.58,0-.86.03-.18.02-.38.14-.54.1-1.32-.31-2.63-.64-3.95-.96-.14-.03-.37-.13-.42-.07-.79.85-1.33.2-1.49-.42-.2-.78-.08-1.81.98-1.88,1.21-.08,2.45.1,3.65.29,1.62.26,3.22.63,4.79.95Z"/><path class="cls-3" d="M198.78,166.7c1.66,1.36.55,3.4,1.59,4.86-.21.08-.42.17-.63.25-.29-.58-.66-1.14-.83-1.75-.18-.61-.14-1.27-.24-1.9-.02-.15-.27-.39-.38-.37-.18.03-.45.21-.48.37-.08.43-.05.88-.07,1.33-.04.92-.34,1.57-1.49,1.28,1.06,1.58.92,2.1-.64,2.37.25.47.49.92.73,1.37-.15.09-.3.19-.45.28-.26-.47-.74-.93-.75-1.41-.02-.91.18-1.84.36-2.74.3-1.54.75-3.05.92-4.6.07-.65-.4-1.37-.64-2.09.15-.05.48-.16.78-.25.04-.13.09-.21.09-.28.03-.44.05-.88.07-1.32.54.24,1.31.35,1.56.76.45.73.64,1.63.8,2.49.08.41-.17.89-.28,1.37Z"/><path class="cls-3" d="M170.44,165.53c.26-1.89,2.39-2.83,4.21-2.12.37.14.82.16,1.11.39.48.36.99.78,1.24,1.29.15.32-.09,1.2-.27,1.23-.52.09-1.2.05-1.62-.23-1.23-.81-2.33-.53-3.34.26-1,.78-1.99.57-3.14.48-1.27-.1-2.27-.65-3.33-1.13-.45-.21-.81-.62-1.21-.95.07-.18.14-.36.21-.54,1.17.2,2.35.36,3.51.61.88.18,1.74.46,2.63.71Z"/><path class="cls-3" d="M160.36,157.51c-.17-1.77-1.85-2.58-2.59-4.01-.34-.65-1.11-1.06-1.51-1.69-.38-.6-.6-1.33-.73-2.03-.05-.25.31-.77.58-.85.27-.08.77.13.98.38.44.54.69,1.23,1.14,1.76,1.86,2.17,3.76,4.3,5.64,6.45.13.15.21.33.34.57-.24.14-.43.26-.63.38-1.45.91-1.67.87-2.77-.47-.15-.18-.32-.35-.49-.53,0,0,.03.03.03.03Z"/><path class="cls-3" d="M96.38,157c.33.03.67.07,1.05.1-.24-.45-.51-.55-1.77-.76.56-.79,1.01-.95,1.85-.37.99.68,1.85,1.54,2.82,2.25.45.33,1.03.5,1.57.7,1.08.4,2.28.63,2.58,1.69.93.09,1.69.09,2.42.26.3.07.7.52.7.79,0,.35-.29.86-.6,1.01-.44.22-1.2.42-1.49.2-.93-.71-1.96-.51-2.97-.65-.38-.05-.8-.23-1.07-.49-1.11-1.06-2.16-2.19-3.26-3.27-.18-.18-.52-.2-.75-.34-.42-.25-.82-.53-1.23-.8.06-.12.11-.23.17-.35Z"/><path class="cls-3" d="M150.04,134.49c-.44,1.55-.15,1.86,1.37,2.1.82.13,1.58.67,2.65,1.15-.51.64-.95,1.63-1.32,1.6-1.54-.12-3.2-.33-3.46-2.6-.43.36-.64.61-.9.73-.65.3-1.32.72-2.01.76-.9.06-1.28-.89-.68-1.77.61-.89,1.37-1.67,2.14-2.44.93-.93,1.57-.16,2.21.47Z"/><path class="cls-3" d="M97.69,192.19c1.04.79,1.1,1.34-.05,2.48.16.23.33.47.61.86-1.07-.13-1.28-.78-1.56-1.45-.22-.51-.61-.94-.92-1.41-.32.36-.58.78-.96,1.06-.66.5-1.38.91-2.07,1.35-.14-.17-.28-.34-.42-.52.34-.25.72-.45,1.01-.75.73-.77,1.28-1.76,2.13-2.34,2.09-1.45.87-3.6,1.34-5.37.07-.28.18-.59.12-.84-.09-.37-.25-.78-.52-1.03-.59-.55-1.35-.93-1.87-1.53-.54-.63-.07-1.15,1.09-1.38,2.59,3.22,2.23,6.94,2.08,10.87Z"/><path class="cls-3" d="M142.42,220.25c1.5-.01,2.8-1.42,4.12.06.68-1.51,2.16-2.21,3.41-1.66.34.15.54.63.79.94-1.06-.07-1.88-.12-3.05-.19.48.62.68.9.93,1.22.13-.29.23-.52.32-.74.09,0,.19,0,.28-.01.06.28.26.7.15.82-1.19,1.26-2.43,2.46-3.72,3.74-.18-.8-.13-1.53-.47-1.85-.36-.34-1.09-.3-1.66-.39-1.13-.19-1.01-1.06-1.09-1.94Z"/><path class="cls-3" d="M182.31,183.27c.51,1.25.52,2.28-.89,3.06-.69.38-.48,2.79-.01,3.94.28.7.53,1.63.3,2.27-.53,1.46-1.36,2.81-2.11,4.18-.1.18-.45.22-.69.32-.1-.23-.33-.52-.27-.7.45-1.22,1.03-2.4,1.43-3.64.18-.54.31-1.41.02-1.74-1.34-1.52-.68-3.02-.15-4.51.35-.98.51-2.16,1.89-2.4.2-.03.32-.51.48-.79,0,0,0,.01,0,.01Z"/><path class="cls-3" d="M115.29,161.12c-.27.31-.5.65-.81.91-.67.56-1.39,1.07-2.18,1.66.03.07.25.33.24.57-.03.45-.06,1.14-.33,1.29-.53.28-1.24.41-1.66-.39-.52-.99-.28-1.52.79-2.1.21-.11.14-.76.2-1.16-.13-.03-.26-.06-.4-.09-.19.28-.32.66-.58.81-.3.17-.72.14-1.09.2.02-.33-.09-.78.08-.98.69-.82.7-1.26-.48-1.53-1.19-.28-2.33-.74-3.7-1.19.27-.36.58-.76,1.04-1.37.43,1.03.75,1.5,1.74,1.11.51-.2,1.5-.21,1.78.77.02.07.1.18.15.18,1.93-.07,1.56,1.54,1.93,2.61.02.06.11.1.38.33.02-.49.01-.84.07-1.18.11-.7.25-1.32,1.23-.85.48.23,1.05.29,1.57.43l.03-.02Z"/><path class="cls-3" d="M150.9,164.62c-.44-.98-.71-1.79-1.14-2.51-.95-1.6-1.94-3.19-3-4.72-.56-.81-1.37-1.46-1.93-2.27-.22-.32-.1-.88-.14-1.34.36-.03.75-.16,1.07-.06.9.3,1.76.7,2.64,1.07-.03.11-.06.22-.09.33-.22.02-.51-.03-.65.08-.25.22-.47.53-.59.84-.05.13.2.53.31.53,1.36,0,1.99.74,2.34,1.99.19.69.78,1.25,1.14,1.9.68,1.21.82,2.48.05,4.14Z"/><path class="cls-3" d="M76.09,162.32c-2.54,1.14-5.89,1.85-7.45-.13-.28.26-.56.51-.7.64-1.97-.11-3.85-.21-5.9-.33.52-1.43,1.75-1.39,2.53-1.37,2.01.05,4.01.48,6.02.71.37.04.76-.16,1.14-.23,1.48-.28,2.98-.68,4.36.7Z"/><path class="cls-3" d="M138.47,177.2c-1.21-.91-2.47-1.85-3.71-2.81-1.07-.83-1.08-1.25.02-2.44,1.34,1.21,3.11,1.91,3.75,3.89.75,2.33,1.71,4.6,2.52,6.92.11.33-.1.77-.18,1.25-2.14-1.91-2.83-4.12-2.4-6.8Z"/><path class="cls-3" d="M154,157.19c.55-.57,1.01-1.41,1.68-1.63.6-.19,1.45.24,2.12.54.26.11.36.6.65.7.63.24,1.27.47,1.9.71,0,0-.03-.03-.03-.03.3,1.62-1.07.45-1.58,1,.34.42.61,1.02,1.07,1.29,1.04.61,1.31,1.55,1.36,2.6.02.33-.19.87-.43.97-.55.22-.96-.02-1.1-.71-.51-2.52-3.09-4.99-5.67-5.47l.04.03Z"/><path class="cls-3" d="M162.41,183.24h1.15c.03-.09.05-.17.08-.26-.25-.1-.49-.23-.74-.31-.96-.27-1.93-.5-2.88-.79-.57-.18-.93-.17-1.29.43-.47.78-1.33.8-1.73.07-.4-.73-.68-1.53-.94-2.33-.06-.19.15-.47.24-.71.19.1.42.16.58.3.92.83,1.26.78,2.1-.16.17-.19.71-.28.92-.16,1.64.95,3.65,1.49,4.3,3.59.13.42.07.9.1,1.35-.47-.15-.95-.28-1.4-.47-.15-.06-.24-.28-.46-.56Z"/><path class="cls-3" d="M106.66,215.77c-.03-1.22-.02-2.45-.11-3.67-.02-.33-.37-.63-.54-.96-.18-.35-.55-.81-.45-1.07.11-.3.64-.47,1.02-.62.21-.08.49-.04.72,0,.97.2,1.11.67.27,1.44,1.2.13,1.88-.24,2.25-1.28.1-.27.57-.68.72-.62.55.2.64.53.05.93-.11.07.07.64.18.95.35.96.01,1.55-.97,1.6-1.19.06-1.59.72-1.69,1.78-.08.86-.59,1.39-1.48,1.49l.03.03Z"/><path class="cls-3" d="M179.67,205.18c1.28.89,1.22,2.94.02,4.11-.22-.24-.44-.48-.74-.8-.46.45-.92,1.22-1.56.22.28-.33.55-.66.91-1.08-.43-.18-.77-.32-1.23-.51.92-1.7,1.24-3.73,3.43-4.4.78-.24,1.38-.15,1.67.65.08.23-.12.56-.19.84-1.07-.34-1.23,1.11-2.3.98Z"/><path class="cls-3" d="M163.13,218.38c1.2.52,2.45.86,3.82.11.36-.19,1.43.11,1.46.3.09.61.07,1.48-.31,1.86-.53.53-1.42.71-2.16,1.04-.06-.08-.12-.17-.17-.25.12-.24.25-.48.36-.69-.96.2-1.89.39-2.77.58-.5.46-1.02.95-1.54,1.43-.12-.09-.25-.17-.37-.26-.03-.65-.06-1.3-.09-1.85.73-.18,1.26-.31,1.8-.44-.01-.14-.02-.27-.03-.41-.34-.15-.68-.29-1.09-.47.37-.32.72-.62,1.09-.94Z"/><path class="cls-3" d="M140.52,243.51c.34-.39.68-.79.99-1.15,2.07.32,3.86,1.85,6.15,1.18.7-.2,2.11,1.66,1.91,2.41-.08.31-.39.61-.67.78-.13.08-.46-.16-.7-.25-.88-.32-1.75-.63-2.63-.95-.65-.24-1.3-.46-1.94-.72-1.04-.43-2.06-.88-3.09-1.33v.02Z"/><path class="cls-3" d="M170.94,84.29c-.33.93-.55,1.92-1.01,2.78-.53.97-1.28,1.83-1.93,2.74-.14.19-.31.39-.37.6-.14.58-.12,1.23-.37,1.75-.22.47-.7.81-1.11,1.26-.4-1.18-.79-2.34-1.18-3.5.1-.04.2-.09.3-.13.15.26.3.52.46.81.1-.04.26-.06.3-.14.37-.63.69-1.28,1.07-1.89.74-1.18,1.46-2.39,2.32-3.49.32-.4,1.02-.51,1.54-.75,0,0-.03-.03-.03-.03Z"/><path class="cls-3" d="M140.53,243.49c-.74-1.15-1.46-2.32-3.09-2.3-.18,0-.44-.12-.53-.26-.97-1.62-2.72-1.26-4.15-1.74-1.15-.39-2.16-1.15-3.24-1.75.04-.1.07-.2.11-.3,1.43.31,2.86.61,4.29.92.89.19,1.82.3,2.67.61.85.31,1.98.63,2.37,1.3.63,1.09,2.28,1.84,1.55,3.54,0,0,.01-.02.01-.02Z"/><path class="cls-3" d="M176.02,106.22c.1,1.6.08,3.15.35,4.64.13.71.71,1.44,1.27,1.96,1.04.95,1.12,1.2.03,2.34-1.39-.95-2.53-2.04-2.55-3.91,0-.16.03-.38-.06-.47-.84-.91-.33-1.96-.42-2.97-.09-1.15.21-1.69,1.38-1.58Z"/><path class="cls-3" d="M203.41,117.77c-.03.41.06.87-.11,1.21-.71,1.52-.49,3.07-.3,4.64.16,1.27.17,2.5-.92,3.44-.18.16-.35.43-.55.46-.56.06-1.12.03-1.69.03.18-.51.24-1.34.57-1.46,2.26-.84,1.05-2.72,1.34-4.13.24-1.19.3-2.42.53-3.62.05-.27.49-.47.75-.7.12.05.25.09.37.14Z"/><path class="cls-3" d="M162.43,160.01c1.32-.49,2.38-.94,3.48-1.27.94-.29,1.8-.23,1.77,1.36,1.02-1.23,1.81-.29,2.65-.08.16.04.39.4.34.52-.09.21-.39.52-.54.49-1.54-.3-3.04.25-4.56.14-.75-.06-1.51-.24-2.24-.44-.29-.08-.51-.39-.91-.72Z"/><path class="cls-3" d="M137.7,165.76c.24.65.69,1.3.67,1.94-.03.85-.07,1.47.85,1.35.07,1.1.13,2.1.2,3.25.33-.02.71-.04,1.09-.06-.03.11-.07.21-.1.32.92.38,1.84.75,2.77,1.13-.01.11-.03.23-.04.34-.78-.13-1.77-.94-2.02,1.03-.61-.74-.92-1.15-1.27-1.53-.21-.22-.53-.36-.69-.6-.31-.47-.59-.96-.79-1.48-.22-.59-.13-1.42-.52-1.78-1.21-1.15-1.25-2.35-.56-3.72.14-.06.29-.12.43-.17Z"/><path class="cls-3" d="M96.17,166.1c1.15.58,1.23,1.46.46,2.5.53.5.99.98,1.5,1.41.34.28.75.49,1.21.77-.24.11-.51.23-.76.35.28.36.55.73.83,1.1-.6.26-1.17.63-1.8.74-.24.04-.63-.48-.87-.8-1.42-1.9-1.02-3.98-.56-6.07Z"/><path class="cls-3" d="M118.2,171.78c-.49-1.85-.99-3.7-1.52-5.7.28-.1.71-.27,1.15-.41.89-.28,1.24.14,1.38.99.14.84.31,1.71.64,2.48.33.76.4,1.26-.45,1.67-.31.15-.5.56-.74.86l-.46.11Z"/><path class="cls-3" d="M149.25,188.27c.32.63.64,1.27.96,1.9.04.07.06.19.11.21,1.12.31,2.24.64,3.38.88.55.12,1.14.07,1.71.1.2.77-.13,1.1-.82,1.33-2.56.83-4.23-.19-5.67-2.23-.35-.49-.05-1.43-.05-2.17.13,0,.25-.01.38-.02Z"/><path class="cls-3" d="M141.71,223.82c.09-.45.54-.66,1.25-.35.37.16.8.23,1.12.46.27.2.41.56.61.85-.31.18-.6.47-.92.52-.41.06-.85-.08-1.62-.18.44.42.63.6.82.78-.07.1-.11.17-.15.23-1.49-1.11-2.76.64-4.18.32-.3-.07-.58-.28-.86-.43.2-.2.39-.42.61-.59.43-.34.86-.72,1.34-.96.56-.27,1.19-.41,1.98-.67Z"/><path class="cls-3" d="M144.11,159c-.84.39-1.62.88-2.23-.07-.17-.26-.23-.73-.11-.99.12-.25.55-.49.84-.48,1.21.02,2.26.38,2.7,1.68.05.15.31.23.44.37.87.95,1.84,1.84,1.32,3.37-.1.29.19.72.08,1.32-.23-.22-.57-.41-.67-.68-.48-1.37-.5-2.98-2.14-3.69-.15-.06-.15-.47-.24-.81Z"/><path class="cls-3" d="M126.36,163.01c.14.41.44.84.4,1.23-.23,2.35,1,3.74,3.35,4.89-.96.36-1.66.85-2.32.81-.93-.06-1.63-.79-1.72-1.76-.15-1.67-.18-3.35-.26-5.02.18-.05.37-.1.55-.14Z"/><path class="cls-3" d="M139.37,161.13c-.09-1.11-.15-1.96-.22-2.74-.74-.08-1.35-.14-1.89-.19.1-1.36.15-2.57.31-3.76.04-.29.43-.53.65-.79.18.33.39.65.54,1,.42.98-.07,2.28,1.12,3.01.88.55.72,1.99-.52,3.47Z"/><path class="cls-3" d="M163.63,124.98c-1.59.09-1.88-.25-2.14-1.51-.43-2.07-.15-4.11-.04-6.16.03-.54.4-1.06.61-1.59.17.03.35.05.52.08.07.38.29.81.19,1.13-.83,2.53-.75,4.95.63,7.28.12.2.14.45.23.77Z"/><path class="cls-3" d="M194.89,129.22c-2.19,1.04-4.31.87-5.2-.38,1.93-2.85,3.59-1.97,5.2.38Z"/><path class="cls-3" d="M175.3,159.42c-.8.87-1.65,1.09-2.41-.25.21-.18.43-.36.84-.71-.79-.24-1.39-.42-2.29-.69,1.17-.48,1.97-.73,2.72.19.17.21.6.22.91.3.65.16,1.39.16,1.93.5.34.21.62,1.04.46,1.36-.18.38-.95.77-1.33.66-.36-.1-.54-.83-.83-1.36Z"/><path class="cls-3" d="M151.3,145.48c-.57-.6-.97-.93-1.25-1.34-.47-.69-.57-1.44.07-2.08.56-.57,1.18-1.07,1.83-1.65.34.41.65.79,1.02,1.24-.39.44-.6,1.31-1.6.72-.13-.08-.41.12-.63.18.09.23.12.56.29.68.64.47,1.35.85,1.99,1.32.35.27.61.67,1.11,1.24-1.32-.14-2.28-.25-2.84-.31Z"/><path class="cls-3" d="M58.37,164.15c-.03.27,0,.57-.11.79-.19.33-.5.61-.75.91-.22-.35-.66-.73-.61-1.03.09-.51-.11-1.22.83-1.45.85-.21,1.56-.9,2.4-1.22.24-.09.85.28,1,.58.34.68.36,1.49-.47,1.86-.73.33-1.57.53-2.28-.43Z"/><path class="cls-3" d="M147.81,188.79c-.68-1.02-1.36-2.05-2.12-3.18.02-.02.12-.12.25-.18.12-.06.26-.07.39-.11-.01-.13-.03-.26-.04-.39-.52.03-1.03.06-1.82.11-.1-.27-.3-.83-.51-1.41.73,0,1.29-.03,1.83.01.25.02.69.19.7.31.07.96.83,1.1,1.45,1.55.44.32.43,1.3.52,2,.04.32-.17.68-.27,1.02l-.36.25Z"/><path class="cls-3" d="M166.25,96.69c-.21,1.08-.34,1.9-.52,2.71-.37,1.69-.74,3.38-1.19,5.05-.07.26-.52.42-.79.63-.13-.34-.42-.71-.36-1,.49-2.25,1.02-4.5,1.6-6.73.1-.39.53-.69.81-1.03.21.18.41.35.44.38Z"/><path class="cls-3" d="M179.05,115.02c.36.17.86.24,1.06.52.52.73.86,1.58,1.35,2.33.62.97,1.31,1.9,1.97,2.84-1.22,1.01-1.29,1-1.9-.28-.16-.32-.31-.68-.56-.92-.86-.79-1.52-1.62-1.53-2.88,0-.39-.35-.78-.55-1.17.05-.15.1-.29.16-.44Z"/><path class="cls-3" d="M176.14,104.6c-1.27.1-1.64-.55-1.84-1.31-.24-.93-.48-1.89-.53-2.84-.02-.45.4-.93.62-1.39.34.32.9.59.99.97.33,1.47.51,2.98.77,4.57Z"/><path class="cls-3" d="M158.15,137.67c1.21.38,1.41.97,1.19,1.87-.47,1.99-2.25,2.77-3.93,1.69-.49-.32-.98-.64-1.64-1.08,1.19-.37,2.11-1,3.07.03.15.16.72.21.83.08.32-.37.59-.83.71-1.29.08-.33-.11-.73-.22-1.29Z"/><path class="cls-3" d="M220.71,191.78c0-.39-.1-.82.02-1.17.39-1.13.86-2.23,1.3-3.35.09-.22.31-.55.23-.65-1.05-1.39.07-2.5.35-3.81.96.3,1.19.98.98,1.71-.41,1.37-.96,2.7-1.44,4.05-.38,1.07-.73,2.14-1.09,3.22-.12,0-.24,0-.35,0Z"/><path class="cls-3" d="M149.17,132.73c.6-.31,1.16-.76,1.79-.91,1.55-.37,3.06-.05,4.49.6.18.08.28.32.42.49-.25.15-.5.43-.75.43-.87,0-1.75-.14-2.62-.15-.56,0-1.11.17-1.67.18-.5,0-1.01-.1-1.51-.16-.05-.16-.11-.32-.16-.48Z"/><path class="cls-3" d="M102.07,210.18c-.03.61-.14,1.04-.06,1.42.32,1.61-.45,2.83-1.46,3.88-.29.3-1.01.19-1.57.28.48-.66.98-1.08,1.1-1.59.15-.58.15-1.35-.12-1.86-.34-.63-.09-.9.33-1.16.55-.35,1.14-.63,1.79-.98Z"/><path class="cls-3" d="M107.08,169.85c-.18-.36-.51-.72-.53-1.09-.05-1.45-.99-2.9-.07-4.36.19-.31.41-.6.61-.89.1.06.2.13.3.19-.12.28-.25.55-.44.97.48-.03.82-.06,1.31-.09-.05.93-.09,1.77-.13,2.69-.3.03-.64.05-.99.08-.03.09-.07.18-.1.27.32.23.64.46.98.7-.33.52-.66,1.05-.99,1.57l.03-.04Z"/><path class="cls-3" d="M115.26,161.15c1.72.11,2.65,1.15,2.95,3.29-.48.25-.97.5-1.55.8-.28-.31-.54-.66-.87-.94-.33-.28-.71-.5-1.12-.78.68-.71,1.34-1.4.62-2.41,0,0-.03.03-.03.03Z"/><path class="cls-3" d="M69.36,194.99c1.3.87,2.6,1.75,4.26,2.86-.91.55-1.46,1.14-2.05,1.19-.84.06-1.25-.65-1.5-1.47-.24-.78-.68-1.49-1.04-2.23.11-.11.22-.23.33-.34Z"/><path class="cls-3" d="M179.34,59.76c-.57-1.04-.33-3.45.03-4.02.3-.46.5-1.01.61-1.54.22-1.02.26-2.12,1.91-2.32-.57,1.55-1.12,2.96-1.6,4.39-.15.44-.03.96-.15,1.41-.17.63-.46,1.22-.79,2.08Z"/><path class="cls-3" d="M219.1,199.49c2.84,1.83,1.54,4.29,1.68,6.42.02.33-.45.7-.7,1.04-.15-.06-.29-.11-.44-.17.12-.82.32-1.65.33-2.47,0-.68-.2-1.36-.33-2.04-.16-.85-.33-1.7-.55-2.78Z"/><path class="cls-3" d="M132.87,184.19c-.54-.65-1.11-1.27-1.6-1.96-.46-.65-.84-1.36-1.36-2.21.33-.15.92-.44,1.73-.82.61,1.54,1.22,3.1,1.83,4.65-.2.11-.4.23-.59.34Z"/><path class="cls-3" d="M128.38,200.1c.07-1.26.07-2.44.25-3.6.04-.27.76-.66,1.1-.6.34.06.91.73.83.94-.39,1.1-.94,2.14-1.46,3.18-.04.07-.29.04-.72.07Z"/><path class="cls-3" d="M221.82,174.54c-.71,0-1.13-.49-.89-1.15.56-1.53.36-3.45,2.52-4.59-.58,2.04-1.08,3.82-1.63,5.74Z"/><path class="cls-3" d="M187.97,45.27c.32.17.64.34.97.51-.27.29-.48.71-.81.84-1.15.45-2.34.82-3.52,1.18-.15.04-.42-.05-.5-.17-.07-.11-.03-.43.08-.51,1.13-.8,2.16-1.85,3.78-1.86Z"/><path class="cls-3" d="M194.28,130.46c.65-.06,1.32-.23,1.95-.16.85.09,1.67.43,2.23-.57.06-.12.48-.16.62-.07.14.08.24.46.17.6-.47.87-.94,1.81-2.2,1.55-.96-.2-1.9-.47-2.85-.72.02-.21.05-.42.07-.63Z"/><path class="cls-3" d="M185.01,128.95c.3.4.64.77.89,1.2.2.32.29.71.43,1.06-.37-.02-.8.08-1.09-.07-1.18-.63-1.46-1.85-1.71-3.02-.04-.19.39-.67.63-.69.32-.03.75.19.98.44.17.19.1.61.14.92-.09.06-.18.11-.26.17Z"/><path class="cls-3" d="M160.01,192.37c-.09-.79-1.22-1.76.5-2.27.17-.05.18-.58.28-.87.21-.58.43-1.16.64-1.74.19.03.37.06.56.1-.06.57-.05,1.16-.18,1.72-.17.73-.41,1.46-.7,2.16-.16.4-.47.74-.71,1.11-.13-.07-.27-.13-.4-.2Z"/><path class="cls-3" d="M170.91,186.06c-.29.9-.32,1.73-1.34,1.7-1.02-.03-1.13-1.06-1.03-1.62.09-.55.84-.98,1.3-1.46.36.46.71.92,1.07,1.38Z"/><path class="cls-3" d="M220.6,192.95c1.29,1.38.72,2.65.61,3.8-.03.32-.67.58-1.03.87-.15-.09-.29-.17-.44-.26.27-1.36.53-2.72.86-4.41Z"/><path class="cls-3" d="M131.98,155.8c-.15.1-.68.53-.72.49-.56-.61-1.11-1.25-1.54-1.95-.07-.11.41-.81.67-.83.73-.05,1.61,1.12,1.59,2.29Z"/><path class="cls-3" d="M184.89,126.37c-.32-.46-.72-.88-.95-1.39-.31-.68-.53-1.41-.72-2.14-.07-.25.05-.55.09-.82.3.09.62.14.9.27.12.05.17.27.22.42.29.84.6,1.69.85,2.54.08.28.01.61.01.91-.13.07-.26.14-.4.21Z"/><path class="cls-3" d="M168.96,296.75c.42.38.84.62,1.03.98.22.4.25.91.37,1.37-.49.04-1.07.26-1.44.07-.34-.18-.6-.79-.61-1.22,0-.38.39-.76.64-1.2Z"/><path class="cls-3" d="M163.21,109.78c-.97-.79-.61-1.9-.59-2.92,0-.14.41-.39.63-.38.21,0,.59.28.59.43,0,.95-.07,1.91-.13,2.86h-.5Z"/><path class="cls-3" d="M163.11,145.54c.59-.46,1.18-.91,1.77-1.37.15.21.42.43.41.64-.02.57-.16,1.13-.25,1.69-.61-.17-1.22-.34-1.84-.51-.03-.15-.06-.3-.1-.45Z"/><path class="cls-3" d="M189.03,130.32c-.71.28-1.31.51-2.05.8-.12-.57-.24-1.13-.35-1.68,1.4-.76,2.13-.48,2.4.88Z"/><path class="cls-3" d="M162.8,126.42c.42-.16.77-.29,1.13-.43q.6.64.54,2.71c-.93.05-1.35-.51-1.67-2.29Z"/><path class="cls-3" d="M159.95,169.67c-.64-.28-1.34-.46-1.85-.86-.48-.38-.77-1.01-1.01-1.62,1.35.49,2.96.64,2.87,2.49Z"/><path class="cls-3" d="M174.8,90.09c-.71-.51-.97-1.77-.38-2.22.32-.25.87-.19,1.32-.27,0,.37.11.8-.02,1.11-.22.5-.6.92-.91,1.38Z"/><path class="cls-3" d="M111.77,168.23h1.77c.78,1.71.68,2.35-.54,3.12-.1-.06-.2-.12-.29-.19.26-.37.53-.74.75-1.06-.54-.6-1.08-1.2-1.68-1.87Z"/><path class="cls-3" d="M158.07,183.54c.25.37.57.72.73,1.13.21.53.28,1.1.45,1.77-.74.42-1.37.12-1.39-.98,0-.28.02-.56-.01-.83-.03-.26-.13-.51-.2-.77.14-.11.28-.21.43-.32Z"/><path class="cls-3" d="M217.42,137.12c-.71-.9-.54-1.76-.1-2.57.09-.17.69-.28.87-.15.21.15.35.65.26.88-.24.61-.63,1.16-1.03,1.84Z"/><path class="cls-3" d="M212.1,192.75c.93-2.49,1.05-2.61,2.12-2.33-.35.81-.71,1.65-1.12,2.61-.11-.03-.51-.14-1-.28Z"/><path class="cls-3" d="M182.57,175.58c-.59.52-1,.92-1.46,1.24-.05.03-.6-.45-.57-.53.27-.61.64-1.18.98-1.77.27.28.55.55,1.05,1.06Z"/><path class="cls-3" d="M85.93,160.42c.22.34.51.8.82,1.28-1.27,1.01-1.96.1-2.77-.57.6-.22,1.15-.42,1.95-.71Z"/><path class="cls-3" d="M107.05,169.89c.61-.51.99-.03,1.24.4.12.21.03.77-.15.9-.39.26-.9.33-1.36.48-.07-.32-.22-.66-.17-.97.05-.3.31-.56.48-.84,0,0-.03.04-.03.04Z"/><path class="cls-3" d="M153.97,157.15c.07.88.46,1.82-.5,2.52-1.23-1.64-1.08-2.27.54-2.48,0,0-.04-.04-.04-.04Z"/><path class="cls-3" d="M152.31,218.22c-.53.27-.9.59-1.06.51-.4-.22-.71-.61-1.06-.94.3-.26.71-.78.87-.71.41.18.71.62,1.25,1.14Z"/><path class="cls-3" d="M134.1,159.54c.12.59.23,1.18.37,1.87.41-.16.73-.29,1.06-.42.09.11.17.23.26.34-.36.27-.84.85-1.05.77-1.17-.46-1.1-1.48-.95-2.48.11-.03.21-.05.32-.08Z"/><path class="cls-3" d="M110.95,208.09c.79-.66,1.57-1.32,2.44-2.05-.03.33.11,1.05-.18,1.34-.53.53-1.31.82-1.99,1.21-.09-.17-.18-.33-.27-.5Z"/><path class="cls-3" d="M151.23,171.95c.26.41.66.79.73,1.23.04.25-.46.58-.72.88-.23-.28-.62-.53-.66-.84-.06-.38.16-.81.26-1.22l.39-.05Z"/><path class="cls-3" d="M94.66,190.53c-.35-1.21-.61-2.1-.86-2.98.16-.07.32-.14.48-.21.35.76.74,1.5,1.02,2.29.05.15-.31.45-.64.91Z"/><path class="cls-3" d="M103.35,165.6c0,.92.03,1.59-.04,2.25,0,.07-.6.08-.92.11.19-.72-.22-1.66.97-2.36Z"/><path class="cls-3" d="M140.97,162.63c1.03.45,1.83.81,2.69,1.19-1.21.97-1.76.74-2.69-1.19Z"/><path class="cls-3" d="M148.93,183.64c-1.74,0-1.05-1.13-1.39-1.65.3-.14.6-.28.9-.42.15.64.31,1.27.5,2.07Z"/><path class="cls-3" d="M222.72,179.62c.32.66.64,1.33.95,1.99-.15.14-.29.27-.44.41-.37-.26-.96-.46-1.07-.81-.13-.4.15-.94.25-1.42.1-.05.2-.11.3-.16Z"/><path class="cls-3" d="M169.2,172.85c.35-.58.58-.97.81-1.37.21.48.53.94.59,1.44.03.24-.43.53-.66.8-.22-.26-.44-.52-.74-.87Z"/><path class="cls-3" d="M106.64,215.73c-1.37,1.26-2.83,1.38-3.2.31.57,0,1.18.08,1.74-.04.23-.05.37-.53.58-.86.26.18.58.4.9.62,0,0-.03-.03-.03-.03Z"/><path class="cls-3" d="M145.53,138.88c.23.89.41,1.57.62,2.39-1.66-.41-1.85-1.05-.62-2.39Z"/><path class="cls-3" d="M153.76,163.49c-.27-.67-.54-1.33-.89-2.21.41.06,1.14.07,1.16.19.11.68.05,1.4.05,2.1-.11-.03-.22-.05-.33-.08Z"/><path class="cls-3" d="M136.57,221.04c.42.4.85.81,1.27,1.21-.05.14-.1.28-.14.42-.49-.12-1.06-.13-1.44-.4-.21-.15-.12-.73-.16-1.11.16-.04.32-.07.48-.11Z"/><path class="cls-3" d="M181.12,251.94c-.38.68-.75,1.35-1.2,2.16-.11-.06-.44-.23-1.01-.53.7-.72,1.29-1.33,1.88-1.94l.32.31Z"/><path class="cls-3" d="M29.75,168.98c.69-1.5,1.29-1.52,1.93-.22-.7.08-1.32.15-1.93.22Z"/><path class="cls-3" d="M31.73,162.91c-.41.47-.79.99-1.27,1.38-.09.07-.59-.37-.78-.49.7-.46,1.23-.81,1.76-1.15.1.09.2.18.3.27Z"/><path class="cls-3" d="M89.92,195.13c.09.07.4.3.81.61-.75.35-1.38.64-2.1.98-.06-.42-.1-.76-.13-.96.46-.2.86-.38,1.42-.63Z"/><path class="cls-3" d="M184,48.3c-.66.61-.88,1.62-2.08,1.02.53-.66.78-1.56,2.08-1.02Z"/><path class="cls-3" d="M176.02,167.47q1.03.28.27,2.48c-.11-.96-.18-1.65-.27-2.48Z"/><path class="cls-3" d="M208.05,161.3c.45.65.75,1.08,1.05,1.52-.22.09-.47.29-.66.24-.75-.18-.89-.67-.39-1.76Z"/><path class="cls-3" d="M39.02,191.23c-1.57.45-2.09.17-1.96-.91.58.27,1.13.52,1.96.91Z"/><path class="cls-3" d="M209.16,164.57c-.33.23-.64.55-1.01.64-.18.04-.46-.35-.69-.55.44-.22.88-.43,1.32-.65.13.19.26.37.38.56Z"/><path class="cls-3" d="M76.19,161c.39.16.8.3,1.16.52.06.03-.08.41-.13.62-.42-.18-.85-.36-1.27-.54.08-.2.16-.4.24-.6Z"/><path class="cls-3" d="M135.15,165.4c.33-.34.63-.73,1.02-.97.1-.06.5.35.9.65-.71.26-1.16.42-1.6.59-.1-.09-.21-.18-.31-.27Z"/><path class="cls-3" d="M150.97,166.86c.4.35.79.7,1.27,1.12-1.32.65-1.27-.3-1.27-1.12Z"/><path class="cls-4" d="M211.47,260.38c-.42.17-.83.34-1.25.51-.1-.24-.19-.48-.29-.71.44-.13.89-.26,1.33-.39.07.2.14.39.2.59Z"/><path class="cls-4" d="M32.84,171.36c1.23-.46,2.18-.88,3.16-1.17,1.41-.41,2.87-.68,4.26-1.14.38-.13.61-.71.86-1.03.5.3,1,.6,1.79,1.08-1.05.19-1.87.31-2.66.51-.77.19-1.52.48-2.28.72-.53.17-1.07.29-1.59.48-.36.13-.82.25-1.01.52-.69,1.03-1.4.79-2.54.03Z"/><path class="cls-4" d="M35.47,172.27c.21.35.42.7.8,1.33-.65-.06-.99-.09-1.33-.12.06-.4.12-.81.18-1.21.12,0,.24,0,.35,0Z"/><path class="cls-4" d="M27.25,173.95c-.43.04-.87.08-1.3.12,0-.26,0-.51,0-.77h1.28c0,.22.02.43.02.65Z"/><path class="cls-4" d="M75.8,204.75c.41.58.83,1.15,1.2,1.75.01.02-.52.53-.66.47-.88-.34-1.03-1.1-.97-1.92l.43-.3Z"/><path class="cls-4" d="M80.46,212.59c-.14-.09-.4-.18-.43-.32-.05-.21,0-.61.12-.66.5-.19,1.04-.29,1.57-.38.03,0,.2.43.15.46-.44.31-.91.58-1.41.89Z"/></g></svg>